# Blender 5.0.0
# www.blender.org
mtllib Arkham_Knight_Looking.mtl
o Roundcube
v 0.540648 -0.524622 -0.715261
v 0.460950 -0.574167 -0.935789
v 0.332738 -0.617877 -1.461107
v 0.172338 -1.068884 -2.074686
v 0.000000 -1.182658 -2.195773
v -0.172338 -1.068884 -2.074686
v -0.332738 -0.617877 -1.461107
v -0.460950 -0.574167 -0.935789
v 0.572916 -0.268918 -1.119677
v 0.486723 -0.287133 -1.510967
v 0.337951 -0.084457 -1.663014
v 0.245869 0.098167 -1.526679
v 0.000000 0.179343 -1.592602
v -0.245869 0.098167 -1.526679
v -0.337951 -0.084456 -1.663014
v -0.486723 -0.287133 -1.510967
v 0.646545 -0.026745 -0.986997
v 0.608392 0.017411 -1.222949
v 0.494107 0.292375 -1.224140
v 0.205037 0.570401 -1.331082
v 0.000000 0.686418 -1.315069
v -0.205037 0.570401 -1.331082
v -0.494107 0.292375 -1.224140
v -0.608392 0.017411 -1.222949
v 0.818260 0.227867 -0.842019
v 0.704875 0.239462 -1.088743
v 0.339800 0.557530 -1.257240
v 0.118046 0.741913 -1.286113
v 0.000000 0.767248 -1.297536
v -0.118046 0.741913 -1.286113
v -0.339800 0.557530 -1.257240
v -0.704875 0.239462 -1.088743
v 0.749935 0.387123 -1.018970
v 0.716486 0.343581 -1.031752
v 0.263418 0.828917 -1.231424
v 0.069592 0.961815 -1.296708
v 0.000000 0.975201 -1.312041
v -0.069592 0.961815 -1.296708
v -0.263418 0.828917 -1.231424
v -0.716486 0.343581 -1.031752
v 0.583016 0.476998 -1.103614
v 0.617487 0.312336 -0.986964
v 0.271484 1.039244 -1.229315
v 0.078018 1.206436 -1.301877
v 0.000000 1.219556 -1.315224
v -0.078018 1.206436 -1.301877
v -0.271484 1.039244 -1.229315
v -0.617487 0.312336 -0.986964
v 0.508827 0.512939 -1.056710
v 0.452385 0.272013 -0.934813
v 0.278216 0.641026 -1.051847
v 0.109971 0.841444 -1.088971
v 0.000000 0.865601 -1.102909
v -0.109971 0.841444 -1.088971
v -0.278216 0.641026 -1.051847
v -0.452385 0.272013 -0.934813
v 0.546143 0.517851 -0.919593
v 0.396840 0.363158 -0.772579
v 0.212532 0.377784 -0.932848
v 0.087637 0.398011 -1.037138
v 0.000000 0.404522 -1.065312
v -0.087637 0.398011 -1.037138
v -0.212532 0.377784 -0.932848
v -0.396840 0.363158 -0.772579
v -0.540648 -0.524622 -0.715261
v -0.636019 -0.586374 -0.434354
v -0.680315 -0.638460 -0.244692
v -0.617180 -0.737550 0.005374
v -0.534377 -0.879289 0.455029
v -0.562835 -1.230674 1.008962
v -0.464728 -1.327417 1.240048
v -0.422883 -1.284644 1.280025
v -0.572916 -0.268918 -1.119677
v -0.745856 -0.252352 -0.619027
v -0.882231 -0.316977 -0.315650
v -0.734365 -0.577856 0.153203
v -0.519916 -1.357934 1.304851
v -0.519695 -1.379415 1.397949
v -0.488576 -1.346415 1.429011
v -0.448702 -1.281790 1.396078
v -0.646545 -0.026745 -0.986997
v -0.949072 0.146003 -0.611039
v -1.043030 0.143514 -0.424071
v -1.067814 0.003548 -0.221146
v -0.927495 -0.285549 0.177958
v -0.607011 -1.183523 1.246441
v -0.521419 -1.228478 1.359251
v -0.547642 -1.100075 1.239509
v -0.818260 0.227867 -0.842019
v -0.769130 0.444916 -1.099367
v -0.862107 0.508580 -0.910426
v -1.086143 0.404286 -0.344271
v -1.100468 0.136299 -0.038795
v -0.921415 -0.163335 0.294697
v -0.728720 -0.403865 0.546474
v -0.662048 -0.423971 0.606639
v -0.749935 0.387123 -1.018970
v -0.684557 0.663376 -1.266013
v -0.858056 0.767462 -0.981315
v -0.997084 0.641064 -0.540841
v -1.122800 0.376330 -0.054454
v -0.969178 0.084398 0.204938
v -0.847317 -0.119257 0.394066
v -0.772573 -0.184819 0.490245
v -0.583016 0.476998 -1.103614
v -0.667081 0.748383 -1.205873
v -0.839052 0.843076 -0.914402
v -0.948007 0.728370 -0.535974
v -1.074019 0.497563 -0.048501
v -0.935937 0.195649 0.216798
v -0.835327 0.021304 0.370905
v -0.764172 -0.065409 0.471406
v -0.508827 0.512939 -1.056710
v -0.594633 0.647148 -1.134677
v -0.712971 0.769997 -0.862061
v -0.867159 0.688549 -0.453644
v -0.972728 0.508207 -0.014231
v -0.856954 0.254685 0.239247
v -0.781372 0.104545 0.390592
v -0.720765 -0.002179 0.494800
v -0.546143 0.517851 -0.919593
v -0.558555 0.628415 -0.898990
v -0.656213 0.648528 -0.656439
v -0.792250 0.602418 -0.298197
v -0.828158 0.474237 0.029483
v -0.756957 0.312254 0.240019
v -0.710068 0.190747 0.401523
v -0.666713 0.068893 0.513792
v -0.432392 -1.156670 1.191479
v -0.418387 -0.806401 0.833602
v -0.290160 -0.644244 0.582503
v -0.155856 -0.572160 0.463039
v 0.000000 -0.547732 0.446360
v 0.155856 -0.572160 0.463039
v 0.290160 -0.644244 0.582503
v 0.418387 -0.806401 0.833602
v -0.466216 -1.134672 1.246176
v -0.469761 -0.811984 0.935963
v -0.351194 -0.598521 0.679352
v -0.186296 -0.518699 0.532179
v 0.000000 -0.487021 0.510570
v 0.186296 -0.518699 0.532179
v 0.351194 -0.598521 0.679352
v 0.469761 -0.811984 0.935963
v -0.572272 -0.843796 1.027515
v -0.511294 -0.623250 0.844633
v -0.382164 -0.503439 0.635083
v -0.211443 -0.451047 0.557535
v 0.000000 -0.424631 0.535444
v 0.211443 -0.451047 0.557535
v 0.382164 -0.503439 0.635083
v 0.511294 -0.623250 0.844633
v -0.593081 -0.446183 0.658963
v -0.515043 -0.431699 0.633817
v -0.399842 -0.405530 0.598550
v -0.218991 -0.387426 0.583362
v 0.000000 -0.369190 0.562787
v 0.218991 -0.387426 0.583362
v 0.399842 -0.405530 0.598550
v 0.515043 -0.431699 0.633817
v -0.676235 -0.259321 0.556992
v -0.562559 -0.305191 0.589318
v -0.406565 -0.330192 0.631339
v -0.218156 -0.326125 0.637781
v 0.000000 -0.317911 0.624354
v 0.218156 -0.326125 0.637781
v 0.406565 -0.330192 0.631339
v 0.562559 -0.305191 0.589318
v -0.675028 -0.171224 0.548033
v -0.554412 -0.234519 0.622163
v -0.402932 -0.253292 0.674725
v -0.215739 -0.250470 0.685119
v 0.000000 -0.243870 0.678122
v 0.215739 -0.250470 0.685119
v 0.402932 -0.253292 0.674725
v 0.554412 -0.234519 0.622163
v -0.646926 -0.113975 0.578899
v -0.531073 -0.157753 0.655133
v -0.385844 -0.160387 0.694602
v -0.208478 -0.147935 0.695449
v 0.000000 -0.136759 0.693988
v 0.208478 -0.147935 0.695449
v 0.385844 -0.160387 0.694602
v 0.531073 -0.157753 0.655133
v -0.611381 -0.042104 0.597341
v -0.498413 -0.060483 0.648705
v -0.359313 -0.053608 0.654554
v -0.194754 -0.034554 0.646529
v 0.000000 -0.019800 0.646373
v 0.194754 -0.034554 0.646530
v 0.359313 -0.053608 0.654554
v 0.498413 -0.060483 0.648705
v 0.432392 -1.156670 1.191479
v 0.422883 -1.284644 1.280025
v 0.464728 -1.327417 1.240048
v 0.562835 -1.230674 1.008962
v 0.534377 -0.879289 0.455029
v 0.617180 -0.737550 0.005374
v 0.680315 -0.638460 -0.244692
v 0.636019 -0.586374 -0.434354
v 0.466216 -1.134672 1.246176
v 0.448702 -1.281790 1.396078
v 0.488576 -1.346415 1.429011
v 0.519695 -1.379415 1.397949
v 0.519916 -1.357935 1.304851
v 0.734365 -0.577856 0.153203
v 0.882231 -0.316977 -0.315650
v 0.745856 -0.252352 -0.619027
v 0.572272 -0.843796 1.027515
v 0.547642 -1.100075 1.239509
v 0.521419 -1.228478 1.359251
v 0.607011 -1.183523 1.246441
v 0.927495 -0.285549 0.177958
v 1.067814 0.003548 -0.221146
v 1.043030 0.143514 -0.424071
v 0.949072 0.146003 -0.611039
v 0.593081 -0.446183 0.658963
v 0.662048 -0.423971 0.606639
v 0.728720 -0.403865 0.546474
v 0.921415 -0.163335 0.294697
v 1.100468 0.136299 -0.038795
v 1.086143 0.404286 -0.344271
v 0.862107 0.508580 -0.910426
v 0.769130 0.444916 -1.099367
v 0.676235 -0.259321 0.556992
v 0.772573 -0.184819 0.490245
v 0.847317 -0.119257 0.394066
v 0.969178 0.084398 0.204938
v 1.122800 0.376330 -0.054454
v 0.997084 0.641064 -0.540841
v 0.858056 0.767462 -0.981315
v 0.684557 0.663376 -1.266013
v 0.675028 -0.171224 0.548033
v 0.764172 -0.065409 0.471406
v 0.835327 0.021304 0.370905
v 0.935937 0.195649 0.216798
v 1.074019 0.497563 -0.048501
v 0.948007 0.728370 -0.535974
v 0.839052 0.843076 -0.914402
v 0.667081 0.748383 -1.205873
v 0.646926 -0.113975 0.578899
v 0.720765 -0.002179 0.494800
v 0.781372 0.104545 0.390592
v 0.856954 0.254685 0.239247
v 0.972728 0.508207 -0.014231
v 0.867159 0.688549 -0.453644
v 0.712971 0.769997 -0.862061
v 0.594633 0.647148 -1.134677
v 0.611381 -0.042104 0.597341
v 0.666713 0.068893 0.513792
v 0.710068 0.190747 0.401523
v 0.756957 0.312254 0.240019
v 0.828158 0.474237 0.029483
v 0.792250 0.602418 -0.298197
v 0.656213 0.648528 -0.656439
v 0.558555 0.628415 -0.898990
v 0.416781 -0.809374 0.721304
v 0.266955 -0.645143 0.399220
v 0.145711 -0.590761 0.322576
v 0.000000 -0.580550 0.311500
v -0.145711 -0.590761 0.322576
v -0.266955 -0.645142 0.399220
v -0.416781 -0.809374 0.721304
v 0.375559 -0.749541 0.445687
v 0.264570 -0.628868 0.208734
v 0.126664 -0.605931 0.166788
v 0.000000 -0.601946 0.157432
v -0.126664 -0.605931 0.166788
v -0.264570 -0.628868 0.208734
v -0.375559 -0.749541 0.445687
v 0.397762 -0.715764 0.181183
v 0.266784 -0.641722 0.044277
v 0.117936 -0.633100 0.018431
v 0.000000 -0.633438 0.009902
v -0.117936 -0.633100 0.018431
v -0.266784 -0.641722 0.044277
v -0.397762 -0.715764 0.181183
v 0.454598 -0.703735 -0.023122
v 0.273685 -0.684919 -0.098019
v 0.124738 -0.687198 -0.121553
v 0.000000 -0.690812 -0.128984
v -0.124738 -0.687198 -0.121553
v -0.273685 -0.684919 -0.098019
v -0.454598 -0.703735 -0.023122
v 0.481232 -0.713051 -0.181987
v 0.292158 -0.734450 -0.230687
v 0.137027 -0.751579 -0.248255
v 0.000000 -0.759830 -0.253912
v -0.137027 -0.751579 -0.248255
v -0.292158 -0.734450 -0.230687
v -0.481232 -0.713051 -0.181987
v 0.489671 -0.717994 -0.330170
v 0.316128 -0.762369 -0.368034
v 0.153119 -0.789106 -0.380804
v 0.000000 -0.798783 -0.384915
v -0.153119 -0.789106 -0.380804
v -0.316128 -0.762369 -0.368034
v -0.489671 -0.717994 -0.330170
v 0.473151 -0.696061 -0.485351
v 0.318215 -0.750275 -0.516777
v 0.163582 -0.776343 -0.534705
v 0.000000 -0.783263 -0.540697
v -0.163582 -0.776343 -0.534705
v -0.318215 -0.750275 -0.516777
v -0.473151 -0.696061 -0.485351
v 0.506138 0.533048 -0.751347
v 0.418541 0.547444 -0.685827
v 0.292892 0.574708 -0.680500
v 0.145317 0.596495 -0.705908
v 0.000000 0.613135 -0.714389
v -0.145317 0.596495 -0.705908
v -0.292892 0.574708 -0.680500
v -0.418541 0.547444 -0.685827
v -0.506138 0.533048 -0.751347
v 0.542827 0.579782 -0.631772
v 0.459278 0.629922 -0.571238
v 0.339705 0.667784 -0.520116
v 0.172615 0.679857 -0.533411
v 0.000000 0.683973 -0.538050
v -0.172615 0.679857 -0.533411
v -0.339705 0.667784 -0.520116
v -0.459278 0.629922 -0.571238
v -0.542827 0.579782 -0.631772
v 0.618654 0.595186 -0.419880
v 0.511235 0.664374 -0.375692
v 0.360936 0.701255 -0.353572
v 0.183824 0.711196 -0.365990
v 0.000000 0.712017 -0.369734
v -0.183824 0.711196 -0.365990
v -0.360936 0.701255 -0.353572
v -0.511235 0.664374 -0.375692
v -0.618654 0.595186 -0.419880
v 0.679331 0.588709 -0.177893
v 0.533226 0.666361 -0.171215
v 0.360082 0.696392 -0.186895
v 0.182021 0.705725 -0.200113
v 0.000000 0.706607 -0.205241
v -0.182021 0.705725 -0.200113
v -0.360082 0.696392 -0.186895
v -0.533226 0.666361 -0.171215
v -0.679331 0.588709 -0.177893
v 0.683668 0.539603 0.026903
v 0.515338 0.617296 -0.004348
v 0.343456 0.649922 -0.025900
v 0.171206 0.661391 -0.038748
v 0.000000 0.664174 -0.043219
v -0.171206 0.661391 -0.038748
v -0.343456 0.649922 -0.025900
v -0.515338 0.617296 -0.004348
v -0.683668 0.539603 0.026903
v 0.641000 0.431349 0.198140
v 0.485083 0.507201 0.167337
v 0.320946 0.551599 0.135522
v 0.158924 0.575276 0.123084
v 0.000000 0.582457 0.119494
v -0.158924 0.575276 0.123084
v -0.320946 0.551599 0.135522
v -0.485083 0.507201 0.167337
v -0.641000 0.431349 0.198140
v 0.608591 0.296533 0.348421
v 0.465855 0.344863 0.320877
v 0.313371 0.389554 0.287265
v 0.154544 0.424856 0.269306
v 0.000000 0.444338 0.266957
v -0.154544 0.424856 0.269306
v -0.313371 0.389554 0.287265
v -0.465855 0.344863 0.320877
v -0.608591 0.296533 0.348421
v 0.586614 0.157287 0.467975
v 0.464878 0.173034 0.447451
v 0.328922 0.199749 0.417345
v 0.172305 0.230970 0.393951
v 0.000000 0.244773 0.387529
v -0.172305 0.230970 0.393951
v -0.328922 0.199749 0.417345
v -0.464878 0.173034 0.447451
v -0.586614 0.157287 0.467975
v 0.558859 0.045282 0.565756
v 0.447276 0.046194 0.562875
v 0.320118 0.061210 0.545165
v 0.173342 0.079975 0.528736
v 0.000000 0.089732 0.523380
v -0.173342 0.079975 0.528736
v -0.320118 0.061210 0.545165
v -0.447276 0.046194 0.562875
v -0.558859 0.045282 0.565756
vn 0.8792 -0.4369 -0.1900
vn 0.7937 -0.4338 -0.4264
vn 0.8679 0.0601 -0.4930
vn 0.3530 0.3791 -0.8554
vn -0.3530 0.3791 -0.8554
vn -0.8679 0.0601 -0.4930
vn -0.7937 -0.4338 -0.4264
vn -0.8792 -0.4369 -0.1900
vn 0.9614 -0.1907 -0.1985
vn 0.7942 0.2614 -0.5486
vn 0.5111 0.4689 -0.7204
vn 0.2818 0.4269 -0.8593
vn -0.2818 0.4269 -0.8593
vn -0.5111 0.4689 -0.7204
vn -0.7942 0.2614 -0.5486
vn -0.9614 -0.1907 -0.1985
vn 0.8938 -0.3171 -0.3172
vn 0.5663 0.2314 -0.7911
vn 0.4812 0.2884 -0.8278
vn 0.1060 0.2733 -0.9561
vn -0.1060 0.2733 -0.9561
vn -0.4812 0.2884 -0.8278
vn -0.5663 0.2314 -0.7911
vn -0.8938 -0.3171 -0.3172
vn 0.8716 -0.0350 -0.4889
vn 0.6027 0.2696 -0.7511
vn 0.2949 0.1044 -0.9498
vn 0.1323 -0.0431 -0.9903
vn -0.1323 -0.0431 -0.9903
vn -0.2949 0.1044 -0.9498
vn -0.6027 0.2696 -0.7511
vn -0.8716 -0.0350 -0.4889
vn 0.0357 -0.4460 -0.8943
vn 0.8499 0.4853 -0.2054
vn 0.3228 -0.0181 -0.9463
vn 0.1872 -0.0200 -0.9821
vn -0.1872 -0.0200 -0.9821
vn -0.3228 -0.0181 -0.9463
vn -0.8499 0.4853 -0.2054
vn -0.0357 -0.4460 -0.8943
vn -0.3313 -0.4649 -0.8210
vn 0.2096 0.3931 0.8953
vn 0.1983 0.4543 0.8685
vn -0.0242 0.5081 0.8609
vn 0.0242 0.5081 0.8609
vn -0.1983 0.4543 0.8685
vn -0.2096 0.3931 0.8953
vn 0.3313 -0.4649 -0.8210
vn -0.9169 0.3603 -0.1715
vn 0.3292 0.7356 0.5921
vn -0.2560 0.2571 0.9319
vn -0.1923 0.1013 0.9761
vn 0.1923 0.1013 0.9761
vn 0.2560 0.2571 0.9319
vn -0.3292 0.7356 0.5920
vn 0.9169 0.3603 -0.1715
vn -0.7200 0.5206 -0.4589
vn 0.4353 0.5305 -0.7274
vn 0.3861 0.7187 -0.5783
vn 0.1647 0.8408 -0.5157
vn -0.1647 0.8408 -0.5157
vn -0.3861 0.7187 -0.5783
vn -0.4353 0.5305 -0.7274
vn 0.7200 0.5206 -0.4589
vn -0.8090 -0.5014 -0.3067
vn -0.7575 -0.5161 -0.3998
vn -0.8352 -0.5491 -0.0298
vn -0.6342 -0.7151 -0.2939
vn -0.5628 0.7265 0.3941
vn 0.0978 -0.9549 -0.2804
vn 0.7891 -0.6067 0.0964
vn 0.9071 0.3230 0.2698
vn -0.8670 -0.2850 -0.4087
vn -0.8099 -0.3941 -0.4344
vn -0.8741 -0.4705 -0.1206
vn -0.8279 -0.5320 -0.1774
vn -0.8662 -0.4796 -0.1405
vn -0.7612 0.1529 0.6302
vn 0.0548 0.6170 0.7850
vn 0.2236 0.6637 0.7138
vn -0.7662 -0.3304 -0.5511
vn -0.8958 -0.1349 -0.4235
vn -0.9444 -0.0571 -0.3237
vn -0.9733 -0.2294 -0.0073
vn -0.9650 -0.1544 0.2119
vn -0.3365 0.5995 0.7262
vn -0.4788 0.5537 0.6813
vn -0.5211 0.5461 0.6559
vn 0.3900 -0.7010 -0.5970
vn -0.8798 -0.0705 -0.4700
vn -0.9401 -0.0073 -0.3407
vn -0.9894 0.0865 -0.1168
vn -0.8824 -0.0252 0.4699
vn -0.8053 0.0179 0.5926
vn -0.7339 0.0273 0.6788
vn -0.4855 0.2138 0.8477
vn 0.3619 -0.4925 -0.7915
vn -0.5976 0.5765 -0.5572
vn -0.8896 0.4341 -0.1416
vn -0.9048 0.4255 -0.0174
vn -0.7344 0.2096 0.6455
vn -0.7372 0.1619 0.6560
vn -0.7269 0.1647 0.6667
vn -0.5190 0.1371 0.8437
vn 0.5951 -0.1048 -0.7968
vn 0.6458 0.7626 0.0383
vn 0.2845 0.9036 0.3204
vn -0.0980 0.9185 0.3830
vn -0.4303 0.5033 0.7494
vn -0.6017 0.3494 0.7183
vn -0.6854 0.2550 0.6821
vn -0.6620 0.0563 0.7474
vn 0.9266 0.3758 0.0170
vn 0.6844 0.7240 0.0860
vn 0.4577 0.8326 0.3118
vn 0.1419 0.9090 0.3918
vn -0.1934 0.6909 0.6966
vn -0.5033 0.5452 0.6704
vn -0.6254 0.3675 0.6884
vn -0.6307 0.1988 0.7502
vn 0.9250 0.3690 -0.0901
vn 0.4951 0.8603 0.1218
vn 0.1315 0.9829 0.1292
vn -0.3100 0.9088 0.2792
vn -0.3878 0.6938 0.6068
vn -0.3987 0.6561 0.6408
vn -0.2410 0.6099 0.7549
vn -0.2627 0.5479 0.7942
vn 0.8255 0.3911 0.4069
vn 0.8748 0.0727 0.4790
vn 0.7160 -0.3503 0.6039
vn 0.1928 -0.7232 0.6632
vn -0.1928 -0.7232 0.6632
vn -0.7160 -0.3503 0.6039
vn -0.8748 0.0727 0.4790
vn -0.8255 0.3911 0.4069
vn 0.4355 0.5793 0.6890
vn 0.6004 0.4644 0.6510
vn 0.4650 0.2587 0.8467
vn 0.1507 -0.3307 0.9316
vn -0.1507 -0.3307 0.9316
vn -0.4650 0.2587 0.8467
vn -0.6004 0.4644 0.6510
vn -0.4355 0.5793 0.6890
vn -0.1103 0.6945 0.7110
vn 0.3318 0.6269 0.7049
vn 0.2348 0.1007 0.9668
vn 0.1312 -0.3973 0.9083
vn -0.1312 -0.3973 0.9083
vn -0.2348 0.1007 0.9668
vn -0.3318 0.6269 0.7049
vn 0.1103 0.6945 0.7110
vn 0.0377 0.4360 0.8992
vn -0.0251 0.0512 0.9984
vn 0.0521 -0.5357 0.8428
vn 0.0971 -0.7145 0.6928
vn -0.0971 -0.7145 0.6928
vn -0.0521 -0.5357 0.8428
vn 0.0251 0.0512 0.9984
vn -0.0377 0.4360 0.8992
vn -0.4521 -0.1066 0.8856
vn -0.3210 -0.4143 0.8517
vn -0.0292 -0.5101 0.8596
vn 0.0580 -0.5594 0.8269
vn -0.0580 -0.5594 0.8269
vn 0.0292 -0.5101 0.8596
vn 0.3210 -0.4143 0.8517
vn 0.4521 -0.1066 0.8856
vn -0.5798 -0.1581 0.7992
vn -0.3034 -0.2167 0.9279
vn -0.0242 -0.1498 0.9884
vn 0.0250 -0.1248 0.9919
vn -0.0250 -0.1248 0.9919
vn 0.0242 -0.1498 0.9884
vn 0.3034 -0.2167 0.9279
vn 0.5798 -0.1581 0.7992
vn -0.4579 0.1221 0.8806
vn -0.1557 0.2621 0.9524
vn -0.0153 0.3770 0.9261
vn -0.0212 0.3875 0.9216
vn 0.0212 0.3875 0.9216
vn 0.0153 0.3770 0.9261
vn 0.1557 0.2621 0.9524
vn 0.4579 0.1221 0.8806
vn -0.1322 0.5638 0.8152
vn -0.0215 0.6660 0.7457
vn -0.0305 0.7075 0.7061
vn -0.0387 0.7332 0.6789
vn 0.0387 0.7332 0.6789
vn 0.0305 0.7075 0.7061
vn 0.0215 0.6660 0.7457
vn 0.1322 0.5638 0.8152
vn -0.9071 0.3230 0.2698
vn -0.7891 -0.6067 0.0964
vn -0.0978 -0.9549 -0.2804
vn 0.5628 0.7265 0.3941
vn 0.6342 -0.7151 -0.2939
vn 0.8352 -0.5491 -0.0298
vn 0.7575 -0.5161 -0.3998
vn 0.8090 -0.5014 -0.3067
vn -0.2236 0.6637 0.7138
vn -0.0548 0.6170 0.7850
vn 0.7612 0.1529 0.6302
vn 0.8662 -0.4796 -0.1405
vn 0.8279 -0.5320 -0.1774
vn 0.8741 -0.4705 -0.1206
vn 0.8099 -0.3941 -0.4344
vn 0.8670 -0.2850 -0.4087
vn 0.5211 0.5461 0.6559
vn 0.4788 0.5537 0.6813
vn 0.3365 0.5995 0.7262
vn 0.9650 -0.1544 0.2119
vn 0.9733 -0.2294 -0.0073
vn 0.9444 -0.0571 -0.3237
vn 0.8958 -0.1349 -0.4235
vn 0.7662 -0.3304 -0.5511
vn 0.4855 0.2138 0.8477
vn 0.7339 0.0273 0.6788
vn 0.8053 0.0179 0.5926
vn 0.8824 -0.0252 0.4699
vn 0.9894 0.0865 -0.1168
vn 0.9401 -0.0073 -0.3407
vn 0.8798 -0.0705 -0.4700
vn -0.3900 -0.7010 -0.5970
vn 0.5190 0.1371 0.8437
vn 0.7269 0.1647 0.6667
vn 0.7372 0.1619 0.6560
vn 0.7344 0.2096 0.6455
vn 0.9048 0.4255 -0.0174
vn 0.8896 0.4341 -0.1416
vn 0.5976 0.5765 -0.5572
vn -0.3619 -0.4925 -0.7915
vn 0.6620 0.0563 0.7474
vn 0.6854 0.2550 0.6821
vn 0.6017 0.3494 0.7183
vn 0.4303 0.5033 0.7494
vn 0.0980 0.9185 0.3830
vn -0.2845 0.9036 0.3204
vn -0.6458 0.7626 0.0383
vn -0.5951 -0.1048 -0.7968
vn 0.6307 0.1988 0.7502
vn 0.6254 0.3675 0.6884
vn 0.5033 0.5452 0.6704
vn 0.1934 0.6909 0.6966
vn -0.1419 0.9090 0.3918
vn -0.4577 0.8326 0.3118
vn -0.6844 0.7240 0.0860
vn -0.9266 0.3758 0.0170
vn 0.2627 0.5479 0.7942
vn 0.2410 0.6099 0.7549
vn 0.3987 0.6561 0.6408
vn 0.3878 0.6938 0.6068
vn 0.3100 0.9088 0.2792
vn -0.1315 0.9829 0.1292
vn -0.4951 0.8603 0.1218
vn -0.9250 0.3690 -0.0901
vn -0.9941 0.0691 0.0841
vn -0.8212 -0.5655 0.0763
vn -0.5039 -0.8576 0.1036
vn -0.1290 -0.9739 0.1866
vn 0.1290 -0.9739 0.1866
vn 0.5039 -0.8576 0.1036
vn 0.8212 -0.5655 0.0763
vn 0.9941 0.0691 0.0841
vn -0.9950 -0.0994 -0.0073
vn -0.6794 -0.7316 -0.0559
vn -0.2922 -0.9562 0.0150
vn -0.0607 -0.9908 0.1207
vn 0.0607 -0.9908 0.1207
vn 0.2922 -0.9562 0.0150
vn 0.6794 -0.7316 -0.0559
vn 0.9950 -0.0994 -0.0073
vn -0.6746 -0.6569 -0.3368
vn -0.5554 -0.8285 -0.0720
vn -0.1385 -0.9820 0.1285
vn -0.0289 -0.9803 0.1952
vn 0.0289 -0.9803 0.1952
vn 0.1385 -0.9820 0.1285
vn 0.5554 -0.8285 -0.0720
vn 0.6746 -0.6569 -0.3368
vn -0.1938 -0.8818 -0.4299
vn -0.3037 -0.9523 0.0298
vn -0.0735 -0.9440 0.3218
vn -0.0093 -0.9286 0.3710
vn 0.0093 -0.9286 0.3710
vn 0.0735 -0.9440 0.3218
vn 0.3037 -0.9523 0.0298
vn 0.1938 -0.8818 -0.4299
vn -0.1578 -0.9586 -0.2370
vn -0.0563 -0.9803 0.1892
vn 0.0040 -0.9154 0.4025
vn 0.0166 -0.8831 0.4690
vn -0.0166 -0.8831 0.4690
vn -0.0040 -0.9154 0.4025
vn 0.0563 -0.9803 0.1892
vn 0.1578 -0.9586 -0.2370
vn 0.2989 -0.9393 -0.1683
vn 0.1469 -0.9806 0.1295
vn 0.1089 -0.9622 0.2495
vn 0.0498 -0.9584 0.2811
vn -0.0498 -0.9584 0.2811
vn -0.1089 -0.9622 0.2495
vn -0.1469 -0.9806 0.1295
vn -0.2989 -0.9393 -0.1683
vn 0.5328 -0.8032 -0.2664
vn 0.3086 -0.9436 -0.1203
vn 0.1705 -0.9826 -0.0736
vn 0.0550 -0.9945 -0.0890
vn -0.0550 -0.9945 -0.0890
vn -0.1705 -0.9826 -0.0736
vn -0.3086 -0.9436 -0.1203
vn -0.5328 -0.8032 -0.2664
vn 0.7196 -0.6411 -0.2668
vn 0.5684 -0.8096 -0.1467
vn 0.8047 -0.5919 0.0457
vn 0.2613 -0.9432 0.2050
vn -0.2613 -0.9432 0.2050
vn -0.8047 -0.5919 0.0457
vn -0.5684 -0.8096 -0.1467
vn -0.7196 -0.6411 -0.2668
vn -0.0207 0.8782 -0.4778
vn 0.0913 0.8259 -0.5564
vn 0.1526 0.8588 -0.4891
vn 0.0762 0.9097 -0.4081
vn -0.0762 0.9097 -0.4081
vn -0.1526 0.8588 -0.4891
vn -0.0913 0.8259 -0.5564
vn 0.0207 0.8782 -0.4778
vn 0.4174 0.8770 -0.2382
vn 0.2044 0.9538 -0.2202
vn 0.0772 0.9773 -0.1972
vn 0.0177 0.9845 -0.1747
vn -0.0177 0.9845 -0.1747
vn -0.0772 0.9773 -0.1972
vn -0.2044 0.9538 -0.2202
vn -0.4174 0.8770 -0.2382
vn 0.4872 0.8695 -0.0815
vn 0.2025 0.9793 -0.0039
vn 0.0519 0.9982 0.0314
vn 0.0039 0.9994 0.0329
vn -0.0039 0.9994 0.0329
vn -0.0519 0.9982 0.0314
vn -0.2025 0.9793 -0.0039
vn -0.4872 0.8695 -0.0815
vn 0.4137 0.8764 0.2466
vn 0.1405 0.9465 0.2906
vn 0.0367 0.9611 0.2738
vn 0.0030 0.9658 0.2592
vn -0.0030 0.9658 0.2592
vn -0.0367 0.9611 0.2738
vn -0.1405 0.9465 0.2906
vn -0.4137 0.8764 0.2466
vn 0.2658 0.7866 0.5574
vn 0.1058 0.8354 0.5394
vn 0.0532 0.8649 0.4992
vn 0.0156 0.8879 0.4598
vn -0.0156 0.8879 0.4598
vn -0.0532 0.8649 0.4992
vn -0.1058 0.8354 0.5394
vn -0.2658 0.7866 0.5574
vn 0.1509 0.6938 0.7042
vn 0.0415 0.6829 0.7293
vn 0.0579 0.6878 0.7236
vn 0.0473 0.7122 0.7004
vn -0.0473 0.7122 0.7004
vn -0.0579 0.6878 0.7236
vn -0.0415 0.6829 0.7293
vn -0.1509 0.6938 0.7042
vn 0.0077 0.6201 0.7845
vn -0.0372 0.5774 0.8156
vn 0.0076 0.5535 0.8328
vn 0.0312 0.5297 0.8476
vn -0.0312 0.5297 0.8476
vn -0.0076 0.5535 0.8328
vn 0.0372 0.5774 0.8156
vn -0.0077 0.6201 0.7845
vn -0.0268 0.6685 0.7432
vn -0.0263 0.6769 0.7356
vn 0.0134 0.6716 0.7408
vn 0.0196 0.6624 0.7489
vn -0.0196 0.6624 0.7489
vn -0.0134 0.6716 0.7408
vn 0.0263 0.6769 0.7356
vn 0.0268 0.6685 0.7432
s 0
f 1//1 2//1 10//1 9//1
f 2//2 3//2 11//2 10//2
f 3//3 4//3 12//3 11//3
f 4//4 5//4 13//4 12//4
f 5//5 6//5 14//5 13//5
f 6//6 7//6 15//6 14//6
f 7//7 8//7 16//7 15//7
f 8//8 65//8 73//8 16//8
f 9//9 10//9 18//9 17//9
f 10//10 11//10 19//10 18//10
f 11//11 12//11 20//11 19//11
f 12//12 13//12 21//12 20//12
f 13//13 14//13 22//13 21//13
f 14//14 15//14 23//14 22//14
f 15//15 16//15 24//15 23//15
f 16//16 73//16 81//16 24//16
f 17//17 18//17 26//17 25//17
f 18//18 19//18 27//18 26//18
f 19//19 20//19 28//19 27//19
f 20//20 21//20 29//20 28//20
f 21//21 22//21 30//21 29//21
f 22//22 23//22 31//22 30//22
f 23//23 24//23 32//23 31//23
f 24//24 81//24 89//24 32//24
f 25//25 26//25 34//25 33//25
f 26//26 27//26 35//26 34//26
f 27//27 28//27 36//27 35//27
f 28//28 29//28 37//28 36//28
f 29//29 30//29 38//29 37//29
f 30//30 31//30 39//30 38//30
f 31//31 32//31 40//31 39//31
f 32//32 89//32 97//32 40//32
f 33//33 34//33 42//33 41//33
f 34//34 35//34 43//34 42//34
f 35//35 36//35 44//35 43//35
f 36//36 37//36 45//36 44//36
f 37//37 38//37 46//37 45//37
f 38//38 39//38 47//38 46//38
f 39//39 40//39 48//39 47//39
f 40//40 97//40 105//40 48//40
f 41//41 42//41 50//41 49//41
f 42//42 43//42 51//42 50//42
f 43//43 44//43 52//43 51//43
f 44//44 45//44 53//44 52//44
f 45//45 46//45 54//45 53//45
f 46//46 47//46 55//46 54//46
f 47//47 48//47 56//47 55//47
f 48//48 105//48 113//48 56//48
f 49//49 50//49 58//49 57//49
f 50//50 51//50 59//50 58//50
f 51//51 52//51 60//51 59//51
f 52//52 53//52 61//52 60//52
f 53//53 54//53 62//53 61//53
f 54//54 55//54 63//54 62//54
f 55//55 56//55 64//55 63//55
f 56//56 113//56 121//56 64//56
f 57//57 58//57 307//57 306//57
f 58//58 59//58 308//58 307//58
f 59//59 60//59 309//59 308//59
f 60//60 61//60 310//60 309//60
f 61//61 62//61 311//61 310//61
f 62//62 63//62 312//62 311//62
f 63//63 64//63 313//63 312//63
f 64//64 121//64 314//64 313//64
f 65//65 66//65 74//65 73//65
f 66//66 67//66 75//66 74//66
f 67//67 68//67 76//67 75//67
f 68//68 69//68 77//68 76//68
f 69//69 70//69 78//69 77//69
f 70//70 71//70 79//70 78//70
f 71//71 72//71 80//71 79//71
f 72//72 129//72 137//72 80//72
f 73//73 74//73 82//73 81//73
f 74//74 75//74 83//74 82//74
f 75//75 76//75 84//75 83//75
f 76//76 77//76 85//76 84//76
f 77//77 78//77 86//77 85//77
f 78//78 79//78 87//78 86//78
f 79//79 80//79 88//79 87//79
f 80//80 137//80 145//80 88//80
f 81//81 82//81 90//81 89//81
f 82//82 83//82 91//82 90//82
f 83//83 84//83 92//83 91//83
f 84//84 85//84 93//84 92//84
f 85//85 86//85 94//85 93//85
f 86//86 87//86 95//86 94//86
f 87//87 88//87 96//87 95//87
f 88//88 145//88 153//88 96//88
f 89//89 90//89 98//89 97//89
f 90//90 91//90 99//90 98//90
f 91//91 92//91 100//91 99//91
f 92//92 93//92 101//92 100//92
f 93//93 94//93 102//93 101//93
f 94//94 95//94 103//94 102//94
f 95//95 96//95 104//95 103//95
f 96//96 153//96 161//96 104//96
f 97//97 98//97 106//97 105//97
f 98//98 99//98 107//98 106//98
f 99//99 100//99 108//99 107//99
f 100//100 101//100 109//100 108//100
f 101//101 102//101 110//101 109//101
f 102//102 103//102 111//102 110//102
f 103//103 104//103 112//103 111//103
f 104//104 161//104 169//104 112//104
f 105//105 106//105 114//105 113//105
f 106//106 107//106 115//106 114//106
f 107//107 108//107 116//107 115//107
f 108//108 109//108 117//108 116//108
f 109//109 110//109 118//109 117//109
f 110//110 111//110 119//110 118//110
f 111//111 112//111 120//111 119//111
f 112//112 169//112 177//112 120//112
f 113//113 114//113 122//113 121//113
f 114//114 115//114 123//114 122//114
f 115//115 116//115 124//115 123//115
f 116//116 117//116 125//116 124//116
f 117//117 118//117 126//117 125//117
f 118//118 119//118 127//118 126//118
f 119//119 120//119 128//119 127//119
f 120//120 177//120 185//120 128//120
f 121//121 122//121 323//121 314//121
f 122//122 123//122 332//122 323//122
f 123//123 124//123 341//123 332//123
f 124//124 125//124 350//124 341//124
f 125//125 126//125 359//125 350//125
f 126//126 127//126 368//126 359//126
f 127//127 128//127 377//127 368//127
f 128//128 185//128 386//128 377//128
f 129//129 130//129 138//129 137//129
f 130//130 131//130 139//130 138//130
f 131//131 132//131 140//131 139//131
f 132//132 133//132 141//132 140//132
f 133//133 134//133 142//133 141//133
f 134//134 135//134 143//134 142//134
f 135//135 136//135 144//135 143//135
f 136//136 193//136 201//136 144//136
f 137//137 138//137 146//137 145//137
f 138//138 139//138 147//138 146//138
f 139//139 140//139 148//139 147//139
f 140//140 141//140 149//140 148//140
f 141//141 142//141 150//141 149//141
f 142//142 143//142 151//142 150//142
f 143//143 144//143 152//143 151//143
f 144//144 201//144 209//144 152//144
f 145//145 146//145 154//145 153//145
f 146//146 147//146 155//146 154//146
f 147//147 148//147 156//147 155//147
f 148//148 149//148 157//148 156//148
f 149//149 150//149 158//149 157//149
f 150//150 151//150 159//150 158//150
f 151//151 152//151 160//151 159//151
f 152//152 209//152 217//152 160//152
f 153//153 154//153 162//153 161//153
f 154//154 155//154 163//154 162//154
f 155//155 156//155 164//155 163//155
f 156//156 157//156 165//156 164//156
f 157//157 158//157 166//157 165//157
f 158//158 159//158 167//158 166//158
f 159//159 160//159 168//159 167//159
f 160//160 217//160 225//160 168//160
f 161//161 162//161 170//161 169//161
f 162//162 163//162 171//162 170//162
f 163//163 164//163 172//163 171//163
f 164//164 165//164 173//164 172//164
f 165//165 166//165 174//165 173//165
f 166//166 167//166 175//166 174//166
f 167//167 168//167 176//167 175//167
f 168//168 225//168 233//168 176//168
f 169//169 170//169 178//169 177//169
f 170//170 171//170 179//170 178//170
f 171//171 172//171 180//171 179//171
f 172//172 173//172 181//172 180//172
f 173//173 174//173 182//173 181//173
f 174//174 175//174 183//174 182//174
f 175//175 176//175 184//175 183//175
f 176//176 233//176 241//176 184//176
f 177//177 178//177 186//177 185//177
f 178//178 179//178 187//178 186//178
f 179//179 180//179 188//179 187//179
f 180//180 181//180 189//180 188//180
f 181//181 182//181 190//181 189//181
f 182//182 183//182 191//182 190//182
f 183//183 184//183 192//183 191//183
f 184//184 241//184 249//184 192//184
f 185//185 186//185 385//185 386//185
f 186//186 187//186 384//186 385//186
f 187//187 188//187 383//187 384//187
f 188//188 189//188 382//188 383//188
f 189//189 190//189 381//189 382//189
f 190//190 191//190 380//190 381//190
f 191//191 192//191 379//191 380//191
f 192//192 249//192 378//192 379//192
f 193//193 194//193 202//193 201//193
f 194//194 195//194 203//194 202//194
f 195//195 196//195 204//195 203//195
f 196//196 197//196 205//196 204//196
f 197//197 198//197 206//197 205//197
f 198//198 199//198 207//198 206//198
f 199//199 200//199 208//199 207//199
f 200//200 1//200 9//200 208//200
f 201//201 202//201 210//201 209//201
f 202//202 203//202 211//202 210//202
f 203//203 204//203 212//203 211//203
f 204//204 205//204 213//204 212//204
f 205//205 206//205 214//205 213//205
f 206//206 207//206 215//206 214//206
f 207//207 208//207 216//207 215//207
f 208//208 9//208 17//208 216//208
f 209//209 210//209 218//209 217//209
f 210//210 211//210 219//210 218//210
f 211//211 212//211 220//211 219//211
f 212//212 213//212 221//212 220//212
f 213//213 214//213 222//213 221//213
f 214//214 215//214 223//214 222//214
f 215//215 216//215 224//215 223//215
f 216//216 17//216 25//216 224//216
f 217//217 218//217 226//217 225//217
f 218//218 219//218 227//218 226//218
f 219//219 220//219 228//219 227//219
f 220//220 221//220 229//220 228//220
f 221//221 222//221 230//221 229//221
f 222//222 223//222 231//222 230//222
f 223//223 224//223 232//223 231//223
f 224//224 25//224 33//224 232//224
f 225//225 226//225 234//225 233//225
f 226//226 227//226 235//226 234//226
f 227//227 228//227 236//227 235//227
f 228//228 229//228 237//228 236//228
f 229//229 230//229 238//229 237//229
f 230//230 231//230 239//230 238//230
f 231//231 232//231 240//231 239//231
f 232//232 33//232 41//232 240//232
f 233//233 234//233 242//233 241//233
f 234//234 235//234 243//234 242//234
f 235//235 236//235 244//235 243//235
f 236//236 237//236 245//236 244//236
f 237//237 238//237 246//237 245//237
f 238//238 239//238 247//238 246//238
f 239//239 240//239 248//239 247//239
f 240//240 41//240 49//240 248//240
f 241//241 242//241 250//241 249//241
f 242//242 243//242 251//242 250//242
f 243//243 244//243 252//243 251//243
f 244//244 245//244 253//244 252//244
f 245//245 246//245 254//245 253//245
f 246//246 247//246 255//246 254//246
f 247//247 248//247 256//247 255//247
f 248//248 49//248 57//248 256//248
f 249//249 250//249 369//249 378//249
f 250//250 251//250 360//250 369//250
f 251//251 252//251 351//251 360//251
f 252//252 253//252 342//252 351//252
f 253//253 254//253 333//253 342//253
f 254//254 255//254 324//254 333//254
f 255//255 256//255 315//255 324//255
f 256//256 57//256 306//256 315//256
f 193//257 136//257 257//257 194//257
f 136//258 135//258 258//258 257//258
f 135//259 134//259 259//259 258//259
f 134//260 133//260 260//260 259//260
f 133//261 132//261 261//261 260//261
f 132//262 131//262 262//262 261//262
f 131//263 130//263 263//263 262//263
f 130//264 129//264 72//264 263//264
f 194//265 257//265 264//265 195//265
f 257//266 258//266 265//266 264//266
f 258//267 259//267 266//267 265//267
f 259//268 260//268 267//268 266//268
f 260//269 261//269 268//269 267//269
f 261//270 262//270 269//270 268//270
f 262//271 263//271 270//271 269//271
f 263//272 72//272 71//272 270//272
f 195//273 264//273 271//273 196//273
f 264//274 265//274 272//274 271//274
f 265//275 266//275 273//275 272//275
f 266//276 267//276 274//276 273//276
f 267//277 268//277 275//277 274//277
f 268//278 269//278 276//278 275//278
f 269//279 270//279 277//279 276//279
f 270//280 71//280 70//280 277//280
f 196//281 271//281 278//281 197//281
f 271//282 272//282 279//282 278//282
f 272//283 273//283 280//283 279//283
f 273//284 274//284 281//284 280//284
f 274//285 275//285 282//285 281//285
f 275//286 276//286 283//286 282//286
f 276//287 277//287 284//287 283//287
f 277//288 70//288 69//288 284//288
f 197//289 278//289 285//289 198//289
f 278//290 279//290 286//290 285//290
f 279//291 280//291 287//291 286//291
f 280//292 281//292 288//292 287//292
f 281//293 282//293 289//293 288//293
f 282//294 283//294 290//294 289//294
f 283//295 284//295 291//295 290//295
f 284//296 69//296 68//296 291//296
f 198//297 285//297 292//297 199//297
f 285//298 286//298 293//298 292//298
f 286//299 287//299 294//299 293//299
f 287//300 288//300 295//300 294//300
f 288//301 289//301 296//301 295//301
f 289//302 290//302 297//302 296//302
f 290//303 291//303 298//303 297//303
f 291//304 68//304 67//304 298//304
f 199//305 292//305 299//305 200//305
f 292//306 293//306 300//306 299//306
f 293//307 294//307 301//307 300//307
f 294//308 295//308 302//308 301//308
f 295//309 296//309 303//309 302//309
f 296//310 297//310 304//310 303//310
f 297//311 298//311 305//311 304//311
f 298//312 67//312 66//312 305//312
f 200//313 299//313 2//313 1//313
f 299//314 300//314 3//314 2//314
f 300//315 301//315 4//315 3//315
f 301//316 302//316 5//316 4//316
f 302//317 303//317 6//317 5//317
f 303//318 304//318 7//318 6//318
f 304//319 305//319 8//319 7//319
f 305//320 66//320 65//320 8//320
f 306//321 307//321 316//321 315//321
f 307//322 308//322 317//322 316//322
f 308//323 309//323 318//323 317//323
f 309//324 310//324 319//324 318//324
f 310//325 311//325 320//325 319//325
f 311//326 312//326 321//326 320//326
f 312//327 313//327 322//327 321//327
f 313//328 314//328 323//328 322//328
f 315//329 316//329 325//329 324//329
f 316//330 317//330 326//330 325//330
f 317//331 318//331 327//331 326//331
f 318//332 319//332 328//332 327//332
f 319//333 320//333 329//333 328//333
f 320//334 321//334 330//334 329//334
f 321//335 322//335 331//335 330//335
f 322//336 323//336 332//336 331//336
f 324//337 325//337 334//337 333//337
f 325//338 326//338 335//338 334//338
f 326//339 327//339 336//339 335//339
f 327//340 328//340 337//340 336//340
f 328//341 329//341 338//341 337//341
f 329//342 330//342 339//342 338//342
f 330//343 331//343 340//343 339//343
f 331//344 332//344 341//344 340//344
f 333//345 334//345 343//345 342//345
f 334//346 335//346 344//346 343//346
f 335//347 336//347 345//347 344//347
f 336//348 337//348 346//348 345//348
f 337//349 338//349 347//349 346//349
f 338//350 339//350 348//350 347//350
f 339//351 340//351 349//351 348//351
f 340//352 341//352 350//352 349//352
f 342//353 343//353 352//353 351//353
f 343//354 344//354 353//354 352//354
f 344//355 345//355 354//355 353//355
f 345//356 346//356 355//356 354//356
f 346//357 347//357 356//357 355//357
f 347//358 348//358 357//358 356//358
f 348//359 349//359 358//359 357//359
f 349//360 350//360 359//360 358//360
f 351//361 352//361 361//361 360//361
f 352//362 353//362 362//362 361//362
f 353//363 354//363 363//363 362//363
f 354//364 355//364 364//364 363//364
f 355//365 356//365 365//365 364//365
f 356//366 357//366 366//366 365//366
f 357//367 358//367 367//367 366//367
f 358//368 359//368 368//368 367//368
f 360//369 361//369 370//369 369//369
f 361//370 362//370 371//370 370//370
f 362//371 363//371 372//371 371//371
f 363//372 364//372 373//372 372//372
f 364//373 365//373 374//373 373//373
f 365//374 366//374 375//374 374//374
f 366//375 367//375 376//375 375//375
f 367//376 368//376 377//376 376//376
f 369//377 370//377 379//377 378//377
f 370//378 371//378 380//378 379//378
f 371//379 372//379 381//379 380//379
f 372//380 373//380 382//380 381//380
f 373//381 374//381 383//381 382//381
f 374//382 375//382 384//382 383//382
f 375//383 376//383 385//383 384//383
f 376//384 377//384 386//384 385//384
