# Blender 5.0.0
# www.blender.org
mtllib Arm_v1.mtl
o Cylinder.007
v 5.908071 26.140697 10.136099
v 1.889059 17.082615 10.797552
v 5.419248 18.065796 7.328371
v 2.177788 24.727198 14.620220
v 6.882468 26.037483 9.996845
v 1.914451 17.370768 10.158585
v 6.159666 17.929504 7.348928
v 2.211631 25.111219 13.768665
v 7.869221 25.855850 10.024240
v 2.083802 17.626795 9.535906
v 6.880904 17.739624 7.493750
v 2.437325 25.452425 12.938816
v 8.830419 25.602795 10.217247
v 2.390608 17.840862 8.953438
v 7.555244 17.503443 7.757270
v 2.846203 25.737707 12.162567
v 11.724654 24.103481 12.409096
v 11.204576 24.523691 11.685829
v 10.530762 24.923666 11.064316
v 9.729107 25.288034 10.568438
v 8.830419 25.602795 10.217247
v 7.869221 25.855850 10.024240
v 6.882468 26.037483 9.996845
v 5.908071 26.140697 10.136099
v 4.983479 26.161545 10.436665
v 4.144221 26.099209 10.886978
v 3.422552 25.956100 11.469746
v 2.846203 25.737707 12.162567
v 2.437325 25.452425 12.938816
v 2.211631 25.111219 13.768665
v 2.177788 24.727198 14.620220
v 2.337109 24.315125 15.460758
v 2.683457 23.890831 16.257978
v 9.729107 25.288034 10.568438
v 2.823075 18.004730 8.433575
v 8.156771 17.230032 8.129354
v 3.422552 25.956100 11.469746
v 10.530762 24.923666 11.064316
v 3.364587 18.112116 7.996292
v 8.662374 16.929909 8.595713
v 4.144221 26.099209 10.886978
v 11.204576 24.523691 11.685829
v 3.994328 18.158888 7.658394
v 11.724654 24.103481 12.409096
v 4.983479 26.161545 10.436665
v 9.052618 16.614605 9.138424
v 4.688103 18.143246 7.432862
v 2.337109 24.315125 15.460758
v 2.008603 16.773409 11.428261
v 2.683457 23.890831 16.257978
v 2.268489 16.455040 12.026459
v 1.806136 15.577064 7.243359
v 2.527808 15.720177 6.660593
v 7.214002 15.223756 5.990860
v 8.112693 14.908997 6.342044
v 3.367063 15.782508 6.210278
v 4.291658 15.761662 5.909711
v 5.266054 15.658441 5.770456
v 6.252808 15.476813 5.797855
v 1.229792 15.358675 7.936180
v 0.820912 15.073387 8.712427
v 0.595215 14.732183 9.542276
v 8.830419 25.602795 10.217247
v 7.869221 25.855850 10.024240
v 4.144221 26.099209 10.886978
v 3.422552 25.956100 11.469746
v 9.729107 25.288034 10.568438
v 4.983479 26.161545 10.436665
v 10.530762 24.923666 11.064316
v 5.908071 26.140697 10.136099
v 11.724654 24.103481 12.409096
v 11.204576 24.523691 11.685829
v 10.530762 24.923666 11.064316
v 9.729107 25.288034 10.568438
v 8.830419 25.602795 10.217247
v 7.869221 25.855850 10.024240
v 6.882468 26.037483 9.996845
v 5.908071 26.140697 10.136099
v 4.983479 26.161545 10.436665
v 4.144221 26.099209 10.886978
v 3.422552 25.956100 11.469746
v 2.846203 25.737707 12.162567
v 2.437325 25.452425 12.938816
v 2.211631 25.111219 13.768665
v 2.177788 24.727198 14.620220
v 2.337109 24.315125 15.460758
v 2.683457 23.890831 16.257978
v 11.204576 24.523691 11.685829
v 6.882468 26.037483 9.996845
v 11.724654 24.103481 12.409096
v 2.846203 25.737707 12.162567
v 2.437325 25.452425 12.938816
v 2.211631 25.111219 13.768665
v 2.177788 24.727198 14.620220
v 2.337109 24.315125 15.460758
v 2.683457 23.890831 16.257978
v 8.257160 28.346821 11.038576
v 4.532163 28.590185 11.901316
v 3.810491 28.447073 12.484081
v 5.371417 28.652515 11.450998
v 6.296012 28.631670 11.150436
v 7.270406 28.528448 11.011177
v 3.234145 28.228680 13.176903
v 7.669935 20.851442 8.560009
v 3.662380 21.275978 9.132761
v 8.438486 20.582268 8.860346
v 4.380097 21.329283 8.747654
v 9.124047 20.270664 9.284414
v 5.170794 21.311459 8.490622
v 9.700284 19.928616 9.815928
v 6.004083 21.223186 8.371531
v 10.145048 19.569262 10.434452
v 6.847941 21.067863 8.394964
v 3.045219 21.153591 9.631136
v 2.552335 20.966825 10.223623
v 2.202664 20.722855 10.887457
v 2.009657 20.431065 11.597137
v 1.980715 20.102650 12.325371
v 2.116962 19.750256 13.044188
v 2.413157 19.387403 13.725962
v 9.935532 33.289322 14.787544
v 6.210535 33.532688 15.650286
v 5.488861 33.389572 16.233047
v 7.049788 33.595016 15.199965
v 7.974383 33.574173 14.899405
v 8.948776 33.470947 14.760145
v 4.912516 33.171181 16.925871
v 3.488070 9.374630 12.291538
v 6.734954 9.118630 9.993517
v 6.729641 9.250999 14.907171
v 3.600538 9.393586 13.247234
v 9.282251 9.011250 11.668369
v 5.582418 9.190912 10.117474
v 7.838087 9.176409 14.599152
v 4.560656 9.264944 10.597725
v 8.737288 9.021399 10.832857
v 4.556530 9.367759 14.414410
v 3.825218 9.329456 11.361155
v 9.057570 9.075379 13.554449
v 5.577310 9.318192 14.842300
v 7.305477 9.086643 10.073303
v 9.394719 9.030207 12.624065
v 3.487546 9.387668 12.775494
v 6.153148 9.153837 10.008430
v 7.300367 9.213924 14.798130
v 3.822702 9.392158 13.688641
v 9.060086 9.012680 11.226963
v 5.044700 9.228428 10.316452
v 8.322133 9.139893 14.317881
v 4.148888 9.299057 10.950476
v 4.145499 9.383438 14.082748
v 8.326258 9.037077 10.501196
v 5.039991 9.345730 14.670876
v 8.733902 9.105780 13.965130
v 3.602088 9.354975 11.813976
v 9.280701 9.049859 13.101629
v 7.842794 9.059107 10.244726
v 6.147836 9.286205 14.922085
v 9.395243 9.017169 12.140114
v -1.731305 7.403080 14.201059
v -0.719611 5.903575 12.899887
v -0.573995 6.471129 15.881704
v -1.665208 7.470294 14.784283
v 0.178413 5.127428 13.989616
v -1.099478 6.356245 12.941946
v -0.214322 6.014051 15.726671
v -1.425136 6.800157 13.203993
v -0.028023 5.238552 13.466883
v -1.312024 7.240987 15.520121
v -1.647004 7.167765 13.646135
v 0.160207 5.429959 15.127766
v -0.959457 6.901958 15.809172
v -0.527339 5.695746 12.964727
v 0.244509 5.194645 14.572840
v -1.716962 7.458983 14.494743
v -0.912801 6.126595 12.892197
v -0.387316 6.241477 15.831951
v -1.578027 7.436586 15.058556
v 0.091231 5.161129 13.715345
v -1.272473 6.583675 13.047228
v -0.061659 5.797568 15.569904
v -1.551599 6.997386 13.406219
v -1.458773 7.359165 15.307018
v -0.174770 5.356723 13.253778
v -1.143429 7.086617 15.689678
v 0.064806 5.600339 15.367676
v -1.707683 7.304750 13.914520
v 0.220888 5.292965 14.859379
v -0.343365 5.511104 13.084221
v -0.767182 6.694136 15.874012
v 0.230169 5.138735 14.279158
v 0.494638 7.872738 13.924175
v 1.941570 7.137620 12.052114
v 2.650765 7.216869 15.372509
v 0.694797 7.863728 14.558821
v 3.580749 6.616181 12.933117
v 1.327706 7.387569 12.249245
v 3.213786 6.973493 15.055349
v 0.837167 7.615040 12.674242
v 0.880559 7.822946 14.835197
v 3.160909 6.720152 12.422218
v 1.388031 7.676596 15.253365
v 3.438382 6.864874 14.817692
v 0.544631 7.785407 13.262400
v 3.730916 6.694503 14.229534
v 2.887515 6.803313 12.238571
v 2.009646 7.463769 15.442043
v 3.780908 6.607172 13.567760
v 0.487935 7.840611 13.590296
v 2.265901 7.016135 12.049894
v 2.333975 7.342294 15.439823
v 0.564487 7.880541 14.251207
v 3.711060 6.599369 13.240728
v 1.624781 7.263041 12.119427
v 2.947841 7.092344 15.242691
v 1.061760 7.506421 12.436584
v 3.394985 6.656964 12.656738
v 1.114639 7.759755 15.069717
v 0.662553 7.709239 12.953085
v 3.612993 6.770672 14.538849
v 1.690239 7.576647 15.379084
v 2.585305 6.903254 12.112850
v 3.787612 6.639300 13.901638
v -1.620084 7.448920 15.076893
v -0.075687 5.779605 15.597696
v -0.190888 5.330610 13.238756
v -0.745801 5.887571 12.878323
v -1.776195 7.414793 14.203547
v -1.752136 7.314646 13.911711
v -1.708877 7.483250 14.797552
v -1.761587 7.471729 14.502659
v -0.597492 6.465616 15.915258
v -0.794251 6.692746 15.907423
v -0.231172 6.000088 15.757359
v -0.407363 6.231717 15.864588
v 0.168823 5.097075 13.988194
v 0.221536 5.108593 14.283089
v -0.041427 5.210257 13.455799
v 0.080030 5.131403 13.708855
v -1.464367 6.800726 13.188051
v -1.308882 6.580242 13.028387
v -1.690336 7.175128 13.638365
v -1.593168 7.001600 13.394014
v -1.349164 7.249704 15.546989
v -1.498626 7.370067 15.329952
v -0.990079 6.904408 15.841387
v -1.177453 7.092481 15.719683
v 0.150281 5.405201 15.147381
v 0.053116 5.578731 15.391729
v 0.236142 5.165535 14.582203
v 0.212084 5.265676 14.874037
v -0.549974 5.675901 12.944363
v -0.362600 5.487844 13.066065
v -1.132689 6.348608 12.921160
v -0.942561 6.114714 12.870489
v 3.328865 11.929514 12.308691
v 6.670158 11.666071 9.943851
v 6.664690 11.802288 15.000378
v 3.444603 11.949020 13.292177
v 9.291521 11.555569 11.667400
v 5.484111 11.740456 10.071411
v 7.805366 11.725529 14.683403
v 4.432638 11.816638 10.565626
v 8.730713 11.566012 10.807596
v 4.428392 11.922442 14.493286
v 3.675817 11.883027 11.351255
v 9.060306 11.621563 13.608324
v 5.478853 11.871433 14.933620
v 7.257269 11.633154 10.025959
v 9.407258 11.575074 12.650887
v 3.328326 11.942931 12.806717
v 6.071433 11.702301 9.959200
v 7.252011 11.764134 14.888166
v 3.673227 11.947551 13.746418
v 9.062897 11.557039 11.213161
v 4.930758 11.779061 10.276176
v 8.303486 11.687951 14.393953
v 4.008897 11.851745 10.928635
v 4.005411 11.938577 14.151983
v 8.307731 11.582146 10.466291
v 4.925911 11.899773 14.757214
v 8.727228 11.652845 14.030945
v 3.446198 11.909287 11.817242
v 9.289926 11.595301 13.142338
v 7.810209 11.604816 10.202364
v 6.065968 11.838519 15.015724
v 9.407798 11.561659 12.152863
v 4.766327 16.262318 12.389614
v 6.527275 16.123474 11.143282
v 6.524393 16.195267 13.808205
v 4.827324 16.272598 12.907936
v 7.908802 16.065239 12.051640
v 5.902197 16.162678 11.210510
v 7.125559 16.154814 13.641148
v 5.348043 16.202827 11.470974
v 7.613240 16.070744 11.598499
v 5.345806 16.258591 13.540953
v 4.949179 16.237820 11.885019
v 7.786944 16.100018 13.074554
v 5.899426 16.231709 13.773022
v 6.836699 16.106129 11.186554
v 7.969798 16.075520 12.569962
v 4.766043 16.269390 12.652086
v 6.211732 16.142570 11.151371
v 6.833927 16.175159 13.749063
v 4.947815 16.271824 13.147331
v 7.788310 16.066013 11.812241
v 5.610565 16.183025 11.318426
v 7.388082 16.135010 13.488602
v 5.124722 16.221333 11.662289
v 5.122884 16.267094 13.361076
v 7.390318 16.079247 11.418621
v 5.608011 16.246643 13.680050
v 7.611404 16.116507 13.297287
v 4.828164 16.251657 12.130608
v 7.907961 16.086178 12.828966
v 7.128112 16.091194 11.279526
v 6.208852 16.214361 13.816292
v 7.970081 16.068449 12.307489
v 6.624738 14.712285 10.325129
v 6.116032 14.743068 10.338169
v 8.016103 14.640979 10.769020
v 7.593384 14.660239 10.544773
v 5.142737 14.910851 14.414803
v 5.612545 14.886773 14.564690
v 3.785807 14.936119 12.334415
v 3.785349 14.947519 12.757563
v 8.655529 14.674467 13.438650
v 8.850624 14.652156 13.042725
v 4.360634 14.943819 13.900570
v 4.720020 14.930113 14.190559
v 4.080595 14.896622 11.520929
v 3.885499 14.918935 11.916855
v 4.363596 14.870044 11.161850
v 8.012496 14.730878 14.106159
v 8.372528 14.701048 13.797729
v 5.146854 14.808287 10.607489
v 4.723628 14.840216 10.853420
v 8.657730 14.619646 11.403599
v 8.375490 14.627271 11.059010
v 8.950774 14.623571 12.202015
v 8.851980 14.618398 11.789543
v 4.078394 14.951444 13.555981
v 7.119111 14.795606 14.526070
v 7.589268 14.762804 14.352091
v 6.111388 14.858806 14.634449
v 6.620091 14.828021 14.621410
v 3.884144 14.952694 13.170034
v 5.617012 14.775485 10.433510
v 8.950316 14.634970 12.625164
v 7.123577 14.684317 10.394890
v 0.922492 8.413130 13.633717
v 3.145572 7.718683 11.022137
v 4.173343 7.807090 15.608324
v 1.216979 8.407473 14.509392
v 5.620217 7.235687 12.218679
v 2.211137 7.952897 11.303604
v 5.032373 7.578492 15.161427
v 1.460528 8.167112 11.898754
v 1.494846 8.370599 14.889355
v 4.990553 7.330535 11.517370
v 2.258847 8.235781 15.461079
v 5.376671 7.476052 14.829315
v 1.008014 8.328724 12.716982
v 5.829183 7.314437 14.011089
v 4.578348 7.407381 11.266991
v 3.199413 8.037903 15.713547
v 5.914704 7.230032 13.094355
v 0.917191 8.381686 13.171652
v 3.637786 7.605254 11.014524
v 3.691623 7.924481 15.705935
v 1.023719 8.421834 14.085417
v 5.813478 7.221325 12.642654
v 2.663852 7.836071 11.119747
v 4.626059 7.690269 15.424467
v 1.804823 8.064672 11.566643
v 5.342349 7.272562 11.838717
v 1.846643 8.312622 15.210701
v 1.191477 8.256269 12.287176
v 5.645719 7.386893 14.440895
v 2.715622 8.143013 15.630871
v 4.121573 7.500140 11.097202
v 5.920006 7.261476 13.556419
v -3.377673 6.091789 14.096153
v -3.739195 7.180338 13.953405
v -3.068899 6.072973 15.795944
v -3.377946 7.158891 16.046745
v -4.705253 5.925056 13.330910
v -5.163289 7.088470 13.118690
v -4.469601 7.314029 16.732876
v -3.574305 5.792659 16.831730
v -5.577597 5.083712 17.194099
v -5.913409 5.497501 13.549450
v -5.886171 6.812717 16.989115
v -6.371445 6.660914 13.337229
v -4.215553 5.831736 13.301682
v -5.039712 7.349306 13.693470
v -6.218844 5.122789 13.664049
v -6.456282 6.847995 13.949707
v -5.092147 5.835904 12.360704
v -5.391995 6.597522 12.221779
v -5.883054 5.556010 12.503771
v -6.182902 6.317626 12.364843
v -3.468259 7.164252 15.523407
v -3.558571 7.169615 15.000074
v -3.648883 7.174976 14.476740
v -3.300480 6.087086 14.521101
v -3.223286 6.082382 14.946049
v -3.146092 6.077676 15.370996
v -3.734617 5.802429 15.949219
v -3.894929 5.812196 15.066706
v -4.055242 5.821966 14.184193
v -5.737908 5.093481 16.311586
v -5.898220 5.103251 15.429073
v -6.058533 5.113021 14.546560
v -6.369015 6.842596 14.414948
v -6.171868 6.830396 15.465984
v -5.974722 6.818196 16.517025
v -6.254904 6.716721 16.598478
v -6.052823 6.704218 17.675819
v -4.049532 7.413162 17.313452
v -4.857854 7.463181 13.004091
v -6.861145 6.754235 13.366457
v -6.659064 6.741731 14.443798
v -6.456984 6.729227 15.521137
v -5.949678 6.718472 16.548141
v -5.858109 6.712805 17.036320
v -4.393273 7.231198 16.771349
v -4.982810 7.267677 13.628376
v -6.447647 6.749286 13.893347
v -6.357408 6.743701 14.374439
v -6.153543 6.731087 15.461292
v -7.868896 5.951400 13.691214
v -7.055053 6.077317 17.765263
v -6.418028 5.240490 17.223045
v -7.065307 5.133776 13.885965
v -6.903487 5.160456 14.720234
v -6.741667 5.187134 15.554504
v -6.579847 5.213814 16.388771
v -7.131500 6.057618 16.863914
v -7.361403 6.022047 15.713036
v -7.591303 5.986479 14.562160
v -7.123645 5.375020 14.454191
v -7.723304 6.368754 14.711578
v -9.535974 6.083871 14.383867
v -7.106591 5.230749 13.622631
v -7.609181 6.210493 13.834419
v -10.083062 6.721192 14.203012
v -7.609181 6.210493 13.834419
v -7.106591 5.230749 13.622631
v -9.535974 6.083871 14.383867
v -9.278549 4.655447 14.278709
v -7.723304 6.368754 14.711578
v -7.123645 5.375020 14.454191
v -9.797642 5.197573 13.374710
v -10.182621 6.586294 13.434559
v -9.825636 5.292769 14.097851
v -10.083062 6.721192 14.203012
v -9.635532 5.948970 13.615414
v -9.250554 4.560251 13.555565
v -5.732322 5.685183 15.640318
v -6.535911 6.514293 15.502422
v -7.666300 4.790810 16.189178
v -8.192677 6.141446 16.038090
v -8.314082 5.344591 16.274124
v -8.840459 6.695225 16.123035
v -5.570500 5.654259 16.474442
v -7.534924 4.732944 16.910137
v -6.258318 6.489219 16.373713
v -8.166084 6.025952 16.821453
v -8.182705 5.286722 16.995083
v -8.813867 6.579731 16.906399
v -6.306082 5.077104 17.477005
v -6.259583 6.127486 17.448332
v -8.173923 5.689816 18.534576
v -7.873261 7.041418 18.285078
v -8.340487 6.529401 18.505234
v -8.039826 7.881002 18.255733
v -8.538321 7.847991 17.372074
v -8.698852 6.502482 17.863953
v -8.371756 7.008406 17.401421
v -8.532287 5.662898 17.893297
v -6.871952 6.060979 16.448723
v -6.746830 5.025173 16.751781
v -6.746830 5.025173 16.751781
v -6.871952 6.060979 16.448723
v -9.178954 5.621065 14.990303
v -8.603544 4.343279 14.865253
v -7.228416 6.106577 14.675579
v -6.608681 5.275373 14.498615
v -9.251326 4.900429 14.924141
v -9.826736 6.178217 15.049191
v -7.228416 6.106577 14.675579
v -6.608681 5.275373 14.498615
v -9.639606 6.144573 16.046329
v -9.119948 4.876429 15.647020
v -8.991824 5.587420 15.987442
v -8.472166 4.319277 15.588131
v -6.998514 6.116680 15.826960
v -6.446862 5.283591 15.333269
v -1.169541 8.101906 13.788631
v -1.148031 8.185747 14.278246
v 0.347762 5.853003 11.619385
v 0.058023 6.187480 11.606564
v 0.566153 6.704199 16.590521
v 0.846126 6.359773 16.507576
v -1.070411 8.202711 14.760956
v -0.939662 8.152160 15.218204
v 1.694587 4.688960 13.436125
v 1.563835 4.739510 12.978876
v -0.221949 6.531899 11.689505
v -0.481401 6.872993 11.865025
v 1.105576 6.018689 16.332058
v 1.334535 5.694015 16.070705
v -0.710360 7.197663 12.126375
v -0.900025 7.493461 12.463516
v -0.760807 8.036046 15.632435
v 1.384982 4.855626 12.564651
v 1.164896 5.032852 12.209375
v -0.540720 7.858806 15.987705
v -0.287866 7.627286 16.270384
v 1.524202 5.398221 15.733561
v -1.043111 7.748988 12.863491
v -1.134115 7.954433 13.310928
v 1.667283 5.142691 15.333591
v 1.758291 4.937233 14.886150
v 0.912042 5.264385 11.926697
v -0.011950 7.350339 16.469601
v 0.276416 7.038658 16.577694
v 0.636125 5.541307 11.727482
v 1.793715 4.789773 14.408447
v 1.772208 4.705923 13.918833
v -4.525661 7.027183 14.926640
v -4.518110 7.056612 15.098515
v -3.993027 6.237726 14.165146
v -4.094737 6.355141 14.160645
v -3.916362 6.536531 15.910215
v -3.818081 6.415624 15.881100
v -4.490864 7.062569 15.267965
v -4.444964 7.044823 15.428478
v -3.520235 5.829100 14.802895
v -3.566137 5.846845 14.642384
v -4.193018 6.476047 14.189760
v -4.284096 6.595783 14.251375
v -3.727003 6.295889 15.819487
v -3.646630 6.181916 15.727739
v -4.364470 6.709757 14.343121
v -4.431050 6.813594 14.461470
v -4.382179 7.004062 15.573889
v -3.628920 5.887605 14.496973
v -3.706179 5.949820 14.372257
v -4.304918 6.941845 15.698603
v -4.216157 6.860572 15.797836
v -3.580048 6.078080 15.609386
v -4.481278 6.903294 14.601879
v -4.513225 6.975413 14.758947
v -3.529822 5.988378 15.468983
v -3.497874 5.916254 15.311914
v -3.794941 6.031096 14.273026
v -4.119301 6.763352 15.867769
v -4.018072 6.653939 15.905714
v -3.891798 6.128307 14.203093
v -3.485437 5.864489 15.144222
v -3.492988 5.835054 14.972345
v 5.524631 20.578608 16.087872
v 9.105214 19.773312 14.924343
v 9.114711 20.140129 14.937210
v 9.111382 20.578608 14.962101
v 5.695252 20.988659 16.000650
v 6.125292 21.290165 15.957109
v 6.546216 21.479736 15.885353
v 6.959579 21.585835 15.790188
v 7.366106 21.620104 15.673870
v 7.766019 21.585833 15.537071
v 8.159097 21.479738 15.379120
v 8.921012 20.988661 14.988184
v 8.544613 21.290165 15.197758
v 8.714933 19.021200 14.871017
v 5.980782 19.021198 15.729183
v 8.629587 21.580292 14.621780
v 8.164721 21.808884 14.840471
v 7.690737 21.936815 15.030931
v 7.208512 21.978138 15.195887
v 6.718310 21.936815 15.336147
v 6.219867 21.808884 15.450901
v 5.712305 21.580292 15.537426
v 9.083459 21.216728 14.369068
v 9.313013 20.722275 14.337614
v 9.317026 20.193548 14.307602
v 9.305574 19.751228 14.292088
v 8.834964 18.844311 14.227785
v 5.193752 21.216728 15.589930
v 4.988011 20.722275 15.695101
v 4.967133 20.193546 15.672901
v 4.967373 19.751228 15.653717
v 5.538051 18.844311 15.262585
v 6.488310 16.362223 10.975899
v 6.840418 16.362223 11.020039
v 7.171929 16.362223 11.120075
v 7.470101 16.362225 11.272167
v 7.723477 16.362225 11.470463
v 7.922318 16.362223 11.707348
v 8.058986 16.362223 11.973719
v 8.128225 16.362223 12.259336
v 8.127378 16.362225 12.553225
v 8.056474 16.362223 12.844093
v 7.918240 16.362225 13.120758
v 7.717985 16.362221 13.372589
v 7.463410 16.362223 13.589914
v 7.164295 16.362223 13.764376
v 6.832135 16.362223 13.889271
v 6.479696 16.362223 13.959799
v 6.120521 16.362223 13.973253
v 5.768412 16.362223 13.929111
v 5.436900 16.362221 13.829075
v 5.138728 16.362225 13.676987
v 4.885353 16.362221 13.478687
v 4.686511 16.362225 13.241802
v 4.549845 16.362225 12.975431
v 4.480605 16.362223 12.689816
v 4.481453 16.362223 12.395927
v 4.552357 16.362223 12.105061
v 4.690592 16.362221 11.828394
v 4.890844 16.362223 11.576559
v 5.145419 16.362223 11.359238
v 5.444534 16.362225 11.184776
v 5.776694 16.362223 11.059879
v 6.129135 16.362223 10.989349
v 4.205480 18.000673 11.547794
v 4.014688 18.000673 12.187536
v 3.960006 18.000673 12.784559
v 4.004818 18.000673 13.350353
v 4.134504 18.000671 13.889509
v 4.344987 18.000673 14.403305
v 4.640345 18.000675 14.890461
v 3.220339 19.233212 11.045738
v 2.977457 19.285957 11.888475
v 2.910347 19.320776 12.676041
v 2.972314 19.340719 13.423098
v 3.144603 19.347227 14.135525
v 3.421975 19.340719 14.814968
v 3.809672 19.320776 15.459787
v 3.160521 19.780329 11.008886
v 2.944514 19.891333 11.857094
v 2.893682 19.964607 12.653458
v 2.966033 20.006582 13.411160
v 3.144372 20.020275 14.135597
v 3.423854 20.006584 14.828285
v 3.809324 19.964607 15.487711
v 3.070508 20.432737 10.953428
v 2.914303 20.614336 11.803797
v 2.899520 20.734219 12.609774
v 2.993768 20.802889 13.381529
v 3.183205 20.825289 14.123407
v 3.463866 20.802887 14.836655
v 3.839714 20.734219 15.520025
v 9.439297 18.000673 13.384216
v 9.394485 18.000673 12.818420
v 9.264799 18.000673 12.279266
v 9.054316 18.000673 11.765471
v 8.758959 18.000671 11.278315
v 8.364107 18.000673 10.822388
v 10.124312 19.320776 13.477814
v 10.062346 19.340719 12.730757
v 9.890059 19.347225 12.018330
v 9.612685 19.340719 11.338886
v 9.224987 19.320778 10.694069
v 8.708215 19.285957 10.089766
v 10.140979 19.964607 13.500397
v 10.068628 20.006584 12.742693
v 9.890290 20.020277 12.018257
v 9.610806 20.006584 11.325569
v 9.225336 19.964607 10.666145
v 8.716684 19.891331 10.045385
v 10.135139 20.734219 13.544081
v 10.040894 20.802889 12.772326
v 9.851458 20.825291 12.030445
v 9.570795 20.802889 11.317200
v 9.194946 20.734219 10.633831
v 8.710067 20.614336 9.984682
v 7.833146 18.000671 10.409178
v 7.244328 18.000673 10.132521
v 6.706565 18.000673 10.013889
v 6.206118 18.000671 10.010773
v 5.737507 18.000671 10.106194
v 5.299202 18.000673 10.295424
v 4.892732 18.000671 10.583197
v 4.523579 18.000673 10.986481
v 8.015673 19.233212 9.540628
v 7.240824 19.285957 9.185743
v 6.531905 19.320776 9.034927
v 5.871400 19.340719 9.033976
v 5.252275 19.347227 9.161114
v 4.672567 19.340721 9.410254
v 4.134238 19.320774 9.787481
v 3.644325 19.285957 10.314575
v 8.042856 19.780327 9.476467
v 7.265684 19.891333 9.151463
v 6.550465 19.964607 9.018225
v 5.881450 20.006584 9.028008
v 5.252190 20.020277 9.160847
v 4.660866 20.006582 9.411112
v 4.109297 19.964607 9.784433
v 3.603932 19.891331 10.300776
v 8.083763 20.432739 9.379921
v 7.310352 20.614336 9.122356
v 6.589989 20.734219 9.028984
v 5.910521 20.802889 9.062201
v 5.266755 20.825289 9.205931
v 4.657207 20.802889 9.455578
v 4.083362 20.734217 9.815739
v 3.550413 20.614336 10.302486
v 3.197596 21.026539 11.031727
v 3.172973 21.283991 11.811245
v 3.233658 21.453941 12.563990
v 3.365124 21.551294 13.294518
v 3.560543 21.583054 14.004972
v 3.817888 21.551294 14.695992
v 4.139187 21.453941 15.366938
v 3.707000 21.283991 10.550867
v 3.768665 21.710678 11.383549
v 3.894312 21.983139 12.196144
v 4.073043 22.136690 12.992081
v 4.299741 22.186436 13.772961
v 4.572882 22.136690 14.539265
v 4.893988 21.983139 15.290514
v 4.248402 21.453941 10.169054
v 4.388354 21.983139 11.030132
v 4.570963 22.315874 11.877821
v 4.788961 22.502090 12.714405
v 5.038937 22.562244 13.540951
v 5.319874 22.502090 14.357777
v 5.632789 22.315874 15.164570
v 4.816351 21.551294 9.869415
v 5.027957 22.136690 10.738350
v 5.260889 22.502090 11.600588
v 5.511518 22.705936 12.457273
v 5.778133 22.771698 13.308939
v 6.060231 22.705936 14.155746
v 6.358317 22.502090 14.997536
v 5.408289 21.583054 9.644032
v 5.685550 22.186436 10.502256
v 5.962810 22.562243 11.360481
v 6.240070 22.771698 12.218704
v 6.517330 22.839245 13.076927
v 6.794590 22.771698 13.935150
v 7.071851 22.562244 14.793375
v 6.023454 21.551294 9.490543
v 6.360561 22.136690 10.320086
v 6.676343 22.502090 11.156321
v 6.974429 22.705936 11.998108
v 7.256527 22.771698 12.844915
v 7.523144 22.705936 13.696583
v 7.773771 22.502090 14.553268
v 6.662606 21.453941 9.411308
v 7.053566 21.983137 10.193602
v 7.401872 22.315874 10.989286
v 7.714787 22.502090 11.796078
v 7.995724 22.562243 12.612904
v 8.245698 22.502090 13.439449
v 8.463698 22.315876 14.276033
v 7.328308 21.283991 9.414249
v 7.766481 21.710678 10.128754
v 8.140673 21.983139 10.863340
v 8.461781 22.136692 11.614590
v 8.734921 22.186436 12.380894
v 8.961618 22.136690 13.161774
v 9.140350 21.983139 13.957710
v 8.026009 21.026539 9.516235
v 8.503395 21.283993 10.138189
v 8.895474 21.453941 10.786919
v 9.216774 21.551294 11.457865
v 9.474116 21.583054 12.148882
v 9.669537 21.551294 12.859337
v 9.801002 21.453941 13.589867
v 6.502752 15.738021 10.858206
v 6.882512 15.738020 10.905811
v 7.240056 15.738020 11.013706
v 7.561645 15.738021 11.177738
v 7.834918 15.738021 11.391609
v 8.049375 15.738020 11.647099
v 8.196775 15.738020 11.934385
v 8.271454 15.738020 12.242432
v 8.270537 15.738021 12.559402
v 8.194064 15.738020 12.873110
v 8.044974 15.738021 13.171503
v 7.828996 15.738021 13.443111
v 7.554428 15.738021 13.677504
v 7.231823 15.738020 13.865665
v 6.873578 15.738020 14.000370
v 6.493461 15.738021 14.076439
v 6.106079 15.738020 14.090946
v 5.726318 15.738021 14.043339
v 5.368773 15.738021 13.935446
v 5.047185 15.738021 13.771412
v 4.773911 15.738019 13.557541
v 4.559454 15.738021 13.302052
v 4.412055 15.738020 13.014765
v 4.337378 15.738021 12.706718
v 4.338293 15.738021 12.389750
v 4.414765 15.738020 12.076042
v 4.563855 15.738019 11.777649
v 4.779834 15.738022 11.506039
v 5.054401 15.738020 11.271648
v 5.377007 15.738020 11.083487
v 5.735251 15.738021 10.948784
v 6.115370 15.738020 10.872715
v 6.052324 16.860809 10.338503
v 6.568895 16.860809 10.319157
v 7.075304 16.860811 10.382641
v 7.552088 16.860811 10.526514
v 7.980922 16.860811 10.745251
v 8.345332 16.860811 11.030447
v 8.631310 16.860809 11.371140
v 8.827865 16.860811 11.754236
v 8.927446 16.860811 12.165016
v 8.926227 16.860813 12.587690
v 8.824251 16.860809 13.006018
v 8.625443 16.860811 13.403923
v 8.337433 16.860809 13.766113
v 7.971300 16.860809 14.078672
v 7.541107 16.860809 14.329586
v 7.063391 16.860809 14.509212
v 6.556506 16.860809 14.610647
v 6.039934 16.860809 14.629995
v 5.533526 16.860809 14.566513
v 5.056743 16.860809 14.422638
v 4.627907 16.860809 14.203899
v 4.263498 16.860811 13.918703
v 3.977521 16.860811 13.578011
v 3.780965 16.860809 13.194916
v 3.681383 16.860809 12.784136
v 3.682605 16.860811 12.361462
v 3.784580 16.860811 11.943132
v 3.983389 16.860809 11.545227
v 4.271396 16.860811 11.183037
v 4.637530 16.860809 10.870480
v 5.067722 16.860811 10.619566
v 5.545440 16.860811 10.439941
v 5.507317 20.140129 16.069460
v 5.507515 19.773314 16.053551
v 6.168945 19.674946 11.326683
v 6.446543 19.674946 11.316284
v 6.718679 19.674946 11.350399
v 6.974895 19.674948 11.427717
v 7.205344 19.674946 11.545263
v 7.401173 19.674946 11.698523
v 7.554853 19.674946 11.881605
v 7.660479 19.674946 12.087475
v 7.713993 19.674948 12.308224
v 7.713337 19.674946 12.535362
v 7.658537 19.674948 12.760164
v 7.551700 19.674948 12.973993
v 7.396929 19.674946 13.168629
v 7.200174 19.674946 13.336594
v 6.968995 19.674946 13.471430
v 6.712278 19.674946 13.567959
v 6.439885 19.674946 13.622469
v 6.162288 19.674948 13.632866
v 5.890151 19.674946 13.598751
v 5.633935 19.674946 13.521435
v 5.403484 19.674946 13.403889
v 5.207657 19.674946 13.250629
v 5.053977 19.674948 13.067547
v 4.948351 19.674946 12.861675
v 4.894837 19.674946 12.640928
v 4.895494 19.674946 12.413790
v 4.950293 19.674946 12.188988
v 5.057131 19.674946 11.975159
v 5.211901 19.674946 11.780521
v 5.408656 19.674946 11.612558
v 5.639835 19.674946 11.477720
v 5.896553 19.674948 11.381193
v 6.278122 18.902256 16.676517
v 5.804854 19.654369 17.000885
v 5.804655 20.021187 17.016792
v 5.821970 20.459663 17.035204
v 5.992592 20.869717 16.947987
v 9.012272 18.902256 15.818352
v 9.402554 19.654369 15.871675
v 9.412049 20.021187 15.884542
v 9.408722 20.459663 15.909433
v 9.218350 20.869719 15.935518
v 6.422632 21.171223 16.904446
v 6.843556 21.360794 16.832687
v 7.256918 21.466888 16.737522
v 7.663446 21.501162 16.621204
v 8.063358 21.466890 16.484406
v 8.456436 21.360794 16.326454
v 8.841951 21.171223 16.145094
v 5.839971 9.090942 9.153730
v 9.914370 14.156137 8.013361
v 6.331583 8.677849 9.075359
v 10.405983 13.743044 7.934988
v 6.839408 8.279827 9.121859
v 10.913810 13.345020 7.981488
v 7.343931 7.912169 9.291433
v 11.418332 12.977366 8.151064
v 7.825767 7.589008 9.577576
v 11.900163 12.654204 8.437204
v 8.266390 7.322762 9.969280
v 12.340792 12.387957 8.828909
v 8.648874 7.123661 10.451502
v 12.723275 12.188856 9.311129
v 8.958518 6.999358 11.005703
v 13.032921 12.064553 9.865332
v 9.183425 6.954628 11.610590
v 13.257826 12.019824 10.470219
v 9.314950 6.991193 12.242916
v 13.389351 12.056387 11.102543
v 9.348039 7.107644 12.878380
v 13.422438 12.172839 11.738010
v 9.281420 7.299508 13.492563
v 13.355820 12.364704 12.352192
v 9.117653 7.559413 14.061861
v 13.192051 12.624607 12.921492
v 8.863031 7.877367 14.564402
v 12.937429 12.942563 13.424028
v 8.527343 8.241157 14.980862
v 12.601740 13.306352 13.840492
v 8.123481 8.636797 15.295246
v 12.197883 13.701992 14.154877
v 7.666973 9.049087 15.495470
v 11.741374 14.114280 14.355099
v 6.585497 8.478836 9.098610
v 10.659895 13.544031 7.958238
v 6.184101 8.801777 9.098873
v 10.258499 13.866972 7.958501
v 12.197883 13.701992 14.154877
v 12.601740 13.306352 13.840492
v 12.937429 12.942563 13.424028
v 13.192051 12.624607 12.921492
v 13.355820 12.364704 12.352192
v 13.422438 12.172839 11.738010
v 13.389351 12.056387 11.102543
v 13.257826 12.019824 10.470219
v 13.032921 12.064553 9.865332
v 4.243005 7.105636 9.600700
v 4.734622 6.692544 9.522331
v 5.242445 6.294521 9.568827
v 5.746970 5.926863 9.738403
v 6.228804 5.603703 10.024544
v 6.669430 5.337457 10.416250
v 7.051912 5.138355 10.898468
v 7.361558 5.014053 11.452669
v 7.586463 4.969321 12.057558
v 7.717988 5.005886 12.689884
v 7.751077 5.122339 13.325348
v 7.684455 5.314203 13.939533
v 7.520689 5.574108 14.508831
v 7.266067 5.892063 15.011366
v 6.930378 6.255851 15.427834
v 6.526519 6.651491 15.742216
v 6.070010 7.063783 15.942438
v 4.988533 6.493531 9.545578
v 4.587137 6.816470 9.545839
v 0.672601 6.201684 10.794029
v 1.164214 5.788590 10.715660
v 1.672036 5.390568 10.762157
v 2.176561 5.022911 10.931734
v 2.658392 4.699751 11.217873
v 3.099019 4.433505 11.609579
v 3.481502 4.234405 12.091801
v 3.791147 4.110100 12.646002
v 4.016054 4.065371 13.250889
v 4.147578 4.101933 13.883209
v 4.180666 4.218388 14.518677
v 4.114048 4.410253 15.132860
v 3.950280 4.670155 15.702162
v 3.695661 4.988110 16.204697
v 3.359969 5.351898 16.621161
v 2.956109 5.747539 16.935543
v 2.499605 6.159828 17.135765
v 1.418123 5.589581 10.738907
v 1.016730 5.912520 10.739170
v 12.723275 12.188856 9.311129
v 12.340792 12.387957 8.828909
v 11.900163 12.654204 8.437204
v 10.913810 13.345020 7.981488
v 11.418332 12.977366 8.151064
v 10.405983 13.743044 7.934988
v 10.659895 13.544031 7.958238
v 9.914370 14.156137 8.013361
v 10.258499 13.866972 7.958501
v 7.877172 11.623539 8.583546
v 8.368783 11.210446 8.505175
v 8.876610 10.812424 8.551674
v 9.381132 10.444768 8.721249
v 9.862967 10.121607 9.007389
v 10.303590 9.855359 9.399094
v 10.686073 9.656259 9.881315
v 10.995720 9.531956 10.435516
v 11.220626 9.487226 11.040403
v 11.352150 9.523790 11.672728
v 11.385239 9.640243 12.308193
v 11.318619 9.832106 12.922379
v 11.154854 10.092010 13.491676
v 10.900230 10.409966 13.994215
v 10.564541 10.773755 14.410679
v 10.160683 11.169394 14.725061
v 9.704173 11.581684 14.925285
v 8.622696 11.011435 8.528425
v 8.221298 11.334373 8.528687
v 9.914370 14.156137 8.013361
v 10.405983 13.743044 7.934988
v 10.913810 13.345020 7.981488
v 11.418332 12.977366 8.151064
v 11.900163 12.654204 8.437204
v 12.340792 12.387957 8.828909
v 12.723275 12.188856 9.311129
v 13.032921 12.064553 9.865332
v 13.257826 12.019824 10.470219
v 13.389351 12.056387 11.102543
v 13.422438 12.172839 11.738010
v 13.355820 12.364704 12.352192
v 13.192051 12.624607 12.921492
v 12.937429 12.942563 13.424028
v 12.601740 13.306352 13.840492
v 12.197883 13.701992 14.154877
v 11.741374 14.114280 14.355099
v 10.659895 13.544031 7.958238
v 10.258499 13.866972 7.958501
v 10.258499 13.866972 7.958501
v 9.914370 14.156137 8.013361
v 10.659895 13.544031 7.958238
v 10.405983 13.743044 7.934988
v 11.418332 12.977366 8.151064
v 10.913810 13.345020 7.981488
v 11.900163 12.654204 8.437204
v 12.340792 12.387957 8.828909
v 12.723275 12.188856 9.311129
v 13.032921 12.064553 9.865332
v 13.257826 12.019824 10.470219
v 13.389351 12.056387 11.102543
v 13.422438 12.172839 11.738010
v 13.355820 12.364704 12.352192
v 13.192051 12.624607 12.921492
v 12.937429 12.942563 13.424028
v 12.601740 13.306352 13.840492
v 12.197883 13.701992 14.154877
v 11.741374 14.114280 14.355099
v 11.741374 14.114280 14.355099
v 13.816475 17.670918 8.304203
v 13.375851 17.937162 7.912496
v 14.198959 17.471813 8.786423
v 14.508604 17.347513 9.340624
v 14.733507 17.302780 9.945511
v 14.865036 17.339346 10.577837
v 14.898125 17.455799 11.213303
v 14.831503 17.647663 11.827484
v 14.667736 17.907566 12.396784
v 13.756254 15.886927 8.943834
v 13.373770 16.086029 8.461615
v 14.388798 16.062775 11.984896
v 14.455420 15.870913 11.370714
v 12.933146 16.352274 8.069908
v 14.422331 15.754460 10.735249
v 14.290806 15.717893 10.102924
v 14.065901 15.762624 9.498037
v 14.225031 16.322678 12.554195
vn -0.8977 0.3038 0.3191
vn 0.1514 0.6878 0.7100
vn 0.8017 -0.0347 -0.5967
vn 0.6937 0.0522 -0.7184
vn 0.5638 0.1305 -0.8156
vn 0.4163 0.1985 -0.8873
vn 0.2545 0.2551 -0.9328
vn 0.0814 0.2990 -0.9508
vn -0.0994 0.3287 -0.9392
vn -0.2835 0.3423 -0.8958
vn -0.4644 0.3378 -0.8187
vn -0.6334 0.3137 -0.7074
vn -0.7804 0.2696 -0.5642
vn -0.8949 0.2069 -0.3953
vn -0.9690 0.1291 -0.2105
vn -0.9989 0.0410 -0.0212
vn -0.9855 -0.0518 0.1614
vn -0.9334 -0.1444 0.3286
vn 0.2975 0.5183 -0.8018
vn -0.4262 0.5501 -0.7181
vn 0.1215 0.5338 -0.8368
vn -0.8881 0.4566 -0.0538
vn -0.5907 0.5410 -0.5987
vn -0.0618 0.5450 -0.8361
vn -0.7293 0.5222 -0.4421
vn 0.4614 0.4992 -0.7334
vn -0.8310 0.4937 -0.2563
vn -0.2467 0.5509 -0.7972
vn 0.2141 -0.8643 0.4552
vn -0.7731 0.3388 -0.5363
vn -0.2753 0.3990 -0.8746
vn -0.0901 0.3876 -0.9174
vn -0.6262 0.3757 -0.6832
vn 0.0926 0.3631 -0.9271
vn -0.4569 0.3956 -0.7967
vn -0.9329 -0.1323 0.3349
vn -0.9852 -0.0408 0.1667
vn -0.9986 0.0509 -0.0167
vn -0.9686 0.1378 -0.2068
vn -0.8945 0.2145 -0.3923
vn -0.7799 0.2763 -0.5617
vn -0.6329 0.3197 -0.7052
vn -0.4637 0.3434 -0.8167
vn -0.2828 0.3478 -0.8939
vn -0.0985 0.3344 -0.9373
vn 0.0825 0.3052 -0.9487
vn 0.2558 0.2621 -0.9305
vn 0.4180 0.2065 -0.8847
vn 0.5660 0.1397 -0.8125
vn 0.6966 0.0628 -0.7147
vn 0.8054 -0.0226 -0.5923
vn 0.3537 -0.4772 0.8045
vn 0.7386 0.3900 -0.5498
vn -0.1539 -0.8984 -0.4113
vn -0.0476 0.6139 -0.7880
vn -0.4009 0.6362 -0.6592
vn 0.1277 0.5715 -0.8106
vn -0.2255 0.6362 -0.7378
vn -0.5670 0.6113 -0.5521
vn -0.7151 0.5601 -0.4183
vn -0.9530 0.2689 0.1398
vn 0.3913 -0.1196 0.9125
vn -0.6401 -0.3483 0.6848
vn -0.2661 -0.0601 -0.9621
vn 0.0337 -0.6187 -0.7849
vn 0.4028 -0.8742 0.2711
vn 0.3744 -0.7325 0.5685
vn -0.0236 0.6291 0.7770
vn -0.0977 0.8907 0.4440
vn -0.3551 0.7450 -0.5648
vn -0.3751 0.3932 -0.8395
vn 0.2844 -0.8865 -0.3650
vn 0.3750 -0.9259 -0.0453
vn 0.2393 -0.2978 0.9242
vn 0.1020 0.1688 0.9804
vn -0.1812 0.9834 0.0052
vn 0.3964 -0.9109 0.1145
vn -0.2655 0.9266 -0.2662
vn -0.0701 -0.4637 -0.8832
vn 0.0337 0.4159 0.9088
vn 0.1304 -0.7395 -0.6604
vn 0.3952 -0.8154 0.4230
vn -0.3133 0.8554 -0.4125
vn 0.3411 -0.6220 0.7048
vn -0.0665 0.7875 0.6128
vn 0.2149 -0.8278 -0.5182
vn -0.1234 0.9503 0.2857
vn -0.3794 0.5898 -0.7129
vn 0.2959 -0.4788 0.8265
vn -0.3364 0.1695 -0.9263
vn 0.3379 -0.9184 -0.2060
vn -0.1497 0.9786 0.1409
vn 0.1731 -0.0782 0.9818
vn -0.1734 -0.2756 -0.9455
vn -0.2200 0.9670 -0.1283
vn 0.9453 -0.1493 0.2899
vn 0.6994 -0.0208 -0.7144
vn 0.5622 0.6710 0.4834
vn 0.5286 0.2344 -0.8159
vn 0.2253 0.9271 -0.2996
vn 0.9615 -0.2747 0.0053
vn 0.2599 0.9620 -0.0840
vn 0.6299 0.5641 0.5338
vn 0.7621 0.3189 0.5635
vn 0.9438 -0.2908 -0.1573
vn 0.8520 -0.2170 -0.4765
vn 0.2827 0.6853 -0.6711
vn 0.2315 0.8343 -0.5004
vn -0.7947 0.6059 -0.0364
vn -0.2129 -0.7121 -0.6690
vn 0.0385 -0.4717 0.8809
vn -0.6687 0.6691 0.3243
vn 0.2408 -0.9593 -0.1474
vn -0.4656 -0.4820 -0.7422
vn 0.1947 -0.7242 0.6615
vn -0.7241 -0.1164 -0.6798
vn -0.6015 0.6241 0.4987
vn 0.1408 -0.9260 -0.3503
vn -0.4344 0.3684 0.8220
vn 0.2436 -0.8048 0.5413
vn -0.8535 0.3189 -0.4121
vn 0.2944 -0.9066 0.3024
vn 0.0720 -0.8935 -0.4432
vn -0.1959 -0.0683 0.9782
vn -0.1046 -0.7895 -0.6048
vn -0.8412 0.4911 -0.2264
vn 0.2921 -0.9537 0.0718
vn -0.7335 0.6636 0.1471
vn -0.0712 -0.2873 0.9552
vn 0.1271 -0.6158 0.7776
vn 0.2725 -0.9613 -0.0395
vn 0.1970 -0.9477 -0.2513
vn -0.6005 -0.3169 -0.7341
vn -0.8144 0.1056 -0.5705
vn -0.5261 0.5250 0.6690
vn -0.3221 0.1618 0.9328
vn 0.2762 -0.8640 0.4210
vn 0.2995 -0.9358 0.1858
vn -0.0097 -0.8488 -0.5287
vn -0.3341 -0.6117 -0.7171
vn 0.2231 0.8877 -0.4027
vn 0.8733 0.0649 0.4828
vn 0.4352 0.8377 0.3299
vn 0.7811 -0.1309 -0.6105
vn 0.3315 0.9342 0.1320
vn 0.2512 0.7668 -0.5907
vn 0.8215 0.1901 0.5375
vn 0.3264 0.5901 -0.7384
vn 0.3826 0.4818 -0.7883
vn 0.9071 -0.2715 -0.3217
vn 0.6132 0.1042 -0.7830
vn 0.2913 0.9563 0.0249
vn 0.9614 -0.2260 0.1568
vn 0.6974 0.4453 0.5616
vn 0.9153 -0.0503 0.3997
vn 0.4506 0.3621 -0.8160
vn 0.4967 0.7628 0.4141
vn 0.2377 0.9520 -0.1928
vn 0.3798 0.8948 0.2347
vn -0.0268 -0.0202 -0.9994
vn 0.4683 -0.0087 -0.8835
vn -0.3058 -0.0458 0.9510
vn -0.9981 -0.0622 0.0006
vn 0.8967 -0.0103 0.4425
vn -0.6283 -0.0555 0.7760
vn -0.8969 -0.0542 -0.4389
vn -0.7862 -0.0484 -0.6161
vn 0.6496 -0.0179 0.7600
vn -0.5041 -0.0361 -0.8629
vn -0.4698 -0.0508 0.8813
vn 0.7736 -0.0043 -0.6337
vn 0.6278 -0.0061 -0.7783
vn 0.9725 -0.0036 -0.2329
vn -0.7729 -0.0595 0.6317
vn 0.3453 -0.0266 0.9381
vn -0.6520 -0.0422 -0.7570
vn 0.0234 -0.0359 0.9991
vn 0.5010 -0.0222 0.8651
vn -0.9704 -0.0633 0.2332
vn -0.3487 -0.0304 -0.9367
vn 1.0000 -0.0049 0.0012
vn -0.1892 -0.0250 -0.9816
vn 0.8932 -0.0034 -0.4496
vn -0.9715 -0.0590 -0.2295
vn 0.3034 -0.0120 -0.9528
vn -0.8916 -0.0623 0.4485
vn 0.1376 -0.0158 -0.9904
vn 0.9726 -0.0072 0.2325
vn 0.1856 -0.0312 0.9821
vn -0.1406 -0.0408 0.9892
vn 0.7848 -0.0140 0.6196
vn 0.0082 0.5020 -0.8648
vn 0.4189 0.5188 -0.7452
vn -0.2330 0.5297 0.8155
vn -0.8036 0.5949 -0.0169
vn 0.7604 0.5511 0.3436
vn -0.5075 0.5595 0.6553
vn -0.7220 0.5729 -0.3880
vn -0.6323 0.5560 -0.5395
vn 0.5766 0.5299 0.6218
vn -0.3981 0.5238 -0.7531
vn -0.3739 0.5436 0.7515
vn 0.6557 0.5425 -0.5251
vn 0.5445 0.5304 -0.6498
vn 0.8039 0.5602 -0.1996
vn -0.6265 0.5753 0.5259
vn 0.3290 0.5141 0.7921
vn -0.5219 0.5388 -0.6613
vn 0.0530 0.5132 0.8566
vn 0.4580 0.5206 0.7206
vn -0.7830 0.5953 0.1801
vn -0.2664 0.5121 -0.8165
vn 0.8268 0.5622 -0.0143
vn -0.1303 0.5048 -0.8534
vn 0.7449 0.5532 -0.3731
vn -0.7818 0.5868 -0.2108
vn 0.2851 0.5096 -0.8118
vn -0.7216 0.5882 0.3651
vn 0.1473 0.5037 -0.8512
vn 0.8115 0.5589 0.1707
vn 0.1932 0.5115 0.8373
vn -0.0897 0.5194 0.8498
vn 0.6797 0.5407 0.4956
vn 0.7829 0.1375 0.6068
vn -0.1305 0.1261 0.9834
vn 0.1940 0.1247 0.9730
vn 0.9636 0.1458 0.2241
vn 0.1443 0.1250 -0.9816
vn -0.8833 0.1474 0.4450
vn 0.3074 0.1275 -0.9430
vn -0.9606 0.1480 -0.2354
vn 0.8840 0.1446 -0.4445
vn -0.1784 0.1243 -0.9761
vn 0.9890 0.1477 -0.0029
vn -0.3365 0.1261 -0.9332
vn -0.9619 0.1501 0.2285
vn 0.5055 0.1290 0.8531
vn 0.0330 0.1247 0.9916
vn -0.6383 0.1336 -0.7581
vn 0.3520 0.1262 0.9274
vn -0.7641 0.1429 0.6290
vn 0.9615 0.1472 -0.2321
vn 0.6253 0.1357 -0.7685
vn 0.7675 0.1404 -0.6255
vn -0.4597 0.1330 0.8780
vn -0.4909 0.1293 -0.8616
vn 0.6511 0.1329 0.7472
vn -0.7728 0.1387 -0.6193
vn -0.8845 0.1438 -0.4439
vn -0.6188 0.1378 0.7734
vn 0.8911 0.1421 0.4311
vn -0.9886 0.1503 -0.0051
vn -0.2954 0.1289 0.9466
vn 0.4692 0.1312 -0.8733
vn -0.0179 0.1239 -0.9921
vn -0.2191 -0.2213 -0.9503
vn 0.1459 -0.7196 -0.6789
vn 0.4808 -0.8597 0.1726
vn 0.4836 -0.7389 0.4692
vn -0.1279 0.7578 0.6398
vn -0.2341 0.8971 0.3746
vn -0.4735 0.7491 -0.4633
vn -0.4445 0.3531 -0.8233
vn 0.3558 -0.8753 -0.3276
vn 0.4367 -0.8954 -0.0871
vn 0.3272 -0.1942 0.9248
vn 0.0738 0.3942 0.9160
vn -0.3351 0.9401 0.0629
vn 0.4633 -0.8853 0.0393
vn -0.4067 0.8995 -0.1594
vn 0.0428 -0.6091 -0.7919
vn -0.0417 0.6138 0.7883
vn 0.2305 -0.7942 -0.5622
vn 0.4884 -0.8137 0.3153
vn -0.4437 0.8451 -0.2982
vn 0.4611 -0.6218 0.6331
vn -0.1892 0.8456 0.4992
vn 0.2995 -0.8439 -0.4451
vn -0.2701 0.9259 0.2641
vn -0.4811 0.5897 -0.6487
vn 0.4123 -0.4441 0.7955
vn -0.3514 0.0620 -0.9342
vn 0.4011 -0.8919 -0.2088
vn -0.3026 0.9392 0.1624
vn 0.2066 0.1065 0.9726
vn -0.0806 -0.4476 -0.8906
vn -0.3697 0.9282 -0.0418
vn 0.9390 0.3030 -0.1627
vn 0.3604 -0.9297 -0.0758
vn 0.8819 0.1331 0.4523
vn 0.6610 0.1241 -0.7400
vn 0.2453 -0.2094 0.9465
vn 0.3217 -0.9443 -0.0689
vn 0.3263 -0.9443 -0.0434
vn -0.0992 -0.2162 -0.9713
vn -0.9264 -0.3734 -0.0478
vn -0.3688 0.8518 -0.3722
vn 0.8830 0.2787 -0.3777
vn 0.9660 0.1867 -0.1790
vn 0.2805 0.9590 -0.0405
vn 0.9420 0.2932 -0.1633
vn 0.9410 0.2965 -0.1631
vn 0.9400 0.2998 -0.1629
vn -0.3213 0.9443 0.0712
vn 0.3108 -0.4506 0.8368
vn -0.7591 -0.6368 0.1350
vn -0.0112 -0.4297 -0.9029
vn 0.3213 -0.9443 -0.0712
vn -0.6077 0.7865 0.1097
vn -0.5880 0.8019 0.1057
vn -0.5536 0.8294 0.0749
vn -0.1165 -0.9927 0.0316
vn -0.0734 -0.9970 0.0236
vn -0.0309 -0.9994 0.0156
vn 0.1429 -0.3249 0.9349
vn -0.1579 -0.2834 -0.9459
vn -0.1600 -0.9863 0.0397
vn -0.6007 0.7874 0.1388
vn -0.7683 -0.6169 0.1709
vn 0.2961 -0.9427 0.1538
vn -0.8708 -0.4912 0.0201
vn -0.7653 -0.6414 0.0548
vn -0.4611 -0.1475 0.8750
vn -0.9707 -0.2261 0.0815
vn -0.1142 0.9779 -0.1752
vn -0.0801 -0.1752 0.9813
vn 0.7706 0.6032 -0.2057
vn 0.1218 0.1383 -0.9829
vn -0.1992 -0.2472 -0.9483
vn -0.1956 0.9735 0.1187
vn -0.3137 -0.2254 -0.9224
vn -0.9165 -0.3967 0.0505
vn 0.6539 0.7513 0.0886
vn 0.1810 0.1882 0.9653
vn -0.6445 -0.7625 0.0562
vn 0.3925 -0.9111 -0.1260
vn -0.8435 0.2716 0.4633
vn 0.8582 0.1531 -0.4899
vn 0.3759 0.8869 -0.2686
vn 0.8539 -0.0502 -0.5179
vn -0.2181 -0.9587 0.1828
vn -0.6218 -0.2316 -0.7482
vn 0.4633 0.0420 0.8852
vn -0.8598 -0.1536 0.4869
vn -0.1547 0.0464 -0.9869
vn 0.1249 -0.3137 0.9413
vn 0.6441 0.7590 -0.0953
vn -0.2423 0.9685 0.0576
vn -0.8962 -0.4168 0.1520
vn 0.7762 0.6102 -0.1587
vn 0.4140 -0.9061 -0.0871
vn -0.6445 -0.7591 0.0919
vn -0.5251 0.2773 -0.8046
vn -0.1187 -0.7785 0.6163
vn -0.4611 0.6637 -0.5890
vn -0.4205 0.7891 -0.4478
vn -0.2375 0.8024 0.5475
vn -0.1380 -0.9104 0.3900
vn -0.3456 0.9273 -0.1436
vn -0.1915 0.4403 0.8772
vn -0.3371 -0.8534 -0.3975
vn -0.4818 -0.4463 -0.7541
vn -0.1262 -0.8558 0.5016
vn -0.1678 0.1808 0.9691
vn -0.1295 -0.3304 0.9349
vn -0.1537 -0.9473 0.2810
vn -0.4348 -0.6266 -0.6468
vn -0.2858 0.9401 0.1857
vn -0.3848 -0.7601 -0.5236
vn -0.3814 0.8749 -0.2984
vn -0.2243 -0.9736 -0.0435
vn -0.5173 -0.2215 -0.8266
vn -0.1732 -0.9695 0.1736
vn -0.5329 0.0298 -0.8457
vn -0.3139 0.9493 0.0171
vn -0.1162 -0.6712 0.7321
vn -0.1462 -0.0889 0.9853
vn -0.4984 0.4931 -0.7130
vn -0.1195 -0.5246 0.8429
vn -0.2608 0.8944 0.3633
vn -0.1966 -0.9783 0.0660
vn -0.2942 -0.9155 -0.2744
vn -0.2566 -0.9537 -0.1565
vn -0.2148 0.6526 0.7266
vn 0.7507 0.6448 -0.1434
vn 0.0964 0.8116 0.5762
vn 0.8429 -0.4575 0.2831
vn 0.2497 0.8127 0.5264
vn 0.9523 -0.0353 0.3030
vn 0.4032 0.7790 0.4802
vn 0.9523 -0.0101 0.3051
vn 0.5542 0.7077 0.4382
vn 0.8542 0.3735 0.3617
vn -0.4685 -0.5816 0.6650
vn 0.6983 0.5926 0.4015
vn -0.3366 0.5865 0.7367
vn -0.5937 -0.0352 0.8039
vn 0.0877 -0.9562 0.2793
vn -0.2001 0.7027 0.6827
vn -0.8489 0.4212 0.3193
vn -0.1273 0.3173 0.9397
vn 0.6943 -0.0355 0.7188
vn 0.1768 0.5862 0.7906
vn -0.1495 -0.0429 0.9878
vn 0.2408 -0.5946 0.7671
vn 0.5521 0.4534 0.6997
vn 0.6675 0.2657 0.6956
vn 0.6448 0.3238 0.6924
vn -0.0492 0.4473 0.8930
vn -0.1510 -0.0355 0.9879
vn 0.3065 0.5877 0.7488
vn 0.5640 -0.3458 0.7499
vn -0.1428 0.2624 0.9543
vn 0.0553 0.5388 0.8406
vn 0.6930 -0.0432 0.7196
vn 0.4352 0.5430 0.7182
vn -0.5924 -0.0104 0.8056
vn -0.0368 0.1843 -0.9822
vn 0.1222 0.1866 -0.9748
vn 0.2836 0.1911 -0.9397
vn 0.4454 0.1974 -0.8733
vn 0.6032 0.2051 -0.7708
vn 0.7484 0.2130 -0.6282
vn 0.8680 0.2197 -0.4453
vn 0.9473 0.2236 -0.2296
vn 0.9747 0.2236 0.0028
vn 0.9478 0.2197 0.2310
vn 0.8740 0.2130 0.4367
vn 0.7661 0.2051 0.6092
vn 0.6365 0.1974 0.7456
vn 0.4945 0.1911 0.8479
vn 0.3458 0.1866 0.9196
vn 0.1929 0.1843 0.9638
vn 0.0368 0.1843 0.9822
vn -0.1222 0.1866 0.9748
vn -0.2836 0.1911 0.9397
vn -0.4454 0.1974 0.8733
vn -0.6032 0.2051 0.7708
vn -0.7484 0.2130 0.6282
vn -0.8680 0.2197 0.4453
vn -0.9473 0.2236 0.2296
vn -0.9747 0.2236 -0.0028
vn -0.9478 0.2197 -0.2310
vn -0.8740 0.2130 -0.4367
vn -0.7661 0.2051 -0.6092
vn -0.6365 0.1974 -0.7456
vn -0.4945 0.1911 -0.8479
vn -0.3458 0.1866 -0.9196
vn -0.1929 0.1843 -0.9638
vn -0.7345 -0.6510 -0.1917
vn -0.7754 -0.6293 -0.0524
vn -0.7858 -0.6141 0.0732
vn -0.7735 -0.6048 0.1898
vn -0.7410 -0.6010 0.2997
vn -0.6879 -0.6027 0.4045
vn -0.9632 -0.0925 -0.2524
vn -0.9965 -0.0427 -0.0713
vn -0.9959 -0.0151 0.0895
vn -0.9715 -0.0026 0.2371
vn -0.9266 -0.0026 0.3760
vn -0.8604 -0.0150 0.5094
vn -0.9753 -0.1008 -0.1964
vn -0.9991 -0.0188 -0.0386
vn -0.9940 0.0263 0.1064
vn -0.9692 0.0466 0.2419
vn -0.9276 0.0466 0.3707
vn -0.8687 0.0262 0.4947
vn -0.9365 0.2984 -0.1843
vn -0.9193 0.3910 -0.0456
vn -0.8949 0.4378 0.0861
vn -0.8634 0.4580 0.2117
vn -0.8243 0.4576 0.3334
vn -0.7770 0.4366 0.4535
vn 0.8886 -0.4518 -0.0791
vn 0.8695 -0.4460 -0.2121
vn 0.8273 -0.4504 -0.3358
vn 0.7617 -0.4648 -0.4514
vn 0.6687 -0.4904 -0.5589
vn 0.5384 -0.5295 -0.6555
vn 0.9959 -0.0151 -0.0895
vn 0.9715 -0.0026 -0.2371
vn 0.9266 -0.0026 -0.3760
vn 0.8604 -0.0150 -0.5094
vn 0.7680 -0.0424 -0.6391
vn 0.6372 -0.0918 -0.7652
vn 0.9940 0.0263 -0.1064
vn 0.9692 0.0466 -0.2419
vn 0.9276 0.0466 -0.3708
vn 0.8687 0.0262 -0.4947
vn 0.7888 -0.0187 -0.6143
vn 0.6790 -0.1001 -0.7272
vn 0.8949 0.4378 -0.0861
vn 0.8634 0.4580 -0.2117
vn 0.8243 0.4576 -0.3334
vn 0.7770 0.4366 -0.4535
vn 0.7206 0.3891 -0.5738
vn 0.6548 0.2965 -0.6952
vn 0.3278 -0.5678 -0.7551
vn 0.1566 -0.5801 -0.7993
vn -0.0074 -0.5932 -0.8050
vn -0.1629 -0.6064 -0.7783
vn -0.3072 -0.6193 -0.7225
vn -0.4371 -0.6320 -0.6400
vn -0.5494 -0.6447 -0.5314
vn -0.6407 -0.6585 -0.3948
vn 0.3909 -0.0958 -0.9154
vn 0.1920 -0.0467 -0.9803
vn -0.0074 -0.0171 -0.9998
vn -0.2039 -0.0030 -0.9790
vn -0.3922 -0.0030 -0.9199
vn -0.5664 -0.0172 -0.8239
vn -0.7204 -0.0470 -0.6920
vn -0.8476 -0.0966 -0.5218
vn 0.3321 -0.1063 -0.9372
vn 0.1532 -0.0208 -0.9880
vn -0.0294 0.0300 -0.9991
vn -0.2105 0.0541 -0.9761
vn -0.3851 0.0541 -0.9213
vn -0.5478 0.0301 -0.8360
vn -0.6926 -0.0209 -0.7210
vn -0.8115 -0.1071 -0.5744
vn 0.3127 0.3137 -0.8965
vn 0.1506 0.4236 -0.8932
vn -0.0136 0.4846 -0.8746
vn -0.1763 0.5130 -0.8401
vn -0.3354 0.5137 -0.7897
vn -0.4891 0.4863 -0.7240
vn -0.6355 0.4260 -0.6439
vn -0.7717 0.3160 -0.5520
vn -0.6612 0.6960 -0.2801
vn -0.6522 0.7463 -0.1333
vn -0.6313 0.7756 0.0008
vn -0.6012 0.7889 0.1270
vn -0.5625 0.7884 0.2489
vn -0.5145 0.7741 0.3690
vn -0.5259 0.7660 -0.3697
vn -0.5016 0.8386 -0.2125
vn -0.4705 0.8797 -0.0688
vn -0.4340 0.8984 0.0673
vn -0.3923 0.8979 0.1996
vn -0.3441 0.8784 0.3316
vn -0.3852 0.8094 -0.4432
vn -0.3486 0.8943 -0.2804
vn -0.3097 0.9417 -0.1312
vn -0.2688 0.9631 0.0105
vn -0.2252 0.9628 0.1491
vn -0.1777 0.9408 0.2885
vn -0.2400 0.8301 -0.5034
vn -0.1933 0.9206 -0.3393
vn -0.1485 0.9708 -0.1883
vn -0.1044 0.9935 -0.0442
vn -0.0600 0.9934 0.0973
vn -0.0138 0.9705 0.2406
vn -0.0910 0.8295 -0.5511
vn -0.0357 0.9201 -0.3900
vn 0.0138 0.9705 -0.2406
vn 0.0600 0.9934 -0.0973
vn 0.1044 0.9935 0.0442
vn 0.1485 0.9708 0.1883
vn 0.0616 0.8077 -0.5864
vn 0.1244 0.8930 -0.4326
vn 0.1777 0.9408 -0.2885
vn 0.2252 0.9628 -0.1491
vn 0.2688 0.9631 -0.0105
vn 0.3097 0.9417 0.1312
vn 0.2177 0.7634 -0.6081
vn 0.2874 0.8365 -0.4665
vn 0.3441 0.8784 -0.3316
vn 0.3923 0.8979 -0.1996
vn 0.4340 0.8984 -0.0673
vn 0.4705 0.8797 0.0688
vn 0.3781 0.6930 -0.6138
vn 0.4547 0.7439 -0.4898
vn 0.5145 0.7741 -0.3690
vn 0.5625 0.7884 -0.2489
vn 0.6012 0.7889 -0.1270
vn 0.6313 0.7756 -0.0008
vn -0.0053 -0.3988 0.9170
vn -0.0227 -0.7949 -0.6063
vn 0.0749 -0.7986 -0.5971
vn 0.1711 -0.8057 -0.5671
vn 0.2632 -0.8151 -0.5161
vn 0.3477 -0.8257 -0.4442
vn 0.4204 -0.8359 -0.3529
vn 0.4773 -0.8439 -0.2449
vn 0.5145 -0.8484 -0.1247
vn 0.5294 -0.8484 0.0015
vn 0.5212 -0.8439 0.1271
vn 0.4911 -0.8359 0.2454
vn 0.4415 -0.8257 0.3511
vn 0.3761 -0.8151 0.4406
vn 0.2985 -0.8057 0.5117
vn 0.2118 -0.7986 0.5633
vn 0.1191 -0.7949 0.5949
vn 0.0227 -0.7949 0.6063
vn -0.0749 -0.7986 0.5971
vn -0.1711 -0.8056 0.5671
vn -0.2632 -0.8151 0.5161
vn -0.3477 -0.8257 0.4442
vn -0.4204 -0.8359 0.3529
vn -0.4773 -0.8439 0.2449
vn -0.5145 -0.8484 0.1247
vn -0.5294 -0.8484 -0.0015
vn -0.5212 -0.8439 -0.1271
vn -0.4911 -0.8359 -0.2454
vn -0.4415 -0.8257 -0.3511
vn -0.3761 -0.8151 -0.4406
vn -0.2985 -0.8057 -0.5117
vn -0.2118 -0.7986 -0.5633
vn -0.1191 -0.7949 -0.5949
vn -0.4823 0.3696 0.7942
vn -0.0544 0.7758 0.6286
vn -0.0000 -1.0000 -0.0000
vn 0.7088 0.3790 -0.5949
vn -0.4250 0.3540 0.8331
vn 0.8194 0.3897 -0.4204
vn -0.5735 0.3664 0.7327
vn 0.8925 0.3958 -0.2164
vn -0.7088 0.3790 0.5949
vn 0.9183 0.3958 0.0027
vn -0.8194 0.3897 0.4204
vn 0.8947 0.3897 0.2181
vn -0.8925 0.3958 0.2164
vn 0.8278 0.3790 0.4136
vn -0.9183 0.3958 -0.0027
vn 0.7283 0.3664 0.5791
vn -0.8947 0.3897 -0.2181
vn 0.6072 0.3540 0.7113
vn -0.8278 0.3790 -0.4136
vn 0.4731 0.3436 0.8112
vn -0.0353 0.3324 -0.9425
vn -0.7283 0.3664 -0.5791
vn 0.3315 0.3362 0.8815
vn 0.1171 0.3362 -0.9345
vn -0.6072 0.3540 -0.7113
vn 0.1851 0.3324 0.9248
vn 0.2713 0.3436 -0.8991
vn -0.4732 0.3436 -0.8112
vn 0.0353 0.3324 0.9425
vn 0.4250 0.3540 -0.8331
vn -0.3315 0.3362 -0.8815
vn -0.1171 0.3362 0.9345
vn 0.5735 0.3664 -0.7328
vn -0.1851 0.3324 -0.9248
vn -0.2713 0.3436 0.8991
vn 0.2973 -0.1189 0.9473
vn -0.0439 0.9895 0.1380
vn 0.8502 -0.4185 -0.3194
vn 0.1149 0.9895 0.0882
vn 0.9535 -0.0141 -0.3010
vn 0.2735 0.9613 0.0349
vn 0.9547 0.0241 -0.2966
vn 0.4326 0.9013 -0.0226
vn 0.8787 0.4221 -0.2228
vn -0.7966 -0.5778 0.1775
vn 0.5934 0.8004 -0.0857
vn -0.5346 0.8013 0.2684
vn -0.9545 -0.0134 0.2979
vn -0.0356 -0.9929 -0.1135
vn -0.3671 0.9017 0.2284
vn -0.9529 0.0249 0.3022
vn -0.2042 0.9613 0.1848
vn -0.2033 -0.0565 -0.9775
vn -0.0511 -0.1800 -0.9823
vn 0.1030 -0.2966 -0.9494
vn 0.2532 -0.4018 -0.8801
vn 0.3936 -0.4915 -0.7768
vn 0.5189 -0.5624 -0.6438
vn 0.6243 -0.6116 -0.4860
vn 0.7057 -0.6373 -0.3095
vn 0.7600 -0.6386 -0.1211
vn 0.7850 -0.6153 0.0719
vn 0.7799 -0.5683 0.2621
vn 0.7448 -0.4996 0.4423
vn 0.6811 -0.4116 0.6055
vn 0.5913 -0.3078 0.7454
vn 0.4787 -0.1922 0.8567
vn 0.3477 -0.0691 0.9351
vn 0.7007 -0.2616 -0.6638
vn -0.1321 -0.5589 -0.8186
vn -0.2786 -0.1516 -0.9484
vn 0.3303 -0.8902 0.3139
vn -0.0563 -0.7076 -0.7044
vn 0.3612 -0.8046 0.4713
vn 0.0155 -0.8188 -0.5739
vn 0.3813 -0.6816 0.6245
vn 0.0816 -0.8967 -0.4350
vn 0.3862 -0.5176 0.7635
vn 0.1421 -0.9460 -0.2915
vn 0.3716 -0.3147 0.8734
vn 0.1970 -0.9696 -0.1450
vn 0.3351 -0.0847 0.9384
vn 0.2469 -0.9690 0.0047
vn -0.2083 -0.3715 -0.9048
vn 0.2916 -0.9435 0.1577
vn -0.2226 0.9724 0.0705
vn -0.7364 0.6410 0.2164
vn -0.6174 -0.7675 0.1728
vn 0.9518 -0.2479 0.1807
vn 0.9427 -0.2812 -0.1798
vn 0.8108 -0.2777 -0.5153
vn 0.9071 -0.2176 0.3603
vn 0.5622 -0.2358 -0.7927
vn 0.9631 -0.2691 -0.0008
vn 0.8916 -0.2841 -0.3525
vn 0.1491 -0.0810 -0.9855
vn 0.6719 -0.0564 0.7385
vn -0.7181 0.6631 0.2113
vn 0.6174 0.7675 -0.1728
vt 0.343750 1.000000
vt 0.250000 1.000000
vt 0.281250 1.000000
vt 0.312500 1.000000
vt 0.312500 0.500000
vt 0.343750 0.500000
vt 0.750000 0.750000
vt 0.750000 1.000000
vt 0.718750 1.000000
vt 0.718750 0.750000
vt 0.687500 1.000000
vt 0.687500 0.750000
vt 0.656250 1.000000
vt 0.656250 0.750000
vt 0.625000 1.000000
vt 0.625000 0.750000
vt 0.593750 1.000000
vt 0.593750 0.750000
vt 0.562500 1.000000
vt 0.562500 0.750000
vt 0.531250 1.000000
vt 0.531250 0.750000
vt 0.500000 1.000000
vt 0.500000 0.750000
vt 0.468750 1.000000
vt 0.468750 0.750000
vt 0.437500 1.000000
vt 0.437500 0.750000
vt 0.406250 1.000000
vt 0.406250 0.750000
vt 0.375000 1.000000
vt 0.375000 0.750000
vt 0.343750 0.750000
vt 0.312500 0.750000
vt 0.281250 0.750000
vt 0.250000 0.750000
vt 0.593750 0.500000
vt 0.625000 0.500000
vt 0.562500 0.500000
vt 0.531250 0.500000
vt 0.468750 0.500000
vt 0.437500 0.500000
vt 0.281250 0.500000
vt 0.250000 0.500000
vt 0.718750 0.500000
vt 0.750000 0.500000
vt 0.406250 0.500000
vt 0.375000 0.500000
vt 0.656250 0.500000
vt 0.687500 0.500000
vt 0.500000 0.500000
vt 0.000000 0.000000
vt 0.375000 0.937500
vt 0.510246 0.937500
vt 0.510246 1.000000
vt 0.510246 0.500000
vt 0.510246 0.750000
vt 0.375000 0.000000
vt 0.510246 0.000000
vt 0.510246 0.250000
vt 0.375000 0.250000
vt 0.510246 0.812500
vt 0.510246 0.035860
vt 0.510246 0.035860
vt 0.510246 0.214140
vt 0.510246 0.937500
vt 0.510246 0.875000
vt 0.510246 0.875000
vt 0.510246 0.374796
vt 0.510246 0.437296
vt 0.375000 0.437500
vt 0.375000 0.375000
vt 0.375000 0.312500
vt 0.375000 0.812500
vt 0.375000 0.875000
vt 0.125000 0.500000
vt 0.187500 0.500000
vt 0.187500 0.750000
vt 0.125000 0.750000
vt 0.250000 0.500000
vt 0.510246 0.465369
vt 0.510246 0.437500
vt 0.510246 0.465369
vt 0.510246 0.284631
vt 0.510246 0.284631
vt 0.510246 0.312296
vt 0.510247 0.312500
vt 0.510246 0.375000
vt 0.510246 0.312500
vt 0.510246 0.375000
vt 0.510246 0.437500
vt 0.510247 0.500000
vt 0.510247 0.812500
vt 0.510246 0.937500
vt 0.510246 0.750000
vt 0.510246 0.250000
vt 0.510247 0.812500
vt 0.510246 0.812500
vt 0.510246 0.437500
vt 0.510246 0.437500
vt 0.510246 0.562500
vt 0.510246 0.312500
vt 0.510246 0.187500
vt 0.510246 0.375000
vt 0.510246 0.375000
vt 0.510246 0.187500
vt 0.510246 0.375000
vt 0.510246 0.562500
vt 0.510246 0.812500
vt 0.510246 0.441885
vt 1.000000 0.581250
vt 1.000000 0.662500
vt 0.968750 0.662500
vt 0.968750 0.581250
vt 0.937500 0.662500
vt 0.937500 0.581250
vt 0.906250 0.662500
vt 0.906250 0.581250
vt 0.875000 0.662500
vt 0.875000 0.581250
vt 0.843750 0.662500
vt 0.843750 0.581250
vt 0.812500 0.662500
vt 0.812500 0.581250
vt 0.781250 0.662500
vt 0.781250 0.581250
vt 0.750000 0.662500
vt 0.750000 0.581250
vt 0.718750 0.662500
vt 0.718750 0.581250
vt 0.687500 0.662500
vt 0.687500 0.581250
vt 0.656250 0.662500
vt 0.656250 0.581250
vt 0.625000 0.662500
vt 0.625000 0.581250
vt 0.593750 0.662500
vt 0.593750 0.581250
vt 0.562500 0.662500
vt 0.562500 0.581250
vt 0.531250 0.662500
vt 0.531250 0.581250
vt 0.500000 0.662500
vt 0.500000 0.581250
vt 0.468750 0.662500
vt 0.468750 0.581250
vt 0.437500 0.662500
vt 0.437500 0.581250
vt 0.406250 0.662500
vt 0.406250 0.581250
vt 0.375000 0.662500
vt 0.375000 0.581250
vt 0.343750 0.662500
vt 0.343750 0.581250
vt 0.312500 0.662500
vt 0.312500 0.581250
vt 0.281250 0.662500
vt 0.281250 0.581250
vt 0.250000 0.662500
vt 0.250000 0.581250
vt 0.218750 0.662500
vt 0.218750 0.581250
vt 0.187500 0.662500
vt 0.187500 0.581250
vt 0.156250 0.662500
vt 0.156250 0.581250
vt 0.125000 0.662500
vt 0.125000 0.581250
vt 0.093750 0.662500
vt 0.093750 0.581250
vt 0.062500 0.662500
vt 0.062500 0.581250
vt 0.031250 0.662500
vt 0.031250 0.581250
vt 0.000000 0.662500
vt 0.000000 0.581250
vt 1.000000 0.743750
vt 0.968750 0.743750
vt 0.937500 0.743750
vt 0.906250 0.743750
vt 0.875000 0.743750
vt 0.843750 0.743750
vt 0.812500 0.743750
vt 0.781250 0.743750
vt 0.750000 0.743750
vt 0.718750 0.743750
vt 0.687500 0.743750
vt 0.656250 0.743750
vt 0.625000 0.743750
vt 0.593750 0.743750
vt 0.562500 0.743750
vt 0.531250 0.743750
vt 0.500000 0.743750
vt 0.468750 0.743750
vt 0.437500 0.743750
vt 0.406250 0.743750
vt 0.375000 0.743750
vt 0.343750 0.743750
vt 0.312500 0.743750
vt 0.281250 0.743750
vt 0.250000 0.743750
vt 0.218750 0.743750
vt 0.187500 0.743750
vt 0.156250 0.743750
vt 0.125000 0.743750
vt 0.093750 0.743750
vt 0.062500 0.743750
vt 0.031250 0.743750
vt 0.000000 0.743750
vt 0.540625 0.750000
vt 0.540625 1.000000
vt 0.515625 0.750000
vt 0.515625 1.000000
vt 0.500000 0.750000
vt 0.468750 0.750000
vt 0.437500 0.750000
vt 0.406250 0.750000
vt 0.312500 0.750000
vt 0.281250 0.750000
vt 0.218750 1.000000
vt 0.218750 0.750000
vt 0.187500 1.000000
vt 0.156250 1.000000
vt 0.156250 0.750000
vt 0.125000 1.000000
vt 0.125000 0.750000
vt 0.093750 1.000000
vt 0.093750 0.750000
vt 0.062500 1.000000
vt 0.062500 0.750000
vt 0.562500 0.750000
vt 0.515625 0.500000
vt 0.218750 0.500000
vt 0.093750 0.500000
vt 0.156250 0.500000
vt 0.540625 0.500000
vt 0.062500 0.500000
vt 0.250000 1.000000
vt 0.312500 1.000000
s 0
f 6/1/1 62/1/1 51/2/1 49/3/1 2/4/1
f 31/5/2 30/6/2 84/6/2 85/5/2
f 112/7/3 46/8/3 40/9/3 110/10/3
f 110/10/4 40/9/4 36/11/4 108/12/4
f 108/12/5 36/11/5 15/13/5 106/14/5
f 106/14/6 15/13/6 11/15/6 104/16/6
f 104/16/7 11/15/7 7/17/7 113/18/7
f 113/18/8 7/17/8 3/19/8 111/20/8
f 111/20/9 3/19/9 47/21/9 109/22/9
f 109/22/10 47/21/10 43/23/10 107/24/10
f 107/24/11 43/23/11 39/25/11 105/26/11
f 105/26/12 39/25/12 35/27/12 114/28/12
f 114/28/13 35/27/13 14/29/13 115/30/13
f 115/30/14 14/29/14 10/31/14 116/32/14
f 116/32/15 10/31/15 6/1/15 117/33/15
f 117/33/16 6/1/16 2/4/16 118/34/16
f 118/34/17 2/4/17 49/3/17 119/35/17
f 119/35/18 49/3/18 51/2/18 120/36/18
f 22/37/2 21/38/2 75/38/2 76/37/2
f 7/17/19 11/15/19 54/15/19 59/17/19
f 39/25/20 43/23/20 56/23/20 53/25/20
f 3/19/21 7/17/21 59/17/21 58/19/21
f 6/1/22 10/31/22 61/31/22 62/1/22
f 35/27/23 39/25/23 53/25/23 52/27/23
f 47/21/24 3/19/24 58/19/24 57/21/24
f 14/29/25 35/27/25 52/27/25 60/29/25
f 11/15/26 15/13/26 55/13/26 54/15/26
f 10/31/27 14/29/27 60/29/27 61/31/27
f 43/23/28 47/21/28 57/21/28 56/23/28
f 62/1/29 55/13/29 46/8/29 51/2/29
f 5/39/2 1/40/2 70/40/2 89/39/2
f 41/41/2 37/42/2 66/42/2 65/41/2
f 48/43/2 50/44/2 96/44/2 95/43/2
f 18/45/2 17/46/2 71/46/2 72/45/2
f 27/42/2 26/41/2 80/41/2 81/42/2
f 16/47/2 12/48/2 92/48/2 91/47/2
f 23/39/2 22/37/2 76/37/2 77/39/2
f 32/43/2 31/5/2 85/5/2 86/43/2
f 44/46/2 42/45/2 88/45/2 90/46/2
f 34/49/2 13/38/2 63/38/2 67/49/2
f 19/50/2 18/45/2 72/45/2 73/50/2
f 28/47/2 27/42/2 81/42/2 82/47/2
f 12/48/2 8/6/2 93/6/2 92/48/2
f 24/40/2 23/39/2 77/39/2 78/40/2
f 33/44/2 32/43/2 86/43/2 87/44/2
f 9/37/2 5/39/2 89/39/2 64/37/2
f 45/51/2 41/41/2 65/41/2 68/51/2
f 20/49/2 19/50/2 73/50/2 74/49/2
f 29/48/2 28/47/2 82/47/2 83/48/2
f 8/6/2 4/5/2 94/5/2 93/6/2
f 25/51/2 24/40/2 78/40/2 79/51/2
f 38/50/2 34/49/2 67/49/2 69/50/2
f 21/38/2 20/49/2 74/49/2 75/38/2
f 30/6/2 29/48/2 83/48/2 84/6/2
f 42/45/2 38/50/2 69/50/2 88/45/2
f 13/38/2 9/37/2 64/37/2 63/38/2
f 4/5/2 48/43/2 95/43/2 94/5/2
f 26/41/2 25/51/2 79/51/2 80/41/2
f 37/42/2 16/47/2 91/47/2 66/42/2
f 1/40/2 45/51/2 68/51/2 70/40/2
f 66/42/30 91/47/30 103/47/30 99/42/30
f 70/40/31 68/51/31 100/51/31 101/40/31
f 89/39/32 70/40/32 101/40/32 102/39/32
f 65/41/33 66/42/33 99/42/33 98/41/33
f 64/37/34 89/39/34 102/39/34 97/37/34
f 68/51/35 65/41/35 98/41/35 100/51/35
f 48/43/36 119/35/36 120/36/36 50/44/36
f 4/5/37 118/34/37 119/35/37 48/43/37
f 8/6/38 117/33/38 118/34/38 4/5/38
f 12/48/39 116/32/39 117/33/39 8/6/39
f 16/47/40 115/30/40 116/32/40 12/48/40
f 37/42/41 114/28/41 115/30/41 16/47/41
f 41/41/42 105/26/42 114/28/42 37/42/42
f 45/51/43 107/24/43 105/26/43 41/41/43
f 1/40/44 109/22/44 107/24/44 45/51/44
f 5/39/45 111/20/45 109/22/45 1/40/45
f 9/37/46 113/18/46 111/20/46 5/39/46
f 13/38/47 104/16/47 113/18/47 9/37/47
f 34/49/48 106/14/48 104/16/48 13/38/48
f 38/50/49 108/12/49 106/14/49 34/49/49
f 42/45/50 110/10/50 108/12/50 38/50/50
f 44/46/51 112/7/51 110/10/51 42/45/51
f 44/46/52 50/44/52 120/36/52 51/2/52 46/8/52 112/7/52
f 15/13/53 36/11/53 40/9/53 46/8/53 55/13/53
f 52/27/54 53/25/54 56/23/54 57/21/54 58/19/54 59/17/54 54/15/54 55/13/54 62/1/54 61/31/54 60/29/54
f 102/39/55 101/40/55 125/40/55 126/39/55
f 100/51/56 98/41/56 122/41/56 124/51/56
f 97/37/57 102/39/57 126/39/57 121/37/57
f 101/40/58 100/51/58 124/51/58 125/40/58
f 98/41/59 99/42/59 123/42/59 122/41/59
f 99/42/60 103/47/60 127/47/60 123/42/60
f 91/47/61 92/48/61 93/6/61 94/5/61 95/43/61 96/44/61 127/47/61 103/47/61
f 96/44/62 50/44/62 44/46/62 90/46/62 121/37/62 126/39/62 125/40/62 124/51/62 122/41/62 123/42/62 127/47/62
f 90/46/63 121/37/63 97/37/63 76/52/63 64/52/63 75/38/63 74/49/63 69/50/63 73/50/63 88/45/63
f 214/52/64 193/52/64 176/52/64 165/52/64
f 222/52/65 206/52/65 189/52/65 173/52/65
f 223/52/66 205/52/66 188/52/66 174/52/66
f 220/52/67 203/52/67 186/52/67 171/52/67
f 221/52/68 202/52/68 185/52/68 172/52/68
f 218/52/69 200/52/69 183/52/69 169/52/69
f 219/52/70 199/52/70 182/52/70 170/52/70
f 216/52/71 197/52/71 180/52/71 167/52/71
f 217/52/72 196/52/72 179/52/72 168/52/72
f 213/52/73 208/52/73 191/52/73 164/52/73
f 215/52/74 194/52/74 177/52/74 166/52/74
f 211/52/75 207/52/75 190/52/75 162/52/75
f 212/52/76 192/52/76 175/52/76 163/52/76
f 208/52/77 223/52/77 174/52/77 191/52/77
f 209/52/78 204/52/78 187/52/78 160/52/78
f 210/52/79 222/52/79 173/52/79 161/52/79
f 207/52/80 221/52/80 172/52/80 190/52/80
f 206/52/81 201/52/81 184/52/81 189/52/81
f 205/52/82 220/52/82 171/52/82 188/52/82
f 204/52/83 219/52/83 170/52/83 187/52/83
f 203/52/84 198/52/84 181/52/84 186/52/84
f 202/52/85 218/52/85 169/52/85 185/52/85
f 201/52/86 217/52/86 168/52/86 184/52/86
f 200/52/87 195/52/87 178/52/87 183/52/87
f 199/52/88 216/52/88 167/52/88 182/52/88
f 198/52/89 215/52/89 166/52/89 181/52/89
f 197/52/90 214/52/90 165/52/90 180/52/90
f 196/52/91 213/52/91 164/52/91 179/52/91
f 195/52/92 212/52/92 163/52/92 178/52/92
f 194/52/93 211/52/93 162/52/93 177/52/93
f 193/52/94 210/52/94 161/52/94 176/52/94
f 192/52/95 209/52/95 160/52/95 175/52/95
f 188/52/96 171/52/96 248/52/96 251/52/96
f 189/52/97 184/52/97 226/52/97 253/52/97
f 190/52/98 172/52/98 246/52/98 233/52/98
f 161/52/99 173/52/99 252/52/99 227/52/99
f 160/52/100 187/52/100 229/52/100 228/52/100
f 191/52/101 174/52/101 250/52/101 237/52/101
f 163/52/102 175/52/102 231/52/102 230/52/102
f 162/52/103 190/52/103 233/52/103 232/52/103
f 166/52/104 177/52/104 235/52/104 234/52/104
f 164/52/105 191/52/105 237/52/105 236/52/105
f 168/52/106 179/52/106 239/52/106 238/52/106
f 167/52/107 180/52/107 241/52/107 240/52/107
f 170/52/108 182/52/108 243/52/108 242/52/108
f 352/52/109 369/52/109 209/52/109 192/52/109
f 353/52/110 370/52/110 210/52/110 193/52/110
f 354/52/111 371/52/111 211/52/111 194/52/111
f 355/52/112 372/52/112 212/52/112 195/52/112
f 356/52/113 373/52/113 213/52/113 196/52/113
f 357/52/114 374/52/114 214/52/114 197/52/114
f 358/52/115 375/52/115 215/52/115 198/52/115
f 359/52/116 376/52/116 216/52/116 199/52/116
f 360/52/117 355/52/117 195/52/117 200/52/117
f 361/52/118 377/52/118 217/52/118 201/52/118
f 362/52/119 378/52/119 218/52/119 202/52/119
f 363/52/120 358/52/120 198/52/120 203/52/120
f 364/52/121 379/52/121 219/52/121 204/52/121
f 365/52/122 380/52/122 220/52/122 205/52/122
f 366/52/123 361/52/123 201/52/123 206/52/123
f 367/52/124 381/52/124 221/52/124 207/52/124
f 370/52/125 382/52/125 222/52/125 210/52/125
f 369/52/126 364/52/126 204/52/126 209/52/126
f 368/52/127 383/52/127 223/52/127 208/52/127
f 372/52/128 352/52/128 192/52/128 212/52/128
f 371/52/129 367/52/129 207/52/129 211/52/129
f 375/52/130 354/52/130 194/52/130 215/52/130
f 373/52/131 368/52/131 208/52/131 213/52/131
f 377/52/132 356/52/132 196/52/132 217/52/132
f 376/52/133 357/52/133 197/52/133 216/52/133
f 379/52/134 359/52/134 199/52/134 219/52/134
f 378/52/135 360/52/135 200/52/135 218/52/135
f 381/52/136 362/52/136 202/52/136 221/52/136
f 380/52/137 363/52/137 203/52/137 220/52/137
f 383/52/138 365/52/138 205/52/138 223/52/138
f 382/52/139 366/52/139 206/52/139 222/52/139
f 374/52/140 353/52/140 193/52/140 214/52/140
f 187/52/141 170/52/141 242/52/141 229/52/141
f 186/52/142 181/52/142 225/52/142 249/52/142
f 185/52/143 169/52/143 244/52/143 247/52/143
f 184/52/144 168/52/144 238/52/144 226/52/144
f 183/52/145 178/52/145 224/52/145 245/52/145
f 182/52/146 167/52/146 240/52/146 243/52/146
f 181/52/147 166/52/147 234/52/147 225/52/147
f 180/52/148 165/52/148 254/52/148 241/52/148
f 165/52/149 176/52/149 255/52/149 254/52/149
f 179/52/150 164/52/150 236/52/150 239/52/150
f 173/52/151 189/52/151 253/52/151 252/52/151
f 178/52/152 163/52/152 230/52/152 224/52/152
f 174/52/153 188/52/153 251/52/153 250/52/153
f 177/52/154 162/52/154 232/52/154 235/52/154
f 171/52/155 186/52/155 249/52/155 248/52/155
f 176/52/156 161/52/156 227/52/156 255/52/156
f 172/52/157 185/52/157 247/52/157 246/52/157
f 175/52/158 160/52/158 228/52/158 231/52/158
f 169/52/159 183/52/159 245/52/159 244/52/159
f 129/52/160 144/52/160 272/52/160 257/52/160
f 152/52/161 157/52/161 285/52/161 280/52/161
f 153/52/162 140/52/162 268/52/162 281/52/162
f 128/52/163 143/52/163 271/52/163 256/52/163
f 139/52/164 156/52/164 284/52/164 267/52/164
f 151/52/165 137/52/165 265/52/165 279/52/165
f 138/52/166 155/52/166 283/52/166 266/52/166
f 150/52/167 138/52/167 266/52/167 278/52/167
f 149/52/168 154/52/168 282/52/168 277/52/168
f 148/52/169 135/52/169 263/52/169 276/52/169
f 137/52/170 153/52/170 281/52/170 265/52/170
f 147/52/171 136/52/171 264/52/171 275/52/171
f 136/52/172 152/52/172 280/52/172 264/52/172
f 159/52/173 132/52/173 260/52/173 287/52/173
f 146/52/174 151/52/174 279/52/174 274/52/174
f 145/52/175 134/52/175 262/52/175 273/52/175
f 135/52/176 150/52/176 278/52/176 263/52/176
f 158/52/177 130/52/177 258/52/177 286/52/177
f 134/52/178 149/52/178 277/52/178 262/52/178
f 143/52/179 131/52/179 259/52/179 271/52/179
f 133/52/180 148/52/180 276/52/180 261/52/180
f 142/52/181 159/52/181 287/52/181 270/52/181
f 144/52/182 133/52/182 261/52/182 272/52/182
f 132/52/183 147/52/183 275/52/183 260/52/183
f 155/52/184 128/52/184 256/52/184 283/52/184
f 157/52/185 141/52/185 269/52/185 285/52/185
f 131/52/186 146/52/186 274/52/186 259/52/186
f 141/52/187 129/52/187 257/52/187 269/52/187
f 156/52/188 142/52/188 270/52/188 284/52/188
f 130/52/189 145/52/189 273/52/189 258/52/189
f 140/52/190 158/52/190 286/52/190 268/52/190
f 154/52/191 139/52/191 267/52/191 282/52/191
f 320/52/192 321/52/192 304/52/192 289/52/192
f 322/52/193 323/52/193 317/52/193 312/52/193
f 324/52/194 325/52/194 300/52/194 313/52/194
f 326/52/195 327/52/195 303/52/195 288/52/195
f 328/52/196 329/52/196 316/52/196 299/52/196
f 330/52/197 331/52/197 297/52/197 311/52/197
f 332/52/198 333/52/198 315/52/198 298/52/198
f 334/52/199 332/52/199 298/52/199 310/52/199
f 335/52/200 336/52/200 314/52/200 309/52/200
f 337/52/201 338/52/201 295/52/201 308/52/201
f 331/52/202 324/52/202 313/52/202 297/52/202
f 339/52/203 340/52/203 296/52/203 307/52/203
f 340/52/204 322/52/204 312/52/204 296/52/204
f 341/52/205 342/52/205 292/52/205 319/52/205
f 343/52/206 330/52/206 311/52/206 306/52/206
f 344/52/207 345/52/207 294/52/207 305/52/207
f 338/52/208 334/52/208 310/52/208 295/52/208
f 346/52/209 347/52/209 290/52/209 318/52/209
f 345/52/210 335/52/210 309/52/210 294/52/210
f 327/52/211 348/52/211 291/52/211 303/52/211
f 349/52/212 337/52/212 308/52/212 293/52/212
f 350/52/213 341/52/213 319/52/213 302/52/213
f 321/52/214 349/52/214 293/52/214 304/52/214
f 342/52/215 339/52/215 307/52/215 292/52/215
f 333/52/216 326/52/216 288/52/216 315/52/216
f 323/52/217 351/52/217 301/52/217 317/52/217
f 348/52/218 343/52/218 306/52/218 291/52/218
f 351/52/219 320/52/219 289/52/219 301/52/219
f 329/52/220 350/52/220 302/52/220 316/52/220
f 347/52/221 344/52/221 305/52/221 290/52/221
f 325/52/222 346/52/222 318/52/222 300/52/222
f 336/52/223 328/52/223 299/52/223 314/52/223
f 282/52/224 267/52/224 328/52/224 336/52/224
f 268/52/225 286/52/225 346/52/225 325/52/225
f 258/52/226 273/52/226 344/52/226 347/52/226
f 284/52/227 270/52/227 350/52/227 329/52/227
f 269/52/228 257/52/228 320/52/228 351/52/228
f 259/52/229 274/52/229 343/52/229 348/52/229
f 285/52/230 269/52/230 351/52/230 323/52/230
f 283/52/231 256/52/231 326/52/231 333/52/231
f 260/52/232 275/52/232 339/52/232 342/52/232
f 272/52/233 261/52/233 349/52/233 321/52/233
f 270/52/234 287/52/234 341/52/234 350/52/234
f 261/52/235 276/52/235 337/52/235 349/52/235
f 271/52/236 259/52/236 348/52/236 327/52/236
f 262/52/237 277/52/237 335/52/237 345/52/237
f 286/52/238 258/52/238 347/52/238 346/52/238
f 263/52/239 278/52/239 334/52/239 338/52/239
f 273/52/240 262/52/240 345/52/240 344/52/240
f 274/52/241 279/52/241 330/52/241 343/52/241
f 287/52/242 260/52/242 342/52/242 341/52/242
f 264/52/243 280/52/243 322/52/243 340/52/243
f 275/52/244 264/52/244 340/52/244 339/52/244
f 265/52/245 281/52/245 324/52/245 331/52/245
f 276/52/246 263/52/246 338/52/246 337/52/246
f 277/52/247 282/52/247 336/52/247 335/52/247
f 278/52/248 266/52/248 332/52/248 334/52/248
f 266/52/249 283/52/249 333/52/249 332/52/249
f 279/52/250 265/52/250 331/52/250 330/52/250
f 267/52/251 284/52/251 329/52/251 328/52/251
f 256/52/252 271/52/252 327/52/252 326/52/252
f 281/52/253 268/52/253 325/52/253 324/52/253
f 280/52/254 285/52/254 323/52/254 322/52/254
f 257/52/255 272/52/255 321/52/255 320/52/255
f 133/52/256 144/52/256 353/52/256 374/52/256
f 141/52/257 157/52/257 366/52/257 382/52/257
f 142/52/258 156/52/258 365/52/258 383/52/258
f 139/52/259 154/52/259 363/52/259 380/52/259
f 140/52/260 153/52/260 362/52/260 381/52/260
f 137/52/261 151/52/261 360/52/261 378/52/261
f 138/52/262 150/52/262 359/52/262 379/52/262
f 135/52/263 148/52/263 357/52/263 376/52/263
f 136/52/264 147/52/264 356/52/264 377/52/264
f 132/52/265 159/52/265 368/52/265 373/52/265
f 134/52/266 145/52/266 354/52/266 375/52/266
f 130/52/267 158/52/267 367/52/267 371/52/267
f 131/52/268 143/52/268 352/52/268 372/52/268
f 159/52/269 142/52/269 383/52/269 368/52/269
f 128/52/270 155/52/270 364/52/270 369/52/270
f 129/52/271 141/52/271 382/52/271 370/52/271
f 158/52/272 140/52/272 381/52/272 367/52/272
f 157/52/273 152/52/273 361/52/273 366/52/273
f 156/52/274 139/52/274 380/52/274 365/52/274
f 155/52/275 138/52/275 379/52/275 364/52/275
f 154/52/276 149/52/276 358/52/276 363/52/276
f 153/52/277 137/52/277 378/52/277 362/52/277
f 152/52/278 136/52/278 377/52/278 361/52/278
f 151/52/279 146/52/279 355/52/279 360/52/279
f 150/52/280 135/52/280 376/52/280 359/52/280
f 149/52/281 134/52/281 375/52/281 358/52/281
f 148/52/282 133/52/282 374/52/282 357/52/282
f 147/52/283 132/52/283 373/52/283 356/52/283
f 146/52/284 131/52/284 372/52/284 355/52/284
f 145/52/285 130/52/285 371/52/285 354/52/285
f 144/52/286 129/52/286 370/52/286 353/52/286
f 143/52/287 128/52/287 369/52/287 352/52/287
f 404/5/288 387/48/288 386/32/288 409/34/288
f 407/53/289 412/54/289 396/55/289 384/31/289
f 387/48/290 421/56/290 391/57/290 386/32/290
f 384/58/291 396/59/291 422/60/291 385/61/291
f 391/57/292 421/56/292 420/56/292 392/57/292
f 410/62/293 391/57/293 392/57/293 413/62/293
f 388/63/294 393/64/294 402/64/294 400/63/294
f 388/63/295 389/65/295 422/60/295 396/59/295
f 395/65/295 393/64/295 398/59/295 423/60/295
f 389/65/295 395/65/295 423/60/295 422/60/295
f 393/64/295 388/63/295 396/59/295 398/59/295
f 401/65/295 400/63/295 402/64/295 403/65/295
f 393/64/296 395/65/296 403/65/296 402/64/296
f 395/65/297 389/65/297 401/65/297 403/65/297
f 389/65/298 388/63/298 400/63/298 401/65/298
f 396/55/293 412/54/293 415/66/293 398/55/293
f 412/54/293 411/67/293 414/68/293 415/66/293
f 411/67/293 410/62/293 413/62/293 414/68/293
f 417/69/299 418/70/299 426/70/299 432/69/299
f 385/61/300 422/60/300 421/56/300 387/48/300 404/71/300 405/72/300 406/73/300
f 386/32/289 391/57/289 410/62/289 409/74/289
f 409/74/289 410/62/289 411/67/289 408/75/289
f 408/75/289 411/67/289 412/54/289 407/53/289
f 385/76/301 406/77/301 407/78/301 384/79/301
f 406/77/302 405/80/302 408/36/302 407/78/302
f 405/80/303 404/5/303 409/34/303 408/36/303
f 394/81/304 418/70/304 419/82/304 420/56/304
f 390/83/304 394/81/304 420/56/304 421/56/304
f 399/84/304 397/85/304 422/60/304 423/60/304
f 397/85/304 390/83/304 421/56/304 422/60/304
f 416/86/304 399/84/304 423/60/304 424/87/304
f 417/69/304 416/86/304 424/87/304 425/88/304
f 418/70/304 417/69/304 425/88/304 419/82/304
f 399/84/299 416/86/299 431/86/299 430/84/299
f 397/85/305 399/84/305 430/84/305 429/85/305
f 418/70/299 394/81/299 427/81/299 426/70/299
f 416/86/299 417/69/299 432/69/299 431/86/299
f 390/83/306 397/85/306 429/85/306 428/83/306
f 394/81/307 390/83/307 428/83/307 427/81/307
f 418/52/308 417/52/308 416/52/308 399/52/308 397/52/308 390/52/308 394/52/308
f 425/88/309 424/87/309 442/89/309 441/90/309
f 419/82/310 425/88/310 441/90/310 440/91/310
f 420/56/311 419/82/311 440/91/311 434/92/311
f 414/68/312 413/62/312 439/93/312 438/68/312
f 415/66/313 414/68/313 438/68/313 437/94/313
f 398/55/314 415/66/314 437/94/314 436/55/314
f 392/57/315 420/56/315 434/92/315 435/95/315
f 423/60/316 398/59/316 436/59/316 433/96/316
f 413/62/317 392/57/317 435/95/317 439/93/317
f 424/87/318 423/60/318 433/96/318 442/89/318
f 442/89/319 433/96/319 436/59/319 437/94/319 438/68/319 439/93/319 435/95/319 434/92/319 440/91/319 441/90/319
f 450/97/320 454/57/320 452/57/320 460/98/320
f 443/52/321 444/52/321 447/52/321 450/97/321 449/99/321 446/52/321
f 460/98/322 452/57/322 457/57/322 455/98/322
f 452/57/323 451/56/323 458/56/323 457/57/323
f 457/57/324 458/56/324 456/100/324 455/101/324
f 453/56/325 449/99/325 459/100/325 451/56/325
f 454/57/326 453/56/326 451/56/326 452/57/326
f 451/56/327 459/100/327 456/100/327 458/56/327 448/52/327 445/52/327
f 450/97/328 460/98/328 455/101/328 456/100/328 459/100/328 449/99/328
f 462/60/329 461/59/329 463/59/329 464/60/329
f 469/89/330 462/60/330 464/60/330 470/102/330
f 464/60/331 463/59/331 465/59/331 466/60/331
f 471/103/332 472/102/332 466/60/332 465/59/332
f 470/102/333 464/60/333 466/60/333 472/102/333
f 468/52/334 467/52/334 469/52/334 470/52/334 472/52/334 471/52/334
f 463/55/335 468/94/335 471/54/335 465/55/335
f 461/55/336 467/94/336 468/94/336 463/55/336
f 477/104/337 478/105/337 479/89/337 480/106/337
f 476/105/338 481/89/338 479/89/338 478/105/338
f 474/90/339 483/89/339 481/89/339 476/105/339
f 484/94/340 485/94/340 486/89/340 483/89/340 474/90/340 473/68/340
f 484/94/341 473/68/341 475/68/341 482/94/341
f 480/106/342 479/89/342 481/89/342 483/89/342 486/89/342 485/94/342 484/94/342 482/94/342
f 477/104/343 475/68/343 473/68/343 474/90/343 476/105/343 478/105/343
f 482/94/344 475/68/344 477/68/344 480/94/344
f 494/68/345 493/90/345 490/68/345 488/68/345 491/68/345 492/107/345 487/107/345 489/104/345
f 496/108/346 498/109/346 500/97/346 499/99/346 497/100/346 495/110/346
f 497/100/347 487/107/347 492/107/347 495/110/347
f 499/99/348 489/104/348 487/107/348 497/100/348
f 496/108/349 495/110/349 492/107/349 491/104/349
f 494/68/350 493/90/350 489/104/350 499/99/350 500/97/350 490/68/350
f 490/68/351 500/97/351 498/109/351 488/68/351
f 488/68/352 498/109/352 496/62/352 491/68/352
f 515/52/353 512/52/353 544/52/353 547/52/353
f 522/52/354 514/52/354 546/52/354 554/52/354
f 523/52/355 516/52/355 548/52/355 555/52/355
f 524/52/356 523/52/356 555/52/356 556/52/356
f 520/52/357 517/52/357 549/52/357 552/52/357
f 526/52/358 525/52/358 557/52/358 558/52/358
f 502/52/359 501/52/359 533/52/359 534/52/359
f 528/52/360 521/52/360 553/52/360 560/52/360
f 527/52/361 519/52/361 551/52/361 559/52/361
f 504/52/362 503/52/362 535/52/362 536/52/362
f 525/52/363 522/52/363 554/52/363 557/52/363
f 529/52/364 528/52/364 560/52/364 561/52/364
f 506/52/365 505/52/365 537/52/365 538/52/365
f 531/52/366 526/52/366 558/52/366 563/52/366
f 503/52/367 530/52/367 562/52/367 535/52/367
f 508/52/368 507/52/368 539/52/368 540/52/368
f 530/52/369 527/52/369 559/52/369 562/52/369
f 501/52/370 524/52/370 556/52/370 533/52/370
f 510/52/371 509/52/371 541/52/371 542/52/371
f 511/52/372 504/52/372 536/52/372 543/52/372
f 532/52/373 531/52/373 563/52/373 564/52/373
f 512/52/374 511/52/374 543/52/374 544/52/374
f 507/52/375 502/52/375 534/52/375 539/52/375
f 514/52/376 513/52/376 545/52/376 546/52/376
f 505/52/377 529/52/377 561/52/377 537/52/377
f 516/52/378 515/52/378 547/52/378 548/52/378
f 513/52/379 506/52/379 538/52/379 545/52/379
f 517/52/380 508/52/380 540/52/380 549/52/380
f 509/52/381 532/52/381 564/52/381 541/52/381
f 519/52/382 518/52/382 550/52/382 551/52/382
f 518/52/383 510/52/383 542/52/383 550/52/383
f 521/52/384 520/52/384 552/52/384 553/52/384
f 501/52/385 502/52/385 507/52/385 508/52/385 517/52/385 520/52/385 521/52/385 528/52/385 529/52/385 505/52/385 506/52/385 513/52/385 514/52/385 522/52/385 525/52/385 526/52/385 531/52/385 532/52/385 509/52/385 510/52/385 518/52/385 519/52/385 527/52/385 530/52/385 503/52/385 504/52/385 511/52/385 512/52/385 515/52/385 516/52/385 523/52/385 524/52/385
f 583/52/386 584/52/386 572/52/386 573/52/386
f 591/52/387 590/52/387 566/52/387 578/52/387
f 582/52/388 583/52/388 573/52/388 574/52/388
f 590/52/389 589/52/389 567/52/389 566/52/389
f 581/52/390 582/52/390 574/52/390 575/52/390
f 589/52/391 588/52/391 568/52/391 567/52/391
f 580/52/392 581/52/392 575/52/392 577/52/392
f 588/52/393 587/52/393 576/52/393 568/52/393
f 595/52/394 596/52/394 579/52/394 841/52/394
f 587/52/395 580/52/395 577/52/395 576/52/395
f 586/52/396 592/52/396 569/52/396 570/52/396
f 594/52/397 595/52/397 841/52/397 840/52/397
f 596/52/398 591/52/398 578/52/398 579/52/398
f 585/52/399 586/52/399 570/52/399 571/52/399
f 569/52/400 565/52/400 877/52/400 878/52/400
f 726/52/401 719/52/401 592/52/401 586/52/401
f 669/52/402 675/52/402 588/52/402 589/52/402
f 747/52/403 740/52/403 584/52/403 583/52/403
f 649/52/404 642/52/404 595/52/404 594/52/404
f 635/52/405 657/52/405 591/52/405 596/52/405
f 768/52/406 761/52/406 581/52/406 580/52/406
f 675/52/407 775/52/407 587/52/407 588/52/407
f 775/52/408 768/52/408 580/52/408 587/52/408
f 733/52/409 726/52/409 586/52/409 585/52/409
f 656/52/410 649/52/410 594/52/410 593/52/410
f 754/52/411 747/52/411 583/52/411 582/52/411
f 657/52/412 663/52/412 590/52/412 591/52/412
f 719/52/413 656/52/413 593/52/413 592/52/413
f 740/52/414 733/52/414 585/52/414 584/52/414
f 663/52/415 669/52/415 589/52/415 590/52/415
f 761/52/416 754/52/416 582/52/416 581/52/416
f 593/52/417 594/52/417 840/52/417 565/52/417
f 807/111/418 628/112/418 597/113/418 776/114/418
f 776/114/419 597/113/419 598/115/419 777/116/419
f 777/116/420 598/115/420 599/117/420 778/118/420
f 778/118/421 599/117/421 600/119/421 779/120/421
f 779/120/422 600/119/422 601/121/422 780/122/422
f 780/122/423 601/121/423 602/123/423 781/124/423
f 781/124/424 602/123/424 603/125/424 782/126/424
f 782/126/425 603/125/425 604/127/425 783/128/425
f 783/128/426 604/127/426 605/129/426 784/130/426
f 784/130/427 605/129/427 606/131/427 785/132/427
f 785/132/428 606/131/428 607/133/428 786/134/428
f 786/134/429 607/133/429 608/135/429 787/136/429
f 787/136/430 608/135/430 609/137/430 788/138/430
f 788/138/431 609/137/431 610/139/431 789/140/431
f 789/140/432 610/139/432 611/141/432 790/142/432
f 790/142/433 611/141/433 612/143/433 791/144/433
f 791/144/434 612/143/434 613/145/434 792/146/434
f 792/146/435 613/145/435 614/147/435 793/148/435
f 793/148/436 614/147/436 615/149/436 794/150/436
f 794/150/437 615/149/437 616/151/437 795/152/437
f 795/152/438 616/151/438 617/153/438 796/154/438
f 796/154/439 617/153/439 618/155/439 797/156/439
f 797/156/440 618/155/440 619/157/440 798/158/440
f 798/158/441 619/157/441 620/159/441 799/160/441
f 799/160/442 620/159/442 621/161/442 800/162/442
f 800/162/443 621/161/443 622/163/443 801/164/443
f 801/164/444 622/163/444 623/165/444 802/166/444
f 802/166/445 623/165/445 624/167/445 803/168/445
f 803/168/446 624/167/446 625/169/446 804/170/446
f 804/170/447 625/169/447 626/171/447 805/172/447
f 805/172/448 626/171/448 627/173/448 806/174/448
f 806/174/449 627/173/449 628/175/449 807/176/449
f 629/52/450 630/52/450 637/52/450 636/52/450
f 630/52/451 631/52/451 638/52/451 637/52/451
f 631/52/452 632/52/452 639/52/452 638/52/452
f 632/52/453 633/52/453 640/52/453 639/52/453
f 633/52/454 634/52/454 641/52/454 640/52/454
f 634/52/455 635/52/455 642/52/455 641/52/455
f 636/52/456 637/52/456 644/52/456 643/52/456
f 637/52/457 638/52/457 645/52/457 644/52/457
f 638/52/458 639/52/458 646/52/458 645/52/458
f 639/52/459 640/52/459 647/52/459 646/52/459
f 640/52/460 641/52/460 648/52/460 647/52/460
f 641/52/461 642/52/461 649/52/461 648/52/461
f 643/52/462 644/52/462 651/52/462 650/52/462
f 644/52/463 645/52/463 652/52/463 651/52/463
f 645/52/464 646/52/464 653/52/464 652/52/464
f 646/52/465 647/52/465 654/52/465 653/52/465
f 647/52/466 648/52/466 655/52/466 654/52/466
f 648/52/467 649/52/467 656/52/467 655/52/467
f 650/52/468 651/52/468 714/52/468 713/52/468
f 651/52/469 652/52/469 715/52/469 714/52/469
f 652/52/470 653/52/470 716/52/470 715/52/470
f 653/52/471 654/52/471 717/52/471 716/52/471
f 654/52/472 655/52/472 718/52/472 717/52/472
f 655/52/473 656/52/473 719/52/473 718/52/473
f 657/52/474 658/52/474 664/52/474 663/52/474
f 658/52/475 659/52/475 665/52/475 664/52/475
f 659/52/476 660/52/476 666/52/476 665/52/476
f 660/52/477 661/52/477 667/52/477 666/52/477
f 661/52/478 662/52/478 668/52/478 667/52/478
f 662/52/479 681/52/479 689/52/479 668/52/479
f 663/52/480 664/52/480 670/52/480 669/52/480
f 664/52/481 665/52/481 671/52/481 670/52/481
f 665/52/482 666/52/482 672/52/482 671/52/482
f 666/52/483 667/52/483 673/52/483 672/52/483
f 667/52/484 668/52/484 674/52/484 673/52/484
f 668/52/485 689/52/485 697/52/485 674/52/485
f 669/52/486 670/52/486 676/52/486 675/52/486
f 670/52/487 671/52/487 677/52/487 676/52/487
f 671/52/488 672/52/488 678/52/488 677/52/488
f 672/52/489 673/52/489 679/52/489 678/52/489
f 673/52/490 674/52/490 680/52/490 679/52/490
f 674/52/491 697/52/491 705/52/491 680/52/491
f 675/52/492 676/52/492 774/52/492 775/52/492
f 676/52/493 677/52/493 773/52/493 774/52/493
f 677/52/494 678/52/494 772/52/494 773/52/494
f 678/52/495 679/52/495 771/52/495 772/52/495
f 679/52/496 680/52/496 770/52/496 771/52/496
f 680/52/497 705/52/497 769/52/497 770/52/497
f 681/52/498 682/52/498 690/52/498 689/52/498
f 682/52/499 683/52/499 691/52/499 690/52/499
f 683/52/500 684/52/500 692/52/500 691/52/500
f 684/52/501 685/52/501 693/52/501 692/52/501
f 685/52/502 686/52/502 694/52/502 693/52/502
f 686/52/503 687/52/503 695/52/503 694/52/503
f 687/52/504 688/52/504 696/52/504 695/52/504
f 688/52/505 629/52/505 636/52/505 696/52/505
f 689/52/506 690/52/506 698/52/506 697/52/506
f 690/52/507 691/52/507 699/52/507 698/52/507
f 691/52/508 692/52/508 700/52/508 699/52/508
f 692/52/509 693/52/509 701/52/509 700/52/509
f 693/52/510 694/52/510 702/52/510 701/52/510
f 694/52/511 695/52/511 703/52/511 702/52/511
f 695/52/512 696/52/512 704/52/512 703/52/512
f 696/52/513 636/52/513 643/52/513 704/52/513
f 697/52/514 698/52/514 706/52/514 705/52/514
f 698/52/515 699/52/515 707/52/515 706/52/515
f 699/52/516 700/52/516 708/52/516 707/52/516
f 700/52/517 701/52/517 709/52/517 708/52/517
f 701/52/518 702/52/518 710/52/518 709/52/518
f 702/52/519 703/52/519 711/52/519 710/52/519
f 703/52/520 704/52/520 712/52/520 711/52/520
f 704/52/521 643/52/521 650/52/521 712/52/521
f 705/52/522 706/52/522 762/52/522 769/52/522
f 706/52/523 707/52/523 755/52/523 762/52/523
f 707/52/524 708/52/524 748/52/524 755/52/524
f 708/52/525 709/52/525 741/52/525 748/52/525
f 709/52/526 710/52/526 734/52/526 741/52/526
f 710/52/527 711/52/527 727/52/527 734/52/527
f 711/52/528 712/52/528 720/52/528 727/52/528
f 712/52/529 650/52/529 713/52/529 720/52/529
f 713/52/530 714/52/530 721/52/530 720/52/530
f 714/52/531 715/52/531 722/52/531 721/52/531
f 715/52/532 716/52/532 723/52/532 722/52/532
f 716/52/533 717/52/533 724/52/533 723/52/533
f 717/52/534 718/52/534 725/52/534 724/52/534
f 718/52/535 719/52/535 726/52/535 725/52/535
f 720/52/536 721/52/536 728/52/536 727/52/536
f 721/52/537 722/52/537 729/52/537 728/52/537
f 722/52/538 723/52/538 730/52/538 729/52/538
f 723/52/539 724/52/539 731/52/539 730/52/539
f 724/52/540 725/52/540 732/52/540 731/52/540
f 725/52/541 726/52/541 733/52/541 732/52/541
f 727/52/542 728/52/542 735/52/542 734/52/542
f 728/52/543 729/52/543 736/52/543 735/52/543
f 729/52/544 730/52/544 737/52/544 736/52/544
f 730/52/545 731/52/545 738/52/545 737/52/545
f 731/52/546 732/52/546 739/52/546 738/52/546
f 732/52/547 733/52/547 740/52/547 739/52/547
f 734/52/548 735/52/548 742/52/548 741/52/548
f 735/52/549 736/52/549 743/52/549 742/52/549
f 736/52/550 737/52/550 744/52/550 743/52/550
f 737/52/551 738/52/551 745/52/551 744/52/551
f 738/52/552 739/52/552 746/52/552 745/52/552
f 739/52/553 740/52/553 747/52/553 746/52/553
f 741/52/554 742/52/554 749/52/554 748/52/554
f 742/52/555 743/52/555 750/52/555 749/52/555
f 743/52/556 744/52/556 751/52/556 750/52/556
f 744/52/557 745/52/557 752/52/557 751/52/557
f 745/52/558 746/52/558 753/52/558 752/52/558
f 746/52/559 747/52/559 754/52/559 753/52/559
f 748/52/560 749/52/560 756/52/560 755/52/560
f 749/52/561 750/52/561 757/52/561 756/52/561
f 750/52/562 751/52/562 758/52/562 757/52/562
f 751/52/563 752/52/563 759/52/563 758/52/563
f 752/52/564 753/52/564 760/52/564 759/52/564
f 753/52/565 754/52/565 761/52/565 760/52/565
f 755/52/566 756/52/566 763/52/566 762/52/566
f 756/52/567 757/52/567 764/52/567 763/52/567
f 757/52/568 758/52/568 765/52/568 764/52/568
f 758/52/569 759/52/569 766/52/569 765/52/569
f 759/52/570 760/52/570 767/52/570 766/52/570
f 760/52/571 761/52/571 768/52/571 767/52/571
f 762/52/572 763/52/572 770/52/572 769/52/572
f 763/52/573 764/52/573 771/52/573 770/52/573
f 764/52/574 765/52/574 772/52/574 771/52/574
f 765/52/575 766/52/575 773/52/575 772/52/575
f 766/52/576 767/52/576 774/52/576 773/52/576
f 767/52/577 768/52/577 775/52/577 774/52/577
f 642/52/578 635/52/578 596/52/578 595/52/578
f 628/112/579 808/177/579 809/178/579 597/113/579
f 597/113/580 809/178/580 810/179/580 598/115/580
f 598/115/581 810/179/581 811/180/581 599/117/581
f 599/117/582 811/180/582 812/181/582 600/119/582
f 600/119/583 812/181/583 813/182/583 601/121/583
f 601/121/584 813/182/584 814/183/584 602/123/584
f 602/123/585 814/183/585 815/184/585 603/125/585
f 603/125/586 815/184/586 816/185/586 604/127/586
f 604/127/587 816/185/587 817/186/587 605/129/587
f 605/129/588 817/186/588 818/187/588 606/131/588
f 606/131/589 818/187/589 819/188/589 607/133/589
f 607/133/590 819/188/590 820/189/590 608/135/590
f 608/135/591 820/189/591 821/190/591 609/137/591
f 609/137/592 821/190/592 822/191/592 610/139/592
f 610/139/593 822/191/593 823/192/593 611/141/593
f 611/141/594 823/192/594 824/193/594 612/143/594
f 612/143/595 824/193/595 825/194/595 613/145/595
f 613/145/596 825/194/596 826/195/596 614/147/596
f 614/147/597 826/195/597 827/196/597 615/149/597
f 615/149/598 827/196/598 828/197/598 616/151/598
f 616/151/599 828/197/599 829/198/599 617/153/599
f 617/153/600 829/198/600 830/199/600 618/155/600
f 618/155/601 830/199/601 831/200/601 619/157/601
f 619/157/602 831/200/602 832/201/602 620/159/602
f 620/159/603 832/201/603 833/202/603 621/161/603
f 621/161/604 833/202/604 834/203/604 622/163/604
f 622/163/605 834/203/605 835/204/605 623/165/605
f 623/165/606 835/204/606 836/205/606 624/167/606
f 624/167/607 836/205/607 837/206/607 625/169/607
f 625/169/608 837/206/608 838/207/608 626/171/608
f 626/171/609 838/207/609 839/208/609 627/173/609
f 627/173/610 839/208/610 808/209/610 628/175/610
f 592/52/611 593/52/611 565/52/611 569/52/611
f 584/52/612 585/52/612 571/52/612 572/52/612
f 806/174/613 807/111/613 776/114/613 777/116/613 778/118/613 779/120/613 780/122/613 781/124/613 782/126/613 783/128/613 784/130/613 785/132/613 786/134/613 787/136/613 788/138/613 789/140/613 790/142/613 791/144/613 792/146/613 793/148/613 794/150/613 795/152/613 796/154/613 797/156/613 798/158/613 799/160/613 800/162/613 801/164/613 802/166/613 803/168/613 804/170/613 805/172/613
f 814/183/614 813/182/614 847/182/614 848/183/614
f 828/197/615 827/196/615 861/196/615 862/197/615
f 815/184/616 814/183/616 848/183/616 849/184/616
f 829/198/617 828/197/617 862/197/617 863/198/617
f 816/185/618 815/184/618 849/184/618 850/185/618
f 830/199/619 829/198/619 863/198/619 864/199/619
f 817/186/620 816/185/620 850/185/620 851/186/620
f 831/200/621 830/199/621 864/199/621 865/200/621
f 818/187/622 817/186/622 851/186/622 852/187/622
f 832/201/623 831/200/623 865/200/623 866/201/623
f 819/188/624 818/187/624 852/187/624 853/188/624
f 833/202/625 832/201/625 866/201/625 867/202/625
f 820/189/626 819/188/626 853/188/626 854/189/626
f 834/203/627 833/202/627 867/202/627 868/203/627
f 821/190/628 820/189/628 854/189/628 855/190/628
f 835/204/629 834/203/629 868/203/629 869/204/629
f 822/191/630 821/190/630 855/190/630 856/191/630
f 809/178/631 808/177/631 842/177/631 843/178/631
f 836/205/632 835/204/632 869/204/632 870/205/632
f 823/192/633 822/191/633 856/191/633 857/192/633
f 810/179/634 809/178/634 843/178/634 844/179/634
f 837/206/635 836/205/635 870/205/635 871/206/635
f 824/193/636 823/192/636 857/192/636 858/193/636
f 811/180/637 810/179/637 844/179/637 845/180/637
f 838/207/638 837/206/638 871/206/638 872/207/638
f 825/194/639 824/193/639 858/193/639 859/194/639
f 812/181/640 811/180/640 845/180/640 846/181/640
f 839/208/641 838/207/641 872/207/641 873/208/641
f 826/195/642 825/194/642 859/194/642 860/195/642
f 813/182/643 812/181/643 846/181/643 847/182/643
f 808/209/644 839/208/644 873/208/644 842/209/644
f 827/196/645 826/195/645 860/195/645 861/196/645
f 874/52/646 879/52/646 880/52/646 881/52/646 882/52/646 883/52/646 890/52/646 889/52/646 888/52/646 887/52/646 886/52/646 885/52/646 884/52/646 878/52/646 877/52/646 876/52/646 875/52/646
f 573/52/647 572/52/647 886/52/647 887/52/647
f 578/52/648 566/52/648 880/52/648 879/52/648
f 574/52/649 573/52/649 887/52/649 888/52/649
f 566/52/650 567/52/650 881/52/650 880/52/650
f 575/52/651 574/52/651 888/52/651 889/52/651
f 567/52/652 568/52/652 882/52/652 881/52/652
f 577/52/653 575/52/653 889/52/653 890/52/653
f 568/52/654 576/52/654 883/52/654 882/52/654
f 841/52/655 579/52/655 874/52/655 875/52/655
f 576/52/656 577/52/656 890/52/656 883/52/656
f 570/52/657 569/52/657 878/52/657 884/52/657
f 840/52/658 841/52/658 875/52/658 876/52/658
f 579/52/659 578/52/659 879/52/659 874/52/659
f 571/52/660 570/52/660 884/52/660 885/52/660
f 565/52/661 840/52/661 876/52/661 877/52/661
f 572/52/662 571/52/662 885/52/662 886/52/662
f 629/52/613 688/52/613 687/52/613 686/52/613 685/52/613 684/52/613 683/52/613 682/52/613 681/52/613 662/52/613 661/52/613 660/52/613 659/52/613 658/52/613 657/52/613 635/52/613 634/52/613 633/52/613 632/52/613 631/52/613 630/52/613
f 1003/210/663 928/211/663 894/21/663 986/22/663
f 1002/212/664 926/213/664 896/23/664 987/214/664
f 987/214/665 896/23/665 898/25/665 988/215/665
f 988/215/666 898/25/666 900/27/666 989/216/666
f 989/216/667 900/27/667 902/29/667 990/217/667
f 990/217/668 902/29/668 904/31/668 991/32/668
f 991/32/669 904/31/669 906/1/669 992/33/669
f 992/33/670 906/1/670 908/4/670 993/218/670
f 993/218/671 908/4/671 910/3/671 994/219/671
f 994/219/672 910/3/672 912/2/672 995/36/672
f 995/36/673 912/2/673 914/220/673 996/221/673
f 996/221/674 914/220/674 916/222/674 997/78/674
f 997/78/675 916/222/675 918/223/675 998/224/675
f 998/224/676 918/223/676 920/225/676 999/226/676
f 999/226/677 920/225/677 922/227/677 1000/228/677
f 1000/228/678 922/227/678 924/229/678 1001/230/678
f 986/22/664 894/21/664 926/213/664 1002/212/664
f 985/231/663 892/19/663 928/211/663 1003/210/663
f 1052/31/679 1053/29/679 1043/29/679 1045/31/679
f 896/23/2 926/213/2 1025/213/2 1028/23/2
f 916/222/2 914/220/2 1036/220/2 1037/222/2
f 906/1/2 904/31/2 1031/31/2 1032/1/2
f 926/213/2 894/21/2 1026/21/2 1025/213/2
f 892/19/2 924/229/2 1041/229/2 1024/19/2
f 920/225/2 918/223/2 1038/223/2 1039/225/2
f 910/3/2 908/4/2 1033/4/2 1034/3/2
f 925/232/664 895/51/664 940/51/664 955/232/664
f 903/48/669 905/6/669 945/6/669 944/48/669
f 913/233/674 915/77/674 950/77/674 949/233/674
f 893/40/664 925/232/664 955/232/664 939/40/664
f 899/42/667 901/47/667 943/47/667 942/42/667
f 909/43/672 911/44/672 948/44/672 947/43/672
f 919/76/677 921/234/677 953/234/677 952/76/677
f 895/51/665 897/41/665 941/41/665 940/51/665
f 905/6/670 907/5/670 946/5/670 945/6/670
f 915/77/675 917/235/675 951/235/675 950/77/675
f 891/39/663 927/236/663 956/236/663 938/39/663
f 927/236/663 893/40/663 939/40/663 956/236/663
f 901/47/668 903/48/668 944/48/668 943/47/668
f 911/44/673 913/233/673 949/233/673 948/44/673
f 921/234/678 923/237/678 954/237/678 953/234/678
f 897/41/666 899/42/666 942/42/666 941/41/666
f 907/5/671 909/43/671 947/43/671 946/5/671
f 917/235/676 919/76/676 952/76/676 951/235/676
f 940/51/680 941/41/680 960/41/680 959/51/680
f 938/39/681 956/236/681 975/236/681 957/39/681
f 948/44/682 949/233/682 968/233/682 967/44/682
f 941/41/683 942/42/683 961/42/683 960/41/683
f 949/233/684 950/77/684 969/77/684 968/233/684
f 942/42/685 943/47/685 962/47/685 961/42/685
f 950/77/686 951/235/686 970/235/686 969/77/686
f 943/47/687 944/48/687 963/48/687 962/47/687
f 951/235/688 952/76/688 971/76/688 970/235/688
f 944/48/689 945/6/689 964/6/689 963/48/689
f 952/76/690 953/234/690 972/234/690 971/76/690
f 945/6/691 946/5/691 965/5/691 964/6/691
f 956/236/681 939/40/681 958/40/681 975/236/681
f 953/234/692 954/237/692 973/237/692 972/234/692
f 946/5/693 947/43/693 966/43/693 965/5/693
f 955/232/694 940/51/694 959/51/694 974/232/694
f 939/40/694 955/232/694 974/232/694 958/40/694
f 947/43/695 948/44/695 967/44/695 966/43/695
f 900/27/2 898/25/2 1027/25/2 1029/27/2
f 924/229/2 922/227/2 1040/227/2 1041/229/2
f 914/220/2 912/2/2 1035/2/2 1036/220/2
f 904/31/2 902/29/2 1030/29/2 1031/31/2
f 928/211/2 892/19/2 1024/19/2 1023/211/2
f 894/21/2 928/211/2 1023/211/2 1026/21/2
f 918/223/2 916/222/2 1037/222/2 1038/223/2
f 908/4/2 906/1/2 1032/1/2 1033/4/2
f 898/25/2 896/23/2 1028/23/2 1027/25/2
f 922/227/2 920/225/2 1039/225/2 1040/227/2
f 891/39/663 985/231/663 1003/210/663 927/236/663
f 893/40/664 986/22/664 1002/212/664 925/232/664
f 921/234/678 1000/228/678 1001/230/678 923/237/678
f 919/76/677 999/226/677 1000/228/677 921/234/677
f 917/235/676 998/224/676 999/226/676 919/76/676
f 915/77/675 997/78/675 998/224/675 917/235/675
f 913/233/674 996/221/674 997/78/674 915/77/674
f 911/44/673 995/36/673 996/221/673 913/233/673
f 909/43/672 994/219/672 995/36/672 911/44/672
f 907/5/671 993/218/671 994/219/671 909/43/671
f 905/6/670 992/33/670 993/218/670 907/5/670
f 903/48/669 991/32/669 992/33/669 905/6/669
f 901/47/668 990/217/668 991/32/668 903/48/668
f 899/42/667 989/216/667 990/217/667 901/47/667
f 897/41/666 988/215/666 989/216/666 899/42/666
f 895/51/665 987/214/665 988/215/665 897/41/665
f 925/232/664 1002/212/664 987/214/664 895/51/664
f 927/236/663 1003/210/663 986/22/663 893/40/663
f 957/39/696 973/237/696 954/237/696 938/39/696
f 912/2/2 910/3/2 1034/3/2 1035/2/2
f 1001/230/697 924/229/697 892/19/697 923/237/697
f 985/231/697 891/39/697 923/237/697 892/19/697
f 938/39/697 954/237/697 923/237/697 891/39/697
f 902/29/2 900/27/2 1029/27/2 1030/29/2
f 975/236/698 958/40/698 974/232/698 959/51/698 960/41/698 961/42/698 962/47/698 963/48/698 964/6/698 965/5/698 966/43/698 967/44/698 968/233/698 969/77/698 970/235/698 971/76/698 972/234/698 973/237/698 957/39/698
f 896/23/2 898/25/2 1007/25/2 1006/23/2
f 906/1/2 908/4/2 1012/4/2 1011/1/2
f 916/222/2 918/223/2 1017/223/2 1016/222/2
f 928/211/2 894/21/2 1005/21/2 1022/211/2
f 892/19/2 928/211/2 1022/211/2 1004/19/2
f 902/29/2 904/31/2 1010/31/2 1009/29/2
f 912/2/2 914/220/2 1015/220/2 1014/2/2
f 922/227/2 924/229/2 1020/229/2 1019/227/2
f 898/25/2 900/27/2 1008/27/2 1007/25/2
f 908/4/2 910/3/2 1013/3/2 1012/4/2
f 918/223/2 920/225/2 1018/225/2 1017/223/2
f 892/19/2 924/229/2 1020/229/2 1004/19/2
f 894/21/2 926/213/2 1021/213/2 1005/21/2
f 904/31/2 906/1/2 1011/1/2 1010/31/2
f 914/220/2 916/222/2 1016/222/2 1015/220/2
f 926/213/2 896/23/2 1006/23/2 1021/213/2
f 900/27/2 902/29/2 1009/29/2 1008/27/2
f 910/3/2 912/2/2 1014/2/2 1013/3/2
f 920/225/2 922/227/2 1019/227/2 1018/225/2
f 1037/222/2 1036/220/2 933/220/2 932/222/2
f 1029/27/2 1027/25/2 980/25/2 978/27/2
f 1036/220/2 1035/2/2 934/2/2 933/220/2
f 1026/21/2 1023/211/2 984/211/2 981/21/2
f 1024/19/2 1041/229/2 1042/229/2 983/19/2
f 1027/25/2 1028/23/2 979/23/2 980/25/2
f 1035/2/2 1034/3/2 935/3/2 934/2/2
f 1028/23/2 1025/213/2 982/213/2 979/23/2
f 1025/213/2 1026/21/2 981/21/2 982/213/2
f 1034/3/2 1033/4/2 936/4/2 935/3/2
f 1041/229/2 1040/227/2 929/227/2 1042/229/2
f 1023/211/2 1024/19/2 983/19/2 984/211/2
f 1033/4/2 1032/1/2 937/1/2 936/4/2
f 1040/227/2 1039/225/2 930/225/2 929/227/2
f 1032/1/2 1031/31/2 976/31/2 937/1/2
f 1039/225/2 1038/223/2 931/223/2 930/225/2
f 1031/31/2 1030/29/2 977/29/2 976/31/2
f 1038/223/2 1037/222/2 932/222/2 931/223/2
f 1030/29/2 1029/27/2 978/27/2 977/29/2
f 1054/220/699 1055/238/699 1049/2/699 1050/220/699
f 1057/3/700 1058/239/700 1047/4/700 1048/3/700
f 1059/1/701 1052/31/701 1045/31/701 1046/1/701
f 1060/222/702 1054/220/702 1050/220/702 1051/222/702
f 1053/29/703 1056/27/703 1044/27/703 1043/29/703
f 1055/238/704 1057/3/704 1048/3/704 1049/2/704
f 1058/239/705 1059/1/705 1046/1/705 1047/4/705
f 936/4/705 937/1/705 1059/1/705 1058/239/705
f 934/2/704 935/3/704 1057/3/704 1055/238/704
f 977/29/703 978/27/703 1056/27/703 1053/29/703
f 932/222/702 933/220/702 1054/220/702 1060/222/702
f 937/1/701 976/31/701 1052/31/701 1059/1/701
f 984/211/706 983/19/706 1044/27/706 1056/27/706 978/27/706 980/25/706 979/23/706 982/213/706 981/21/706
f 935/3/700 936/4/700 1058/239/700 1057/3/700
f 931/223/707 932/222/707 1060/222/707 1051/222/707 1042/229/707 929/227/707 930/225/707
f 933/220/699 934/2/699 1055/238/699 1054/220/699
f 976/31/679 977/29/679 1053/29/679 1052/31/679
f 1044/27/708 983/19/708 1042/229/708 1051/222/708
f 1043/29/709 1044/27/709 1051/222/709 1050/220/709 1049/2/709 1048/3/709 1047/4/709 1046/1/709 1045/31/709
