# Blender 5.0.0
# www.blender.org
mtllib Arm_v2.mtl
o Cylinder.007
v 5.908071 26.140697 10.136099
v 2.177788 24.727198 14.620220
v 6.882468 26.037483 9.996845
v 2.211631 25.111219 13.768665
v 7.869221 25.855850 10.024240
v 2.437325 25.452425 12.938816
v 8.830419 25.602795 10.217247
v 2.846203 25.737707 12.162567
v 9.729107 25.288034 10.568438
v 3.422552 25.956100 11.469746
v 10.530762 24.923666 11.064316
v 4.144221 26.099209 10.886978
v 11.204576 24.523691 11.685829
v 4.983479 26.161545 10.436665
v 2.337109 24.315125 15.460758
v 8.830419 25.602795 10.217247
v 7.869221 25.855850 10.024240
v 4.144221 26.099209 10.886978
v 3.422552 25.956100 11.469746
v 9.729107 25.288034 10.568438
v 4.983479 26.161545 10.436665
v 10.530762 24.923666 11.064316
v 5.908071 26.140697 10.136099
v 11.204576 24.523691 11.685829
v 6.882468 26.037483 9.996845
v 2.846203 25.737707 12.162567
v 2.437325 25.452425 12.938816
v 2.211631 25.111219 13.768665
v 2.177788 24.727198 14.620220
v 2.337109 24.315125 15.460758
v 3.488070 9.374630 12.291538
v 6.734954 9.118630 9.993517
v 6.729641 9.250999 14.907171
v 3.600538 9.393586 13.247234
v 9.282251 9.011250 11.668369
v 5.582418 9.190912 10.117474
v 7.838087 9.176409 14.599152
v 4.560656 9.264944 10.597725
v 8.737288 9.021399 10.832857
v 4.556530 9.367759 14.414410
v 3.825218 9.329456 11.361155
v 9.057570 9.075379 13.554449
v 5.577310 9.318192 14.842300
v 7.305477 9.086643 10.073303
v 9.394719 9.030207 12.624065
v 3.487546 9.387668 12.775494
v 6.153148 9.153837 10.008430
v 7.300367 9.213924 14.798130
v 3.822702 9.392158 13.688641
v 9.060086 9.012680 11.226963
v 5.044700 9.228428 10.316452
v 8.322133 9.139893 14.317881
v 4.148888 9.299057 10.950476
v 4.145499 9.383438 14.082748
v 8.326258 9.037077 10.501196
v 5.039991 9.345730 14.670876
v 8.733902 9.105780 13.965130
v 3.602088 9.354975 11.813976
v 9.280701 9.049859 13.101629
v 7.842794 9.059107 10.244726
v 6.147836 9.286205 14.922085
v 9.395243 9.017169 12.140114
v -1.731305 7.403080 14.201059
v -0.719611 5.903575 12.899887
v -0.573995 6.471129 15.881704
v -1.665208 7.470294 14.784283
v 0.178413 5.127428 13.989616
v -1.099478 6.356245 12.941946
v -0.214322 6.014051 15.726671
v -1.425136 6.800157 13.203993
v -0.028023 5.238552 13.466883
v -1.312024 7.240987 15.520121
v -1.647004 7.167765 13.646135
v 0.160207 5.429959 15.127766
v -0.959457 6.901958 15.809172
v -0.527339 5.695746 12.964727
v 0.244509 5.194645 14.572840
v -1.716962 7.458983 14.494743
v -0.912801 6.126595 12.892197
v -0.387316 6.241477 15.831951
v -1.578027 7.436586 15.058556
v 0.091231 5.161129 13.715345
v -1.272473 6.583675 13.047228
v -0.061659 5.797568 15.569904
v -1.551599 6.997386 13.406219
v -1.458773 7.359165 15.307018
v -0.174770 5.356723 13.253778
v -1.143429 7.086617 15.689678
v 0.064806 5.600339 15.367676
v -1.707683 7.304750 13.914520
v 0.220888 5.292965 14.859379
v -0.343365 5.511104 13.084221
v -0.767182 6.694136 15.874012
v 0.230169 5.138735 14.279158
v 0.494638 7.872738 13.924175
v 1.941570 7.137620 12.052114
v 2.650765 7.216869 15.372509
v 0.694797 7.863728 14.558821
v 3.580749 6.616181 12.933117
v 1.327706 7.387569 12.249245
v 3.213786 6.973493 15.055349
v 0.837167 7.615040 12.674242
v 0.880559 7.822946 14.835197
v 3.160909 6.720152 12.422218
v 1.388031 7.676596 15.253365
v 3.438382 6.864874 14.817692
v 0.544631 7.785407 13.262400
v 3.730916 6.694503 14.229534
v 2.887515 6.803313 12.238571
v 2.009646 7.463769 15.442043
v 3.780908 6.607172 13.567760
v 0.487935 7.840611 13.590296
v 2.265901 7.016135 12.049894
v 2.333975 7.342294 15.439823
v 0.564487 7.880541 14.251207
v 3.711060 6.599369 13.240728
v 1.624781 7.263041 12.119427
v 2.947841 7.092344 15.242691
v 1.061760 7.506421 12.436584
v 3.394985 6.656964 12.656738
v 1.114639 7.759755 15.069717
v 0.662553 7.709239 12.953085
v 3.612993 6.770672 14.538849
v 1.690239 7.576647 15.379084
v 2.585305 6.903254 12.112850
v 3.787612 6.639300 13.901638
v -1.620084 7.448920 15.076893
v -0.075687 5.779605 15.597696
v -0.190888 5.330610 13.238756
v -0.745801 5.887571 12.878323
v -1.776195 7.414793 14.203547
v -1.752136 7.314646 13.911711
v -1.708877 7.483250 14.797552
v -1.761587 7.471729 14.502659
v -0.597492 6.465616 15.915258
v -0.794251 6.692746 15.907423
v -0.231172 6.000088 15.757359
v -0.407363 6.231717 15.864588
v 0.168823 5.097075 13.988194
v 0.221536 5.108593 14.283089
v -0.041427 5.210257 13.455799
v 0.080030 5.131403 13.708855
v -1.464367 6.800726 13.188051
v -1.308882 6.580242 13.028387
v -1.690336 7.175128 13.638365
v -1.593168 7.001600 13.394014
v -1.349164 7.249704 15.546989
v -1.498626 7.370067 15.329952
v -0.990079 6.904408 15.841387
v -1.177453 7.092481 15.719683
v 0.150281 5.405201 15.147381
v 0.053116 5.578731 15.391729
v 0.236142 5.165535 14.582203
v 0.212084 5.265676 14.874037
v -0.549974 5.675901 12.944363
v -0.362600 5.487844 13.066065
v -1.132689 6.348608 12.921160
v -0.942561 6.114714 12.870489
v 3.328865 11.929514 12.308691
v 6.670158 11.666071 9.943851
v 6.664690 11.802288 15.000378
v 3.444603 11.949020 13.292177
v 9.291521 11.555569 11.667400
v 5.484111 11.740456 10.071411
v 7.805366 11.725529 14.683403
v 4.432638 11.816638 10.565626
v 8.730713 11.566012 10.807596
v 4.428392 11.922442 14.493286
v 3.675817 11.883027 11.351255
v 9.060306 11.621563 13.608324
v 5.478853 11.871433 14.933620
v 7.257269 11.633154 10.025959
v 9.407258 11.575074 12.650887
v 3.328326 11.942931 12.806717
v 6.071433 11.702301 9.959200
v 7.252011 11.764134 14.888166
v 3.673227 11.947551 13.746418
v 9.062897 11.557039 11.213161
v 4.930758 11.779061 10.276176
v 8.303486 11.687951 14.393953
v 4.008897 11.851745 10.928635
v 4.005411 11.938577 14.151983
v 8.307731 11.582146 10.466291
v 4.925911 11.899773 14.757214
v 8.727228 11.652845 14.030945
v 3.446198 11.909287 11.817242
v 9.289926 11.595301 13.142338
v 7.810209 11.604816 10.202364
v 6.065968 11.838519 15.015724
v 9.407798 11.561659 12.152863
v 4.766327 16.262318 12.389614
v 6.527275 16.123474 11.143282
v 6.524393 16.195267 13.808205
v 4.827324 16.272598 12.907936
v 7.908802 16.065239 12.051640
v 5.902197 16.162678 11.210510
v 7.125559 16.154814 13.641148
v 5.348043 16.202827 11.470974
v 7.613240 16.070744 11.598499
v 5.345806 16.258591 13.540953
v 4.949179 16.237820 11.885019
v 7.786944 16.100018 13.074554
v 5.899426 16.231709 13.773022
v 6.836699 16.106129 11.186554
v 7.969798 16.075520 12.569962
v 4.766043 16.269390 12.652086
v 6.211732 16.142570 11.151371
v 6.833927 16.175159 13.749063
v 4.947815 16.271824 13.147331
v 7.788310 16.066013 11.812241
v 5.610565 16.183025 11.318426
v 7.388082 16.135010 13.488602
v 5.124722 16.221333 11.662289
v 5.122884 16.267094 13.361076
v 7.390318 16.079247 11.418621
v 5.608011 16.246643 13.680050
v 7.611404 16.116507 13.297287
v 4.828164 16.251657 12.130608
v 7.907961 16.086178 12.828966
v 7.128112 16.091194 11.279526
v 6.208852 16.214361 13.816292
v 7.970081 16.068449 12.307489
v 6.624738 14.712285 10.325129
v 6.116032 14.743068 10.338169
v 8.016103 14.640979 10.769020
v 7.593384 14.660239 10.544773
v 5.142737 14.910851 14.414803
v 5.612545 14.886773 14.564690
v 3.785807 14.936119 12.334415
v 3.785349 14.947519 12.757563
v 8.655529 14.674467 13.438650
v 8.850624 14.652156 13.042725
v 4.360634 14.943819 13.900570
v 4.720020 14.930113 14.190559
v 4.080595 14.896622 11.520929
v 3.885499 14.918935 11.916855
v 4.363596 14.870044 11.161850
v 8.012496 14.730878 14.106159
v 8.372528 14.701048 13.797729
v 5.146854 14.808287 10.607489
v 4.723628 14.840216 10.853420
v 8.657730 14.619646 11.403599
v 8.375490 14.627271 11.059010
v 8.950774 14.623571 12.202015
v 8.851980 14.618398 11.789543
v 4.078394 14.951444 13.555981
v 7.119111 14.795606 14.526070
v 7.589268 14.762804 14.352091
v 6.111388 14.858806 14.634449
v 6.620091 14.828021 14.621410
v 3.884144 14.952694 13.170034
v 5.617012 14.775485 10.433510
v 8.950316 14.634970 12.625164
v 7.123577 14.684317 10.394890
v 0.922492 8.413130 13.633717
v 3.145572 7.718683 11.022137
v 4.173343 7.807090 15.608324
v 1.216979 8.407473 14.509392
v 5.620217 7.235687 12.218679
v 2.211137 7.952897 11.303604
v 5.032373 7.578492 15.161427
v 1.460528 8.167112 11.898754
v 1.494846 8.370599 14.889355
v 4.990553 7.330535 11.517370
v 2.258847 8.235781 15.461079
v 5.376671 7.476052 14.829315
v 1.008014 8.328724 12.716982
v 5.829183 7.314437 14.011089
v 4.578348 7.407381 11.266991
v 3.199413 8.037903 15.713547
v 5.914704 7.230032 13.094355
v 0.917191 8.381686 13.171652
v 3.637786 7.605254 11.014524
v 3.691623 7.924481 15.705935
v 1.023719 8.421834 14.085417
v 5.813478 7.221325 12.642654
v 2.663852 7.836071 11.119747
v 4.626059 7.690269 15.424467
v 1.804823 8.064672 11.566643
v 5.342349 7.272562 11.838717
v 1.846643 8.312622 15.210701
v 1.191477 8.256269 12.287176
v 5.645719 7.386893 14.440895
v 2.715622 8.143013 15.630871
v 4.121573 7.500140 11.097202
v 5.920006 7.261476 13.556419
v -3.377673 6.091789 14.096153
v -3.739195 7.180338 13.953405
v -3.068899 6.072973 15.795944
v -3.377946 7.158891 16.046745
v -4.705253 5.925056 13.330910
v -5.163289 7.088470 13.118690
v -4.469601 7.314029 16.732876
v -3.574305 5.792659 16.831730
v -5.577597 5.083712 17.194099
v -5.913409 5.497501 13.549450
v -5.886171 6.812717 16.989115
v -6.371445 6.660914 13.337229
v -4.215553 5.831736 13.301682
v -5.039712 7.349306 13.693470
v -6.218844 5.122789 13.664049
v -6.456282 6.847995 13.949707
v -5.092147 5.835904 12.360704
v -5.391995 6.597522 12.221779
v -5.883054 5.556010 12.503771
v -6.182902 6.317626 12.364843
v -3.468259 7.164252 15.523407
v -3.558571 7.169615 15.000074
v -3.648883 7.174976 14.476740
v -3.300480 6.087086 14.521101
v -3.223286 6.082382 14.946049
v -3.146092 6.077676 15.370996
v -3.734617 5.802429 15.949219
v -3.894929 5.812196 15.066706
v -4.055242 5.821966 14.184193
v -5.737908 5.093481 16.311586
v -5.898220 5.103251 15.429073
v -6.058533 5.113021 14.546560
v -6.369015 6.842596 14.414948
v -6.171868 6.830396 15.465984
v -5.974722 6.818196 16.517025
v -6.254904 6.716721 16.598478
v -6.052823 6.704218 17.675819
v -4.049532 7.413162 17.313452
v -4.857854 7.463181 13.004091
v -6.861145 6.754235 13.366457
v -6.659064 6.741731 14.443798
v -6.456984 6.729227 15.521137
v -5.949678 6.718472 16.548141
v -5.858109 6.712805 17.036320
v -4.393273 7.231198 16.771349
v -4.982810 7.267677 13.628376
v -6.447647 6.749286 13.893347
v -6.357408 6.743701 14.374439
v -6.153543 6.731087 15.461292
v -7.868896 5.951400 13.691214
v -7.055053 6.077317 17.765263
v -6.418028 5.240490 17.223045
v -7.065307 5.133776 13.885965
v -6.903487 5.160456 14.720234
v -6.741667 5.187134 15.554504
v -6.579847 5.213814 16.388771
v -7.131500 6.057618 16.863914
v -7.361403 6.022047 15.713036
v -7.591303 5.986479 14.562160
v -7.123645 5.375020 14.454191
v -7.723304 6.368754 14.711578
v -9.535974 6.083871 14.383867
v -7.106591 5.230749 13.622631
v -7.609181 6.210493 13.834419
v -10.083062 6.721192 14.203012
v -7.609181 6.210493 13.834419
v -7.106591 5.230749 13.622631
v -9.535974 6.083871 14.383867
v -9.278549 4.655447 14.278709
v -7.723304 6.368754 14.711578
v -7.123645 5.375020 14.454191
v -9.797642 5.197573 13.374710
v -10.182621 6.586294 13.434559
v -9.825636 5.292769 14.097851
v -10.083062 6.721192 14.203012
v -9.635532 5.948970 13.615414
v -9.250554 4.560251 13.555565
v -5.732322 5.685183 15.640318
v -6.535911 6.514293 15.502422
v -7.666300 4.790810 16.189178
v -8.192677 6.141446 16.038090
v -8.314082 5.344591 16.274124
v -8.840459 6.695225 16.123035
v -5.570500 5.654259 16.474442
v -7.534924 4.732944 16.910137
v -6.258318 6.489219 16.373713
v -8.166084 6.025952 16.821453
v -8.182705 5.286722 16.995083
v -8.813867 6.579731 16.906399
v -6.306082 5.077104 17.477005
v -6.259583 6.127486 17.448332
v -8.173923 5.689816 18.534576
v -7.873261 7.041418 18.285078
v -8.340487 6.529401 18.505234
v -8.039826 7.881002 18.255733
v -8.538321 7.847991 17.372074
v -8.698852 6.502482 17.863953
v -8.371756 7.008406 17.401421
v -8.532287 5.662898 17.893297
v -6.871952 6.060979 16.448723
v -6.746830 5.025173 16.751781
v -6.746830 5.025173 16.751781
v -6.871952 6.060979 16.448723
v -9.178954 5.621065 14.990303
v -8.603544 4.343279 14.865253
v -7.228416 6.106577 14.675579
v -6.608681 5.275373 14.498615
v -9.251326 4.900429 14.924141
v -9.826736 6.178217 15.049191
v -7.228416 6.106577 14.675579
v -6.608681 5.275373 14.498615
v -9.639606 6.144573 16.046329
v -9.119948 4.876429 15.647020
v -8.991824 5.587420 15.987442
v -8.472166 4.319277 15.588131
v -6.998514 6.116680 15.826960
v -6.446862 5.283591 15.333269
v -1.169541 8.101906 13.788631
v -1.148031 8.185747 14.278246
v 0.347762 5.853003 11.619385
v 0.058023 6.187480 11.606564
v 0.566153 6.704199 16.590521
v 0.846126 6.359773 16.507576
v -1.070411 8.202711 14.760956
v -0.939662 8.152160 15.218204
v 1.694587 4.688960 13.436125
v 1.563835 4.739510 12.978876
v -0.221949 6.531899 11.689505
v -0.481401 6.872993 11.865025
v 1.105576 6.018689 16.332058
v 1.334535 5.694015 16.070705
v -0.710360 7.197663 12.126375
v -0.900025 7.493461 12.463516
v -0.760807 8.036046 15.632435
v 1.384982 4.855626 12.564651
v 1.164896 5.032852 12.209375
v -0.540720 7.858806 15.987705
v -0.287866 7.627286 16.270384
v 1.524202 5.398221 15.733561
v -1.043111 7.748988 12.863491
v -1.134115 7.954433 13.310928
v 1.667283 5.142691 15.333591
v 1.758291 4.937233 14.886150
v 0.912042 5.264385 11.926697
v -0.011950 7.350339 16.469601
v 0.276416 7.038658 16.577694
v 0.636125 5.541307 11.727482
v 1.793715 4.789773 14.408447
v 1.772208 4.705923 13.918833
v -4.525661 7.027183 14.926640
v -4.518110 7.056612 15.098515
v -3.993027 6.237726 14.165146
v -4.094737 6.355141 14.160645
v -3.916362 6.536531 15.910215
v -3.818081 6.415624 15.881100
v -4.490864 7.062569 15.267965
v -4.444964 7.044823 15.428478
v -3.520235 5.829100 14.802895
v -3.566137 5.846845 14.642384
v -4.193018 6.476047 14.189760
v -4.284096 6.595783 14.251375
v -3.727003 6.295889 15.819487
v -3.646630 6.181916 15.727739
v -4.364470 6.709757 14.343121
v -4.431050 6.813594 14.461470
v -4.382179 7.004062 15.573889
v -3.628920 5.887605 14.496973
v -3.706179 5.949820 14.372257
v -4.304918 6.941845 15.698603
v -4.216157 6.860572 15.797836
v -3.580048 6.078080 15.609386
v -4.481278 6.903294 14.601879
v -4.513225 6.975413 14.758947
v -3.529822 5.988378 15.468983
v -3.497874 5.916254 15.311914
v -3.794941 6.031096 14.273026
v -4.119301 6.763352 15.867769
v -4.018072 6.653939 15.905714
v -3.891798 6.128307 14.203093
v -3.485437 5.864489 15.144222
v -3.492988 5.835054 14.972345
v 6.488310 16.362223 10.975899
v 6.840418 16.362223 11.020039
v 7.171929 16.362223 11.120075
v 7.470101 16.362225 11.272167
v 7.723477 16.362225 11.470463
v 7.922318 16.362223 11.707348
v 8.058986 16.362223 11.973719
v 8.128225 16.362223 12.259336
v 8.127378 16.362225 12.553225
v 8.056474 16.362223 12.844093
v 7.918240 16.362225 13.120758
v 7.717985 16.362221 13.372589
v 7.463410 16.362223 13.589914
v 7.164295 16.362223 13.764376
v 6.832135 16.362223 13.889271
v 6.479696 16.362223 13.959799
v 6.120521 16.362223 13.973253
v 5.768412 16.362223 13.929111
v 5.436900 16.362221 13.829075
v 5.138728 16.362225 13.676987
v 4.885353 16.362221 13.478687
v 4.686511 16.362225 13.241802
v 4.549845 16.362225 12.975431
v 4.480605 16.362223 12.689816
v 4.481453 16.362223 12.395927
v 4.552357 16.362223 12.105061
v 4.690592 16.362221 11.828394
v 4.890844 16.362223 11.576559
v 5.145419 16.362223 11.359238
v 5.444534 16.362225 11.184776
v 5.776694 16.362223 11.059879
v 6.129135 16.362223 10.989349
v 6.502752 15.738021 10.858206
v 6.882512 15.738020 10.905811
v 7.240056 15.738020 11.013706
v 7.561645 15.738021 11.177738
v 7.834918 15.738021 11.391609
v 8.049375 15.738020 11.647099
v 8.196775 15.738020 11.934385
v 8.271454 15.738020 12.242432
v 8.270537 15.738021 12.559402
v 8.194064 15.738020 12.873110
v 8.044974 15.738021 13.171503
v 7.828996 15.738021 13.443111
v 7.554428 15.738021 13.677504
v 7.231823 15.738020 13.865665
v 6.873578 15.738020 14.000370
v 6.493461 15.738021 14.076439
v 6.106079 15.738020 14.090946
v 5.726318 15.738021 14.043339
v 5.368773 15.738021 13.935446
v 5.047185 15.738021 13.771412
v 4.773911 15.738019 13.557541
v 4.559454 15.738021 13.302052
v 4.412055 15.738020 13.014765
v 4.337378 15.738021 12.706718
v 4.338293 15.738021 12.389750
v 4.414765 15.738020 12.076042
v 4.563855 15.738019 11.777649
v 4.779834 15.738022 11.506039
v 5.054401 15.738020 11.271648
v 5.377007 15.738020 11.083487
v 5.735251 15.738021 10.948784
v 6.115370 15.738020 10.872715
v 6.052324 16.860809 10.338503
v 6.568895 16.860809 10.319157
v 7.075304 16.860811 10.382641
v 7.552088 16.860811 10.526514
v 7.980922 16.860811 10.745251
v 8.345332 16.860811 11.030447
v 8.631310 16.860809 11.371140
v 8.827865 16.860811 11.754236
v 8.927446 16.860811 12.165016
v 8.926227 16.860813 12.587690
v 8.824251 16.860809 13.006018
v 8.625443 16.860811 13.403923
v 8.337433 16.860809 13.766113
v 7.971300 16.860809 14.078672
v 7.541107 16.860809 14.329586
v 7.063391 16.860809 14.509212
v 6.556506 16.860809 14.610647
v 6.039934 16.860809 14.629995
v 5.533526 16.860809 14.566513
v 5.056743 16.860809 14.422638
v 4.627907 16.860809 14.203899
v 4.263498 16.860811 13.918703
v 3.977521 16.860811 13.578011
v 3.780965 16.860809 13.194916
v 3.681383 16.860809 12.784136
v 3.682605 16.860811 12.361462
v 3.784580 16.860811 11.943132
v 3.983389 16.860809 11.545227
v 4.271396 16.860811 11.183037
v 4.637530 16.860809 10.870480
v 5.067722 16.860811 10.619566
v 5.545440 16.860811 10.439941
v 6.168945 19.674946 11.326683
v 6.446543 19.674946 11.316284
v 6.718679 19.674946 11.350399
v 6.974895 19.674948 11.427717
v 7.205344 19.674946 11.545263
v 7.401173 19.674946 11.698523
v 7.554853 19.674946 11.881605
v 7.660479 19.674946 12.087475
v 7.713993 19.674948 12.308224
v 7.713337 19.674946 12.535362
v 7.658537 19.674948 12.760164
v 7.551700 19.674948 12.973993
v 7.396929 19.674946 13.168629
v 7.200174 19.674946 13.336594
v 6.968995 19.674946 13.471430
v 6.712278 19.674946 13.567959
v 6.439885 19.674946 13.622469
v 6.162288 19.674948 13.632866
v 5.890151 19.674946 13.598751
v 5.633935 19.674946 13.521435
v 5.403484 19.674946 13.403889
v 5.207657 19.674946 13.250629
v 5.053977 19.674948 13.067547
v 4.948351 19.674946 12.861675
v 4.894837 19.674946 12.640928
v 4.895494 19.674946 12.413790
v 4.950293 19.674946 12.188988
v 5.057131 19.674946 11.975159
v 5.211901 19.674946 11.780521
v 5.408656 19.674946 11.612558
v 5.639835 19.674946 11.477720
v 5.896553 19.674948 11.381193
vn -0.2661 -0.0601 -0.9621
vn 0.0337 -0.6187 -0.7849
vn 0.4028 -0.8742 0.2711
vn 0.3744 -0.7325 0.5685
vn -0.0236 0.6291 0.7770
vn -0.0977 0.8907 0.4440
vn -0.3551 0.7450 -0.5648
vn -0.3751 0.3932 -0.8395
vn 0.2844 -0.8865 -0.3650
vn 0.3750 -0.9259 -0.0453
vn 0.2393 -0.2978 0.9242
vn 0.1020 0.1688 0.9804
vn -0.1812 0.9834 0.0052
vn 0.3964 -0.9109 0.1145
vn -0.2655 0.9266 -0.2662
vn -0.0701 -0.4637 -0.8832
vn 0.0337 0.4159 0.9088
vn 0.1304 -0.7395 -0.6604
vn 0.3952 -0.8154 0.4230
vn -0.3133 0.8554 -0.4125
vn 0.3411 -0.6220 0.7048
vn -0.0665 0.7875 0.6128
vn 0.2149 -0.8278 -0.5182
vn -0.1234 0.9503 0.2857
vn -0.3794 0.5898 -0.7129
vn 0.2959 -0.4788 0.8265
vn -0.3364 0.1695 -0.9263
vn 0.3379 -0.9184 -0.2060
vn -0.1497 0.9786 0.1409
vn 0.1731 -0.0782 0.9818
vn -0.1734 -0.2756 -0.9455
vn -0.2200 0.9670 -0.1283
vn 0.9453 -0.1493 0.2899
vn 0.6994 -0.0208 -0.7144
vn 0.5622 0.6710 0.4834
vn 0.5286 0.2344 -0.8159
vn 0.2253 0.9271 -0.2996
vn 0.9615 -0.2747 0.0053
vn 0.2599 0.9620 -0.0840
vn 0.6299 0.5641 0.5338
vn 0.7621 0.3189 0.5635
vn 0.9438 -0.2908 -0.1573
vn 0.8520 -0.2170 -0.4765
vn 0.2827 0.6853 -0.6711
vn 0.2315 0.8343 -0.5004
vn -0.7947 0.6059 -0.0364
vn -0.2129 -0.7121 -0.6690
vn 0.0385 -0.4717 0.8809
vn -0.6687 0.6691 0.3243
vn 0.2408 -0.9593 -0.1474
vn -0.4656 -0.4820 -0.7422
vn 0.1947 -0.7242 0.6615
vn -0.7241 -0.1164 -0.6798
vn -0.6015 0.6241 0.4987
vn 0.1408 -0.9260 -0.3503
vn -0.4344 0.3684 0.8220
vn 0.2436 -0.8048 0.5413
vn -0.8535 0.3189 -0.4121
vn 0.2944 -0.9066 0.3024
vn 0.0720 -0.8935 -0.4432
vn -0.1959 -0.0683 0.9782
vn -0.1046 -0.7895 -0.6048
vn -0.8412 0.4911 -0.2264
vn 0.2921 -0.9537 0.0718
vn -0.7335 0.6636 0.1471
vn -0.0712 -0.2873 0.9552
vn 0.1271 -0.6158 0.7776
vn 0.2725 -0.9613 -0.0395
vn 0.1970 -0.9477 -0.2513
vn -0.6005 -0.3169 -0.7341
vn -0.8144 0.1056 -0.5705
vn -0.5261 0.5250 0.6690
vn -0.3221 0.1618 0.9328
vn 0.2762 -0.8640 0.4210
vn 0.2995 -0.9358 0.1858
vn -0.0097 -0.8488 -0.5287
vn -0.3341 -0.6117 -0.7171
vn 0.2231 0.8877 -0.4027
vn 0.8733 0.0649 0.4828
vn 0.4352 0.8377 0.3299
vn 0.7811 -0.1309 -0.6105
vn 0.3315 0.9342 0.1320
vn 0.2512 0.7668 -0.5907
vn 0.8215 0.1901 0.5375
vn 0.3264 0.5901 -0.7384
vn 0.3826 0.4818 -0.7883
vn 0.9071 -0.2715 -0.3217
vn 0.6132 0.1042 -0.7830
vn 0.2913 0.9563 0.0249
vn 0.9614 -0.2260 0.1568
vn 0.6974 0.4453 0.5616
vn 0.9153 -0.0503 0.3997
vn 0.4506 0.3621 -0.8160
vn 0.4967 0.7628 0.4141
vn 0.2377 0.9520 -0.1928
vn 0.3798 0.8948 0.2347
vn -0.0268 -0.0202 -0.9994
vn 0.4683 -0.0087 -0.8835
vn -0.3058 -0.0458 0.9510
vn -0.9981 -0.0622 0.0006
vn 0.8967 -0.0103 0.4425
vn -0.6283 -0.0555 0.7760
vn -0.8969 -0.0542 -0.4389
vn -0.7862 -0.0484 -0.6161
vn 0.6496 -0.0179 0.7600
vn -0.5041 -0.0361 -0.8629
vn -0.4698 -0.0508 0.8813
vn 0.7736 -0.0043 -0.6337
vn 0.6278 -0.0061 -0.7783
vn 0.9725 -0.0036 -0.2329
vn -0.7729 -0.0595 0.6317
vn 0.3453 -0.0266 0.9381
vn -0.6520 -0.0422 -0.7570
vn 0.0234 -0.0359 0.9991
vn 0.5010 -0.0222 0.8651
vn -0.9704 -0.0633 0.2332
vn -0.3487 -0.0304 -0.9367
vn 1.0000 -0.0049 0.0012
vn -0.1892 -0.0250 -0.9816
vn 0.8932 -0.0034 -0.4496
vn -0.9715 -0.0590 -0.2295
vn 0.3034 -0.0120 -0.9528
vn -0.8916 -0.0623 0.4485
vn 0.1376 -0.0158 -0.9904
vn 0.9726 -0.0072 0.2325
vn 0.1856 -0.0312 0.9821
vn -0.1406 -0.0408 0.9892
vn 0.7848 -0.0140 0.6196
vn 0.0082 0.5020 -0.8648
vn 0.4189 0.5188 -0.7452
vn -0.2330 0.5297 0.8155
vn -0.8036 0.5949 -0.0169
vn 0.7604 0.5511 0.3436
vn -0.5075 0.5595 0.6553
vn -0.7220 0.5729 -0.3880
vn -0.6323 0.5560 -0.5395
vn 0.5766 0.5299 0.6218
vn -0.3981 0.5238 -0.7531
vn -0.3739 0.5436 0.7515
vn 0.6557 0.5425 -0.5251
vn 0.5445 0.5304 -0.6498
vn 0.8039 0.5602 -0.1996
vn -0.6265 0.5753 0.5259
vn 0.3290 0.5141 0.7921
vn -0.5219 0.5388 -0.6613
vn 0.0530 0.5132 0.8566
vn 0.4580 0.5206 0.7206
vn -0.7830 0.5953 0.1801
vn -0.2664 0.5121 -0.8165
vn 0.8268 0.5622 -0.0143
vn -0.1303 0.5048 -0.8534
vn 0.7449 0.5532 -0.3731
vn -0.7818 0.5868 -0.2108
vn 0.2851 0.5096 -0.8118
vn -0.7216 0.5882 0.3651
vn 0.1473 0.5037 -0.8512
vn 0.8115 0.5589 0.1707
vn 0.1932 0.5115 0.8373
vn -0.0897 0.5194 0.8498
vn 0.6797 0.5407 0.4956
vn 0.7829 0.1375 0.6068
vn -0.1305 0.1261 0.9834
vn 0.1940 0.1247 0.9730
vn 0.9636 0.1458 0.2241
vn 0.1443 0.1250 -0.9816
vn -0.8833 0.1474 0.4450
vn 0.3074 0.1275 -0.9430
vn -0.9606 0.1480 -0.2354
vn 0.8840 0.1446 -0.4445
vn -0.1784 0.1243 -0.9761
vn 0.9890 0.1477 -0.0029
vn -0.3365 0.1261 -0.9332
vn -0.9619 0.1501 0.2285
vn 0.5055 0.1290 0.8531
vn 0.0330 0.1247 0.9916
vn -0.6383 0.1336 -0.7581
vn 0.3520 0.1262 0.9274
vn -0.7641 0.1429 0.6290
vn 0.9615 0.1472 -0.2321
vn 0.6253 0.1357 -0.7685
vn 0.7675 0.1404 -0.6255
vn -0.4597 0.1330 0.8780
vn -0.4909 0.1293 -0.8616
vn 0.6511 0.1329 0.7472
vn -0.7728 0.1387 -0.6193
vn -0.8845 0.1438 -0.4439
vn -0.6188 0.1378 0.7734
vn 0.8911 0.1421 0.4311
vn -0.9886 0.1503 -0.0051
vn -0.2954 0.1289 0.9466
vn 0.4692 0.1312 -0.8733
vn -0.0179 0.1239 -0.9921
vn -0.2191 -0.2213 -0.9503
vn 0.1459 -0.7196 -0.6789
vn 0.4808 -0.8597 0.1726
vn 0.4836 -0.7389 0.4692
vn -0.1279 0.7578 0.6398
vn -0.2341 0.8971 0.3746
vn -0.4735 0.7491 -0.4633
vn -0.4445 0.3531 -0.8233
vn 0.3558 -0.8753 -0.3276
vn 0.4367 -0.8954 -0.0871
vn 0.3272 -0.1942 0.9248
vn 0.0738 0.3942 0.9160
vn -0.3351 0.9401 0.0629
vn 0.4633 -0.8853 0.0393
vn -0.4067 0.8995 -0.1594
vn 0.0428 -0.6091 -0.7919
vn -0.0417 0.6138 0.7883
vn 0.2305 -0.7942 -0.5622
vn 0.4884 -0.8137 0.3153
vn -0.4437 0.8451 -0.2982
vn 0.4611 -0.6218 0.6331
vn -0.1892 0.8456 0.4992
vn 0.2995 -0.8439 -0.4451
vn -0.2701 0.9259 0.2641
vn -0.4811 0.5897 -0.6487
vn 0.4123 -0.4441 0.7955
vn -0.3514 0.0620 -0.9342
vn 0.4011 -0.8919 -0.2088
vn -0.3026 0.9392 0.1624
vn 0.2066 0.1065 0.9726
vn -0.0806 -0.4476 -0.8906
vn -0.3697 0.9282 -0.0418
vn 0.9390 0.3030 -0.1627
vn 0.3604 -0.9297 -0.0758
vn 0.8819 0.1331 0.4523
vn 0.6610 0.1241 -0.7400
vn 0.2453 -0.2094 0.9465
vn 0.3217 -0.9443 -0.0689
vn 0.3263 -0.9443 -0.0434
vn -0.0992 -0.2162 -0.9713
vn -0.9264 -0.3734 -0.0478
vn -0.3688 0.8518 -0.3722
vn 0.8830 0.2787 -0.3777
vn 0.9660 0.1867 -0.1790
vn 0.2805 0.9590 -0.0405
vn 0.9420 0.2932 -0.1633
vn 0.9410 0.2965 -0.1631
vn 0.9400 0.2998 -0.1629
vn -0.3213 0.9443 0.0712
vn 0.3108 -0.4506 0.8368
vn -0.7591 -0.6368 0.1350
vn -0.0112 -0.4297 -0.9029
vn 0.3213 -0.9443 -0.0712
vn -0.6077 0.7865 0.1097
vn -0.5880 0.8019 0.1057
vn -0.5536 0.8294 0.0749
vn -0.1165 -0.9927 0.0316
vn -0.0734 -0.9970 0.0236
vn -0.0309 -0.9994 0.0156
vn 0.1429 -0.3249 0.9349
vn -0.1579 -0.2834 -0.9459
vn -0.1600 -0.9863 0.0397
vn -0.6007 0.7874 0.1388
vn -0.7683 -0.6169 0.1709
vn 0.2961 -0.9427 0.1538
vn -0.8708 -0.4912 0.0201
vn -0.7653 -0.6414 0.0548
vn -0.4611 -0.1475 0.8750
vn -0.9707 -0.2261 0.0815
vn -0.1142 0.9779 -0.1752
vn -0.0801 -0.1752 0.9813
vn 0.7706 0.6032 -0.2057
vn 0.1218 0.1383 -0.9829
vn -0.1992 -0.2472 -0.9483
vn -0.1956 0.9735 0.1187
vn -0.3137 -0.2254 -0.9224
vn -0.9165 -0.3967 0.0505
vn 0.6539 0.7513 0.0886
vn 0.1810 0.1882 0.9653
vn -0.6445 -0.7625 0.0562
vn 0.3925 -0.9111 -0.1260
vn -0.8435 0.2716 0.4633
vn 0.8582 0.1531 -0.4899
vn 0.3759 0.8869 -0.2686
vn 0.8539 -0.0502 -0.5179
vn -0.2181 -0.9587 0.1828
vn -0.6218 -0.2316 -0.7482
vn 0.4633 0.0420 0.8852
vn -0.8598 -0.1536 0.4869
vn -0.1547 0.0464 -0.9869
vn 0.1249 -0.3137 0.9413
vn 0.6441 0.7590 -0.0953
vn -0.2423 0.9685 0.0576
vn -0.8962 -0.4168 0.1520
vn 0.7762 0.6102 -0.1587
vn 0.4140 -0.9061 -0.0871
vn -0.6445 -0.7591 0.0919
vn -0.5251 0.2773 -0.8046
vn -0.1187 -0.7785 0.6163
vn -0.4611 0.6637 -0.5890
vn -0.4205 0.7891 -0.4478
vn -0.2375 0.8024 0.5475
vn -0.1380 -0.9104 0.3900
vn -0.3456 0.9273 -0.1436
vn -0.1915 0.4403 0.8772
vn -0.3371 -0.8534 -0.3975
vn -0.4818 -0.4463 -0.7541
vn -0.1262 -0.8558 0.5016
vn -0.1678 0.1808 0.9691
vn -0.1295 -0.3304 0.9349
vn -0.1537 -0.9473 0.2810
vn -0.4348 -0.6266 -0.6468
vn -0.2858 0.9401 0.1857
vn -0.3848 -0.7601 -0.5236
vn -0.3814 0.8749 -0.2984
vn -0.2243 -0.9736 -0.0435
vn -0.5173 -0.2215 -0.8266
vn -0.1732 -0.9695 0.1736
vn -0.5329 0.0298 -0.8457
vn -0.3139 0.9493 0.0171
vn -0.1162 -0.6712 0.7321
vn -0.1462 -0.0889 0.9853
vn -0.4984 0.4931 -0.7130
vn -0.1195 -0.5246 0.8429
vn -0.2608 0.8944 0.3633
vn -0.1966 -0.9783 0.0660
vn -0.2942 -0.9155 -0.2744
vn -0.2566 -0.9537 -0.1565
vn -0.2148 0.6526 0.7266
vn 0.7507 0.6448 -0.1434
vn -0.0368 0.1843 -0.9822
vn 0.1222 0.1866 -0.9748
vn 0.2836 0.1911 -0.9397
vn 0.4454 0.1974 -0.8733
vn 0.6032 0.2051 -0.7708
vn 0.7484 0.2130 -0.6282
vn 0.8680 0.2197 -0.4453
vn 0.9473 0.2236 -0.2296
vn 0.9747 0.2236 0.0028
vn 0.9478 0.2197 0.2310
vn 0.8740 0.2130 0.4367
vn 0.7661 0.2051 0.6092
vn 0.6365 0.1974 0.7456
vn 0.4945 0.1911 0.8479
vn 0.3458 0.1866 0.9196
vn 0.1929 0.1843 0.9638
vn 0.0368 0.1843 0.9822
vn -0.1222 0.1866 0.9748
vn -0.2836 0.1911 0.9397
vn -0.4454 0.1974 0.8733
vn -0.6032 0.2051 0.7708
vn -0.7484 0.2130 0.6282
vn -0.8680 0.2197 0.4453
vn -0.9473 0.2236 0.2296
vn -0.9747 0.2236 -0.0028
vn -0.9478 0.2197 -0.2310
vn -0.8740 0.2130 -0.4367
vn -0.7661 0.2051 -0.6092
vn -0.6365 0.1974 -0.7456
vn -0.4945 0.1911 -0.8479
vn -0.3458 0.1866 -0.9196
vn -0.1929 0.1843 -0.9638
vn -0.0227 -0.7949 -0.6063
vn 0.0749 -0.7986 -0.5971
vn 0.1711 -0.8057 -0.5671
vn 0.2632 -0.8151 -0.5161
vn 0.3477 -0.8257 -0.4442
vn 0.4204 -0.8359 -0.3529
vn 0.4773 -0.8439 -0.2449
vn 0.5145 -0.8484 -0.1247
vn 0.5294 -0.8484 0.0015
vn 0.5212 -0.8439 0.1271
vn 0.4911 -0.8359 0.2454
vn 0.4415 -0.8257 0.3511
vn 0.3761 -0.8151 0.4406
vn 0.2985 -0.8057 0.5117
vn 0.2118 -0.7986 0.5633
vn 0.1191 -0.7949 0.5949
vn 0.0227 -0.7949 0.6063
vn -0.0749 -0.7986 0.5971
vn -0.1711 -0.8056 0.5671
vn -0.2632 -0.8151 0.5161
vn -0.3477 -0.8257 0.4442
vn -0.4204 -0.8359 0.3529
vn -0.4773 -0.8439 0.2449
vn -0.5145 -0.8484 0.1247
vn -0.5294 -0.8484 -0.0015
vn -0.5212 -0.8439 -0.1271
vn -0.4911 -0.8359 -0.2454
vn -0.4415 -0.8257 -0.3511
vn -0.3761 -0.8151 -0.4406
vn -0.2985 -0.8057 -0.5117
vn -0.2118 -0.7986 -0.5633
vn -0.1191 -0.7949 -0.5949
vn -0.0000 -1.0000 -0.0000
vn 0.7088 0.3790 -0.5949
vn -0.4250 0.3540 0.8331
vn 0.8194 0.3897 -0.4204
vn -0.5735 0.3664 0.7327
vn 0.8925 0.3958 -0.2164
vn -0.7088 0.3790 0.5949
vn 0.9183 0.3958 0.0027
vn -0.8194 0.3897 0.4204
vn 0.8947 0.3897 0.2181
vn -0.8925 0.3958 0.2164
vn 0.8278 0.3790 0.4136
vn -0.9183 0.3958 -0.0027
vn 0.7283 0.3664 0.5791
vn -0.8947 0.3897 -0.2181
vn 0.6072 0.3540 0.7113
vn -0.8278 0.3790 -0.4136
vn 0.4731 0.3436 0.8112
vn -0.0353 0.3324 -0.9425
vn -0.7283 0.3664 -0.5791
vn 0.3315 0.3362 0.8815
vn 0.1171 0.3362 -0.9345
vn -0.6072 0.3540 -0.7113
vn 0.1851 0.3324 0.9248
vn 0.2713 0.3436 -0.8991
vn -0.4732 0.3436 -0.8112
vn 0.0353 0.3324 0.9425
vn 0.4250 0.3540 -0.8331
vn -0.3315 0.3362 -0.8815
vn -0.1171 0.3362 0.9345
vn 0.5735 0.3664 -0.7328
vn -0.1851 0.3324 -0.9248
vn -0.2713 0.3436 0.8991
vt 0.000000 0.000000
vt 0.312500 0.500000
vt 0.375000 0.500000
vt 0.375000 0.750000
vt 0.312500 0.750000
vt 0.375000 0.937500
vt 0.510246 0.937500
vt 0.510246 1.000000
vt 0.375000 1.000000
vt 0.510246 0.500000
vt 0.510246 0.750000
vt 0.375000 0.000000
vt 0.510246 0.000000
vt 0.510246 0.250000
vt 0.375000 0.250000
vt 0.510246 0.812500
vt 0.510246 0.035860
vt 0.510246 0.035860
vt 0.510246 0.214140
vt 0.510246 0.937500
vt 0.510246 0.875000
vt 0.510246 0.875000
vt 0.510246 0.374796
vt 0.510246 0.437296
vt 0.375000 0.437500
vt 0.375000 0.375000
vt 0.375000 0.312500
vt 0.375000 0.812500
vt 0.375000 0.875000
vt 0.125000 0.500000
vt 0.187500 0.500000
vt 0.187500 0.750000
vt 0.125000 0.750000
vt 0.250000 0.500000
vt 0.250000 0.750000
vt 0.510246 0.465369
vt 0.510246 0.437500
vt 0.510246 0.465369
vt 0.510246 0.284631
vt 0.510246 0.284631
vt 0.510246 0.312296
vt 0.510247 0.312500
vt 0.510246 0.375000
vt 0.510246 0.312500
vt 0.510246 0.375000
vt 0.510246 0.437500
vt 0.510247 0.500000
vt 0.510247 0.812500
vt 0.510246 0.937500
vt 0.510246 0.750000
vt 0.510246 0.250000
vt 0.510247 0.812500
vt 0.510246 0.812500
vt 0.510246 0.437500
vt 0.510246 0.437500
vt 0.510246 0.562500
vt 0.510246 0.312500
vt 0.510246 0.187500
vt 0.510246 0.375000
vt 0.510246 0.375000
vt 0.510246 0.187500
vt 0.510246 0.375000
vt 0.510246 0.562500
vt 0.510246 0.812500
vt 0.510246 0.441885
vt 1.000000 0.581250
vt 1.000000 0.662500
vt 0.968750 0.662500
vt 0.968750 0.581250
vt 0.937500 0.662500
vt 0.937500 0.581250
vt 0.906250 0.662500
vt 0.906250 0.581250
vt 0.875000 0.662500
vt 0.875000 0.581250
vt 0.843750 0.662500
vt 0.843750 0.581250
vt 0.812500 0.662500
vt 0.812500 0.581250
vt 0.781250 0.662500
vt 0.781250 0.581250
vt 0.750000 0.662500
vt 0.750000 0.581250
vt 0.718750 0.662500
vt 0.718750 0.581250
vt 0.687500 0.662500
vt 0.687500 0.581250
vt 0.656250 0.662500
vt 0.656250 0.581250
vt 0.625000 0.662500
vt 0.625000 0.581250
vt 0.593750 0.662500
vt 0.593750 0.581250
vt 0.562500 0.662500
vt 0.562500 0.581250
vt 0.531250 0.662500
vt 0.531250 0.581250
vt 0.500000 0.662500
vt 0.500000 0.581250
vt 0.468750 0.662500
vt 0.468750 0.581250
vt 0.437500 0.662500
vt 0.437500 0.581250
vt 0.406250 0.662500
vt 0.406250 0.581250
vt 0.375000 0.662500
vt 0.375000 0.581250
vt 0.343750 0.662500
vt 0.343750 0.581250
vt 0.312500 0.662500
vt 0.312500 0.581250
vt 0.281250 0.662500
vt 0.281250 0.581250
vt 0.250000 0.662500
vt 0.250000 0.581250
vt 0.218750 0.662500
vt 0.218750 0.581250
vt 0.187500 0.662500
vt 0.187500 0.581250
vt 0.156250 0.662500
vt 0.156250 0.581250
vt 0.125000 0.662500
vt 0.125000 0.581250
vt 0.093750 0.662500
vt 0.093750 0.581250
vt 0.062500 0.662500
vt 0.062500 0.581250
vt 0.031250 0.662500
vt 0.031250 0.581250
vt 0.000000 0.662500
vt 0.000000 0.581250
vt 1.000000 0.743750
vt 0.968750 0.743750
vt 0.937500 0.743750
vt 0.906250 0.743750
vt 0.875000 0.743750
vt 0.843750 0.743750
vt 0.812500 0.743750
vt 0.781250 0.743750
vt 0.750000 0.743750
vt 0.718750 0.743750
vt 0.687500 0.743750
vt 0.656250 0.743750
vt 0.625000 0.743750
vt 0.593750 0.743750
vt 0.562500 0.743750
vt 0.531250 0.743750
vt 0.500000 0.743750
vt 0.468750 0.743750
vt 0.437500 0.743750
vt 0.406250 0.743750
vt 0.375000 0.743750
vt 0.343750 0.743750
vt 0.312500 0.743750
vt 0.281250 0.743750
vt 0.250000 0.743750
vt 0.218750 0.743750
vt 0.187500 0.743750
vt 0.156250 0.743750
vt 0.125000 0.743750
vt 0.093750 0.743750
vt 0.062500 0.743750
vt 0.031250 0.743750
vt 0.000000 0.743750
s 0
f 117/1/1 96/1/1 79/1/1 68/1/1
f 125/1/2 109/1/2 92/1/2 76/1/2
f 126/1/3 108/1/3 91/1/3 77/1/3
f 123/1/4 106/1/4 89/1/4 74/1/4
f 124/1/5 105/1/5 88/1/5 75/1/5
f 121/1/6 103/1/6 86/1/6 72/1/6
f 122/1/7 102/1/7 85/1/7 73/1/7
f 119/1/8 100/1/8 83/1/8 70/1/8
f 120/1/9 99/1/9 82/1/9 71/1/9
f 116/1/10 111/1/10 94/1/10 67/1/10
f 118/1/11 97/1/11 80/1/11 69/1/11
f 114/1/12 110/1/12 93/1/12 65/1/12
f 115/1/13 95/1/13 78/1/13 66/1/13
f 111/1/14 126/1/14 77/1/14 94/1/14
f 112/1/15 107/1/15 90/1/15 63/1/15
f 113/1/16 125/1/16 76/1/16 64/1/16
f 110/1/17 124/1/17 75/1/17 93/1/17
f 109/1/18 104/1/18 87/1/18 92/1/18
f 108/1/19 123/1/19 74/1/19 91/1/19
f 107/1/20 122/1/20 73/1/20 90/1/20
f 106/1/21 101/1/21 84/1/21 89/1/21
f 105/1/22 121/1/22 72/1/22 88/1/22
f 104/1/23 120/1/23 71/1/23 87/1/23
f 103/1/24 98/1/24 81/1/24 86/1/24
f 102/1/25 119/1/25 70/1/25 85/1/25
f 101/1/26 118/1/26 69/1/26 84/1/26
f 100/1/27 117/1/27 68/1/27 83/1/27
f 99/1/28 116/1/28 67/1/28 82/1/28
f 98/1/29 115/1/29 66/1/29 81/1/29
f 97/1/30 114/1/30 65/1/30 80/1/30
f 96/1/31 113/1/31 64/1/31 79/1/31
f 95/1/32 112/1/32 63/1/32 78/1/32
f 91/1/33 74/1/33 151/1/33 154/1/33
f 92/1/34 87/1/34 129/1/34 156/1/34
f 93/1/35 75/1/35 149/1/35 136/1/35
f 64/1/36 76/1/36 155/1/36 130/1/36
f 63/1/37 90/1/37 132/1/37 131/1/37
f 94/1/38 77/1/38 153/1/38 140/1/38
f 66/1/39 78/1/39 134/1/39 133/1/39
f 65/1/40 93/1/40 136/1/40 135/1/40
f 69/1/41 80/1/41 138/1/41 137/1/41
f 67/1/42 94/1/42 140/1/42 139/1/42
f 71/1/43 82/1/43 142/1/43 141/1/43
f 70/1/44 83/1/44 144/1/44 143/1/44
f 73/1/45 85/1/45 146/1/45 145/1/45
f 255/1/46 272/1/46 112/1/46 95/1/46
f 256/1/47 273/1/47 113/1/47 96/1/47
f 257/1/48 274/1/48 114/1/48 97/1/48
f 258/1/49 275/1/49 115/1/49 98/1/49
f 259/1/50 276/1/50 116/1/50 99/1/50
f 260/1/51 277/1/51 117/1/51 100/1/51
f 261/1/52 278/1/52 118/1/52 101/1/52
f 262/1/53 279/1/53 119/1/53 102/1/53
f 263/1/54 258/1/54 98/1/54 103/1/54
f 264/1/55 280/1/55 120/1/55 104/1/55
f 265/1/56 281/1/56 121/1/56 105/1/56
f 266/1/57 261/1/57 101/1/57 106/1/57
f 267/1/58 282/1/58 122/1/58 107/1/58
f 268/1/59 283/1/59 123/1/59 108/1/59
f 269/1/60 264/1/60 104/1/60 109/1/60
f 270/1/61 284/1/61 124/1/61 110/1/61
f 273/1/62 285/1/62 125/1/62 113/1/62
f 272/1/63 267/1/63 107/1/63 112/1/63
f 271/1/64 286/1/64 126/1/64 111/1/64
f 275/1/65 255/1/65 95/1/65 115/1/65
f 274/1/66 270/1/66 110/1/66 114/1/66
f 278/1/67 257/1/67 97/1/67 118/1/67
f 276/1/68 271/1/68 111/1/68 116/1/68
f 280/1/69 259/1/69 99/1/69 120/1/69
f 279/1/70 260/1/70 100/1/70 119/1/70
f 282/1/71 262/1/71 102/1/71 122/1/71
f 281/1/72 263/1/72 103/1/72 121/1/72
f 284/1/73 265/1/73 105/1/73 124/1/73
f 283/1/74 266/1/74 106/1/74 123/1/74
f 286/1/75 268/1/75 108/1/75 126/1/75
f 285/1/76 269/1/76 109/1/76 125/1/76
f 277/1/77 256/1/77 96/1/77 117/1/77
f 90/1/78 73/1/78 145/1/78 132/1/78
f 89/1/79 84/1/79 128/1/79 152/1/79
f 88/1/80 72/1/80 147/1/80 150/1/80
f 87/1/81 71/1/81 141/1/81 129/1/81
f 86/1/82 81/1/82 127/1/82 148/1/82
f 85/1/83 70/1/83 143/1/83 146/1/83
f 84/1/84 69/1/84 137/1/84 128/1/84
f 83/1/85 68/1/85 157/1/85 144/1/85
f 68/1/86 79/1/86 158/1/86 157/1/86
f 82/1/87 67/1/87 139/1/87 142/1/87
f 76/1/88 92/1/88 156/1/88 155/1/88
f 81/1/89 66/1/89 133/1/89 127/1/89
f 77/1/90 91/1/90 154/1/90 153/1/90
f 80/1/91 65/1/91 135/1/91 138/1/91
f 74/1/92 89/1/92 152/1/92 151/1/92
f 79/1/93 64/1/93 130/1/93 158/1/93
f 75/1/94 88/1/94 150/1/94 149/1/94
f 78/1/95 63/1/95 131/1/95 134/1/95
f 72/1/96 86/1/96 148/1/96 147/1/96
f 32/1/97 47/1/97 175/1/97 160/1/97
f 55/1/98 60/1/98 188/1/98 183/1/98
f 56/1/99 43/1/99 171/1/99 184/1/99
f 31/1/100 46/1/100 174/1/100 159/1/100
f 42/1/101 59/1/101 187/1/101 170/1/101
f 54/1/102 40/1/102 168/1/102 182/1/102
f 41/1/103 58/1/103 186/1/103 169/1/103
f 53/1/104 41/1/104 169/1/104 181/1/104
f 52/1/105 57/1/105 185/1/105 180/1/105
f 51/1/106 38/1/106 166/1/106 179/1/106
f 40/1/107 56/1/107 184/1/107 168/1/107
f 50/1/108 39/1/108 167/1/108 178/1/108
f 39/1/109 55/1/109 183/1/109 167/1/109
f 62/1/110 35/1/110 163/1/110 190/1/110
f 49/1/111 54/1/111 182/1/111 177/1/111
f 48/1/112 37/1/112 165/1/112 176/1/112
f 38/1/113 53/1/113 181/1/113 166/1/113
f 61/1/114 33/1/114 161/1/114 189/1/114
f 37/1/115 52/1/115 180/1/115 165/1/115
f 46/1/116 34/1/116 162/1/116 174/1/116
f 36/1/117 51/1/117 179/1/117 164/1/117
f 45/1/118 62/1/118 190/1/118 173/1/118
f 47/1/119 36/1/119 164/1/119 175/1/119
f 35/1/120 50/1/120 178/1/120 163/1/120
f 58/1/121 31/1/121 159/1/121 186/1/121
f 60/1/122 44/1/122 172/1/122 188/1/122
f 34/1/123 49/1/123 177/1/123 162/1/123
f 44/1/124 32/1/124 160/1/124 172/1/124
f 59/1/125 45/1/125 173/1/125 187/1/125
f 33/1/126 48/1/126 176/1/126 161/1/126
f 43/1/127 61/1/127 189/1/127 171/1/127
f 57/1/128 42/1/128 170/1/128 185/1/128
f 223/1/129 224/1/129 207/1/129 192/1/129
f 225/1/130 226/1/130 220/1/130 215/1/130
f 227/1/131 228/1/131 203/1/131 216/1/131
f 229/1/132 230/1/132 206/1/132 191/1/132
f 231/1/133 232/1/133 219/1/133 202/1/133
f 233/1/134 234/1/134 200/1/134 214/1/134
f 235/1/135 236/1/135 218/1/135 201/1/135
f 237/1/136 235/1/136 201/1/136 213/1/136
f 238/1/137 239/1/137 217/1/137 212/1/137
f 240/1/138 241/1/138 198/1/138 211/1/138
f 234/1/139 227/1/139 216/1/139 200/1/139
f 242/1/140 243/1/140 199/1/140 210/1/140
f 243/1/141 225/1/141 215/1/141 199/1/141
f 244/1/142 245/1/142 195/1/142 222/1/142
f 246/1/143 233/1/143 214/1/143 209/1/143
f 247/1/144 248/1/144 197/1/144 208/1/144
f 241/1/145 237/1/145 213/1/145 198/1/145
f 249/1/146 250/1/146 193/1/146 221/1/146
f 248/1/147 238/1/147 212/1/147 197/1/147
f 230/1/148 251/1/148 194/1/148 206/1/148
f 252/1/149 240/1/149 211/1/149 196/1/149
f 253/1/150 244/1/150 222/1/150 205/1/150
f 224/1/151 252/1/151 196/1/151 207/1/151
f 245/1/152 242/1/152 210/1/152 195/1/152
f 236/1/153 229/1/153 191/1/153 218/1/153
f 226/1/154 254/1/154 204/1/154 220/1/154
f 251/1/155 246/1/155 209/1/155 194/1/155
f 254/1/156 223/1/156 192/1/156 204/1/156
f 232/1/157 253/1/157 205/1/157 219/1/157
f 250/1/158 247/1/158 208/1/158 193/1/158
f 228/1/159 249/1/159 221/1/159 203/1/159
f 239/1/160 231/1/160 202/1/160 217/1/160
f 185/1/161 170/1/161 231/1/161 239/1/161
f 171/1/162 189/1/162 249/1/162 228/1/162
f 161/1/163 176/1/163 247/1/163 250/1/163
f 187/1/164 173/1/164 253/1/164 232/1/164
f 172/1/165 160/1/165 223/1/165 254/1/165
f 162/1/166 177/1/166 246/1/166 251/1/166
f 188/1/167 172/1/167 254/1/167 226/1/167
f 186/1/168 159/1/168 229/1/168 236/1/168
f 163/1/169 178/1/169 242/1/169 245/1/169
f 175/1/170 164/1/170 252/1/170 224/1/170
f 173/1/171 190/1/171 244/1/171 253/1/171
f 164/1/172 179/1/172 240/1/172 252/1/172
f 174/1/173 162/1/173 251/1/173 230/1/173
f 165/1/174 180/1/174 238/1/174 248/1/174
f 189/1/175 161/1/175 250/1/175 249/1/175
f 166/1/176 181/1/176 237/1/176 241/1/176
f 176/1/177 165/1/177 248/1/177 247/1/177
f 177/1/178 182/1/178 233/1/178 246/1/178
f 190/1/179 163/1/179 245/1/179 244/1/179
f 167/1/180 183/1/180 225/1/180 243/1/180
f 178/1/181 167/1/181 243/1/181 242/1/181
f 168/1/182 184/1/182 227/1/182 234/1/182
f 179/1/183 166/1/183 241/1/183 240/1/183
f 180/1/184 185/1/184 239/1/184 238/1/184
f 181/1/185 169/1/185 235/1/185 237/1/185
f 169/1/186 186/1/186 236/1/186 235/1/186
f 182/1/187 168/1/187 234/1/187 233/1/187
f 170/1/188 187/1/188 232/1/188 231/1/188
f 159/1/189 174/1/189 230/1/189 229/1/189
f 184/1/190 171/1/190 228/1/190 227/1/190
f 183/1/191 188/1/191 226/1/191 225/1/191
f 160/1/192 175/1/192 224/1/192 223/1/192
f 36/1/193 47/1/193 256/1/193 277/1/193
f 44/1/194 60/1/194 269/1/194 285/1/194
f 45/1/195 59/1/195 268/1/195 286/1/195
f 42/1/196 57/1/196 266/1/196 283/1/196
f 43/1/197 56/1/197 265/1/197 284/1/197
f 40/1/198 54/1/198 263/1/198 281/1/198
f 41/1/199 53/1/199 262/1/199 282/1/199
f 38/1/200 51/1/200 260/1/200 279/1/200
f 39/1/201 50/1/201 259/1/201 280/1/201
f 35/1/202 62/1/202 271/1/202 276/1/202
f 37/1/203 48/1/203 257/1/203 278/1/203
f 33/1/204 61/1/204 270/1/204 274/1/204
f 34/1/205 46/1/205 255/1/205 275/1/205
f 62/1/206 45/1/206 286/1/206 271/1/206
f 31/1/207 58/1/207 267/1/207 272/1/207
f 32/1/208 44/1/208 285/1/208 273/1/208
f 61/1/209 43/1/209 284/1/209 270/1/209
f 60/1/210 55/1/210 264/1/210 269/1/210
f 59/1/211 42/1/211 283/1/211 268/1/211
f 58/1/212 41/1/212 282/1/212 267/1/212
f 57/1/213 52/1/213 261/1/213 266/1/213
f 56/1/214 40/1/214 281/1/214 265/1/214
f 55/1/215 39/1/215 280/1/215 264/1/215
f 54/1/216 49/1/216 258/1/216 263/1/216
f 53/1/217 38/1/217 279/1/217 262/1/217
f 52/1/218 37/1/218 278/1/218 261/1/218
f 51/1/219 36/1/219 277/1/219 260/1/219
f 50/1/220 35/1/220 276/1/220 259/1/220
f 49/1/221 34/1/221 275/1/221 258/1/221
f 48/1/222 33/1/222 274/1/222 257/1/222
f 47/1/223 32/1/223 273/1/223 256/1/223
f 46/1/224 31/1/224 272/1/224 255/1/224
f 307/2/225 290/3/225 289/4/225 312/5/225
f 310/6/226 315/7/226 299/8/226 287/9/226
f 290/3/227 324/10/227 294/11/227 289/4/227
f 287/12/228 299/13/228 325/14/228 288/15/228
f 294/11/229 324/10/229 323/10/229 295/11/229
f 313/16/230 294/11/230 295/11/230 316/16/230
f 291/17/231 296/18/231 305/18/231 303/17/231
f 291/17/232 292/19/232 325/14/232 299/13/232
f 298/19/232 296/18/232 301/13/232 326/14/232
f 292/19/232 298/19/232 326/14/232 325/14/232
f 296/18/232 291/17/232 299/13/232 301/13/232
f 304/19/232 303/17/232 305/18/232 306/19/232
f 296/18/233 298/19/233 306/19/233 305/18/233
f 298/19/234 292/19/234 304/19/234 306/19/234
f 292/19/235 291/17/235 303/17/235 304/19/235
f 299/8/230 315/7/230 318/20/230 301/8/230
f 315/7/230 314/21/230 317/22/230 318/20/230
f 314/21/230 313/16/230 316/16/230 317/22/230
f 320/23/236 321/24/236 329/24/236 335/23/236
f 288/15/237 325/14/237 324/10/237 290/3/237 307/25/237 308/26/237 309/27/237
f 289/4/226 294/11/226 313/16/226 312/28/226
f 312/28/226 313/16/226 314/21/226 311/29/226
f 311/29/226 314/21/226 315/7/226 310/6/226
f 288/30/238 309/31/238 310/32/238 287/33/238
f 309/31/239 308/34/239 311/35/239 310/32/239
f 308/34/240 307/2/240 312/5/240 311/35/240
f 297/36/241 321/24/241 322/37/241 323/10/241
f 293/38/241 297/36/241 323/10/241 324/10/241
f 302/39/241 300/40/241 325/14/241 326/14/241
f 300/40/241 293/38/241 324/10/241 325/14/241
f 319/41/241 302/39/241 326/14/241 327/42/241
f 320/23/241 319/41/241 327/42/241 328/43/241
f 321/24/241 320/23/241 328/43/241 322/37/241
f 302/39/236 319/41/236 334/41/236 333/39/236
f 300/40/242 302/39/242 333/39/242 332/40/242
f 321/24/236 297/36/236 330/36/236 329/24/236
f 319/41/236 320/23/236 335/23/236 334/41/236
f 293/38/243 300/40/243 332/40/243 331/38/243
f 297/36/244 293/38/244 331/38/244 330/36/244
f 321/1/245 320/1/245 319/1/245 302/1/245 300/1/245 293/1/245 297/1/245
f 328/43/246 327/42/246 345/44/246 344/45/246
f 322/37/247 328/43/247 344/45/247 343/46/247
f 323/10/248 322/37/248 343/46/248 337/47/248
f 317/22/249 316/16/249 342/48/249 341/22/249
f 318/20/250 317/22/250 341/22/250 340/49/250
f 301/8/251 318/20/251 340/49/251 339/8/251
f 295/11/252 323/10/252 337/47/252 338/50/252
f 326/14/253 301/13/253 339/13/253 336/51/253
f 316/16/254 295/11/254 338/50/254 342/48/254
f 327/42/255 326/14/255 336/51/255 345/44/255
f 345/44/256 336/51/256 339/13/256 340/49/256 341/22/256 342/48/256 338/50/256 337/47/256 343/46/256 344/45/256
f 353/52/257 357/11/257 355/11/257 363/53/257
f 346/1/258 347/1/258 350/1/258 353/52/258 352/54/258 349/1/258
f 363/53/259 355/11/259 360/11/259 358/53/259
f 355/11/260 354/10/260 361/10/260 360/11/260
f 360/11/261 361/10/261 359/55/261 358/56/261
f 356/10/262 352/54/262 362/55/262 354/10/262
f 357/11/263 356/10/263 354/10/263 355/11/263
f 354/10/264 362/55/264 359/55/264 361/10/264 351/1/264 348/1/264
f 353/52/265 363/53/265 358/56/265 359/55/265 362/55/265 352/54/265
f 365/14/266 364/13/266 366/13/266 367/14/266
f 372/44/267 365/14/267 367/14/267 373/57/267
f 367/14/268 366/13/268 368/13/268 369/14/268
f 374/58/269 375/57/269 369/14/269 368/13/269
f 373/57/270 367/14/270 369/14/270 375/57/270
f 371/1/271 370/1/271 372/1/271 373/1/271 375/1/271 374/1/271
f 366/8/272 371/49/272 374/7/272 368/8/272
f 364/8/273 370/49/273 371/49/273 366/8/273
f 380/59/274 381/60/274 382/44/274 383/61/274
f 379/60/275 384/44/275 382/44/275 381/60/275
f 377/45/276 386/44/276 384/44/276 379/60/276
f 387/49/277 388/49/277 389/44/277 386/44/277 377/45/277 376/22/277
f 387/49/278 376/22/278 378/22/278 385/49/278
f 383/61/279 382/44/279 384/44/279 386/44/279 389/44/279 388/49/279 387/49/279 385/49/279
f 380/59/280 378/22/280 376/22/280 377/45/280 379/60/280 381/60/280
f 385/49/281 378/22/281 380/22/281 383/49/281
f 397/22/282 396/45/282 393/22/282 391/22/282 394/22/282 395/62/282 390/62/282 392/59/282
f 399/63/283 401/64/283 403/52/283 402/54/283 400/55/283 398/65/283
f 400/55/284 390/62/284 395/62/284 398/65/284
f 402/54/285 392/59/285 390/62/285 400/55/285
f 399/63/286 398/65/286 395/62/286 394/59/286
f 397/22/287 396/45/287 392/59/287 402/54/287 403/52/287 393/22/287
f 393/22/288 403/52/288 401/64/288 391/22/288
f 391/22/289 401/64/289 399/16/289 394/22/289
f 418/1/290 415/1/290 447/1/290 450/1/290
f 425/1/291 417/1/291 449/1/291 457/1/291
f 426/1/292 419/1/292 451/1/292 458/1/292
f 427/1/293 426/1/293 458/1/293 459/1/293
f 423/1/294 420/1/294 452/1/294 455/1/294
f 429/1/295 428/1/295 460/1/295 461/1/295
f 405/1/296 404/1/296 436/1/296 437/1/296
f 431/1/297 424/1/297 456/1/297 463/1/297
f 430/1/298 422/1/298 454/1/298 462/1/298
f 407/1/299 406/1/299 438/1/299 439/1/299
f 428/1/300 425/1/300 457/1/300 460/1/300
f 432/1/301 431/1/301 463/1/301 464/1/301
f 409/1/302 408/1/302 440/1/302 441/1/302
f 434/1/303 429/1/303 461/1/303 466/1/303
f 406/1/304 433/1/304 465/1/304 438/1/304
f 411/1/305 410/1/305 442/1/305 443/1/305
f 433/1/306 430/1/306 462/1/306 465/1/306
f 404/1/307 427/1/307 459/1/307 436/1/307
f 413/1/308 412/1/308 444/1/308 445/1/308
f 414/1/309 407/1/309 439/1/309 446/1/309
f 435/1/310 434/1/310 466/1/310 467/1/310
f 415/1/311 414/1/311 446/1/311 447/1/311
f 410/1/312 405/1/312 437/1/312 442/1/312
f 417/1/313 416/1/313 448/1/313 449/1/313
f 408/1/314 432/1/314 464/1/314 440/1/314
f 419/1/315 418/1/315 450/1/315 451/1/315
f 416/1/316 409/1/316 441/1/316 448/1/316
f 420/1/317 411/1/317 443/1/317 452/1/317
f 412/1/318 435/1/318 467/1/318 444/1/318
f 422/1/319 421/1/319 453/1/319 454/1/319
f 421/1/320 413/1/320 445/1/320 453/1/320
f 424/1/321 423/1/321 455/1/321 456/1/321
f 404/1/322 405/1/322 410/1/322 411/1/322 420/1/322 423/1/322 424/1/322 431/1/322 432/1/322 408/1/322 409/1/322 416/1/322 417/1/322 425/1/322 428/1/322 429/1/322 434/1/322 435/1/322 412/1/322 413/1/322 421/1/322 422/1/322 430/1/322 433/1/322 406/1/322 407/1/322 414/1/322 415/1/322 418/1/322 419/1/322 426/1/322 427/1/322
f 531/66/323 499/67/323 468/68/323 500/69/323
f 500/69/324 468/68/324 469/70/324 501/71/324
f 501/71/325 469/70/325 470/72/325 502/73/325
f 502/73/326 470/72/326 471/74/326 503/75/326
f 503/75/327 471/74/327 472/76/327 504/77/327
f 504/77/328 472/76/328 473/78/328 505/79/328
f 505/79/329 473/78/329 474/80/329 506/81/329
f 506/81/330 474/80/330 475/82/330 507/83/330
f 507/83/331 475/82/331 476/84/331 508/85/331
f 508/85/332 476/84/332 477/86/332 509/87/332
f 509/87/333 477/86/333 478/88/333 510/89/333
f 510/89/334 478/88/334 479/90/334 511/91/334
f 511/91/335 479/90/335 480/92/335 512/93/335
f 512/93/336 480/92/336 481/94/336 513/95/336
f 513/95/337 481/94/337 482/96/337 514/97/337
f 514/97/338 482/96/338 483/98/338 515/99/338
f 515/99/339 483/98/339 484/100/339 516/101/339
f 516/101/340 484/100/340 485/102/340 517/103/340
f 517/103/341 485/102/341 486/104/341 518/105/341
f 518/105/342 486/104/342 487/106/342 519/107/342
f 519/107/343 487/106/343 488/108/343 520/109/343
f 520/109/344 488/108/344 489/110/344 521/111/344
f 521/111/345 489/110/345 490/112/345 522/113/345
f 522/113/346 490/112/346 491/114/346 523/115/346
f 523/115/347 491/114/347 492/116/347 524/117/347
f 524/117/348 492/116/348 493/118/348 525/119/348
f 525/119/349 493/118/349 494/120/349 526/121/349
f 526/121/350 494/120/350 495/122/350 527/123/350
f 527/123/351 495/122/351 496/124/351 528/125/351
f 528/125/352 496/124/352 497/126/352 529/127/352
f 529/127/353 497/126/353 498/128/353 530/129/353
f 530/129/354 498/128/354 499/130/354 531/131/354
f 499/67/355 532/132/355 533/133/355 468/68/355
f 468/68/356 533/133/356 534/134/356 469/70/356
f 469/70/357 534/134/357 535/135/357 470/72/357
f 470/72/358 535/135/358 536/136/358 471/74/358
f 471/74/359 536/136/359 537/137/359 472/76/359
f 472/76/360 537/137/360 538/138/360 473/78/360
f 473/78/361 538/138/361 539/139/361 474/80/361
f 474/80/362 539/139/362 540/140/362 475/82/362
f 475/82/363 540/140/363 541/141/363 476/84/363
f 476/84/364 541/141/364 542/142/364 477/86/364
f 477/86/365 542/142/365 543/143/365 478/88/365
f 478/88/366 543/143/366 544/144/366 479/90/366
f 479/90/367 544/144/367 545/145/367 480/92/367
f 480/92/368 545/145/368 546/146/368 481/94/368
f 481/94/369 546/146/369 547/147/369 482/96/369
f 482/96/370 547/147/370 548/148/370 483/98/370
f 483/98/371 548/148/371 549/149/371 484/100/371
f 484/100/372 549/149/372 550/150/372 485/102/372
f 485/102/373 550/150/373 551/151/373 486/104/373
f 486/104/374 551/151/374 552/152/374 487/106/374
f 487/106/375 552/152/375 553/153/375 488/108/375
f 488/108/376 553/153/376 554/154/376 489/110/376
f 489/110/377 554/154/377 555/155/377 490/112/377
f 490/112/378 555/155/378 556/156/378 491/114/378
f 491/114/379 556/156/379 557/157/379 492/116/379
f 492/116/380 557/157/380 558/158/380 493/118/380
f 493/118/381 558/158/381 559/159/381 494/120/381
f 494/120/382 559/159/382 560/160/382 495/122/382
f 495/122/383 560/160/383 561/161/383 496/124/383
f 496/124/384 561/161/384 562/162/384 497/126/384
f 497/126/385 562/162/385 563/163/385 498/128/385
f 498/128/386 563/163/386 532/164/386 499/130/386
f 530/129/387 531/66/387 500/69/387 501/71/387 502/73/387 503/75/387 504/77/387 505/79/387 506/81/387 507/83/387 508/85/387 509/87/387 510/89/387 511/91/387 512/93/387 513/95/387 514/97/387 515/99/387 516/101/387 517/103/387 518/105/387 519/107/387 520/109/387 521/111/387 522/113/387 523/115/387 524/117/387 525/119/387 526/121/387 527/123/387 528/125/387 529/127/387
f 538/138/388 537/137/388 569/137/388 570/138/388
f 552/152/389 551/151/389 583/151/389 584/152/389
f 539/139/390 538/138/390 570/138/390 571/139/390
f 553/153/391 552/152/391 584/152/391 585/153/391
f 540/140/392 539/139/392 571/139/392 572/140/392
f 554/154/393 553/153/393 585/153/393 586/154/393
f 541/141/394 540/140/394 572/140/394 573/141/394
f 555/155/395 554/154/395 586/154/395 587/155/395
f 542/142/396 541/141/396 573/141/396 574/142/396
f 556/156/397 555/155/397 587/155/397 588/156/397
f 543/143/398 542/142/398 574/142/398 575/143/398
f 557/157/399 556/156/399 588/156/399 589/157/399
f 544/144/400 543/143/400 575/143/400 576/144/400
f 558/158/401 557/157/401 589/157/401 590/158/401
f 545/145/402 544/144/402 576/144/402 577/145/402
f 559/159/403 558/158/403 590/158/403 591/159/403
f 546/146/404 545/145/404 577/145/404 578/146/404
f 533/133/405 532/132/405 564/132/405 565/133/405
f 560/160/406 559/159/406 591/159/406 592/160/406
f 547/147/407 546/146/407 578/146/407 579/147/407
f 534/134/408 533/133/408 565/133/408 566/134/408
f 561/161/409 560/160/409 592/160/409 593/161/409
f 548/148/410 547/147/410 579/147/410 580/148/410
f 535/135/411 534/134/411 566/134/411 567/135/411
f 562/162/412 561/161/412 593/161/412 594/162/412
f 549/149/413 548/148/413 580/148/413 581/149/413
f 536/136/414 535/135/414 567/135/414 568/136/414
f 563/163/415 562/162/415 594/162/415 595/163/415
f 550/150/416 549/149/416 581/149/416 582/150/416
f 537/137/417 536/136/417 568/136/417 569/137/417
f 532/164/418 563/163/418 595/163/418 564/164/418
f 551/151/419 550/150/419 582/150/419 583/151/419
l 1 23
l 25 3
l 10 19
l 18 12
l 30 15
l 6 27
l 26 8
l 13 24
l 7 16
l 20 9
l 4 28
l 17 5
l 21 14
l 2 29
l 22 11
o Roundcube
