# Blender 5.0.0
# www.blender.org
mtllib Boss_PH.mtl
o Roundcube
v 0.239993 -0.320068 -0.263088
v 0.185697 -0.435136 -0.188063
v 0.131183 -0.515656 -0.130480
v 0.077448 -0.560196 -0.104573
v 0.019391 -0.576504 -0.095625
v -0.047737 -0.567824 -0.099080
v -0.129888 -0.532825 -0.121606
v -0.223567 -0.466307 -0.179519
v 0.257721 -0.283151 -0.307570
v 0.215461 -0.410787 -0.268456
v 0.161636 -0.505151 -0.199449
v 0.094587 -0.568157 -0.150455
v 0.023612 -0.592941 -0.131801
v -0.059784 -0.580108 -0.134288
v -0.169820 -0.532318 -0.170882
v -0.287065 -0.441270 -0.263762
v 0.234552 -0.302671 -0.330775
v 0.207341 -0.399955 -0.319194
v 0.167005 -0.471379 -0.280927
v 0.095999 -0.556478 -0.211799
v 0.017331 -0.598818 -0.178224
v -0.089679 -0.581516 -0.178084
v -0.241666 -0.518168 -0.253999
v -0.294177 -0.393479 -0.366724
v 0.214042 -0.356776 -0.327590
v 0.221705 -0.325732 -0.407594
v 0.179622 -0.397739 -0.398595
v 0.097740 -0.543497 -0.286869
v -0.012157 -0.574118 -0.232167
v -0.143094 -0.562826 -0.250514
v -0.275424 -0.475161 -0.394210
v -0.272444 -0.334540 -0.434702
v 0.296624 -0.180307 -0.356717
v 0.264162 -0.200327 -0.414263
v 0.170281 -0.287111 -0.472516
v 0.114365 -0.459440 -0.469999
v -0.087973 -0.568183 -0.346946
v -0.195805 -0.526212 -0.407494
v -0.229488 -0.385851 -0.496817
v -0.250596 -0.252408 -0.460978
v 0.350307 -0.068359 -0.353547
v 0.280905 -0.115454 -0.414481
v 0.167043 -0.205230 -0.485493
v 0.047588 -0.327144 -0.550319
v -0.075598 -0.402599 -0.545869
v -0.163435 -0.382444 -0.551871
v -0.211784 -0.270341 -0.517862
v -0.244118 -0.142468 -0.458671
v 0.328511 -0.016000 -0.382632
v 0.247126 -0.052077 -0.435737
v 0.137605 -0.120523 -0.489175
v 0.008703 -0.203904 -0.546464
v -0.094982 -0.245951 -0.565938
v -0.155915 -0.203549 -0.535268
v -0.185837 -0.105890 -0.473007
v -0.221489 -0.030289 -0.424526
v 0.279471 0.040548 -0.439846
v 0.200330 0.035971 -0.467581
v 0.119604 0.016097 -0.471130
v 0.037411 -0.001514 -0.469902
v -0.032978 0.004423 -0.455844
v -0.090083 0.030837 -0.429308
v -0.141728 0.054237 -0.401265
v -0.194626 0.064803 -0.376671
v -0.281865 -0.377799 -0.249295
v -0.267861 -0.348305 -0.213593
v -0.265057 -0.345629 -0.164026
v -0.259305 -0.354479 -0.110704
v -0.252127 -0.363007 -0.056320
v -0.245177 -0.372750 -0.001474
v -0.235941 -0.387377 0.054349
v -0.224662 -0.408594 0.110253
v -0.280813 -0.326751 -0.310754
v -0.284003 -0.287303 -0.244838
v -0.295187 -0.284350 -0.179830
v -0.303728 -0.293751 -0.118703
v -0.303462 -0.306332 -0.057637
v -0.295528 -0.332570 0.004059
v -0.270748 -0.360084 0.069006
v -0.244637 -0.382830 0.131456
v -0.278116 -0.274373 -0.344705
v -0.301201 -0.226078 -0.264476
v -0.325775 -0.222780 -0.194593
v -0.339988 -0.232685 -0.128093
v -0.345358 -0.252655 -0.060753
v -0.346341 -0.292785 0.006503
v -0.319272 -0.340513 0.074355
v -0.267543 -0.359773 0.148524
v -0.281960 -0.212571 -0.367557
v -0.319933 -0.162133 -0.288155
v -0.348232 -0.159490 -0.216308
v -0.364589 -0.169373 -0.143303
v -0.368911 -0.195650 -0.066942
v -0.388950 -0.254367 0.009321
v -0.395466 -0.309468 0.080075
v -0.320163 -0.327315 0.157661
v -0.288373 -0.138307 -0.386864
v -0.334457 -0.096832 -0.322784
v -0.366707 -0.093771 -0.257043
v -0.382538 -0.101741 -0.178524
v -0.376602 -0.127613 -0.083009
v -0.383121 -0.195674 0.011769
v -0.398251 -0.261587 0.092464
v -0.366477 -0.283337 0.153461
v -0.287633 -0.062035 -0.397595
v -0.342606 -0.034030 -0.358864
v -0.383192 -0.030649 -0.318382
v -0.405784 -0.030777 -0.265965
v -0.392942 -0.049591 -0.139237
v -0.357717 -0.098664 -0.009921
v -0.355616 -0.171072 0.084400
v -0.350949 -0.199595 0.144850
v -0.276996 0.002925 -0.387944
v -0.334714 0.021151 -0.365852
v -0.386706 0.021058 -0.365723
v -0.421354 0.017365 -0.353880
v -0.425800 0.021348 -0.290449
v -0.376888 0.003928 -0.101471
v -0.334663 -0.029610 0.033058
v -0.371244 -0.076134 0.068811
v -0.256687 0.060215 -0.359018
v -0.306347 0.075693 -0.337990
v -0.357822 0.073875 -0.353550
v -0.406051 0.056846 -0.386230
v -0.421536 0.059570 -0.360861
v -0.382998 0.072453 -0.209643
v -0.331803 0.067518 -0.043456
v -0.362764 0.033847 0.027103
v -0.197582 -0.423884 0.163534
v -0.152684 -0.422592 0.184878
v -0.099854 -0.410913 0.198554
v -0.036819 -0.383515 0.205805
v 0.012400 -0.358274 0.204711
v 0.060487 -0.350236 0.199178
v 0.139524 -0.392878 0.177552
v 0.221584 -0.424758 0.156225
v -0.212742 -0.417687 0.187405
v -0.166064 -0.436872 0.225376
v -0.125403 -0.415168 0.245814
v -0.037560 -0.348703 0.259335
v 0.010295 -0.305727 0.256540
v 0.066889 -0.292693 0.249716
v 0.137277 -0.306132 0.229006
v 0.209592 -0.311164 0.205340
v -0.239493 -0.384334 0.209509
v -0.223029 -0.441555 0.246080
v -0.124674 -0.405948 0.278873
v -0.061325 -0.305018 0.289008
v 0.012025 -0.238957 0.286374
v 0.079503 -0.233345 0.279231
v 0.146705 -0.229197 0.262400
v 0.210211 -0.218481 0.232971
v -0.220572 -0.336257 0.228472
v -0.192085 -0.354298 0.268574
v -0.136830 -0.316455 0.295150
v -0.046836 -0.206532 0.302569
v 0.016752 -0.181418 0.300448
v 0.092685 -0.177636 0.293909
v 0.169952 -0.168164 0.275149
v 0.226848 -0.147588 0.238972
v -0.287619 -0.280026 0.219444
v -0.208037 -0.257673 0.269593
v -0.151800 -0.193240 0.289671
v -0.071218 -0.146272 0.298685
v 0.060700 -0.121801 0.305546
v 0.151286 -0.102299 0.296185
v 0.204176 -0.075207 0.268420
v 0.258597 -0.066325 0.233272
v -0.315531 -0.207435 0.205360
v -0.279304 -0.164667 0.219815
v -0.277496 -0.132615 0.214583
v -0.167005 -0.098932 0.245179
v 0.162098 -0.008152 0.290546
v 0.352566 -0.005255 0.275341
v 0.545675 -0.015583 0.257842
v 0.487320 -0.012967 0.225479
v -0.409442 -0.117729 0.084158
v -0.460002 -0.096970 0.058022
v -0.390123 -0.069942 0.091539
v -0.053264 0.003260 0.245673
v 0.397277 0.064941 0.266803
v 0.668948 0.031498 0.262860
v 0.504763 0.019580 0.263392
v 0.520209 0.031950 0.217661
v -0.481175 -0.021444 0.002737
v -0.442919 0.011697 0.013678
v -0.340400 0.039622 0.076926
v -0.000559 0.094580 0.227785
v 0.230189 0.110068 0.244223
v 0.378100 0.097370 0.232850
v 0.477943 0.080230 0.227197
v 0.381105 0.082684 0.194855
v 0.262838 -0.377804 0.148816
v 0.281201 -0.391690 0.099539
v 0.276810 -0.367859 0.048433
v 0.266069 -0.330479 -0.002076
v 0.267139 -0.307755 -0.053004
v 0.270880 -0.289355 -0.104801
v 0.269426 -0.274482 -0.160226
v 0.260680 -0.282162 -0.216905
v 0.258392 -0.278880 0.173882
v 0.290887 -0.297769 0.115871
v 0.299779 -0.277285 0.059119
v 0.309076 -0.253014 0.002755
v 0.319795 -0.233322 -0.053525
v 0.327223 -0.213960 -0.109874
v 0.328121 -0.202070 -0.168760
v 0.311159 -0.217017 -0.233778
v 0.263309 -0.202951 0.186329
v 0.294346 -0.213746 0.124820
v 0.315834 -0.207563 0.064013
v 0.335905 -0.191174 0.003889
v 0.350608 -0.170172 -0.056220
v 0.361905 -0.153820 -0.116444
v 0.362679 -0.148509 -0.178115
v 0.327366 -0.183996 -0.249295
v 0.270466 -0.139778 0.188077
v 0.300732 -0.155724 0.126818
v 0.322547 -0.152003 0.063757
v 0.346618 -0.134098 0.001516
v 0.366258 -0.114882 -0.061349
v 0.380755 -0.102756 -0.124626
v 0.380024 -0.105201 -0.189126
v 0.308395 -0.183829 -0.271252
v 0.280399 -0.074940 0.183647
v 0.295283 -0.094629 0.122486
v 0.320323 -0.096459 0.059600
v 0.347541 -0.078844 -0.004327
v 0.370181 -0.063170 -0.069732
v 0.386948 -0.055411 -0.135944
v 0.390724 -0.060810 -0.202714
v 0.346743 -0.119113 -0.275867
v 0.304810 -0.018408 0.176837
v 0.299190 -0.032841 0.115887
v 0.325970 -0.035884 0.053630
v 0.344332 -0.022247 -0.013724
v 0.364266 -0.011278 -0.083333
v 0.381489 -0.007959 -0.154137
v 0.390042 -0.014525 -0.224364
v 0.382793 -0.033248 -0.290746
v 0.324156 0.028994 0.167274
v 0.299911 0.024203 0.107878
v 0.322887 0.028824 0.044071
v 0.331964 0.038276 -0.028637
v 0.347708 0.044124 -0.106492
v 0.364235 0.042710 -0.187828
v 0.372651 0.033026 -0.267272
v 0.362623 0.016219 -0.333785
v 0.283443 0.071187 0.154255
v 0.288907 0.078176 0.096453
v 0.299157 0.094202 0.027738
v 0.304977 0.104582 -0.052819
v 0.317634 0.106569 -0.146875
v 0.332327 0.101737 -0.254816
v 0.331876 0.092917 -0.362014
v 0.311096 0.078163 -0.428019
v 0.228067 -0.440514 0.109443
v 0.143043 -0.422108 0.125131
v 0.062417 -0.401957 0.136377
v 0.004333 -0.411685 0.139548
v -0.054361 -0.421903 0.138950
v -0.113893 -0.426734 0.133862
v -0.169774 -0.423241 0.124433
v 0.217872 -0.438262 0.044312
v 0.140510 -0.443626 0.056748
v 0.063614 -0.431391 0.072185
v 0.001678 -0.441431 0.074194
v -0.060149 -0.443512 0.073579
v -0.121774 -0.436994 0.070128
v -0.180706 -0.418525 0.063652
v 0.205095 -0.405406 -0.003051
v 0.131220 -0.435731 0.005310
v 0.063014 -0.450372 0.015157
v -0.000989 -0.458579 0.016146
v -0.065194 -0.455539 0.012206
v -0.127093 -0.441238 0.007136
v -0.187298 -0.415436 0.003614
v 0.198734 -0.377913 -0.049701
v 0.131686 -0.431615 -0.031700
v 0.065494 -0.463754 -0.018445
v -0.002632 -0.472986 -0.016630
v -0.072708 -0.466006 -0.025772
v -0.141236 -0.444124 -0.043065
v -0.199290 -0.410093 -0.055506
v 0.202376 -0.364835 -0.096488
v 0.136875 -0.429068 -0.063344
v 0.070026 -0.469815 -0.041110
v 0.001385 -0.484280 -0.035814
v -0.070891 -0.475214 -0.046079
v -0.146052 -0.448122 -0.071427
v -0.213077 -0.405396 -0.103598
v 0.201331 -0.363092 -0.139455
v 0.137882 -0.442318 -0.088080
v 0.072774 -0.489778 -0.058692
v 0.004875 -0.506350 -0.050995
v -0.067733 -0.494620 -0.061180
v -0.146085 -0.460609 -0.090658
v -0.220154 -0.406716 -0.138349
v 0.195664 -0.391565 -0.168577
v 0.134286 -0.479340 -0.105066
v 0.074742 -0.527234 -0.076118
v 0.011028 -0.543728 -0.067947
v -0.060296 -0.531748 -0.075819
v -0.142132 -0.493264 -0.104743
v -0.224605 -0.427643 -0.162816
v 0.225243 0.141668 -0.534218
v 0.167565 0.159331 -0.515810
v 0.110979 0.160578 -0.459057
v 0.052159 0.162050 -0.412034
v -0.005506 0.164243 -0.379629
v -0.060645 0.162017 -0.357062
v -0.114065 0.152959 -0.340120
v -0.169011 0.137977 -0.326967
v -0.228139 0.115201 -0.320559
v 0.233565 0.190457 -0.606492
v 0.171570 0.232335 -0.646714
v 0.117043 0.232256 -0.498912
v 0.058340 0.229133 -0.384910
v -0.002386 0.226212 -0.324595
v -0.061763 0.217393 -0.293564
v -0.122596 0.201296 -0.277620
v -0.186507 0.175225 -0.273011
v -0.257769 0.134556 -0.287203
v 0.252972 0.199267 -0.535278
v 0.182411 0.260604 -0.626591
v 0.122838 0.264833 -0.461305
v 0.060325 0.262711 -0.327585
v -0.002205 0.258350 -0.260821
v -0.065591 0.248102 -0.229832
v -0.131132 0.228608 -0.218406
v -0.201870 0.195787 -0.225857
v -0.284585 0.142266 -0.266251
v 0.271942 0.184747 -0.361988
v 0.195730 0.249306 -0.415494
v 0.127909 0.270345 -0.322790
v 0.062769 0.276166 -0.233961
v -0.001854 0.274498 -0.184636
v -0.067685 0.264572 -0.161799
v -0.136381 0.243484 -0.157859
v -0.213642 0.206137 -0.181827
v -0.306386 0.143361 -0.248959
v 0.266278 0.179474 -0.204697
v 0.196317 0.236969 -0.219625
v 0.129447 0.264961 -0.177684
v 0.064480 0.276611 -0.132832
v -0.001173 0.278039 -0.104528
v -0.067986 0.269238 -0.091706
v -0.137781 0.248144 -0.094455
v -0.218548 0.209095 -0.131123
v -0.316628 0.143529 -0.216898
v 0.257295 0.173051 -0.087273
v 0.194241 0.223422 -0.083379
v 0.130295 0.252193 -0.062020
v 0.065555 0.266837 -0.040446
v -0.000000 0.270299 -0.026519
v -0.066525 0.262991 -0.021975
v -0.135505 0.243418 -0.029229
v -0.212805 0.206527 -0.062999
v -0.314725 0.141522 -0.167074
v 0.252593 0.159102 0.002481
v 0.192387 0.203883 0.015680
v 0.130566 0.231224 0.030351
v 0.067178 0.246167 0.041872
v 0.002543 0.250765 0.047363
v -0.063309 0.245521 0.044787
v -0.131091 0.229328 0.031698
v -0.202922 0.197474 0.003329
v -0.288880 0.138998 -0.066458
v 0.253675 0.139056 0.075286
v 0.200842 0.174765 0.095250
v 0.140789 0.197475 0.109520
v 0.075390 0.211008 0.117661
v 0.008912 0.216500 0.118044
v -0.057376 0.214614 0.107209
v -0.126293 0.205410 0.079805
v -0.197082 0.182103 0.042071
v -0.265439 0.131834 0.019517
v 0.254687 0.111220 0.135942
v 0.228456 0.128372 0.162448
v 0.194338 0.140030 0.182017
v 0.135877 0.152318 0.193182
v 0.052429 0.159410 0.190983
v -0.044214 0.160773 0.172349
v -0.153356 0.154526 0.112351
v -0.221755 0.146630 0.054950
v -0.310841 0.101519 0.033837
v -0.239993 -0.320068 -0.263088
v -0.185697 -0.435136 -0.188063
v -0.131183 -0.515656 -0.130480
v -0.077448 -0.560196 -0.104573
v -0.019391 -0.576504 -0.095625
v 0.047737 -0.567824 -0.099080
v 0.129888 -0.532825 -0.121606
v 0.223567 -0.466307 -0.179519
v -0.257721 -0.283151 -0.307570
v -0.215461 -0.410787 -0.268456
v -0.161636 -0.505151 -0.199449
v -0.094587 -0.568157 -0.150455
v -0.023612 -0.592941 -0.131801
v 0.059784 -0.580108 -0.134288
v 0.169820 -0.532318 -0.170882
v 0.287065 -0.441270 -0.263762
v -0.234552 -0.302671 -0.330775
v -0.207341 -0.399955 -0.319194
v -0.167005 -0.471379 -0.280927
v -0.095999 -0.556478 -0.211799
v -0.017331 -0.598818 -0.178224
v 0.089679 -0.581516 -0.178084
v 0.241666 -0.518168 -0.253999
v 0.294177 -0.393479 -0.366724
v -0.214042 -0.356776 -0.327590
v -0.221705 -0.325732 -0.407594
v -0.179622 -0.397739 -0.398595
v -0.097740 -0.543497 -0.286869
v 0.012157 -0.574118 -0.232167
v 0.143094 -0.562826 -0.250514
v 0.275424 -0.475161 -0.394210
v 0.272444 -0.334540 -0.434702
v -0.296624 -0.180307 -0.356717
v -0.264162 -0.200327 -0.414263
v -0.170281 -0.287111 -0.472516
v -0.114365 -0.459440 -0.469999
v 0.087973 -0.568183 -0.346946
v 0.195805 -0.526212 -0.407494
v 0.229488 -0.385851 -0.496817
v 0.250596 -0.252408 -0.460978
v -0.350307 -0.068359 -0.353547
v -0.280905 -0.115454 -0.414481
v -0.167043 -0.205230 -0.485493
v -0.047588 -0.327144 -0.550319
v 0.075598 -0.402599 -0.545869
v 0.163435 -0.382444 -0.551871
v 0.211784 -0.270341 -0.517862
v 0.244118 -0.142468 -0.458671
v -0.328511 -0.016000 -0.382632
v -0.247126 -0.052077 -0.435737
v -0.137605 -0.120523 -0.489175
v -0.008703 -0.203904 -0.546464
v 0.094982 -0.245951 -0.565938
v 0.155915 -0.203549 -0.535268
v 0.185837 -0.105890 -0.473007
v 0.221489 -0.030289 -0.424526
v -0.279471 0.040548 -0.439846
v -0.200330 0.035971 -0.467581
v -0.119604 0.016097 -0.471130
v -0.037411 -0.001514 -0.469902
v 0.032978 0.004423 -0.455844
v 0.090083 0.030837 -0.429308
v 0.141728 0.054237 -0.401265
v 0.194626 0.064803 -0.376671
v 0.281865 -0.377799 -0.249295
v 0.267861 -0.348305 -0.213593
v 0.265057 -0.345629 -0.164026
v 0.259305 -0.354479 -0.110704
v 0.252127 -0.363007 -0.056320
v 0.245177 -0.372750 -0.001474
v 0.235941 -0.387377 0.054349
v 0.224662 -0.408594 0.110253
v 0.280813 -0.326751 -0.310754
v 0.284003 -0.287303 -0.244838
v 0.295187 -0.284350 -0.179830
v 0.303728 -0.293751 -0.118703
v 0.303462 -0.306332 -0.057637
v 0.295528 -0.332570 0.004059
v 0.270748 -0.360084 0.069006
v 0.244637 -0.382830 0.131456
v 0.278116 -0.274373 -0.344705
v 0.301201 -0.226078 -0.264476
v 0.325775 -0.222780 -0.194593
v 0.339988 -0.232685 -0.128093
v 0.345358 -0.252655 -0.060753
v 0.346341 -0.292785 0.006503
v 0.319272 -0.340513 0.074355
v 0.267543 -0.359773 0.148524
v 0.281960 -0.212571 -0.367557
v 0.319933 -0.162133 -0.288155
v 0.348232 -0.159490 -0.216308
v 0.364589 -0.169373 -0.143303
v 0.368911 -0.195650 -0.066942
v 0.388950 -0.254367 0.009321
v 0.395466 -0.309468 0.080075
v 0.320163 -0.327315 0.157661
v 0.288373 -0.138307 -0.386864
v 0.334457 -0.096832 -0.322784
v 0.366707 -0.093771 -0.257043
v 0.382538 -0.101741 -0.178524
v 0.376602 -0.127613 -0.083009
v 0.383121 -0.195674 0.011769
v 0.398251 -0.261587 0.092464
v 0.366477 -0.283337 0.153461
v 0.287633 -0.062035 -0.397595
v 0.342606 -0.034030 -0.358864
v 0.383192 -0.030649 -0.318382
v 0.405784 -0.030777 -0.265965
v 0.392942 -0.049591 -0.139237
v 0.357717 -0.098664 -0.009921
v 0.355616 -0.171072 0.084400
v 0.350949 -0.199595 0.144850
v 0.276996 0.002925 -0.387944
v 0.334714 0.021151 -0.365852
v 0.386706 0.021058 -0.365723
v 0.421354 0.017365 -0.353880
v 0.425800 0.021348 -0.290449
v 0.376888 0.003928 -0.101471
v 0.334663 -0.029610 0.033058
v 0.371244 -0.076134 0.068811
v 0.256687 0.060215 -0.359018
v 0.306347 0.075693 -0.337990
v 0.357822 0.073875 -0.353550
v 0.406051 0.056846 -0.386230
v 0.421536 0.059570 -0.360861
v 0.382998 0.072453 -0.209643
v 0.331803 0.067518 -0.043456
v 0.362764 0.033847 0.027103
v 0.197582 -0.423884 0.163534
v 0.152684 -0.422592 0.184878
v 0.099854 -0.410913 0.198554
v 0.036819 -0.383515 0.205805
v -0.012400 -0.358274 0.204711
v -0.060487 -0.350236 0.199178
v -0.139524 -0.392878 0.177552
v -0.221584 -0.424758 0.156225
v 0.212742 -0.417687 0.187405
v 0.166064 -0.436872 0.225376
v 0.125403 -0.415168 0.245814
v 0.037560 -0.348703 0.259335
v -0.010295 -0.305727 0.256540
v -0.066889 -0.292693 0.249716
v -0.137277 -0.306132 0.229006
v -0.209592 -0.311164 0.205340
v 0.239493 -0.384334 0.209509
v 0.223029 -0.441555 0.246080
v 0.124674 -0.405948 0.278873
v 0.061325 -0.305018 0.289008
v -0.012025 -0.238957 0.286374
v -0.079503 -0.233345 0.279231
v -0.146705 -0.229197 0.262400
v -0.210211 -0.218481 0.232971
v 0.220572 -0.336257 0.228472
v 0.192085 -0.354298 0.268574
v 0.136830 -0.316455 0.295150
v 0.046836 -0.206532 0.302569
v -0.016752 -0.181418 0.300448
v -0.092685 -0.177636 0.293909
v -0.169952 -0.168164 0.275149
v -0.226848 -0.147588 0.238972
v 0.287619 -0.280026 0.219444
v 0.208037 -0.257673 0.269593
v 0.151800 -0.193240 0.289671
v 0.071218 -0.146272 0.298685
v -0.060700 -0.121801 0.305546
v -0.151286 -0.102299 0.296185
v -0.204176 -0.075207 0.268420
v -0.258597 -0.066325 0.233272
v 0.315531 -0.207435 0.205360
v 0.279304 -0.164667 0.219815
v 0.277496 -0.132615 0.214583
v 0.167005 -0.098932 0.245179
v -0.162098 -0.008152 0.290546
v -0.352566 -0.005255 0.275341
v -0.545675 -0.015583 0.257842
v -0.487320 -0.012967 0.225479
v 0.409442 -0.117729 0.084158
v 0.460002 -0.096970 0.058022
v 0.390123 -0.069942 0.091539
v 0.053264 0.003260 0.245673
v -0.397277 0.064941 0.266803
v -0.668948 0.031498 0.262860
v -0.504763 0.019580 0.263392
v -0.520209 0.031950 0.217661
v 0.481175 -0.021444 0.002737
v 0.442919 0.011697 0.013678
v 0.340400 0.039622 0.076926
v 0.000559 0.094580 0.227785
v -0.230189 0.110068 0.244223
v -0.378100 0.097370 0.232850
v -0.477943 0.080230 0.227197
v -0.381105 0.082684 0.194855
v -0.262838 -0.377804 0.148816
v -0.281201 -0.391690 0.099539
v -0.276810 -0.367859 0.048433
v -0.266069 -0.330479 -0.002076
v -0.267139 -0.307755 -0.053004
v -0.270880 -0.289355 -0.104801
v -0.269426 -0.274482 -0.160226
v -0.260680 -0.282162 -0.216905
v -0.258392 -0.278880 0.173882
v -0.290887 -0.297769 0.115871
v -0.299779 -0.277285 0.059119
v -0.309076 -0.253014 0.002755
v -0.319795 -0.233322 -0.053525
v -0.327223 -0.213960 -0.109874
v -0.328121 -0.202070 -0.168760
v -0.311159 -0.217017 -0.233778
v -0.263309 -0.202951 0.186329
v -0.294346 -0.213746 0.124820
v -0.315834 -0.207563 0.064013
v -0.335905 -0.191174 0.003889
v -0.350608 -0.170172 -0.056220
v -0.361905 -0.153820 -0.116444
v -0.362679 -0.148509 -0.178115
v -0.327366 -0.183996 -0.249295
v -0.270466 -0.139778 0.188077
v -0.300732 -0.155724 0.126818
v -0.322547 -0.152003 0.063757
v -0.346618 -0.134098 0.001516
v -0.366258 -0.114882 -0.061349
v -0.380755 -0.102756 -0.124626
v -0.380024 -0.105201 -0.189126
v -0.308395 -0.183829 -0.271252
v -0.280399 -0.074940 0.183647
v -0.295283 -0.094629 0.122486
v -0.320323 -0.096459 0.059600
v -0.347541 -0.078844 -0.004327
v -0.370181 -0.063170 -0.069732
v -0.386948 -0.055411 -0.135944
v -0.390724 -0.060810 -0.202714
v -0.346743 -0.119113 -0.275867
v -0.304810 -0.018408 0.176837
v -0.299190 -0.032841 0.115887
v -0.325970 -0.035884 0.053630
v -0.344332 -0.022247 -0.013724
v -0.364266 -0.011278 -0.083333
v -0.381489 -0.007959 -0.154137
v -0.390042 -0.014525 -0.224364
v -0.382793 -0.033248 -0.290746
v -0.324156 0.028994 0.167274
v -0.299911 0.024203 0.107878
v -0.322887 0.028824 0.044071
v -0.331964 0.038276 -0.028637
v -0.347708 0.044124 -0.106492
v -0.364235 0.042710 -0.187828
v -0.372651 0.033026 -0.267272
v -0.362623 0.016219 -0.333785
v -0.283443 0.071187 0.154255
v -0.288907 0.078176 0.096453
v -0.299157 0.094202 0.027738
v -0.304977 0.104582 -0.052819
v -0.317634 0.106569 -0.146875
v -0.332327 0.101737 -0.254816
v -0.331876 0.092917 -0.362014
v -0.311096 0.078163 -0.428019
v -0.228067 -0.440514 0.109443
v -0.143043 -0.422108 0.125131
v -0.062417 -0.401957 0.136377
v -0.004333 -0.411685 0.139548
v 0.054361 -0.421903 0.138950
v 0.113893 -0.426734 0.133862
v 0.169774 -0.423241 0.124433
v -0.217872 -0.438262 0.044312
v -0.140510 -0.443626 0.056748
v -0.063614 -0.431391 0.072185
v -0.001678 -0.441431 0.074194
v 0.060149 -0.443512 0.073579
v 0.121774 -0.436994 0.070128
v 0.180706 -0.418525 0.063652
v -0.205095 -0.405406 -0.003051
v -0.131220 -0.435731 0.005310
v -0.063014 -0.450372 0.015157
v 0.000989 -0.458579 0.016146
v 0.065194 -0.455539 0.012206
v 0.127093 -0.441238 0.007136
v 0.187298 -0.415436 0.003614
v -0.198734 -0.377913 -0.049701
v -0.131686 -0.431615 -0.031700
v -0.065494 -0.463754 -0.018445
v 0.002631 -0.472986 -0.016630
v 0.072708 -0.466006 -0.025772
v 0.141236 -0.444124 -0.043065
v 0.199290 -0.410093 -0.055506
v -0.202376 -0.364835 -0.096488
v -0.136875 -0.429068 -0.063344
v -0.070026 -0.469815 -0.041110
v -0.001385 -0.484280 -0.035814
v 0.070891 -0.475214 -0.046079
v 0.146052 -0.448122 -0.071427
v 0.213077 -0.405396 -0.103598
v -0.201331 -0.363092 -0.139455
v -0.137882 -0.442318 -0.088080
v -0.072774 -0.489778 -0.058692
v -0.004875 -0.506350 -0.050995
v 0.067733 -0.494620 -0.061180
v 0.146085 -0.460609 -0.090658
v 0.220154 -0.406716 -0.138349
v -0.195664 -0.391565 -0.168577
v -0.134286 -0.479340 -0.105066
v -0.074742 -0.527234 -0.076118
v -0.011028 -0.543728 -0.067947
v 0.060296 -0.531748 -0.075819
v 0.142132 -0.493264 -0.104743
v 0.224605 -0.427643 -0.162816
v -0.225243 0.141668 -0.534218
v -0.167565 0.159331 -0.515810
v -0.110979 0.160578 -0.459057
v -0.052159 0.162050 -0.412034
v 0.005506 0.164243 -0.379629
v 0.060645 0.162017 -0.357062
v 0.114065 0.152959 -0.340120
v 0.169011 0.137977 -0.326967
v 0.228139 0.115201 -0.320559
v -0.233565 0.190457 -0.606492
v -0.171570 0.232335 -0.646714
v -0.117043 0.232256 -0.498912
v -0.058340 0.229133 -0.384910
v 0.002386 0.226212 -0.324595
v 0.061763 0.217393 -0.293564
v 0.122596 0.201296 -0.277620
v 0.186507 0.175225 -0.273011
v 0.257769 0.134556 -0.287203
v -0.252972 0.199267 -0.535278
v -0.182411 0.260604 -0.626591
v -0.122838 0.264833 -0.461305
v -0.060325 0.262711 -0.327585
v 0.002205 0.258350 -0.260821
v 0.065591 0.248102 -0.229832
v 0.131132 0.228608 -0.218406
v 0.201870 0.195787 -0.225857
v 0.284585 0.142266 -0.266251
v -0.271942 0.184747 -0.361988
v -0.195730 0.249306 -0.415494
v -0.127909 0.270345 -0.322790
v -0.062769 0.276166 -0.233961
v 0.001854 0.274498 -0.184636
v 0.067685 0.264572 -0.161799
v 0.136381 0.243484 -0.157859
v 0.213642 0.206137 -0.181827
v 0.306386 0.143361 -0.248959
v -0.266278 0.179474 -0.204697
v -0.196317 0.236969 -0.219625
v -0.129447 0.264961 -0.177684
v -0.064480 0.276611 -0.132832
v 0.001173 0.278039 -0.104528
v 0.067986 0.269238 -0.091706
v 0.137781 0.248144 -0.094455
v 0.218548 0.209095 -0.131123
v 0.316628 0.143529 -0.216898
v -0.257295 0.173051 -0.087273
v -0.194241 0.223422 -0.083379
v -0.130295 0.252193 -0.062020
v -0.065555 0.266837 -0.040446
v 0.066525 0.262991 -0.021975
v 0.135505 0.243418 -0.029229
v 0.212805 0.206527 -0.062999
v 0.314725 0.141522 -0.167074
v -0.252593 0.159102 0.002481
v -0.192387 0.203883 0.015680
v -0.130566 0.231224 0.030351
v -0.067178 0.246167 0.041872
v -0.002543 0.250765 0.047363
v 0.063309 0.245521 0.044787
v 0.131091 0.229328 0.031698
v 0.202922 0.197474 0.003329
v 0.288880 0.138998 -0.066458
v -0.253675 0.139056 0.075286
v -0.200842 0.174765 0.095250
v -0.140789 0.197475 0.109520
v -0.075390 0.211008 0.117661
v -0.008912 0.216500 0.118044
v 0.057376 0.214614 0.107209
v 0.126293 0.205410 0.079805
v 0.197082 0.182103 0.042071
v 0.265439 0.131834 0.019517
v -0.254687 0.111220 0.135942
v -0.228456 0.128372 0.162448
v -0.194338 0.140030 0.182017
v -0.135877 0.152318 0.193182
v -0.052429 0.159410 0.190983
v 0.044214 0.160773 0.172349
v 0.153356 0.154526 0.112351
v 0.221755 0.146630 0.054950
v 0.310841 0.101519 0.033837
vn 0.9370 -0.2667 0.2255
vn 0.8936 -0.3523 0.2781
vn 0.7303 -0.6190 0.2889
vn 0.3514 -0.8685 0.3497
vn -0.1455 -0.9122 0.3830
vn -0.4633 -0.7930 0.3956
vn -0.7184 -0.5253 0.4560
vn -0.9215 -0.0130 0.3882
vn 0.8780 -0.3458 -0.3309
vn 0.7840 -0.5831 -0.2130
vn 0.6265 -0.7508 -0.2092
vn 0.3888 -0.9189 -0.0670
vn -0.1564 -0.9775 0.1417
vn -0.4791 -0.8245 0.3013
vn -0.8542 -0.4785 0.2032
vn -0.9883 0.1061 0.1095
vn 0.9785 -0.1735 -0.1116
vn 0.7856 -0.5468 -0.2895
vn 0.7094 -0.6612 -0.2443
vn 0.2103 -0.9253 -0.3155
vn -0.0948 -0.9590 -0.2671
vn -0.4079 -0.9079 -0.0962
vn -0.9769 -0.2088 -0.0458
vn -0.9920 0.0665 -0.1070
vn 0.8981 -0.3949 -0.1936
vn 0.6359 -0.3278 -0.6987
vn 0.8145 -0.4733 -0.3354
vn 0.2265 -0.9190 -0.3226
vn -0.1987 -0.9783 -0.0592
vn -0.5460 -0.7593 -0.3541
vn -0.8450 -0.0649 -0.5308
vn -0.9479 0.0007 -0.3185
vn 0.8006 -0.2785 -0.5306
vn 0.5914 -0.1111 -0.7987
vn 0.5662 -0.1665 -0.8072
vn 0.0924 -0.6720 -0.7348
vn -0.0078 -0.7424 -0.6700
vn -0.5888 -0.3509 -0.7282
vn -0.8194 0.0404 -0.5718
vn -0.8510 0.0092 -0.5250
vn 0.6181 -0.0445 -0.7848
vn 0.4604 0.0473 -0.8865
vn 0.3577 0.1183 -0.9263
vn 0.0865 -0.0397 -0.9955
vn -0.1702 -0.0162 -0.9853
vn -0.5010 0.1996 -0.8421
vn -0.4090 0.3163 -0.8560
vn -0.4782 0.2944 -0.8274
vn 0.4812 -0.2059 -0.8521
vn 0.2779 0.0212 -0.9604
vn 0.1282 0.2628 -0.9563
vn -0.0522 0.3895 -0.9195
vn -0.1719 0.4385 -0.8821
vn -0.2637 0.4563 -0.8499
vn -0.2468 0.4666 -0.8493
vn -0.2605 0.4975 -0.8274
vn 0.0065 -0.5344 -0.8452
vn -0.3347 -0.1767 -0.9256
vn -0.3381 0.2148 -0.9163
vn -0.2903 0.3986 -0.8700
vn -0.2632 0.4788 -0.8375
vn -0.2707 0.5325 -0.8020
vn -0.2901 0.5805 -0.7608
vn -0.2852 0.6221 -0.7291
vn -0.9916 -0.0296 0.1256
vn -0.9277 -0.3701 -0.0497
vn -0.8392 -0.5334 -0.1055
vn -0.7706 -0.6338 -0.0662
vn -0.6864 -0.7149 -0.1331
vn -0.6316 -0.7700 -0.0908
vn -0.7080 -0.7052 -0.0383
vn -0.6628 -0.7486 0.0142
vn -0.9835 -0.1628 -0.0791
vn -0.8878 -0.4061 -0.2165
vn -0.8363 -0.5001 -0.2248
vn -0.8046 -0.5672 -0.1758
vn -0.6741 -0.6709 -0.3090
vn -0.5099 -0.8185 -0.2647
vn -0.5068 -0.8617 0.0238
vn -0.7377 -0.6742 0.0356
vn -0.9462 -0.2472 -0.2090
vn -0.8678 -0.3906 -0.3074
vn -0.8815 -0.4006 -0.2500
vn -0.9000 -0.3935 -0.1874
vn -0.7214 -0.5165 -0.4614
vn -0.4681 -0.7415 -0.4807
vn -0.4252 -0.8946 0.1372
vn -0.6885 -0.4783 0.5452
vn -0.8962 -0.2704 -0.3518
vn -0.8394 -0.4140 -0.3522
vn -0.8954 -0.3783 -0.2348
vn -0.9774 -0.2047 -0.0529
vn -0.9835 -0.0335 -0.1776
vn -0.9933 0.0433 -0.1073
vn -0.7643 -0.4497 0.4621
vn -0.5323 -0.5133 0.6732
vn -0.7685 -0.2405 -0.5929
vn -0.7264 -0.5038 -0.4675
vn -0.8012 -0.5350 -0.2682
vn -0.9742 -0.2226 0.0375
vn -0.9708 0.1377 0.1963
vn -0.9054 0.3634 0.2198
vn -0.8605 0.3248 0.3926
vn -0.7408 0.0387 0.6706
vn -0.4448 0.0884 -0.8913
vn -0.3790 -0.4069 -0.8311
vn -0.4837 -0.7354 -0.4746
vn -0.9356 -0.3528 0.0138
vn -0.9574 0.0946 0.2728
vn -0.9532 0.1578 0.2577
vn -0.8633 -0.2169 -0.4556
vn -0.4998 -0.7172 -0.4857
vn -0.1797 0.5065 -0.8433
vn 0.1365 0.2814 -0.9498
vn 0.3086 -0.3418 -0.8876
vn -0.9756 -0.0399 -0.2160
vn -0.8954 0.3780 0.2352
vn -0.8858 0.3376 0.3184
vn -0.6481 -0.3505 -0.6761
vn 0.3070 -0.4166 -0.8557
vn -0.1863 0.6812 -0.7080
vn 0.0081 0.7317 -0.6815
vn -0.0775 0.8476 -0.5250
vn -0.4160 0.8796 -0.2306
vn -0.7211 0.6844 0.1080
vn -0.7772 0.5814 0.2407
vn -0.7517 0.6460 0.1324
vn 0.0155 0.0873 -0.9961
vn -0.0871 -0.9829 -0.1620
vn 0.3497 -0.9359 -0.0425
vn 0.4551 -0.8122 0.3650
vn 0.4897 -0.6646 0.5643
vn 0.2185 -0.6691 0.7104
vn 0.0146 -0.5774 0.8163
vn 0.1547 -0.4344 0.8873
vn 0.5528 -0.2362 0.7992
vn -0.4738 -0.7836 -0.4018
vn 0.2467 -0.9094 0.3348
vn 0.5118 -0.5549 0.6559
vn 0.3789 -0.3792 0.8442
vn 0.1650 -0.4353 0.8850
vn 0.2091 -0.4375 0.8746
vn 0.3552 -0.3350 0.8727
vn 0.6527 -0.1954 0.7320
vn -0.8026 0.1165 0.5850
vn -0.2799 -0.1772 0.9435
vn 0.1037 -0.1572 0.9821
vn 0.1610 -0.1913 0.9682
vn 0.1086 -0.2607 0.9593
vn 0.2547 -0.2958 0.9207
vn 0.5139 -0.2710 0.8139
vn 0.7198 -0.1667 0.6739
vn -0.6065 -0.2905 0.7401
vn -0.3608 -0.0318 0.9321
vn -0.1188 0.0252 0.9926
vn -0.0226 -0.0064 0.9997
vn 0.1135 -0.1400 0.9836
vn 0.3762 -0.1835 0.9082
vn 0.5617 -0.1547 0.8127
vn 0.8210 -0.1971 0.5359
vn -0.5011 0.0333 0.8647
vn -0.4523 0.1365 0.8814
vn -0.3321 0.3581 0.8726
vn -0.1993 0.3896 0.8992
vn 0.0830 0.0501 0.9953
vn 0.1900 -0.4874 0.8522
vn 0.1859 -0.9668 -0.1755
vn 0.3378 -0.8357 -0.4329
vn -0.7277 -0.0383 0.6848
vn -0.5736 0.3389 0.7458
vn -0.4282 0.5410 0.7239
vn -0.1611 0.4379 0.8845
vn 0.0472 0.0909 0.9947
vn 0.1455 -0.4734 0.8687
vn 0.8800 0.0749 -0.4691
vn 0.2469 -0.3124 -0.9173
vn -0.9751 -0.1908 0.1128
vn -0.5416 0.3698 0.7550
vn -0.4392 0.3573 0.8243
vn -0.0788 0.2222 0.9718
vn 0.1062 0.7483 0.6548
vn 0.1448 -0.1483 -0.9783
vn 0.5976 0.6229 -0.5048
vn 0.2826 0.1839 -0.9414
vn -0.5458 0.6988 0.4624
vn -0.5136 0.6776 0.5264
vn -0.4312 0.4291 0.7937
vn -0.1121 0.5583 0.8220
vn 0.0932 0.8447 0.5271
vn 0.1936 0.9740 0.1176
vn 0.2863 0.8223 -0.4917
vn 0.4528 0.5374 -0.7114
vn 0.8820 -0.1217 0.4553
vn 0.9850 -0.1701 -0.0288
vn 0.9167 -0.3406 -0.2089
vn 0.8420 -0.5270 -0.1159
vn 0.8004 -0.5869 -0.1223
vn 0.7738 -0.6159 -0.1480
vn 0.7781 -0.6264 -0.0479
vn 0.8254 -0.5641 -0.0208
vn 0.8659 -0.1106 0.4878
vn 0.9657 -0.1421 0.2173
vn 0.9412 -0.3127 0.1281
vn 0.9071 -0.4177 0.0521
vn 0.8831 -0.4693 -0.0019
vn 0.8484 -0.5255 -0.0632
vn 0.8394 -0.5285 -0.1265
vn 0.8545 -0.4232 -0.3012
vn 0.8790 -0.1125 0.4634
vn 0.9407 -0.1134 0.3198
vn 0.9433 -0.1389 0.3014
vn 0.9571 -0.2113 0.1982
vn 0.9477 -0.2911 0.1308
vn 0.9331 -0.3595 -0.0079
vn 0.8725 -0.2741 -0.4045
vn -0.6335 0.6233 -0.4585
vn 0.9373 -0.0091 0.3484
vn 0.9333 0.0868 0.3485
vn 0.9209 0.0458 0.3872
vn 0.9499 -0.0015 0.3127
vn 0.9725 -0.0543 0.2265
vn 0.9845 -0.1723 0.0331
vn 0.8631 -0.4317 -0.2619
vn 0.8772 -0.4594 -0.1397
vn 0.9671 -0.2163 0.1338
vn 0.9230 -0.0327 0.3835
vn 0.9426 0.0241 0.3330
vn 0.9346 0.1472 0.3238
vn 0.9494 0.1890 0.2508
vn 0.9918 0.0992 0.0806
vn 0.9371 -0.3001 -0.1784
vn 0.8812 -0.4133 -0.2296
vn 0.9549 -0.2175 -0.2022
vn 0.9275 0.0709 0.3670
vn 0.9632 0.1609 0.2152
vn 0.9145 0.3126 0.2569
vn 0.8959 0.3948 0.2037
vn 0.9244 0.3760 0.0640
vn 0.9605 0.2112 -0.1813
vn 0.8605 -0.0062 -0.5095
vn 0.8866 0.4428 -0.1338
vn 0.9032 0.3274 0.2775
vn 0.9090 0.3929 0.1392
vn 0.8685 0.4675 0.1648
vn 0.8371 0.5336 0.1205
vn 0.8613 0.5079 -0.0136
vn 0.9225 0.2675 -0.2782
vn 0.7576 -0.1644 -0.6317
vn 0.7902 0.5793 0.2000
vn 0.7860 0.5850 0.2000
vn 0.7795 0.6115 0.1355
vn 0.7812 0.6154 0.1044
vn 0.7797 0.6232 0.0609
vn 0.8365 0.5460 -0.0468
vn 0.9355 0.1791 -0.3047
vn 0.3627 -0.6410 -0.6765
vn 0.6943 -0.6173 0.3701
vn -0.1850 -0.9019 0.3903
vn -0.2023 -0.8058 0.5566
vn 0.1787 -0.7644 0.6195
vn 0.2699 -0.8143 0.5139
vn 0.2090 -0.9208 0.3293
vn 0.0496 -0.9918 0.1182
vn -0.1012 -0.9909 -0.0883
vn 0.7018 -0.6712 -0.2387
vn -0.0537 -0.9876 0.1476
vn -0.1297 -0.9251 0.3569
vn 0.1655 -0.8977 0.4083
vn 0.0912 -0.9289 0.3590
vn -0.0306 -0.9696 0.2426
vn -0.1972 -0.9776 0.0733
vn -0.3551 -0.9246 -0.1379
vn 0.6603 -0.5260 -0.5361
vn 0.1566 -0.9002 -0.4063
vn 0.0337 -0.9946 0.0986
vn 0.1439 -0.9453 0.2927
vn -0.0160 -0.9711 0.2383
vn -0.1740 -0.9744 0.1420
vn -0.3512 -0.9353 0.0428
vn -0.5409 -0.8393 -0.0544
vn 0.6937 -0.6244 -0.3590
vn 0.4322 -0.8331 -0.3452
vn 0.3465 -0.9281 0.1362
vn 0.1288 -0.9142 0.3843
vn -0.1030 -0.9341 0.3417
vn -0.2950 -0.9314 0.2135
vn -0.4593 -0.8837 0.0899
vn -0.6299 -0.7767 0.0019
vn 0.7121 -0.6825 -0.1646
vn 0.6456 -0.7597 -0.0786
vn 0.5049 -0.8508 0.1455
vn 0.1764 -0.8959 0.4076
vn -0.1593 -0.8856 0.4362
vn -0.3804 -0.8864 0.2639
vn -0.5512 -0.8247 0.1266
vn -0.7044 -0.7078 0.0528
vn 0.7509 -0.6478 -0.1285
vn 0.7699 -0.6293 0.1065
vn 0.6054 -0.5991 0.5239
vn 0.2071 -0.5821 0.7863
vn -0.1956 -0.5985 0.7769
vn -0.4715 -0.6671 0.5768
vn -0.6430 -0.7174 0.2682
vn -0.7829 -0.6191 0.0611
vn 0.8403 -0.5354 0.0844
vn 0.8481 -0.3799 0.3693
vn 0.6016 -0.3458 0.7201
vn 0.2062 -0.3899 0.8975
vn -0.1799 -0.4116 0.8934
vn -0.4684 -0.4006 0.7875
vn -0.7045 -0.4102 0.5792
vn -0.8757 -0.4286 0.2225
vn 0.9007 -0.4220 0.1032
vn 0.8694 -0.3424 0.3562
vn 0.6625 -0.4621 0.5895
vn 0.2675 -0.5993 0.7545
vn -0.1552 -0.6176 0.7710
vn -0.4607 -0.5291 0.7126
vn -0.6906 -0.3810 0.6147
vn -0.8655 -0.1912 0.4629
vn -0.3099 -0.8071 -0.5026
vn -0.7872 -0.4469 -0.4250
vn -0.8077 0.0172 -0.5893
vn -0.5433 0.4784 -0.6899
vn -0.3686 0.6637 -0.6508
vn -0.3342 0.7150 -0.6141
vn -0.3392 0.7202 -0.6051
vn -0.3094 0.7130 -0.6292
vn 0.7812 0.4439 -0.4389
vn -0.8079 0.5066 -0.3011
vn -0.7340 0.5840 -0.3468
vn -0.4726 0.7781 -0.4138
vn -0.3439 0.8383 -0.4230
vn -0.3298 0.8405 -0.4298
vn -0.3501 0.8222 -0.4487
vn -0.3041 0.7984 -0.5198
vn 0.6533 0.7570 -0.0040
vn 0.2051 0.9787 0.0054
vn -0.1065 0.9913 -0.0776
vn -0.1967 0.9664 -0.1652
vn -0.2382 0.9467 -0.2170
vn -0.3061 0.9208 -0.2419
vn -0.3639 0.8902 -0.2740
vn -0.3550 0.8645 -0.3557
vn 0.6269 0.7776 0.0478
vn 0.3816 0.9232 0.0456
vn 0.1510 0.9884 0.0178
vn -0.0148 0.9997 -0.0218
vn -0.1537 0.9867 -0.0535
vn -0.2912 0.9541 -0.0704
vn -0.4077 0.9093 -0.0832
vn -0.4851 0.8660 -0.1215
vn 0.6230 0.7772 0.0883
vn 0.4348 0.8954 0.0957
vn 0.2476 0.9635 0.1021
vn 0.0695 0.9924 0.1011
vn -0.1071 0.9896 0.0956
vn -0.2859 0.9544 0.0855
vn -0.4591 0.8851 0.0760
vn -0.5908 0.8039 0.0695
vn 0.6170 0.7709 0.1582
vn 0.4447 0.8755 0.1889
vn 0.2731 0.9364 0.2202
vn 0.0964 0.9645 0.2457
vn -0.0874 0.9625 0.2568
vn -0.2793 0.9281 0.2461
vn -0.4798 0.8521 0.2089
vn -0.6565 0.7298 0.1911
vn 0.6072 0.7665 0.2093
vn 0.4217 0.8589 0.2905
vn 0.2539 0.8946 0.3676
vn 0.0883 0.9035 0.4194
vn -0.0932 0.8908 0.4448
vn -0.2898 0.8459 0.4477
vn -0.4878 0.7714 0.4087
vn -0.6594 0.6973 0.2808
vn 0.6405 0.7177 0.2733
vn 0.4318 0.8257 0.3629
vn 0.2498 0.8459 0.4712
vn 0.0606 0.8073 0.5871
vn -0.1202 0.7493 0.6513
vn -0.3770 0.6580 0.6518
vn -0.5323 0.6213 0.5750
vn -0.5542 0.7444 0.3725
vn -0.9370 -0.2667 0.2255
vn -0.8936 -0.3523 0.2781
vn -0.7303 -0.6190 0.2889
vn -0.3514 -0.8685 0.3497
vn 0.1455 -0.9122 0.3830
vn 0.4633 -0.7930 0.3956
vn 0.7184 -0.5253 0.4560
vn 0.9215 -0.0130 0.3882
vn -0.8780 -0.3458 -0.3309
vn -0.7840 -0.5831 -0.2130
vn -0.6265 -0.7508 -0.2092
vn -0.3888 -0.9189 -0.0670
vn 0.1564 -0.9775 0.1417
vn 0.4791 -0.8245 0.3013
vn 0.8542 -0.4785 0.2032
vn 0.9883 0.1061 0.1095
vn -0.9785 -0.1735 -0.1116
vn -0.7856 -0.5468 -0.2895
vn -0.7094 -0.6612 -0.2443
vn -0.2103 -0.9253 -0.3155
vn 0.0948 -0.9590 -0.2671
vn 0.4079 -0.9079 -0.0962
vn 0.9769 -0.2088 -0.0458
vn 0.9920 0.0665 -0.1070
vn -0.8981 -0.3949 -0.1936
vn -0.6359 -0.3278 -0.6987
vn -0.8145 -0.4733 -0.3354
vn -0.2265 -0.9190 -0.3226
vn 0.1987 -0.9783 -0.0592
vn 0.5460 -0.7593 -0.3541
vn 0.8450 -0.0649 -0.5308
vn 0.9479 0.0007 -0.3185
vn -0.8006 -0.2785 -0.5306
vn -0.5914 -0.1111 -0.7987
vn -0.5662 -0.1665 -0.8072
vn -0.0924 -0.6720 -0.7348
vn 0.0078 -0.7424 -0.6700
vn 0.5888 -0.3509 -0.7282
vn 0.8194 0.0404 -0.5718
vn 0.8510 0.0092 -0.5250
vn -0.6181 -0.0445 -0.7848
vn -0.4604 0.0473 -0.8865
vn -0.3577 0.1183 -0.9263
vn -0.0865 -0.0397 -0.9955
vn 0.1702 -0.0162 -0.9853
vn 0.5010 0.1996 -0.8421
vn 0.4090 0.3163 -0.8560
vn 0.4782 0.2944 -0.8274
vn -0.4812 -0.2059 -0.8521
vn -0.2779 0.0212 -0.9604
vn -0.1282 0.2628 -0.9563
vn 0.0522 0.3895 -0.9195
vn 0.1719 0.4385 -0.8821
vn 0.2637 0.4563 -0.8499
vn 0.2468 0.4666 -0.8493
vn 0.2605 0.4975 -0.8274
vn -0.0065 -0.5344 -0.8452
vn 0.3347 -0.1767 -0.9256
vn 0.3381 0.2148 -0.9163
vn 0.2903 0.3986 -0.8700
vn 0.2632 0.4788 -0.8375
vn 0.2707 0.5325 -0.8020
vn 0.2901 0.5805 -0.7608
vn 0.2852 0.6221 -0.7291
vn 0.9916 -0.0296 0.1256
vn 0.9277 -0.3701 -0.0497
vn 0.8392 -0.5334 -0.1055
vn 0.7706 -0.6338 -0.0662
vn 0.6864 -0.7149 -0.1331
vn 0.6316 -0.7700 -0.0908
vn 0.7080 -0.7052 -0.0383
vn 0.6628 -0.7486 0.0142
vn 0.9835 -0.1628 -0.0791
vn 0.8878 -0.4061 -0.2165
vn 0.8363 -0.5001 -0.2248
vn 0.8046 -0.5672 -0.1758
vn 0.6741 -0.6709 -0.3090
vn 0.5099 -0.8185 -0.2647
vn 0.5068 -0.8617 0.0238
vn 0.7377 -0.6742 0.0356
vn 0.9462 -0.2472 -0.2090
vn 0.8678 -0.3906 -0.3074
vn 0.8815 -0.4006 -0.2500
vn 0.9000 -0.3935 -0.1874
vn 0.7214 -0.5165 -0.4614
vn 0.4681 -0.7415 -0.4807
vn 0.4252 -0.8946 0.1372
vn 0.6885 -0.4783 0.5452
vn 0.8962 -0.2704 -0.3518
vn 0.8394 -0.4140 -0.3522
vn 0.8954 -0.3783 -0.2348
vn 0.9774 -0.2047 -0.0529
vn 0.9835 -0.0335 -0.1776
vn 0.9933 0.0433 -0.1073
vn 0.7643 -0.4497 0.4621
vn 0.5323 -0.5133 0.6732
vn 0.7685 -0.2405 -0.5929
vn 0.7264 -0.5038 -0.4675
vn 0.8012 -0.5350 -0.2682
vn 0.9742 -0.2226 0.0375
vn 0.9708 0.1377 0.1963
vn 0.9054 0.3634 0.2198
vn 0.8605 0.3248 0.3926
vn 0.7408 0.0387 0.6706
vn 0.4448 0.0884 -0.8913
vn 0.3790 -0.4069 -0.8311
vn 0.4837 -0.7354 -0.4746
vn 0.9356 -0.3528 0.0138
vn 0.9574 0.0946 0.2728
vn 0.9532 0.1578 0.2577
vn 0.8633 -0.2169 -0.4556
vn 0.4998 -0.7172 -0.4857
vn 0.1797 0.5065 -0.8433
vn -0.1365 0.2814 -0.9498
vn -0.3086 -0.3418 -0.8876
vn 0.9756 -0.0399 -0.2160
vn 0.8954 0.3780 0.2352
vn 0.8858 0.3376 0.3184
vn 0.6481 -0.3505 -0.6761
vn -0.3070 -0.4166 -0.8557
vn 0.1863 0.6812 -0.7080
vn -0.0081 0.7317 -0.6815
vn 0.0775 0.8476 -0.5250
vn 0.4160 0.8796 -0.2306
vn 0.7211 0.6844 0.1080
vn 0.7772 0.5814 0.2407
vn 0.7517 0.6460 0.1324
vn -0.0155 0.0873 -0.9961
vn 0.0871 -0.9829 -0.1620
vn -0.3497 -0.9359 -0.0425
vn -0.4551 -0.8122 0.3650
vn -0.4897 -0.6646 0.5643
vn -0.2185 -0.6691 0.7104
vn -0.0146 -0.5774 0.8163
vn -0.1547 -0.4344 0.8873
vn -0.5528 -0.2362 0.7992
vn 0.4738 -0.7836 -0.4018
vn -0.2467 -0.9094 0.3348
vn -0.5118 -0.5549 0.6559
vn -0.3789 -0.3792 0.8442
vn -0.1650 -0.4353 0.8850
vn -0.2091 -0.4375 0.8746
vn -0.3552 -0.3350 0.8727
vn -0.6527 -0.1954 0.7320
vn 0.8026 0.1165 0.5850
vn 0.2799 -0.1772 0.9435
vn -0.1037 -0.1572 0.9821
vn -0.1610 -0.1913 0.9682
vn -0.1086 -0.2607 0.9593
vn -0.2547 -0.2958 0.9207
vn -0.5139 -0.2710 0.8139
vn -0.7198 -0.1667 0.6739
vn 0.6065 -0.2905 0.7401
vn 0.3608 -0.0318 0.9321
vn 0.1188 0.0252 0.9926
vn 0.0226 -0.0064 0.9997
vn -0.1135 -0.1400 0.9836
vn -0.3762 -0.1835 0.9082
vn -0.5617 -0.1547 0.8127
vn -0.8210 -0.1971 0.5359
vn 0.5011 0.0333 0.8647
vn 0.4523 0.1365 0.8814
vn 0.3321 0.3581 0.8726
vn 0.1993 0.3896 0.8992
vn -0.0830 0.0501 0.9953
vn -0.1900 -0.4874 0.8522
vn -0.1859 -0.9668 -0.1755
vn -0.3378 -0.8357 -0.4329
vn 0.7277 -0.0383 0.6848
vn 0.5736 0.3389 0.7458
vn 0.4282 0.5410 0.7239
vn 0.1611 0.4379 0.8845
vn -0.0472 0.0909 0.9947
vn -0.1455 -0.4734 0.8687
vn -0.8800 0.0749 -0.4691
vn -0.2469 -0.3124 -0.9173
vn 0.9751 -0.1908 0.1128
vn 0.5416 0.3698 0.7550
vn 0.4392 0.3573 0.8243
vn 0.0788 0.2222 0.9718
vn -0.1062 0.7483 0.6548
vn -0.1448 -0.1483 -0.9783
vn -0.5976 0.6229 -0.5048
vn -0.2826 0.1839 -0.9414
vn 0.5458 0.6988 0.4624
vn 0.5136 0.6776 0.5264
vn 0.4312 0.4291 0.7937
vn 0.1121 0.5583 0.8220
vn -0.0932 0.8447 0.5271
vn -0.1936 0.9740 0.1176
vn -0.2863 0.8223 -0.4917
vn -0.4528 0.5374 -0.7114
vn -0.8820 -0.1217 0.4553
vn -0.9850 -0.1701 -0.0288
vn -0.9167 -0.3406 -0.2089
vn -0.8420 -0.5270 -0.1159
vn -0.8004 -0.5869 -0.1223
vn -0.7738 -0.6159 -0.1480
vn -0.7781 -0.6264 -0.0479
vn -0.8254 -0.5641 -0.0208
vn -0.8659 -0.1106 0.4878
vn -0.9657 -0.1421 0.2173
vn -0.9412 -0.3127 0.1281
vn -0.9071 -0.4177 0.0521
vn -0.8831 -0.4693 -0.0019
vn -0.8484 -0.5255 -0.0632
vn -0.8394 -0.5285 -0.1265
vn -0.8545 -0.4232 -0.3012
vn -0.8790 -0.1125 0.4634
vn -0.9407 -0.1134 0.3198
vn -0.9433 -0.1389 0.3014
vn -0.9571 -0.2113 0.1982
vn -0.9477 -0.2911 0.1308
vn -0.9331 -0.3595 -0.0079
vn -0.8725 -0.2741 -0.4045
vn 0.6335 0.6233 -0.4585
vn -0.9373 -0.0091 0.3484
vn -0.9333 0.0868 0.3485
vn -0.9209 0.0458 0.3872
vn -0.9499 -0.0015 0.3127
vn -0.9725 -0.0543 0.2265
vn -0.9845 -0.1723 0.0331
vn -0.8631 -0.4317 -0.2619
vn -0.8772 -0.4594 -0.1397
vn -0.9671 -0.2163 0.1338
vn -0.9230 -0.0327 0.3835
vn -0.9426 0.0241 0.3330
vn -0.9346 0.1472 0.3238
vn -0.9494 0.1890 0.2508
vn -0.9918 0.0992 0.0806
vn -0.9371 -0.3001 -0.1784
vn -0.8812 -0.4133 -0.2296
vn -0.9549 -0.2175 -0.2022
vn -0.9275 0.0709 0.3670
vn -0.9632 0.1609 0.2152
vn -0.9145 0.3126 0.2569
vn -0.8959 0.3948 0.2037
vn -0.9244 0.3760 0.0640
vn -0.9605 0.2112 -0.1813
vn -0.8605 -0.0062 -0.5095
vn -0.8866 0.4428 -0.1338
vn -0.9032 0.3274 0.2775
vn -0.9090 0.3929 0.1392
vn -0.8685 0.4675 0.1648
vn -0.8371 0.5336 0.1205
vn -0.8613 0.5079 -0.0136
vn -0.9225 0.2675 -0.2782
vn -0.7576 -0.1644 -0.6317
vn -0.7902 0.5793 0.2000
vn -0.7860 0.5850 0.2000
vn -0.7795 0.6115 0.1355
vn -0.7812 0.6154 0.1044
vn -0.7797 0.6232 0.0609
vn -0.8365 0.5460 -0.0468
vn -0.9355 0.1791 -0.3047
vn -0.3627 -0.6410 -0.6765
vn -0.6943 -0.6173 0.3701
vn 0.1850 -0.9019 0.3903
vn 0.2023 -0.8058 0.5566
vn -0.1787 -0.7644 0.6195
vn -0.2699 -0.8143 0.5139
vn -0.2090 -0.9208 0.3293
vn -0.0496 -0.9918 0.1182
vn 0.1012 -0.9909 -0.0883
vn -0.7018 -0.6712 -0.2387
vn 0.0537 -0.9876 0.1476
vn 0.1297 -0.9251 0.3569
vn -0.1655 -0.8977 0.4083
vn -0.0912 -0.9289 0.3590
vn 0.0306 -0.9696 0.2426
vn 0.1972 -0.9776 0.0733
vn 0.3551 -0.9246 -0.1379
vn -0.6603 -0.5260 -0.5361
vn -0.1566 -0.9002 -0.4063
vn -0.0337 -0.9946 0.0986
vn -0.1439 -0.9453 0.2927
vn 0.0160 -0.9711 0.2383
vn 0.1740 -0.9744 0.1420
vn 0.3512 -0.9353 0.0428
vn 0.5409 -0.8393 -0.0544
vn -0.6937 -0.6244 -0.3590
vn -0.4322 -0.8331 -0.3452
vn -0.3465 -0.9281 0.1362
vn -0.1288 -0.9142 0.3843
vn 0.1030 -0.9341 0.3417
vn 0.2950 -0.9314 0.2135
vn 0.4593 -0.8837 0.0899
vn 0.6299 -0.7767 0.0019
vn -0.7121 -0.6825 -0.1646
vn -0.6456 -0.7597 -0.0786
vn -0.5049 -0.8508 0.1455
vn -0.1764 -0.8959 0.4076
vn 0.1593 -0.8856 0.4362
vn 0.3804 -0.8864 0.2639
vn 0.5512 -0.8247 0.1266
vn 0.7044 -0.7078 0.0528
vn -0.7509 -0.6478 -0.1285
vn -0.7699 -0.6293 0.1065
vn -0.6054 -0.5991 0.5239
vn -0.2071 -0.5821 0.7863
vn 0.1956 -0.5985 0.7769
vn 0.4715 -0.6671 0.5768
vn 0.6430 -0.7174 0.2682
vn 0.7829 -0.6191 0.0611
vn -0.8403 -0.5354 0.0844
vn -0.8481 -0.3799 0.3693
vn -0.6016 -0.3458 0.7201
vn -0.2062 -0.3899 0.8975
vn 0.1799 -0.4116 0.8934
vn 0.4684 -0.4006 0.7875
vn 0.7045 -0.4102 0.5792
vn 0.8757 -0.4286 0.2225
vn -0.9007 -0.4220 0.1032
vn -0.8694 -0.3424 0.3562
vn -0.6625 -0.4621 0.5895
vn -0.2675 -0.5993 0.7545
vn 0.1552 -0.6176 0.7710
vn 0.4607 -0.5291 0.7126
vn 0.6906 -0.3810 0.6147
vn 0.8655 -0.1912 0.4629
vn 0.3099 -0.8071 -0.5026
vn 0.7872 -0.4469 -0.4250
vn 0.8077 0.0172 -0.5893
vn 0.5433 0.4784 -0.6899
vn 0.3686 0.6637 -0.6508
vn 0.3342 0.7150 -0.6141
vn 0.3392 0.7202 -0.6051
vn 0.3094 0.7130 -0.6292
vn -0.7812 0.4439 -0.4389
vn 0.8079 0.5066 -0.3011
vn 0.7340 0.5840 -0.3468
vn 0.4726 0.7781 -0.4138
vn 0.3439 0.8383 -0.4230
vn 0.3298 0.8405 -0.4298
vn 0.3501 0.8222 -0.4487
vn 0.3041 0.7984 -0.5198
vn -0.6533 0.7570 -0.0040
vn -0.2051 0.9787 0.0054
vn 0.1065 0.9913 -0.0776
vn 0.1967 0.9664 -0.1652
vn 0.2382 0.9467 -0.2170
vn 0.3061 0.9208 -0.2419
vn 0.3639 0.8902 -0.2740
vn 0.3550 0.8645 -0.3557
vn -0.6269 0.7776 0.0478
vn -0.3816 0.9232 0.0456
vn -0.1510 0.9884 0.0178
vn 0.0148 0.9997 -0.0218
vn 0.1537 0.9867 -0.0535
vn 0.2912 0.9541 -0.0704
vn 0.4077 0.9093 -0.0832
vn 0.4851 0.8660 -0.1215
vn -0.6230 0.7772 0.0883
vn -0.4348 0.8954 0.0957
vn -0.2476 0.9635 0.1021
vn -0.0695 0.9924 0.1011
vn 0.1071 0.9896 0.0956
vn 0.2859 0.9544 0.0855
vn 0.4591 0.8851 0.0760
vn 0.5908 0.8039 0.0695
vn -0.6170 0.7709 0.1582
vn -0.4447 0.8755 0.1889
vn -0.2731 0.9364 0.2202
vn -0.0964 0.9645 0.2457
vn 0.0874 0.9625 0.2568
vn 0.2793 0.9281 0.2461
vn 0.4798 0.8521 0.2089
vn 0.6565 0.7298 0.1911
vn -0.6072 0.7665 0.2093
vn -0.4217 0.8589 0.2905
vn -0.2539 0.8946 0.3676
vn -0.0883 0.9035 0.4194
vn 0.0932 0.8908 0.4448
vn 0.2898 0.8459 0.4477
vn 0.4878 0.7714 0.4087
vn 0.6594 0.6973 0.2808
vn -0.6405 0.7177 0.2733
vn -0.4318 0.8257 0.3629
vn -0.2498 0.8459 0.4712
vn -0.0606 0.8073 0.5871
vn 0.1202 0.7493 0.6513
vn 0.3770 0.6580 0.6518
vn 0.5323 0.6213 0.5750
vn 0.5542 0.7444 0.3725
s 0
f 1//1 2//1 10//1 9//1
f 2//2 3//2 11//2 10//2
f 3//3 4//3 12//3 11//3
f 4//4 5//4 13//4 12//4
f 5//5 6//5 14//5 13//5
f 6//6 7//6 15//6 14//6
f 7//7 8//7 16//7 15//7
f 8//8 65//8 73//8 16//8
f 9//9 10//9 18//9 17//9
f 10//10 11//10 19//10 18//10
f 11//11 12//11 20//11 19//11
f 12//12 13//12 21//12 20//12
f 13//13 14//13 22//13 21//13
f 14//14 15//14 23//14 22//14
f 15//15 16//15 24//15 23//15
f 16//16 73//16 81//16 24//16
f 17//17 18//17 26//17 25//17
f 18//18 19//18 27//18 26//18
f 19//19 20//19 28//19 27//19
f 20//20 21//20 29//20 28//20
f 21//21 22//21 30//21 29//21
f 22//22 23//22 31//22 30//22
f 23//23 24//23 32//23 31//23
f 24//24 81//24 89//24 32//24
f 25//25 26//25 34//25 33//25
f 26//26 27//26 35//26 34//26
f 27//27 28//27 36//27 35//27
f 28//28 29//28 37//28 36//28
f 29//29 30//29 38//29 37//29
f 30//30 31//30 39//30 38//30
f 31//31 32//31 40//31 39//31
f 32//32 89//32 97//32 40//32
f 33//33 34//33 42//33 41//33
f 34//34 35//34 43//34 42//34
f 35//35 36//35 44//35 43//35
f 36//36 37//36 45//36 44//36
f 37//37 38//37 46//37 45//37
f 38//38 39//38 47//38 46//38
f 39//39 40//39 48//39 47//39
f 40//40 97//40 105//40 48//40
f 41//41 42//41 50//41 49//41
f 42//42 43//42 51//42 50//42
f 43//43 44//43 52//43 51//43
f 44//44 45//44 53//44 52//44
f 45//45 46//45 54//45 53//45
f 46//46 47//46 55//46 54//46
f 47//47 48//47 56//47 55//47
f 48//48 105//48 113//48 56//48
f 49//49 50//49 58//49 57//49
f 50//50 51//50 59//50 58//50
f 51//51 52//51 60//51 59//51
f 52//52 53//52 61//52 60//52
f 53//53 54//53 62//53 61//53
f 54//54 55//54 63//54 62//54
f 55//55 56//55 64//55 63//55
f 56//56 113//56 121//56 64//56
f 57//57 58//57 307//57 306//57
f 58//58 59//58 308//58 307//58
f 59//59 60//59 309//59 308//59
f 60//60 61//60 310//60 309//60
f 61//61 62//61 311//61 310//61
f 62//62 63//62 312//62 311//62
f 63//63 64//63 313//63 312//63
f 64//64 121//64 314//64 313//64
f 65//65 66//65 74//65 73//65
f 66//66 67//66 75//66 74//66
f 67//67 68//67 76//67 75//67
f 68//68 69//68 77//68 76//68
f 69//69 70//69 78//69 77//69
f 70//70 71//70 79//70 78//70
f 71//71 72//71 80//71 79//71
f 72//72 129//72 137//72 80//72
f 73//73 74//73 82//73 81//73
f 74//74 75//74 83//74 82//74
f 75//75 76//75 84//75 83//75
f 76//76 77//76 85//76 84//76
f 77//77 78//77 86//77 85//77
f 78//78 79//78 87//78 86//78
f 79//79 80//79 88//79 87//79
f 80//80 137//80 145//80 88//80
f 81//81 82//81 90//81 89//81
f 82//82 83//82 91//82 90//82
f 83//83 84//83 92//83 91//83
f 84//84 85//84 93//84 92//84
f 85//85 86//85 94//85 93//85
f 86//86 87//86 95//86 94//86
f 87//87 88//87 96//87 95//87
f 88//88 145//88 153//88 96//88
f 89//89 90//89 98//89 97//89
f 90//90 91//90 99//90 98//90
f 91//91 92//91 100//91 99//91
f 92//92 93//92 101//92 100//92
f 93//93 94//93 102//93 101//93
f 94//94 95//94 103//94 102//94
f 95//95 96//95 104//95 103//95
f 96//96 153//96 161//96 104//96
f 97//97 98//97 106//97 105//97
f 98//98 99//98 107//98 106//98
f 99//99 100//99 108//99 107//99
f 100//100 101//100 109//100 108//100
f 101//101 102//101 110//101 109//101
f 102//102 103//102 111//102 110//102
f 103//103 104//103 112//103 111//103
f 104//104 161//104 169//104 112//104
f 105//105 106//105 114//105 113//105
f 106//106 107//106 115//106 114//106
f 107//107 108//107 116//107 115//107
f 108//108 109//108 117//108 116//108
f 109//109 110//109 118//109 117//109
f 110//110 111//110 119//110 118//110
f 111//111 112//111 120//111 119//111
f 112//112 169//112 177//112 120//112
f 113//113 114//113 122//113 121//113
f 114//114 115//114 123//114 122//114
f 115//115 116//115 124//115 123//115
f 116//116 117//116 125//116 124//116
f 117//117 118//117 126//117 125//117
f 118//118 119//118 127//118 126//118
f 119//119 120//119 128//119 127//119
f 120//120 177//120 185//120 128//120
f 121//121 122//121 323//121 314//121
f 122//122 123//122 332//122 323//122
f 123//123 124//123 341//123 332//123
f 124//124 125//124 350//124 341//124
f 125//125 126//125 359//125 350//125
f 126//126 127//126 368//126 359//126
f 127//127 128//127 377//127 368//127
f 128//128 185//128 386//128 377//128
f 129//129 130//129 138//129 137//129
f 130//130 131//130 139//130 138//130
f 131//131 132//131 140//131 139//131
f 132//132 133//132 141//132 140//132
f 133//133 134//133 142//133 141//133
f 134//134 135//134 143//134 142//134
f 135//135 136//135 144//135 143//135
f 136//136 193//136 201//136 144//136
f 137//137 138//137 146//137 145//137
f 138//138 139//138 147//138 146//138
f 139//139 140//139 148//139 147//139
f 140//140 141//140 149//140 148//140
f 141//141 142//141 150//141 149//141
f 142//142 143//142 151//142 150//142
f 143//143 144//143 152//143 151//143
f 144//144 201//144 209//144 152//144
f 145//145 146//145 154//145 153//145
f 146//146 147//146 155//146 154//146
f 147//147 148//147 156//147 155//147
f 148//148 149//148 157//148 156//148
f 149//149 150//149 158//149 157//149
f 150//150 151//150 159//150 158//150
f 151//151 152//151 160//151 159//151
f 152//152 209//152 217//152 160//152
f 153//153 154//153 162//153 161//153
f 154//154 155//154 163//154 162//154
f 155//155 156//155 164//155 163//155
f 156//156 157//156 165//156 164//156
f 157//157 158//157 166//157 165//157
f 158//158 159//158 167//158 166//158
f 159//159 160//159 168//159 167//159
f 160//160 217//160 225//160 168//160
f 161//161 162//161 170//161 169//161
f 162//162 163//162 171//162 170//162
f 163//163 164//163 172//163 171//163
f 164//164 165//164 173//164 172//164
f 165//165 166//165 174//165 173//165
f 166//166 167//166 175//166 174//166
f 167//167 168//167 176//167 175//167
f 168//168 225//168 233//168 176//168
f 169//169 170//169 178//169 177//169
f 170//170 171//170 179//170 178//170
f 171//171 172//171 180//171 179//171
f 172//172 173//172 181//172 180//172
f 173//173 174//173 182//173 181//173
f 174//174 175//174 183//174 182//174
f 175//175 176//175 184//175 183//175
f 176//176 233//176 241//176 184//176
f 177//177 178//177 186//177 185//177
f 178//178 179//178 187//178 186//178
f 179//179 180//179 188//179 187//179
f 180//180 181//180 189//180 188//180
f 181//181 182//181 190//181 189//181
f 182//182 183//182 191//182 190//182
f 183//183 184//183 192//183 191//183
f 184//184 241//184 249//184 192//184
f 185//185 186//185 385//185 386//185
f 186//186 187//186 384//186 385//186
f 187//187 188//187 383//187 384//187
f 188//188 189//188 382//188 383//188
f 189//189 190//189 381//189 382//189
f 190//190 191//190 380//190 381//190
f 191//191 192//191 379//191 380//191
f 192//192 249//192 378//192 379//192
f 193//193 194//193 202//193 201//193
f 194//194 195//194 203//194 202//194
f 195//195 196//195 204//195 203//195
f 196//196 197//196 205//196 204//196
f 197//197 198//197 206//197 205//197
f 198//198 199//198 207//198 206//198
f 199//199 200//199 208//199 207//199
f 200//200 1//200 9//200 208//200
f 201//201 202//201 210//201 209//201
f 202//202 203//202 211//202 210//202
f 203//203 204//203 212//203 211//203
f 204//204 205//204 213//204 212//204
f 205//205 206//205 214//205 213//205
f 206//206 207//206 215//206 214//206
f 207//207 208//207 216//207 215//207
f 208//208 9//208 17//208 216//208
f 209//209 210//209 218//209 217//209
f 210//210 211//210 219//210 218//210
f 211//211 212//211 220//211 219//211
f 212//212 213//212 221//212 220//212
f 213//213 214//213 222//213 221//213
f 214//214 215//214 223//214 222//214
f 215//215 216//215 224//215 223//215
f 216//216 17//216 25//216 224//216
f 217//217 218//217 226//217 225//217
f 218//218 219//218 227//218 226//218
f 219//219 220//219 228//219 227//219
f 220//220 221//220 229//220 228//220
f 221//221 222//221 230//221 229//221
f 222//222 223//222 231//222 230//222
f 223//223 224//223 232//223 231//223
f 224//224 25//224 33//224 232//224
f 225//225 226//225 234//225 233//225
f 226//226 227//226 235//226 234//226
f 227//227 228//227 236//227 235//227
f 228//228 229//228 237//228 236//228
f 229//229 230//229 238//229 237//229
f 230//230 231//230 239//230 238//230
f 231//231 232//231 240//231 239//231
f 232//232 33//232 41//232 240//232
f 233//233 234//233 242//233 241//233
f 234//234 235//234 243//234 242//234
f 235//235 236//235 244//235 243//235
f 236//236 237//236 245//236 244//236
f 237//237 238//237 246//237 245//237
f 238//238 239//238 247//238 246//238
f 239//239 240//239 248//239 247//239
f 240//240 41//240 49//240 248//240
f 241//241 242//241 250//241 249//241
f 242//242 243//242 251//242 250//242
f 243//243 244//243 252//243 251//243
f 244//244 245//244 253//244 252//244
f 245//245 246//245 254//245 253//245
f 246//246 247//246 255//246 254//246
f 247//247 248//247 256//247 255//247
f 248//248 49//248 57//248 256//248
f 249//249 250//249 369//249 378//249
f 250//250 251//250 360//250 369//250
f 251//251 252//251 351//251 360//251
f 252//252 253//252 342//252 351//252
f 253//253 254//253 333//253 342//253
f 254//254 255//254 324//254 333//254
f 255//255 256//255 315//255 324//255
f 256//256 57//256 306//256 315//256
f 193//257 136//257 257//257 194//257
f 136//258 135//258 258//258 257//258
f 135//259 134//259 259//259 258//259
f 134//260 133//260 260//260 259//260
f 133//261 132//261 261//261 260//261
f 132//262 131//262 262//262 261//262
f 131//263 130//263 263//263 262//263
f 130//264 129//264 72//264 263//264
f 194//265 257//265 264//265 195//265
f 257//266 258//266 265//266 264//266
f 258//267 259//267 266//267 265//267
f 259//268 260//268 267//268 266//268
f 260//269 261//269 268//269 267//269
f 261//270 262//270 269//270 268//270
f 262//271 263//271 270//271 269//271
f 263//272 72//272 71//272 270//272
f 195//273 264//273 271//273 196//273
f 264//274 265//274 272//274 271//274
f 265//275 266//275 273//275 272//275
f 266//276 267//276 274//276 273//276
f 267//277 268//277 275//277 274//277
f 268//278 269//278 276//278 275//278
f 269//279 270//279 277//279 276//279
f 270//280 71//280 70//280 277//280
f 196//281 271//281 278//281 197//281
f 271//282 272//282 279//282 278//282
f 272//283 273//283 280//283 279//283
f 273//284 274//284 281//284 280//284
f 274//285 275//285 282//285 281//285
f 275//286 276//286 283//286 282//286
f 276//287 277//287 284//287 283//287
f 277//288 70//288 69//288 284//288
f 197//289 278//289 285//289 198//289
f 278//290 279//290 286//290 285//290
f 279//291 280//291 287//291 286//291
f 280//292 281//292 288//292 287//292
f 281//293 282//293 289//293 288//293
f 282//294 283//294 290//294 289//294
f 283//295 284//295 291//295 290//295
f 284//296 69//296 68//296 291//296
f 198//297 285//297 292//297 199//297
f 285//298 286//298 293//298 292//298
f 286//299 287//299 294//299 293//299
f 287//300 288//300 295//300 294//300
f 288//301 289//301 296//301 295//301
f 289//302 290//302 297//302 296//302
f 290//303 291//303 298//303 297//303
f 291//304 68//304 67//304 298//304
f 199//305 292//305 299//305 200//305
f 292//306 293//306 300//306 299//306
f 293//307 294//307 301//307 300//307
f 294//308 295//308 302//308 301//308
f 295//309 296//309 303//309 302//309
f 296//310 297//310 304//310 303//310
f 297//311 298//311 305//311 304//311
f 298//312 67//312 66//312 305//312
f 200//313 299//313 2//313 1//313
f 299//314 300//314 3//314 2//314
f 300//315 301//315 4//315 3//315
f 301//316 302//316 5//316 4//316
f 302//317 303//317 6//317 5//317
f 303//318 304//318 7//318 6//318
f 304//319 305//319 8//319 7//319
f 305//320 66//320 65//320 8//320
f 306//321 307//321 316//321 315//321
f 307//322 308//322 317//322 316//322
f 308//323 309//323 318//323 317//323
f 309//324 310//324 319//324 318//324
f 310//325 311//325 320//325 319//325
f 311//326 312//326 321//326 320//326
f 312//327 313//327 322//327 321//327
f 313//328 314//328 323//328 322//328
f 315//329 316//329 325//329 324//329
f 316//330 317//330 326//330 325//330
f 317//331 318//331 327//331 326//331
f 318//332 319//332 328//332 327//332
f 319//333 320//333 329//333 328//333
f 320//334 321//334 330//334 329//334
f 321//335 322//335 331//335 330//335
f 322//336 323//336 332//336 331//336
f 324//337 325//337 334//337 333//337
f 325//338 326//338 335//338 334//338
f 326//339 327//339 336//339 335//339
f 327//340 328//340 337//340 336//340
f 328//341 329//341 338//341 337//341
f 329//342 330//342 339//342 338//342
f 330//343 331//343 340//343 339//343
f 331//344 332//344 341//344 340//344
f 333//345 334//345 343//345 342//345
f 334//346 335//346 344//346 343//346
f 335//347 336//347 345//347 344//347
f 336//348 337//348 346//348 345//348
f 337//349 338//349 347//349 346//349
f 338//350 339//350 348//350 347//350
f 339//351 340//351 349//351 348//351
f 340//352 341//352 350//352 349//352
f 342//353 343//353 352//353 351//353
f 343//354 344//354 353//354 352//354
f 344//355 345//355 354//355 353//355
f 345//356 346//356 355//356 354//356
f 346//357 347//357 356//357 355//357
f 347//358 348//358 357//358 356//358
f 348//359 349//359 358//359 357//359
f 349//360 350//360 359//360 358//360
f 351//361 352//361 361//361 360//361
f 352//362 353//362 362//362 361//362
f 353//363 354//363 363//363 362//363
f 354//364 355//364 364//364 363//364
f 355//365 356//365 365//365 364//365
f 356//366 357//366 366//366 365//366
f 357//367 358//367 367//367 366//367
f 358//368 359//368 368//368 367//368
f 360//369 361//369 370//369 369//369
f 361//370 362//370 371//370 370//370
f 362//371 363//371 372//371 371//371
f 363//372 364//372 373//372 372//372
f 364//373 365//373 374//373 373//373
f 365//374 366//374 375//374 374//374
f 366//375 367//375 376//375 375//375
f 367//376 368//376 377//376 376//376
f 369//377 370//377 379//377 378//377
f 370//378 371//378 380//378 379//378
f 371//379 372//379 381//379 380//379
f 372//380 373//380 382//380 381//380
f 373//381 374//381 383//381 382//381
f 374//382 375//382 384//382 383//382
f 375//383 376//383 385//383 384//383
f 376//384 377//384 386//384 385//384
f 387//385 395//385 396//385 388//385
f 388//386 396//386 397//386 389//386
f 389//387 397//387 398//387 390//387
f 390//388 398//388 399//388 391//388
f 391//389 399//389 400//389 392//389
f 392//390 400//390 401//390 393//390
f 393//391 401//391 402//391 394//391
f 394//392 402//392 459//392 451//392
f 395//393 403//393 404//393 396//393
f 396//394 404//394 405//394 397//394
f 397//395 405//395 406//395 398//395
f 398//396 406//396 407//396 399//396
f 399//397 407//397 408//397 400//397
f 400//398 408//398 409//398 401//398
f 401//399 409//399 410//399 402//399
f 402//400 410//400 467//400 459//400
f 403//401 411//401 412//401 404//401
f 404//402 412//402 413//402 405//402
f 405//403 413//403 414//403 406//403
f 406//404 414//404 415//404 407//404
f 407//405 415//405 416//405 408//405
f 408//406 416//406 417//406 409//406
f 409//407 417//407 418//407 410//407
f 410//408 418//408 475//408 467//408
f 411//409 419//409 420//409 412//409
f 412//410 420//410 421//410 413//410
f 413//411 421//411 422//411 414//411
f 414//412 422//412 423//412 415//412
f 415//413 423//413 424//413 416//413
f 416//414 424//414 425//414 417//414
f 417//415 425//415 426//415 418//415
f 418//416 426//416 483//416 475//416
f 419//417 427//417 428//417 420//417
f 420//418 428//418 429//418 421//418
f 421//419 429//419 430//419 422//419
f 422//420 430//420 431//420 423//420
f 423//421 431//421 432//421 424//421
f 424//422 432//422 433//422 425//422
f 425//423 433//423 434//423 426//423
f 426//424 434//424 491//424 483//424
f 427//425 435//425 436//425 428//425
f 428//426 436//426 437//426 429//426
f 429//427 437//427 438//427 430//427
f 430//428 438//428 439//428 431//428
f 431//429 439//429 440//429 432//429
f 432//430 440//430 441//430 433//430
f 433//431 441//431 442//431 434//431
f 434//432 442//432 499//432 491//432
f 435//433 443//433 444//433 436//433
f 436//434 444//434 445//434 437//434
f 437//435 445//435 446//435 438//435
f 438//436 446//436 447//436 439//436
f 439//437 447//437 448//437 440//437
f 440//438 448//438 449//438 441//438
f 441//439 449//439 450//439 442//439
f 442//440 450//440 507//440 499//440
f 443//441 692//441 693//441 444//441
f 444//442 693//442 694//442 445//442
f 445//443 694//443 695//443 446//443
f 446//444 695//444 696//444 447//444
f 447//445 696//445 697//445 448//445
f 448//446 697//446 698//446 449//446
f 449//447 698//447 699//447 450//447
f 450//448 699//448 700//448 507//448
f 451//449 459//449 460//449 452//449
f 452//450 460//450 461//450 453//450
f 453//451 461//451 462//451 454//451
f 454//452 462//452 463//452 455//452
f 455//453 463//453 464//453 456//453
f 456//454 464//454 465//454 457//454
f 457//455 465//455 466//455 458//455
f 458//456 466//456 523//456 515//456
f 459//457 467//457 468//457 460//457
f 460//458 468//458 469//458 461//458
f 461//459 469//459 470//459 462//459
f 462//460 470//460 471//460 463//460
f 463//461 471//461 472//461 464//461
f 464//462 472//462 473//462 465//462
f 465//463 473//463 474//463 466//463
f 466//464 474//464 531//464 523//464
f 467//465 475//465 476//465 468//465
f 468//466 476//466 477//466 469//466
f 469//467 477//467 478//467 470//467
f 470//468 478//468 479//468 471//468
f 471//469 479//469 480//469 472//469
f 472//470 480//470 481//470 473//470
f 473//471 481//471 482//471 474//471
f 474//472 482//472 539//472 531//472
f 475//473 483//473 484//473 476//473
f 476//474 484//474 485//474 477//474
f 477//475 485//475 486//475 478//475
f 478//476 486//476 487//476 479//476
f 479//477 487//477 488//477 480//477
f 480//478 488//478 489//478 481//478
f 481//479 489//479 490//479 482//479
f 482//480 490//480 547//480 539//480
f 483//481 491//481 492//481 484//481
f 484//482 492//482 493//482 485//482
f 485//483 493//483 494//483 486//483
f 486//484 494//484 495//484 487//484
f 487//485 495//485 496//485 488//485
f 488//486 496//486 497//486 489//486
f 489//487 497//487 498//487 490//487
f 490//488 498//488 555//488 547//488
f 491//489 499//489 500//489 492//489
f 492//490 500//490 501//490 493//490
f 493//491 501//491 502//491 494//491
f 494//492 502//492 503//492 495//492
f 495//493 503//493 504//493 496//493
f 496//494 504//494 505//494 497//494
f 497//495 505//495 506//495 498//495
f 498//496 506//496 563//496 555//496
f 499//497 507//497 508//497 500//497
f 500//498 508//498 509//498 501//498
f 501//499 509//499 510//499 502//499
f 502//500 510//500 511//500 503//500
f 503//501 511//501 512//501 504//501
f 504//502 512//502 513//502 505//502
f 505//503 513//503 514//503 506//503
f 506//504 514//504 571//504 563//504
f 507//505 700//505 709//505 508//505
f 508//506 709//506 718//506 509//506
f 509//507 718//507 727//507 510//507
f 510//508 727//508 736//508 511//508
f 511//509 736//509 744//509 512//509
f 512//510 744//510 753//510 513//510
f 513//511 753//511 762//511 514//511
f 514//512 762//512 771//512 571//512
f 515//513 523//513 524//513 516//513
f 516//514 524//514 525//514 517//514
f 517//515 525//515 526//515 518//515
f 518//516 526//516 527//516 519//516
f 519//517 527//517 528//517 520//517
f 520//518 528//518 529//518 521//518
f 521//519 529//519 530//519 522//519
f 522//520 530//520 587//520 579//520
f 523//521 531//521 532//521 524//521
f 524//522 532//522 533//522 525//522
f 525//523 533//523 534//523 526//523
f 526//524 534//524 535//524 527//524
f 527//525 535//525 536//525 528//525
f 528//526 536//526 537//526 529//526
f 529//527 537//527 538//527 530//527
f 530//528 538//528 595//528 587//528
f 531//529 539//529 540//529 532//529
f 532//530 540//530 541//530 533//530
f 533//531 541//531 542//531 534//531
f 534//532 542//532 543//532 535//532
f 535//533 543//533 544//533 536//533
f 536//534 544//534 545//534 537//534
f 537//535 545//535 546//535 538//535
f 538//536 546//536 603//536 595//536
f 539//537 547//537 548//537 540//537
f 540//538 548//538 549//538 541//538
f 541//539 549//539 550//539 542//539
f 542//540 550//540 551//540 543//540
f 543//541 551//541 552//541 544//541
f 544//542 552//542 553//542 545//542
f 545//543 553//543 554//543 546//543
f 546//544 554//544 611//544 603//544
f 547//545 555//545 556//545 548//545
f 548//546 556//546 557//546 549//546
f 549//547 557//547 558//547 550//547
f 550//548 558//548 559//548 551//548
f 551//549 559//549 560//549 552//549
f 552//550 560//550 561//550 553//550
f 553//551 561//551 562//551 554//551
f 554//552 562//552 619//552 611//552
f 555//553 563//553 564//553 556//553
f 556//554 564//554 565//554 557//554
f 557//555 565//555 566//555 558//555
f 558//556 566//556 567//556 559//556
f 559//557 567//557 568//557 560//557
f 560//558 568//558 569//558 561//558
f 561//559 569//559 570//559 562//559
f 562//560 570//560 627//560 619//560
f 563//561 571//561 572//561 564//561
f 564//562 572//562 573//562 565//562
f 565//563 573//563 574//563 566//563
f 566//564 574//564 575//564 567//564
f 567//565 575//565 576//565 568//565
f 568//566 576//566 577//566 569//566
f 569//567 577//567 578//567 570//567
f 570//568 578//568 635//568 627//568
f 571//569 771//569 770//569 572//569
f 572//570 770//570 769//570 573//570
f 573//571 769//571 768//571 574//571
f 574//572 768//572 767//572 575//572
f 575//573 767//573 766//573 576//573
f 576//574 766//574 765//574 577//574
f 577//575 765//575 764//575 578//575
f 578//576 764//576 763//576 635//576
f 579//577 587//577 588//577 580//577
f 580//578 588//578 589//578 581//578
f 581//579 589//579 590//579 582//579
f 582//580 590//580 591//580 583//580
f 583//581 591//581 592//581 584//581
f 584//582 592//582 593//582 585//582
f 585//583 593//583 594//583 586//583
f 586//584 594//584 395//584 387//584
f 587//585 595//585 596//585 588//585
f 588//586 596//586 597//586 589//586
f 589//587 597//587 598//587 590//587
f 590//588 598//588 599//588 591//588
f 591//589 599//589 600//589 592//589
f 592//590 600//590 601//590 593//590
f 593//591 601//591 602//591 594//591
f 594//592 602//592 403//592 395//592
f 595//593 603//593 604//593 596//593
f 596//594 604//594 605//594 597//594
f 597//595 605//595 606//595 598//595
f 598//596 606//596 607//596 599//596
f 599//597 607//597 608//597 600//597
f 600//598 608//598 609//598 601//598
f 601//599 609//599 610//599 602//599
f 602//600 610//600 411//600 403//600
f 603//601 611//601 612//601 604//601
f 604//602 612//602 613//602 605//602
f 605//603 613//603 614//603 606//603
f 606//604 614//604 615//604 607//604
f 607//605 615//605 616//605 608//605
f 608//606 616//606 617//606 609//606
f 609//607 617//607 618//607 610//607
f 610//608 618//608 419//608 411//608
f 611//609 619//609 620//609 612//609
f 612//610 620//610 621//610 613//610
f 613//611 621//611 622//611 614//611
f 614//612 622//612 623//612 615//612
f 615//613 623//613 624//613 616//613
f 616//614 624//614 625//614 617//614
f 617//615 625//615 626//615 618//615
f 618//616 626//616 427//616 419//616
f 619//617 627//617 628//617 620//617
f 620//618 628//618 629//618 621//618
f 621//619 629//619 630//619 622//619
f 622//620 630//620 631//620 623//620
f 623//621 631//621 632//621 624//621
f 624//622 632//622 633//622 625//622
f 625//623 633//623 634//623 626//623
f 626//624 634//624 435//624 427//624
f 627//625 635//625 636//625 628//625
f 628//626 636//626 637//626 629//626
f 629//627 637//627 638//627 630//627
f 630//628 638//628 639//628 631//628
f 631//629 639//629 640//629 632//629
f 632//630 640//630 641//630 633//630
f 633//631 641//631 642//631 634//631
f 634//632 642//632 443//632 435//632
f 635//633 763//633 754//633 636//633
f 636//634 754//634 745//634 637//634
f 637//635 745//635 737//635 638//635
f 638//636 737//636 728//636 639//636
f 639//637 728//637 719//637 640//637
f 640//638 719//638 710//638 641//638
f 641//639 710//639 701//639 642//639
f 642//640 701//640 692//640 443//640
f 579//641 580//641 643//641 522//641
f 522//642 643//642 644//642 521//642
f 521//643 644//643 645//643 520//643
f 520//644 645//644 646//644 519//644
f 519//645 646//645 647//645 518//645
f 518//646 647//646 648//646 517//646
f 517//647 648//647 649//647 516//647
f 516//648 649//648 458//648 515//648
f 580//649 581//649 650//649 643//649
f 643//650 650//650 651//650 644//650
f 644//651 651//651 652//651 645//651
f 645//652 652//652 653//652 646//652
f 646//653 653//653 654//653 647//653
f 647//654 654//654 655//654 648//654
f 648//655 655//655 656//655 649//655
f 649//656 656//656 457//656 458//656
f 581//657 582//657 657//657 650//657
f 650//658 657//658 658//658 651//658
f 651//659 658//659 659//659 652//659
f 652//660 659//660 660//660 653//660
f 653//661 660//661 661//661 654//661
f 654//662 661//662 662//662 655//662
f 655//663 662//663 663//663 656//663
f 656//664 663//664 456//664 457//664
f 582//665 583//665 664//665 657//665
f 657//666 664//666 665//666 658//666
f 658//667 665//667 666//667 659//667
f 659//668 666//668 667//668 660//668
f 660//669 667//669 668//669 661//669
f 661//670 668//670 669//670 662//670
f 662//671 669//671 670//671 663//671
f 663//672 670//672 455//672 456//672
f 583//673 584//673 671//673 664//673
f 664//674 671//674 672//674 665//674
f 665//675 672//675 673//675 666//675
f 666//676 673//676 674//676 667//676
f 667//677 674//677 675//677 668//677
f 668//678 675//678 676//678 669//678
f 669//679 676//679 677//679 670//679
f 670//680 677//680 454//680 455//680
f 584//681 585//681 678//681 671//681
f 671//682 678//682 679//682 672//682
f 672//683 679//683 680//683 673//683
f 673//684 680//684 681//684 674//684
f 674//685 681//685 682//685 675//685
f 675//686 682//686 683//686 676//686
f 676//687 683//687 684//687 677//687
f 677//688 684//688 453//688 454//688
f 585//689 586//689 685//689 678//689
f 678//690 685//690 686//690 679//690
f 679//691 686//691 687//691 680//691
f 680//692 687//692 688//692 681//692
f 681//693 688//693 689//693 682//693
f 682//694 689//694 690//694 683//694
f 683//695 690//695 691//695 684//695
f 684//696 691//696 452//696 453//696
f 586//697 387//697 388//697 685//697
f 685//698 388//698 389//698 686//698
f 686//699 389//699 390//699 687//699
f 687//700 390//700 391//700 688//700
f 688//701 391//701 392//701 689//701
f 689//702 392//702 393//702 690//702
f 690//703 393//703 394//703 691//703
f 691//704 394//704 451//704 452//704
f 692//705 701//705 702//705 693//705
f 693//706 702//706 703//706 694//706
f 694//707 703//707 704//707 695//707
f 695//708 704//708 705//708 696//708
f 696//709 705//709 706//709 697//709
f 697//710 706//710 707//710 698//710
f 698//711 707//711 708//711 699//711
f 699//712 708//712 709//712 700//712
f 701//713 710//713 711//713 702//713
f 702//714 711//714 712//714 703//714
f 703//715 712//715 713//715 704//715
f 704//716 713//716 714//716 705//716
f 705//717 714//717 715//717 706//717
f 706//718 715//718 716//718 707//718
f 707//719 716//719 717//719 708//719
f 708//720 717//720 718//720 709//720
f 710//721 719//721 720//721 711//721
f 711//722 720//722 721//722 712//722
f 712//723 721//723 722//723 713//723
f 713//724 722//724 723//724 714//724
f 714//725 723//725 724//725 715//725
f 715//726 724//726 725//726 716//726
f 716//727 725//727 726//727 717//727
f 717//728 726//728 727//728 718//728
f 719//729 728//729 729//729 720//729
f 720//730 729//730 730//730 721//730
f 721//731 730//731 731//731 722//731
f 722//732 731//732 732//732 723//732
f 723//733 732//733 733//733 724//733
f 724//734 733//734 734//734 725//734
f 725//735 734//735 735//735 726//735
f 726//736 735//736 736//736 727//736
f 728//737 737//737 738//737 729//737
f 729//738 738//738 739//738 730//738
f 730//739 739//739 740//739 731//739
f 731//740 740//740 355//740 732//740
f 732//741 355//741 741//741 733//741
f 733//742 741//742 742//742 734//742
f 734//743 742//743 743//743 735//743
f 735//744 743//744 744//744 736//744
f 737//745 745//745 746//745 738//745
f 738//746 746//746 747//746 739//746
f 739//747 747//747 748//747 740//747
f 740//748 748//748 749//748 355//748
f 355//749 749//749 750//749 741//749
f 741//750 750//750 751//750 742//750
f 742//751 751//751 752//751 743//751
f 743//752 752//752 753//752 744//752
f 745//753 754//753 755//753 746//753
f 746//754 755//754 756//754 747//754
f 747//755 756//755 757//755 748//755
f 748//756 757//756 758//756 749//756
f 749//757 758//757 759//757 750//757
f 750//758 759//758 760//758 751//758
f 751//759 760//759 761//759 752//759
f 752//760 761//760 762//760 753//760
f 754//761 763//761 764//761 755//761
f 755//762 764//762 765//762 756//762
f 756//763 765//763 766//763 757//763
f 757//764 766//764 767//764 758//764
f 758//765 767//765 768//765 759//765
f 759//766 768//766 769//766 760//766
f 760//767 769//767 770//767 761//767
f 761//768 770//768 771//768 762//768
