# Blender 5.0.0
# www.blender.org
mtllib leg.mtl
o Roundcube
v 4.831024 0.600789 -0.426833
v 4.624490 0.602263 -0.475977
v 4.387487 0.639755 -0.508073
v 4.120251 0.702410 -0.527558
v 3.827485 0.763072 -0.544072
v 3.525148 0.782801 -0.579167
v 3.258784 0.747919 -0.653965
v 3.031720 0.679770 -0.709386
v 4.920297 0.672269 -0.460423
v 4.701243 0.674436 -0.537265
v 4.440413 0.717480 -0.584745
v 4.138798 0.794484 -0.612787
v 3.807707 0.865762 -0.629202
v 3.476586 0.883603 -0.669340
v 3.193840 0.852834 -0.743605
v 2.952473 0.761795 -0.782084
v 4.981894 0.744801 -0.481063
v 4.755231 0.749725 -0.572253
v 4.476667 0.796266 -0.628811
v 4.147778 0.884544 -0.660813
v 3.785732 0.966129 -0.674189
v 3.435505 0.990177 -0.713567
v 3.144438 0.967167 -0.781890
v 2.887903 0.881655 -0.802942
v 5.021542 0.813855 -0.493311
v 4.790689 0.824040 -0.589271
v 4.498947 0.873756 -0.651024
v 4.148432 0.971701 -0.684716
v 3.761491 1.062533 -0.693601
v 3.398653 1.099949 -0.730041
v 3.103257 1.086785 -0.789898
v 2.835954 1.017552 -0.795531
v 5.042880 0.878774 -0.499031
v 4.809550 0.894768 -0.593438
v 4.508264 0.948325 -0.657442
v 4.141015 1.055499 -0.691679
v 3.732766 1.155989 -0.694509
v 3.361317 1.214203 -0.728248
v 3.066509 1.211522 -0.777195
v 2.799940 1.156640 -0.770373
v 5.047661 0.939365 -0.499545
v 4.812044 0.960380 -0.588196
v 4.504088 1.019593 -0.651342
v 4.124073 1.136286 -0.684152
v 3.699079 1.248375 -0.679382
v 3.319879 1.335770 -0.713437
v 3.031036 1.348246 -0.747042
v 2.779155 1.291970 -0.732242
v 5.035309 0.995498 -0.494969
v 4.796688 1.021237 -0.574540
v 4.483819 1.088428 -0.633439
v 4.094290 1.215403 -0.661564
v 3.656966 1.346173 -0.651132
v 3.272804 1.469442 -0.686194
v 2.994631 1.499970 -0.702561
v 2.767065 1.433931 -0.683542
v 5.000546 1.046667 -0.484149
v 4.758515 1.078512 -0.550714
v 4.441404 1.156933 -0.600594
v 4.045451 1.295094 -0.618379
v 3.601302 1.454428 -0.608395
v 3.222157 1.615384 -0.640759
v 2.958564 1.664294 -0.645639
v 2.757224 1.600169 -0.624400
v 2.812807 0.574028 -0.725609
v 2.726595 0.494423 -0.621599
v 2.675472 0.455529 -0.507105
v 2.657177 0.433908 -0.390370
v 2.663388 0.426853 -0.261990
v 2.687443 0.427781 -0.120938
v 2.728320 0.425593 0.029218
v 2.788771 0.425270 0.192582
v 2.705559 0.607811 -0.754649
v 2.554346 0.488356 -0.620781
v 2.464454 0.440903 -0.478843
v 2.432074 0.414367 -0.334613
v 2.437658 0.402705 -0.194468
v 2.474147 0.394848 -0.054536
v 2.541124 0.387106 0.092436
v 2.646686 0.379983 0.262321
v 2.621366 0.686980 -0.751227
v 2.421566 0.554913 -0.600176
v 2.309174 0.507072 -0.434302
v 2.264115 0.489690 -0.271639
v 2.267981 0.486276 -0.119993
v 2.316184 0.478236 0.023452
v 2.404331 0.457845 0.168133
v 2.540843 0.424783 0.337132
v 2.559497 0.802623 -0.731030
v 2.327505 0.664751 -0.579724
v 2.198918 0.619387 -0.399117
v 2.142782 0.610092 -0.227903
v 2.148215 0.614523 -0.065600
v 2.207090 0.620228 0.091693
v 2.312883 0.588908 0.243746
v 2.470095 0.525819 0.412229
v 2.525796 0.942851 -0.700570
v 2.279332 0.803359 -0.554050
v 2.139489 0.757459 -0.372269
v 2.076652 0.747195 -0.198009
v 2.083642 0.756420 -0.029743
v 2.150534 0.772689 0.139558
v 2.265375 0.744769 0.301080
v 2.428751 0.677910 0.469667
v 2.520183 1.100781 -0.666500
v 2.284486 0.967925 -0.517016
v 2.143799 0.919192 -0.342307
v 2.079334 0.902273 -0.172595
v 2.082475 0.911844 -0.011292
v 2.142577 0.948979 0.151604
v 2.251127 0.955326 0.312709
v 2.403489 0.916824 0.465349
v 2.537185 1.264910 -0.624789
v 2.332318 1.167406 -0.479693
v 2.206142 1.120270 -0.315252
v 2.144178 1.112640 -0.157798
v 2.137884 1.136905 -0.014763
v 2.182226 1.191084 0.125180
v 2.272701 1.240293 0.264158
v 2.388775 1.251410 0.395679
v 2.565108 1.445539 -0.577426
v 2.412884 1.407949 -0.449222
v 2.311860 1.406675 -0.309417
v 2.257034 1.433457 -0.170268
v 2.244149 1.479009 -0.041925
v 2.267408 1.535090 0.075992
v 2.320046 1.589151 0.195554
v 2.398812 1.614105 0.319320
v 2.870482 0.462983 0.374550
v 3.010242 0.610882 0.422122
v 3.127005 0.729325 0.401652
v 3.325400 0.785544 0.389363
v 3.680923 0.764609 0.426258
v 4.041464 0.677132 0.408334
v 4.355760 0.580897 0.376039
v 4.606114 0.530532 0.354761
v 2.794330 0.436742 0.468744
v 2.959270 0.620877 0.546198
v 3.076665 0.771214 0.516884
v 3.279227 0.840588 0.490502
v 3.669204 0.810989 0.521852
v 4.069993 0.710007 0.493504
v 4.416284 0.607763 0.450532
v 4.684889 0.561145 0.417145
v 2.733161 0.477011 0.548079
v 2.909107 0.676569 0.624017
v 3.034431 0.835228 0.584553
v 3.249814 0.907094 0.558352
v 3.664854 0.861430 0.588788
v 4.091147 0.749212 0.554052
v 4.458675 0.644637 0.505745
v 4.740716 0.602334 0.461366
v 2.683372 0.580300 0.604993
v 2.852659 0.779026 0.653285
v 2.991609 0.925366 0.612552
v 3.228654 0.981375 0.598437
v 3.659098 0.920631 0.632312
v 4.101553 0.799088 0.595417
v 4.483797 0.691956 0.544971
v 4.778999 0.652990 0.491450
v 2.635652 0.742209 0.617295
v 2.788274 0.929291 0.634489
v 2.946162 1.046989 0.608633
v 3.205186 1.070279 0.610383
v 3.644500 0.992333 0.651305
v 4.097622 0.861870 0.616979
v 4.492093 0.749904 0.568283
v 4.801147 0.711406 0.508002
v 2.575625 0.976231 0.567298
v 2.726922 1.129688 0.588821
v 2.900513 1.205972 0.581659
v 3.172507 1.184612 0.592556
v 3.614223 1.078505 0.640735
v 4.076984 0.937947 0.616207
v 4.482883 0.817588 0.572801
v 4.806127 0.775420 0.509564
v 2.529983 1.266464 0.498439
v 2.681454 1.378152 0.535371
v 2.859568 1.407081 0.538294
v 3.126619 1.340149 0.543494
v 3.561649 1.184260 0.593572
v 4.036607 1.027419 0.588684
v 4.452970 0.894660 0.553916
v 4.790245 0.842871 0.492961
v 2.513249 1.567744 0.436296
v 2.653445 1.650034 0.474103
v 2.823878 1.638422 0.473958
v 3.071076 1.554511 0.464719
v 3.480125 1.328519 0.498100
v 3.972188 1.131505 0.527771
v 4.396624 0.982625 0.503804
v 4.746408 0.912683 0.452968
v 4.810972 0.514565 0.327593
v 4.881186 0.489274 0.245429
v 4.926853 0.476117 0.159840
v 4.953915 0.473982 0.070236
v 4.964892 0.481919 -0.023441
v 4.960239 0.499039 -0.120788
v 4.939034 0.524647 -0.220926
v 4.898219 0.557334 -0.323640
v 4.902529 0.552881 0.366281
v 5.021160 0.537578 0.275711
v 5.093358 0.534431 0.181644
v 5.132909 0.541323 0.083928
v 5.146212 0.557705 -0.017028
v 5.135596 0.580667 -0.121783
v 5.099801 0.607472 -0.230954
v 5.032722 0.637188 -0.345040
v 4.970091 0.603434 0.393982
v 5.120031 0.602657 0.294365
v 5.208057 0.609286 0.190222
v 5.253987 0.622938 0.084173
v 5.266762 0.641863 -0.023358
v 5.250196 0.664158 -0.133150
v 5.203613 0.689765 -0.245819
v 5.120238 0.716944 -0.361657
v 5.017553 0.662277 0.412576
v 5.187016 0.676015 0.302837
v 5.285153 0.693260 0.188782
v 5.334963 0.712144 0.074517
v 5.346675 0.730535 -0.038300
v 5.324933 0.750151 -0.149888
v 5.270117 0.771715 -0.262104
v 5.175569 0.793779 -0.375796
v 5.045835 0.725218 0.421416
v 5.225278 0.753241 0.303196
v 5.329028 0.780497 0.180345
v 5.381010 0.803373 0.058863
v 5.391912 0.821241 -0.058300
v 5.366762 0.837332 -0.170707
v 5.306297 0.853053 -0.279559
v 5.204903 0.867631 -0.387511
v 5.054873 0.790005 0.420100
v 5.234728 0.830252 0.296363
v 5.339443 0.865472 0.167763
v 5.391814 0.892287 0.041277
v 5.402239 0.910274 -0.078770
v 5.375775 0.922954 -0.191149
v 5.313269 0.932186 -0.296117
v 5.209891 0.937958 -0.396584
v 5.043385 0.854322 0.407252
v 5.212648 0.903298 0.282013
v 5.312761 0.943973 0.152157
v 5.363257 0.974053 0.024432
v 5.373415 0.992762 -0.096000
v 5.347939 1.002804 -0.206894
v 5.287707 1.006082 -0.307800
v 5.188652 1.003272 -0.401287
v 5.008378 0.915787 0.380359
v 5.152645 0.968281 0.258456
v 5.240428 1.010807 0.132918
v 5.285683 1.042257 0.009256
v 5.295516 1.061768 -0.107648
v 5.273786 1.070411 -0.214703
v 5.221300 1.069703 -0.311090
v 5.134997 1.060778 -0.398882
v 4.666582 0.490490 0.264689
v 4.412309 0.533080 0.277875
v 4.089470 0.627347 0.301113
v 3.703822 0.725998 0.314357
v 3.325125 0.741020 0.265771
v 3.120110 0.672423 0.262388
v 2.977254 0.555070 0.251646
v 4.704459 0.464767 0.171427
v 4.449037 0.501238 0.179627
v 4.125978 0.590780 0.195222
v 3.731153 0.695825 0.203679
v 3.338829 0.712153 0.145008
v 3.120760 0.641978 0.110734
v 2.946912 0.543256 0.076449
v 4.726923 0.451361 0.072537
v 4.471611 0.481557 0.075791
v 4.152615 0.564978 0.084835
v 3.759008 0.671054 0.089435
v 3.363380 0.690366 0.025463
v 3.129969 0.619628 -0.038407
v 2.927073 0.537459 -0.086551
v 4.736758 0.450140 -0.032104
v 4.482117 0.474171 -0.035236
v 4.169783 0.550659 -0.032550
v 3.785293 0.653829 -0.030884
v 3.399098 0.670457 -0.091849
v 3.145223 0.603229 -0.176613
v 2.917926 0.528985 -0.237157
v 4.734218 0.461941 -0.141315
v 4.480838 0.481258 -0.152571
v 4.176989 0.550722 -0.156475
v 3.807696 0.647021 -0.159417
v 3.439755 0.658229 -0.210943
v 3.164219 0.598601 -0.306257
v 2.916381 0.535125 -0.376087
v 4.717716 0.488732 -0.253144
v 4.466751 0.506837 -0.273325
v 4.172808 0.570524 -0.283342
v 3.824600 0.655617 -0.292015
v 3.476784 0.666624 -0.335235
v 3.190702 0.606519 -0.431593
v 2.930341 0.553089 -0.503625
v 4.683577 0.533917 -0.365364
v 4.437486 0.556776 -0.393195
v 4.154838 0.617974 -0.407959
v 3.833199 0.689736 -0.422525
v 3.503981 0.705214 -0.462317
v 3.221021 0.651070 -0.551083
v 2.971227 0.587644 -0.618119
v 4.931371 1.092437 -0.464048
v 4.685411 1.134441 -0.510096
v 4.363903 1.229199 -0.542173
v 3.966168 1.378577 -0.541643
v 3.523453 1.580827 -0.545018
v 3.165169 1.772421 -0.569357
v 2.921547 1.838069 -0.569927
v 2.747048 1.789178 -0.551010
v 2.598786 1.651172 -0.524433
v 5.029689 1.106732 -0.386273
v 4.778667 1.141397 -0.423131
v 4.429077 1.232652 -0.450924
v 3.967220 1.413376 -0.442200
v 3.433304 1.706460 -0.464179
v 3.043895 1.943892 -0.482796
v 2.798728 1.981699 -0.473671
v 2.641552 1.884588 -0.451533
v 2.500342 1.692167 -0.421765
v 5.093568 1.115804 -0.303387
v 4.840048 1.142321 -0.329770
v 4.470491 1.225731 -0.351557
v 3.959656 1.429985 -0.336388
v 3.353589 1.813790 -0.375764
v 2.944230 2.066988 -0.392024
v 2.706329 2.069935 -0.375399
v 2.564593 1.956076 -0.348422
v 2.431135 1.740892 -0.313942
v 5.130613 1.116244 -0.212647
v 4.875754 1.136823 -0.227625
v 4.490744 1.212708 -0.242855
v 3.943964 1.436254 -0.226055
v 3.287044 1.900947 -0.281038
v 2.865372 2.146703 -0.295283
v 2.639850 2.122064 -0.272441
v 2.509996 2.015236 -0.240977
v 2.386853 1.795343 -0.203793
v 5.144799 1.107136 -0.112949
v 4.887293 1.123649 -0.115988
v 4.491081 1.195403 -0.124295
v 3.923149 1.433323 -0.111187
v 3.239143 1.954793 -0.178563
v 2.811875 2.189243 -0.189891
v 2.598469 2.152618 -0.161296
v 2.477085 2.060716 -0.127543
v 2.365101 1.851165 -0.091704
v 5.136099 1.088288 -0.005508
v 4.873958 1.101648 0.003821
v 4.472241 1.174900 0.003348
v 3.901330 1.418903 0.009772
v 3.217022 1.962260 -0.066136
v 2.791498 2.196491 -0.072606
v 2.585314 2.163488 -0.039048
v 2.467417 2.088874 -0.005075
v 2.365396 1.897257 0.022070
v 5.102538 1.059556 0.107288
v 4.834302 1.070690 0.129121
v 4.434327 1.151736 0.137637
v 3.883363 1.388679 0.138378
v 3.228398 1.906938 0.058146
v 2.814379 2.159701 0.059475
v 2.607174 2.144142 0.094621
v 2.485931 2.088246 0.125304
v 2.388012 1.923584 0.138730
v 5.038921 1.020591 0.222346
v 4.765266 1.031278 0.255694
v 4.377385 1.124858 0.274782
v 3.873820 1.337067 0.275265
v 3.279050 1.767474 0.195235
v 2.886018 2.050816 0.201426
v 2.671234 2.068231 0.233514
v 2.538843 2.036581 0.258575
v 2.436344 1.912194 0.257039
v 4.934819 0.971512 0.335520
v 4.661715 0.988080 0.380380
v 4.303254 1.088197 0.409661
v 3.875033 1.256953 0.418283
v 3.371519 1.539790 0.351025
v 3.005795 1.819005 0.345800
v 2.783298 1.885938 0.367945
v 2.633794 1.895791 0.383412
v 2.516927 1.835653 0.371059
v 2.565008 5.250833 0.818399
v 2.446141 5.165009 0.773820
v 2.328510 5.095387 0.690860
v 2.218016 5.047935 0.579806
v 2.120270 5.026489 0.450167
v 2.040497 5.028732 0.308738
v 1.974971 5.036697 0.157681
v 1.926383 5.038030 -0.000279
v 1.902645 5.019621 -0.280655
v 1.940615 5.004530 -0.551164
v 2.011199 5.000502 -0.693962
v 2.110034 5.003722 -0.827040
v 2.226766 5.018438 -0.949838
v 2.351228 5.047778 -1.060200
v 2.478352 5.095387 -1.151908
v 2.607841 5.165009 -1.214775
v 2.732348 5.250833 -1.239563
v 2.846340 5.346990 -1.221656
v 2.946954 5.448956 -1.163408
v 3.032248 5.552781 -1.070415
v 3.100789 5.653621 -0.949504
v 3.151423 5.745365 -0.807377
v 3.183202 5.821112 -0.650018
v 3.195428 5.874147 -0.482806
v 3.176180 5.899536 -0.167689
v 3.144266 5.874147 0.146397
v 3.105185 5.821112 0.309438
v 3.048401 5.745365 0.459595
v 2.975470 5.653621 0.591675
v 2.888296 5.552781 0.699924
v 2.789098 5.448956 0.777915
v 2.680395 5.346990 0.819143
v 2.774944 1.241576 0.282364
v 2.654980 1.162753 0.248921
v 2.538016 1.105647 0.193167
v 2.429136 1.077979 0.120489
v 2.333366 1.081954 0.035819
v 2.255316 1.110999 -0.057709
v 2.198796 1.151346 -0.158317
v 2.166553 1.186848 -0.264418
v 2.150187 1.204774 -0.251116
v 2.164189 1.186848 -0.235346
v 2.213150 1.151346 -0.334843
v 2.285181 1.110999 -0.424998
v 2.377316 1.081954 -0.504688
v 2.485507 1.077979 -0.572773
v 2.604699 1.105647 -0.626906
v 2.729134 1.162753 -0.663031
v 2.852925 1.241576 -0.676653
v 2.970772 1.333400 -0.664719
v 3.078401 1.431835 -0.627009
v 3.172558 1.532644 -0.565910
v 3.250749 1.631707 -0.485202
v 3.310978 1.723294 -0.388952
v 3.351636 1.799809 -0.281013
v 3.371528 1.853030 -0.165146
v 3.378659 1.876534 -0.151225
v 3.369373 1.853030 -0.138639
v 3.331023 1.799809 -0.027507
v 3.273460 1.723294 0.072445
v 3.198472 1.631707 0.157699
v 3.108269 1.532644 0.224715
v 3.005478 1.431835 0.269800
v 2.893171 1.333400 0.289625
v 2.249894 7.939216 -1.252080
v 2.199053 8.006617 -1.271475
v 2.902120 7.977391 -1.154610
v 3.026454 8.410714 -1.076814
v 3.060438 8.085331 -1.044533
v 3.260841 8.619263 -0.884505
v 3.206940 8.155333 -0.909805
v 3.412850 8.672413 -0.783404
v 3.315477 8.168975 -0.790308
v 3.521146 8.701330 -0.669662
v 3.380412 8.144979 -0.655939
v 3.595475 8.742160 -0.536387
v 3.416973 8.120921 -0.499916
v 3.639635 8.788290 -0.402224
v 3.430420 8.106743 -0.330402
v 3.657687 8.823067 -0.271022
v 3.422072 8.102259 -0.157201
v 3.652956 8.836576 -0.142395
v 3.392708 8.106774 0.014041
v 3.626726 8.823262 -0.015521
v 3.342632 8.120994 0.177619
v 3.577766 8.788671 0.110097
v 3.272480 8.145110 0.323653
v 3.502801 8.742709 0.234082
v 3.178840 8.169182 0.443345
v 3.398538 8.702045 0.351631
v 3.046226 8.155574 0.541397
v 3.265270 8.673287 0.443647
v 2.875191 8.085481 0.649021
v 3.092446 8.620259 0.515982
v 2.699431 7.977000 0.732775
v 2.823291 8.411578 0.667328
v 2.002652 7.964337 0.710399
v 1.873721 8.067828 0.675168
v 2.016046 7.942725 0.696467
v 1.891483 8.041162 0.658254
v 2.044417 7.885547 0.652160
v 1.928976 7.977457 0.613377
v 2.074820 7.801755 0.573166
v 1.980494 7.885792 0.548156
v 2.084865 7.695116 0.429700
v 2.033756 7.773922 0.446556
v 2.065519 7.604467 0.225408
v 2.069131 7.667687 0.272165
v 2.029400 7.571004 0.023278
v 2.108507 7.630696 0.065552
v 2.002727 7.587665 -0.137759
v 2.203124 7.644068 -0.116287
v 2.012653 7.607989 -0.284287
v 2.253038 7.646501 -0.321635
v 2.045198 7.597878 -0.411864
v 2.212306 7.627303 -0.499635
v 2.100295 7.579619 -0.546175
v 2.204288 7.616802 -0.666229
v 2.171540 7.593044 -0.725073
v 2.233984 7.649520 -0.840395
v 2.248745 7.667921 -0.934517
v 2.268095 7.733688 -1.009397
v 2.287068 7.773030 -1.095562
v 2.267547 7.834285 -1.132273
v 2.280767 7.858157 -1.185598
v 2.241969 7.921275 -1.211178
v 2.261502 7.916916 -1.236060
v 2.214797 7.981854 -1.256407
v 2.855068 8.935140 -1.078961
v 1.494331 8.925223 -1.530289
v 3.153788 8.960435 -0.883392
v 3.268699 8.998335 -0.752699
v 3.319380 9.046487 -0.635670
v 3.335042 9.118124 -0.528649
v 3.328144 9.197373 -0.420956
v 3.310158 9.262020 -0.306116
v 3.292715 9.285158 -0.181061
v 3.276718 9.262387 -0.055368
v 3.264462 9.198042 0.061431
v 3.243996 9.119027 0.169648
v 3.202169 9.047589 0.273002
v 3.123572 8.999658 0.379300
v 2.978428 8.962016 0.487091
v 2.636307 8.937145 0.625410
v 1.311435 8.848455 0.886999
v 1.345835 8.815780 0.877338
v 1.425576 8.737271 0.854557
v 1.536745 8.623395 0.832917
v 1.661686 8.484142 0.774741
v 1.820424 8.320514 0.632945
v 1.994444 8.181543 0.453682
v 2.078517 8.342313 0.056818
v 1.643670 8.765163 -0.304373
v 1.947065 8.549033 -0.560103
v 2.177980 8.248219 -0.911955
v 2.026849 8.390236 -1.189425
v 1.862822 8.564448 -1.393799
v 1.724487 8.716588 -1.465490
v 1.603709 8.829688 -1.487876
v 1.525896 8.897573 -1.516362
v 2.713662 7.412737 -1.103698
v 2.834333 7.416174 -1.089334
v 2.946059 7.408488 -1.030191
v 3.044052 7.395283 -0.928732
v 3.124505 7.383455 -0.794632
v 3.185871 7.376864 -0.641493
v 3.226996 7.375184 -0.481177
v 3.247223 7.376159 -0.323319
v 3.244680 7.376902 -0.168695
v 3.218277 7.375919 -0.016198
v 3.168922 7.374701 0.135448
v 3.098601 7.376134 0.285796
v 3.009685 7.382493 0.425486
v 2.905387 7.394132 0.543071
v 2.789676 7.407216 0.625505
v 2.668251 7.414854 0.664022
v 2.546549 7.411430 0.657113
v 2.429606 7.396835 0.607557
v 2.323400 7.372754 0.524325
v 2.230163 7.340714 0.416661
v 2.149721 7.305689 0.290333
v 2.082705 7.273248 0.152191
v 2.032408 7.247799 0.008069
v 2.004061 7.232227 -0.136762
v 2.002923 7.227327 -0.277168
v 2.029974 7.232463 -0.415167
v 2.084776 7.248265 -0.552902
v 2.161318 7.273925 -0.686216
v 2.253474 7.306550 -0.810798
v 2.356794 7.341727 -0.921442
v 2.469159 7.373894 -1.011473
v 2.589428 7.398077 -1.075141
v 1.807498 10.821650 -2.145920
v 1.107309 10.843030 -2.271430
v 2.194992 10.987288 -2.021262
v 2.119460 11.539427 -2.079195
v 1.910527 12.223041 -2.121209
v 1.998943 12.552616 -1.961349
v 2.410032 12.606663 -1.512129
v 2.844040 12.578608 -0.873750
v 2.957192 12.568029 -0.225748
v 2.667904 12.623508 0.334395
v 2.102187 12.671936 0.778505
v 1.610536 12.635397 1.065167
v 1.465023 12.343962 1.173162
v 1.629289 11.698214 1.205262
v 1.693885 11.148326 1.227210
v 1.329532 11.069388 1.311020
v 0.708391 11.232953 1.375508
v 0.201569 11.263618 1.365561
v -0.178395 11.139713 1.305424
v -0.445571 10.949496 1.190064
v -0.579721 10.784075 1.002980
v -0.605973 10.750752 0.744577
v -0.572897 10.861358 0.462632
v -0.507099 11.002783 0.199251
v -0.437429 11.091661 -0.053619
v -0.396243 11.098503 -0.318215
v -0.389190 10.979130 -0.614798
v -0.381228 10.808037 -0.946228
v -0.331573 10.748598 -1.324925
v -0.198158 10.781303 -1.710189
v 0.082202 10.821024 -2.024006
v 0.517635 10.851685 -2.230519
v 0.025430 13.669022 -2.344152
v -0.318472 13.360010 -2.187609
v 0.374475 13.853855 -2.381268
v 0.721238 13.927607 -2.283324
v 1.082730 13.905846 -2.079477
v 1.485655 13.781045 -1.728092
v 1.913090 13.605009 -1.236407
v 2.228096 13.483511 -0.721074
v 2.309468 13.450144 -0.269125
v 2.135911 13.495640 0.134523
v 1.763134 13.592276 0.518388
v 1.294520 13.729011 0.892157
v 0.868805 13.823652 1.160786
v 0.495546 13.831507 1.297694
v 0.139941 13.759233 1.325390
v -0.208195 13.590952 1.218705
v -0.508811 13.336528 1.036564
v -0.708646 13.021707 0.869019
v -0.844340 12.687946 0.723459
v -0.951116 12.462898 0.599440
v -1.027369 12.354592 0.489783
v -1.074643 12.305044 0.374621
v -1.096701 12.294592 0.225022
v -1.098980 12.314820 0.018957
v -1.087537 12.335619 -0.264163
v -1.071239 12.316399 -0.585332
v -1.061518 12.299120 -0.848718
v -1.046336 12.298475 -1.058605
v -1.012381 12.321344 -1.241629
v -0.948896 12.386585 -1.447067
v -0.831337 12.561342 -1.713563
v -0.623872 12.924401 -1.990673
v 2.451155 6.500535 -1.268982
v 2.597976 6.496100 -1.269979
v 2.737299 6.484184 -1.219809
v 2.860750 6.469471 -1.118847
v 2.960689 6.457674 -0.974825
v 3.034577 6.451110 -0.797549
v 3.081898 6.449137 -0.599067
v 3.103036 6.449738 -0.391444
v 3.097988 6.450318 -0.181996
v 3.066636 6.449249 0.025152
v 3.009811 6.448168 0.225961
v 2.928784 6.449688 0.413233
v 2.825271 6.455853 0.575023
v 2.701867 6.467336 0.699558
v 2.562774 6.481838 0.777615
v 2.416859 6.493667 0.802891
v 2.272435 6.498133 0.776456
v 2.135632 6.494852 0.703506
v 2.014241 6.484350 0.596117
v 1.912199 6.466595 0.466132
v 1.827669 6.445420 0.319664
v 1.759515 6.425264 0.163325
v 1.709638 6.409496 0.003532
v 1.682114 6.400033 -0.154588
v 1.681391 6.397151 -0.305834
v 1.708332 6.400386 -0.454655
v 1.762859 6.410212 -0.605583
v 1.839689 6.426342 -0.754268
v 1.933921 6.446848 -0.896370
v 2.042567 6.468348 -1.025909
v 2.165602 6.486384 -1.136186
v 2.303774 6.497112 -1.220871
v 2.482268 5.955841 -1.122919
v 2.633495 5.949057 -1.113134
v 2.776016 5.939857 -1.055095
v 2.902571 5.932086 -0.952108
v 3.006870 5.929416 -0.816004
v 3.086181 5.932557 -0.661435
v 3.139547 5.939076 -0.499480
v 3.166528 5.945298 -0.337169
v 3.166386 5.947752 -0.176610
v 3.138681 5.944923 -0.018465
v 3.083962 5.938329 0.136692
v 3.003318 5.931443 0.286923
v 2.898403 5.927958 0.425387
v 2.772080 5.930332 0.541346
v 2.629581 5.937889 0.620842
v 2.479151 5.946982 0.653307
v 2.328518 5.953774 0.636733
v 2.184031 5.957297 0.575559
v 2.054143 5.956602 0.480837
v 1.943444 5.950244 0.363712
v 1.850861 5.940039 0.231659
v 1.774813 5.926547 0.092797
v 1.714862 5.909679 -0.046892
v 1.677886 5.895566 -0.182453
v 1.670026 5.888057 -0.310088
v 1.692792 5.888049 -0.434719
v 1.747330 5.896627 -0.561255
v 1.829680 5.912939 -0.686984
v 1.934100 5.932868 -0.808750
v 2.054103 5.949987 -0.921226
v 2.185013 5.958361 -1.016964
v 2.329360 5.959250 -1.087722
v -0.028124 15.627678 -1.991302
v -0.303609 15.537565 -1.832345
v 0.256827 15.709700 -2.055203
v 0.539731 15.776773 -1.985825
v 0.802671 15.819855 -1.789885
v 1.036959 15.839638 -1.475239
v 1.225491 15.851507 -1.116148
v 1.330598 15.865492 -0.743260
v 1.336467 15.875530 -0.324840
v 1.258064 15.863865 0.088009
v 1.101399 15.831264 0.449775
v 0.875445 15.785917 0.796803
v 0.606445 15.741611 1.086334
v 0.321549 15.686298 1.243143
v 0.032337 15.614128 1.263125
v -0.240570 15.535057 1.143441
v -0.493090 15.458731 0.925669
v -0.719471 15.401394 0.679358
v -0.914655 15.363127 0.467438
v -1.069285 15.325108 0.317179
v -1.181489 15.287851 0.201486
v -1.255933 15.258471 0.084558
v -1.297739 15.242155 -0.068218
v -1.310030 15.236580 -0.280257
v -1.296328 15.235699 -0.557576
v -1.264548 15.235329 -0.831923
v -1.217516 15.240015 -1.034672
v -1.150695 15.255907 -1.174890
v -1.058005 15.286213 -1.274187
v -0.931293 15.329716 -1.364182
v -0.762830 15.384464 -1.478461
v -0.551738 15.453108 -1.642148
vn 0.1999 -0.6903 -0.6953
vn 0.0070 -0.6805 -0.7327
vn -0.1011 -0.6639 -0.7409
vn -0.0991 -0.6555 -0.7487
vn 0.0528 -0.6415 -0.7653
vn 0.2801 -0.5395 -0.7940
vn 0.3234 -0.4658 -0.8237
vn 0.2158 -0.4249 -0.8792
vn 0.2921 -0.5284 -0.7972
vn 0.0849 -0.4938 -0.8654
vn -0.0393 -0.4703 -0.8816
vn -0.0589 -0.4414 -0.8954
vn 0.0849 -0.3725 -0.9241
vn 0.2554 -0.2448 -0.9353
vn 0.1733 -0.1610 -0.9716
vn -0.0621 -0.1331 -0.9892
vn 0.3435 -0.3572 -0.8686
vn 0.1452 -0.2990 -0.9432
vn 0.0185 -0.2721 -0.9621
vn -0.0246 -0.2326 -0.9723
vn 0.0923 -0.1441 -0.9852
vn 0.2152 -0.0310 -0.9761
vn 0.0466 0.0146 -0.9988
vn -0.2161 0.0094 -0.9763
vn 0.3651 -0.1749 -0.9144
vn 0.1883 -0.1076 -0.9762
vn 0.0698 -0.0848 -0.9939
vn 0.0043 -0.0435 -0.9990
vn 0.0997 0.0359 -0.9944
vn 0.1771 0.1142 -0.9775
vn -0.0331 0.1330 -0.9906
vn -0.3149 0.1091 -0.9428
vn 0.3646 0.0139 -0.9311
vn 0.2183 0.0833 -0.9723
vn 0.1201 0.1052 -0.9872
vn 0.0332 0.1392 -0.9897
vn 0.1230 0.1798 -0.9760
vn 0.1404 0.2102 -0.9675
vn -0.0887 0.2252 -0.9703
vn -0.3748 0.1897 -0.9075
vn 0.3454 0.2238 -0.9114
vn 0.2413 0.2915 -0.9256
vn 0.1734 0.3141 -0.9334
vn 0.0680 0.3010 -0.9512
vn 0.1653 0.2897 -0.9427
vn 0.1049 0.2711 -0.9568
vn -0.1381 0.2787 -0.9504
vn -0.4160 0.2637 -0.8703
vn 0.3078 0.4711 -0.8266
vn 0.2619 0.5309 -0.8059
vn 0.2337 0.5539 -0.7991
vn 0.1356 0.4733 -0.8704
vn 0.2283 0.4029 -0.8863
vn 0.0857 0.3337 -0.9388
vn -0.1799 0.3035 -0.9357
vn -0.4329 0.2851 -0.8551
vn 0.2562 0.7340 -0.6290
vn 0.2824 0.7719 -0.5696
vn 0.2939 0.7779 -0.5555
vn 0.2659 0.6650 -0.6979
vn 0.3119 0.5249 -0.7919
vn 0.1066 0.4291 -0.8969
vn -0.2028 0.3495 -0.9147
vn -0.4391 0.2976 -0.8477
vn -0.0101 -0.7619 -0.6477
vn 0.0283 -0.9519 -0.3050
vn 0.0437 -0.9839 -0.1731
vn 0.0765 -0.9944 -0.0727
vn 0.1140 -0.9923 -0.0490
vn 0.1477 -0.9852 -0.0865
vn 0.1987 -0.9726 -0.1207
vn 0.3332 -0.9423 0.0324
vn -0.3727 -0.4183 -0.8284
vn -0.4516 -0.7243 -0.5210
vn -0.4547 -0.8583 -0.2376
vn -0.4363 -0.8992 -0.0323
vn -0.4243 -0.9023 0.0762
vn -0.4060 -0.9048 0.1287
vn -0.3524 -0.9250 0.1420
vn -0.1415 -0.9236 0.3564
vn -0.4854 -0.1815 -0.8552
vn -0.6640 -0.4638 -0.5866
vn -0.7267 -0.6314 -0.2707
vn -0.7131 -0.7007 0.0234
vn -0.6850 -0.6884 0.2386
vn -0.6730 -0.6649 0.3240
vn -0.6378 -0.6803 0.3613
vn -0.4389 -0.6558 0.6143
vn -0.5340 0.0134 -0.8454
vn -0.7677 -0.1819 -0.6145
vn -0.8842 -0.3368 -0.3236
vn -0.8996 -0.4336 0.0517
vn -0.8278 -0.4397 0.3484
vn -0.7771 -0.4217 0.4671
vn -0.7342 -0.4127 0.5391
vn -0.5380 -0.3253 0.7776
vn -0.5847 0.1739 -0.7924
vn -0.7959 0.1438 -0.5881
vn -0.9369 0.0802 -0.3404
vn -0.9995 0.0005 0.0307
vn -0.9292 -0.0591 0.3647
vn -0.8220 -0.0817 0.5637
vn -0.7233 -0.0748 0.6864
vn -0.5492 -0.0031 0.8357
vn -0.6289 0.2706 -0.7289
vn -0.7887 0.3029 -0.5350
vn -0.8946 0.3093 -0.3225
vn -0.9629 0.2670 -0.0397
vn -0.9422 0.2085 0.2621
vn -0.8354 0.1713 0.5223
vn -0.7132 0.1390 0.6871
vn -0.5634 0.1266 0.8164
vn -0.6487 0.2966 -0.7009
vn -0.7840 0.3140 -0.5355
vn -0.8771 0.3117 -0.3655
vn -0.9421 0.3028 -0.1445
vn -0.9512 0.2799 0.1297
vn -0.8870 0.2370 0.3963
vn -0.7939 0.1822 0.5801
vn -0.6335 0.1519 0.7587
vn -0.6489 0.2769 -0.7087
vn -0.7660 0.2776 -0.5798
vn -0.8562 0.2827 -0.4325
vn -0.9237 0.2867 -0.2540
vn -0.9590 0.2821 -0.0269
vn -0.9424 0.2583 0.2123
vn -0.8673 0.2280 0.4426
vn -0.6908 0.2064 0.6930
vn 0.6359 -0.7033 0.3180
vn 0.7203 -0.5490 0.4240
vn 0.3025 -0.8122 0.4988
vn -0.1003 -0.8961 0.4324
vn -0.1958 -0.8913 0.4090
vn -0.2111 -0.8710 0.4437
vn -0.1121 -0.8703 0.4796
vn 0.0449 -0.8590 0.5101
vn 0.4035 -0.6255 0.6678
vn 0.6364 -0.3465 0.6892
vn 0.2972 -0.6043 0.7392
vn -0.1201 -0.7646 0.6333
vn -0.1611 -0.7972 0.5818
vn -0.1511 -0.7860 0.5995
vn -0.0342 -0.7694 0.6378
vn 0.1624 -0.7348 0.6586
vn 0.0721 -0.3534 0.9327
vn 0.3745 -0.0816 0.9236
vn 0.1731 -0.3186 0.9320
vn -0.1316 -0.5451 0.8280
vn -0.0988 -0.6085 0.7873
vn -0.0725 -0.6208 0.7806
vn 0.0513 -0.5987 0.7994
vn 0.2594 -0.5546 0.7906
vn -0.1576 -0.0360 0.9869
vn 0.1088 0.1263 0.9860
vn 0.0295 -0.0285 0.9992
vn -0.1176 -0.2147 0.9696
vn -0.0053 -0.2894 0.9572
vn 0.0211 -0.3490 0.9369
vn 0.1296 -0.3515 0.9272
vn 0.3206 -0.3198 0.8916
vn -0.2716 0.1340 0.9530
vn -0.0156 0.1936 0.9809
vn -0.0241 0.1550 0.9876
vn -0.0758 0.1164 0.9903
vn 0.0928 0.0984 0.9908
vn 0.1137 -0.0023 0.9935
vn 0.1867 -0.0393 0.9816
vn 0.3378 -0.0386 0.9404
vn -0.3190 0.1582 0.9345
vn -0.0484 0.2014 0.9783
vn 0.0127 0.2537 0.9672
vn -0.0021 0.3449 0.9386
vn 0.1608 0.4185 0.8939
vn 0.1916 0.3377 0.9216
vn 0.2171 0.2971 0.9298
vn 0.3051 0.2677 0.9139
vn -0.3498 0.1710 0.9211
vn -0.0196 0.2398 0.9706
vn 0.1021 0.3230 0.9409
vn 0.1275 0.4725 0.8721
vn 0.2012 0.6039 0.7712
vn 0.2536 0.5987 0.7598
vn 0.2304 0.5888 0.7748
vn 0.2315 0.5484 0.8035
vn -0.3243 0.2655 0.9079
vn 0.0704 0.3769 0.9236
vn 0.1964 0.4281 0.8821
vn 0.3193 0.5487 0.7727
vn 0.2616 0.6810 0.6839
vn 0.3047 0.7587 0.5758
vn 0.2519 0.7781 0.5755
vn 0.1581 0.7577 0.6331
vn 0.2021 -0.8809 0.4280
vn 0.2763 -0.9238 0.2651
vn 0.3317 -0.9387 0.0941
vn 0.3716 -0.9258 -0.0693
vn 0.3976 -0.8938 -0.2073
vn 0.4071 -0.8538 -0.3246
vn 0.3996 -0.8087 -0.4316
vn 0.3627 -0.7415 -0.5645
vn 0.3574 -0.7418 0.5674
vn 0.4756 -0.7979 0.3704
vn 0.5434 -0.8269 0.1446
vn 0.5632 -0.8234 -0.0690
vn 0.5518 -0.7991 -0.2385
vn 0.5310 -0.7591 -0.3765
vn 0.5079 -0.6978 -0.5050
vn 0.4569 -0.6066 -0.6506
vn 0.4732 -0.5505 0.6878
vn 0.6372 -0.6049 0.4775
vn 0.7275 -0.6499 0.2201
vn 0.7391 -0.6729 -0.0318
vn 0.7026 -0.6670 -0.2479
vn 0.6498 -0.6301 -0.4252
vn 0.5900 -0.5635 -0.5782
vn 0.5108 -0.4635 -0.7241
vn 0.5457 -0.3102 0.7784
vn 0.7455 -0.3443 0.5706
vn 0.8666 -0.3956 0.3041
vn 0.8951 -0.4456 0.0178
vn 0.8451 -0.4715 -0.2521
vn 0.7550 -0.4564 -0.4707
vn 0.6540 -0.3971 -0.6438
vn 0.5410 -0.2964 -0.7870
vn 0.5617 -0.0257 0.8269
vn 0.7720 -0.0185 0.6354
vn 0.9240 -0.0469 0.3795
vn 0.9920 -0.1020 0.0738
vn 0.9570 -0.1623 -0.2405
vn 0.8402 -0.1951 -0.5060
vn 0.6937 -0.1753 -0.6986
vn 0.5461 -0.1016 -0.8315
vn 0.5072 0.2850 0.8133
vn 0.6828 0.3468 0.6430
vn 0.8292 0.3705 0.4185
vn 0.9268 0.3513 0.1329
vn 0.9385 0.2892 -0.1889
vn 0.8460 0.2061 -0.4918
vn 0.6855 0.1465 -0.7132
vn 0.5213 0.1433 -0.8412
vn 0.3829 0.5759 0.7223
vn 0.4798 0.6668 0.5702
vn 0.5641 0.7263 0.3927
vn 0.6344 0.7530 0.1747
vn 0.6719 0.7361 -0.0824
vn 0.6510 0.6666 -0.3632
vn 0.5637 0.5543 -0.6123
vn 0.4448 0.4557 -0.7710
vn 0.2129 0.7948 0.5683
vn 0.2385 0.8643 0.4428
vn 0.2563 0.9129 0.3178
vn 0.2749 0.9437 0.1841
vn 0.2959 0.9547 0.0306
vn 0.3124 0.9372 -0.1552
vn 0.3136 0.8752 -0.3683
vn 0.2998 0.7707 -0.5622
vn 0.0010 -0.9347 0.3554
vn -0.1477 -0.9282 0.3415
vn -0.2474 -0.9179 0.3102
vn -0.2187 -0.9274 0.3034
vn -0.0839 -0.9421 0.3245
vn 0.2850 -0.8969 0.3383
vn 0.6652 -0.7251 0.1782
vn 0.6475 -0.7620 -0.0085
vn 0.0388 -0.9725 0.2295
vn -0.1394 -0.9620 0.2349
vn -0.2543 -0.9408 0.2241
vn -0.2406 -0.9453 0.2204
vn -0.0720 -0.9694 0.2345
vn 0.2866 -0.9329 0.2182
vn 0.5572 -0.8285 0.0565
vn 0.5379 -0.8350 -0.1159
vn 0.0781 -0.9917 0.1023
vn -0.1254 -0.9832 0.1326
vn -0.2522 -0.9567 0.1452
vn -0.2532 -0.9551 0.1536
vn -0.0723 -0.9812 0.1792
vn 0.2552 -0.9485 0.1879
vn 0.4198 -0.9051 0.0673
vn 0.4542 -0.8875 -0.0778
vn 0.1189 -0.9927 -0.0211
vn -0.1057 -0.9940 0.0297
vn -0.2440 -0.9678 0.0624
vn -0.2582 -0.9627 0.0805
vn -0.0673 -0.9883 0.1369
vn 0.2169 -0.9595 0.1796
vn 0.3207 -0.9431 0.0880
vn 0.3955 -0.9183 -0.0154
vn 0.1574 -0.9772 -0.1423
vn -0.0824 -0.9933 -0.0814
vn -0.2303 -0.9725 -0.0345
vn -0.2558 -0.9667 -0.0042
vn -0.0465 -0.9968 0.0648
vn 0.1951 -0.9743 0.1128
vn 0.2752 -0.9613 0.0125
vn 0.3712 -0.9268 -0.0565
vn 0.1858 -0.9457 -0.2668
vn -0.0592 -0.9755 -0.2119
vn -0.2110 -0.9641 -0.1611
vn -0.2416 -0.9633 -0.1173
vn -0.0216 -0.9973 -0.0705
vn 0.2118 -0.9773 -0.0100
vn 0.2399 -0.9689 -0.0608
vn 0.3618 -0.9266 -0.1024
vn 0.1890 -0.9003 -0.3921
vn -0.0408 -0.9284 -0.3694
vn -0.1860 -0.9246 -0.3324
vn -0.2086 -0.9338 -0.2909
vn -0.0043 -0.9622 -0.2722
vn 0.2684 -0.9300 -0.2510
vn 0.2767 -0.9327 -0.2312
vn 0.3544 -0.9224 -0.1534
vn 0.1576 -0.8338 -0.5291
vn -0.0372 -0.8380 -0.5444
vn -0.1534 -0.8295 -0.5370
vn -0.1543 -0.8384 -0.5228
vn 0.0162 -0.8453 -0.5341
vn 0.2900 -0.7859 -0.5461
vn 0.3507 -0.7536 -0.5560
vn 0.3697 -0.8177 -0.4413
vn 0.1996 0.9152 -0.3502
vn 0.2796 0.9115 -0.3018
vn 0.3395 0.8925 -0.2969
vn 0.4049 0.7733 -0.4880
vn 0.4105 0.6516 -0.6379
vn 0.1037 0.5580 -0.8233
vn -0.2924 0.4230 -0.8577
vn -0.5378 0.3395 -0.7717
vn 0.1379 0.9785 -0.1535
vn 0.2413 0.9654 -0.0986
vn 0.3638 0.9257 -0.1037
vn 0.4995 0.8145 -0.2953
vn 0.4753 0.7400 -0.4758
vn 0.0177 0.6755 -0.7372
vn -0.4558 0.4698 -0.7560
vn -0.6674 0.3458 -0.6595
vn 0.0930 0.9956 -0.0090
vn 0.2050 0.9783 0.0315
vn 0.3754 0.9266 0.0208
vn 0.5591 0.8159 -0.1475
vn 0.4955 0.8053 -0.3256
vn -0.0879 0.8007 -0.5926
vn -0.5724 0.5414 -0.6158
vn -0.7630 0.3618 -0.5356
vn 0.0685 0.9930 0.0964
vn 0.1809 0.9762 0.1199
vn 0.3826 0.9170 0.1131
vn 0.5925 0.8055 -0.0014
vn 0.4897 0.8573 -0.1586
vn -0.1715 0.9082 -0.3817
vn -0.6264 0.6516 -0.4278
vn -0.8371 0.3938 -0.3798
vn 0.0586 0.9815 0.1821
vn 0.1736 0.9666 0.1886
vn 0.3854 0.9030 0.1899
vn 0.5995 0.7887 0.1364
vn 0.4809 0.8762 0.0328
vn -0.1771 0.9792 -0.0989
vn -0.5957 0.7827 -0.1804
vn -0.8799 0.4421 -0.1739
vn 0.0598 0.9638 0.2600
vn 0.1853 0.9495 0.2533
vn 0.3817 0.8866 0.2612
vn 0.5773 0.7688 0.2751
vn 0.4864 0.8410 0.2372
vn -0.0779 0.9727 0.2186
vn -0.4463 0.8846 0.1352
vn -0.8638 0.4953 0.0923
vn 0.0727 0.9363 0.3436
vn 0.2151 0.9179 0.3335
vn 0.3692 0.8659 0.3376
vn 0.5061 0.7412 0.4410
vn 0.4987 0.7444 0.4440
vn 0.0863 0.8509 0.5182
vn -0.1892 0.8553 0.4823
vn -0.7345 0.5269 0.4276
vn 0.1073 0.8917 0.4396
vn 0.2523 0.8628 0.4382
vn 0.3437 0.8301 0.4390
vn 0.3747 0.7020 0.6057
vn 0.4639 0.6246 0.6282
vn 0.2137 0.6251 0.7507
vn 0.0592 0.6476 0.7597
vn -0.4465 0.4737 0.7591
vn -0.9867 -0.0673 0.1483
vn 0.9627 0.0128 -0.2702
vn -0.9792 -0.0691 -0.1908
vn 0.9917 0.0319 -0.1245
vn -0.8989 -0.0877 -0.4292
vn 0.9984 0.0482 0.0296
vn -0.7981 -0.0973 -0.5947
vn 0.9901 0.0482 0.1321
vn -0.6959 -0.1058 -0.7103
vn 0.9586 0.0319 0.2831
vn -0.5966 -0.1152 -0.7942
vn 0.9064 0.0128 0.4222
vn -0.4765 -0.1263 -0.8700
vn -0.2194 -0.1393 0.9656
vn 0.8308 -0.0105 0.5565
vn -0.2999 -0.1365 -0.9441
vn -0.4485 -0.1365 0.8833
vn 0.7237 -0.0380 0.6891
vn -0.0605 -0.1393 -0.9884
vn -0.6112 -0.1262 0.7814
vn 0.5694 -0.0693 0.8192
vn 0.2279 -0.1278 -0.9653
vn -0.7328 -0.1133 0.6709
vn 0.3495 -0.1017 0.9314
vn 0.4954 -0.1017 -0.8627
vn -0.8321 -0.0995 0.5457
vn 0.0689 -0.1278 0.9894
vn 0.6942 -0.0693 -0.7164
vn -0.9028 -0.0876 0.4210
vn 0.8255 -0.0380 -0.5631
vn -0.9563 -0.0785 0.2818
vn 0.9098 -0.0105 -0.4150
vn 0.1669 0.0900 -0.9818
vn 0.6169 -0.0136 -0.7869
vn 0.6273 -0.0304 -0.7782
vn 0.7379 -0.1336 -0.6616
vn 0.8690 -0.2306 -0.4377
vn 0.9299 -0.2811 -0.2373
vn 0.9506 -0.3001 -0.0790
vn 0.9516 -0.3031 0.0503
vn 0.9395 -0.2994 0.1664
vn 0.9119 -0.2886 0.2919
vn 0.8589 -0.2613 0.4405
vn 0.7589 -0.2029 0.6188
vn 0.5892 -0.1015 0.8016
vn 0.4630 0.0024 0.8864
vn 0.4546 0.0224 0.8904
vn -0.0483 0.1833 0.9819
vn -0.6403 -0.6621 0.3896
vn -0.6445 -0.6492 0.4040
vn -0.6571 -0.6375 0.4023
vn -0.7040 -0.6106 0.3626
vn -0.9134 -0.3756 0.1566
vn -0.7853 0.6091 -0.1112
vn -0.3845 0.9231 0.0047
vn -0.2095 0.9774 0.0276
vn -0.1902 0.9777 -0.0887
vn -0.3373 0.9307 -0.1417
vn -0.5352 0.8436 -0.0428
vn -0.8529 0.5211 -0.0319
vn -0.8974 -0.2919 -0.3309
vn -0.7193 -0.5499 -0.4245
vn 0.6953 0.5868 0.4151
vn -0.6753 -0.6031 -0.4245
vn -0.7181 -0.6227 -0.3107
vn 0.9371 -0.2435 -0.2500
vn -0.7325 -0.6418 -0.2270
vn -0.4087 0.0613 -0.9106
vn -0.9424 -0.3164 0.1089
vn 0.7456 0.5377 -0.3936
vn 0.3568 0.1984 0.9129
vn -0.8718 -0.3840 0.3041
vn 0.5301 0.1695 -0.8308
vn 0.6343 0.5413 0.5520
vn -0.8043 -0.2195 -0.5522
vn -0.8730 -0.4875 -0.0101
vn 0.7743 0.5867 -0.2373
vn 0.1279 -0.0555 0.9902
vn -0.8683 -0.3790 -0.3202
vn 0.5825 0.2561 -0.7714
vn 0.5865 0.4966 0.6399
vn -0.9046 -0.2309 -0.3583
vn -0.8305 -0.4253 0.3598
vn 0.7825 0.6222 -0.0215
vn -0.6824 -0.3016 -0.6659
vn -0.9367 -0.2282 -0.2657
vn 0.6815 0.4098 -0.6063
vn 0.5324 0.4238 0.7327
vn -0.8638 0.0515 -0.5012
vn -0.8155 -0.5164 0.2615
vn 0.7533 0.6217 0.2148
vn -0.7378 -0.3273 -0.5904
vn -0.9696 -0.0624 0.2366
vn 0.7171 0.4884 -0.4972
vn 0.4120 0.2787 0.8675
vn 0.2834 -0.0014 -0.9590
vn -0.9508 -0.0438 -0.3068
vn -0.7781 -0.4748 0.4112
vn 0.4089 -0.1059 0.9064
vn -0.9995 0.0111 -0.0300
vn 0.5617 -0.1351 -0.8163
vn 0.8733 -0.2232 0.4331
vn -0.8395 -0.3592 0.4077
vn -0.7835 -0.2817 -0.5539
vn 0.9633 -0.2454 -0.1090
vn -0.0331 -0.1237 0.9918
vn -0.9751 0.0315 -0.2194
vn 0.7044 -0.1337 -0.6971
vn 0.7911 -0.1952 0.5797
vn -0.9318 -0.1962 0.3055
vn -0.6315 -0.4248 -0.6487
vn 0.9702 -0.2404 0.0295
vn -0.3617 -0.4227 0.8310
vn -0.9261 0.0463 -0.3745
vn 0.7904 -0.1721 -0.5878
vn 0.6670 -0.1412 0.7315
vn -0.9657 -0.0638 0.2519
vn -0.4513 -0.4829 -0.7504
vn 0.9572 -0.2361 0.1675
vn -0.5592 -0.5010 0.6605
vn -0.9045 0.0147 -0.4263
vn 0.8838 -0.2220 -0.4119
vn 0.5635 -0.1010 0.8199
vn -0.9842 -0.0100 0.1770
vn 0.1491 -0.1380 -0.9791
vn -0.2111 -0.4209 -0.8822
vn 0.9247 -0.2327 0.3013
vn -0.7066 -0.4697 0.5293
vn -0.8725 -0.1069 -0.4768
vn 0.1262 -0.0174 -0.9919
vn 0.6375 0.1146 0.7619
vn -0.7112 -0.6797 0.1794
vn 0.7427 0.2180 0.6331
vn -0.6947 -0.6919 0.1964
vn 0.6060 0.0914 0.7902
vn 0.2521 -0.3362 -0.9074
vn -0.7071 -0.7071 -0.0005
vn 0.3140 -0.1224 0.9415
vn 0.4647 -0.2417 -0.8518
vn -0.6867 -0.6764 -0.2662
vn 0.1554 -0.1865 0.9701
vn 0.7818 0.0247 -0.6231
vn -0.5820 -0.5999 -0.5490
vn -0.0396 -0.2117 0.9765
vn 0.9065 0.2322 -0.3526
vn -0.3795 -0.4917 -0.7837
vn -0.1016 -0.2443 0.9644
vn 0.8473 0.1238 -0.5165
vn -0.0780 -0.3753 -0.9236
vn -0.2040 -0.3132 0.9275
vn 0.8033 0.0456 -0.5939
vn -0.4927 -0.5366 0.6851
vn 0.8725 0.0600 -0.4848
vn -0.7032 -0.7020 0.1127
vn 0.9864 0.1083 -0.1239
vn -0.6919 -0.6698 -0.2695
vn 0.9101 0.1086 0.3999
vn -0.6550 -0.6197 -0.4323
vn 0.6941 0.0637 0.7170
vn -0.7292 -0.6724 -0.1267
vn 0.6016 0.0568 0.7968
vn 0.4016 0.0777 0.9125
vn -0.8684 -0.3532 -0.3480
vn -0.1282 0.0161 0.9916
vn 0.1616 -0.0070 -0.9868
vn -0.7461 -0.2666 -0.6101
vn -0.2663 0.0614 0.9619
vn 0.3398 0.1488 -0.9287
vn -0.5271 -0.1637 -0.8339
vn -0.4339 0.0857 0.8969
vn 0.6035 0.3459 -0.7185
vn -0.2296 -0.0599 -0.9714
vn -0.5970 0.0774 0.7985
vn 0.6965 0.4447 -0.5631
vn -0.8006 -0.0333 0.5983
vn 0.7423 0.5272 -0.4136
vn -0.9488 -0.2122 0.2338
vn 0.8072 0.5781 -0.1196
vn -0.9378 -0.3321 -0.1010
vn 0.7684 0.5597 0.3103
vn -0.8813 -0.3971 -0.2560
vn 0.6251 0.4647 0.6271
vn -0.8629 -0.4534 -0.2234
vn 0.5562 0.3437 0.7566
vn -0.8719 -0.4839 -0.0753
vn 0.4789 0.2308 0.8470
vn -0.8869 -0.4542 0.0843
vn 0.3322 0.1384 0.9330
vn -0.9034 -0.4183 0.0941
vn 0.1152 0.0254 0.9930
vn -0.0205 -0.0335 -0.9992
vn -0.9097 -0.4007 -0.1093
vn -0.0262 -0.0169 0.9995
vn 0.9485 -0.1388 0.2848
vn -0.9308 0.0053 -0.3655
vn -0.9325 0.3611 -0.0037
vn 0.9063 -0.1130 0.4073
vn -0.9180 0.3619 -0.1622
vn 0.8387 -0.0798 0.5387
vn -0.8835 0.3572 -0.3029
vn 0.7261 -0.0386 0.6865
vn -0.8434 0.3511 -0.4067
vn 0.5342 0.0167 0.8452
vn 0.0498 0.1722 -0.9838
vn -0.8003 0.3447 -0.4906
vn 0.2374 0.0909 0.9671
vn 0.4034 0.0855 -0.9110
vn -0.7442 0.3355 -0.5776
vn -0.1218 0.1725 0.9775
vn 0.6752 0.0083 -0.7376
vn -0.6528 0.3185 -0.6873
vn -0.4358 0.2393 0.8677
vn 0.8362 -0.0475 -0.5464
vn -0.5056 0.2895 -0.8127
vn -0.6408 0.2827 0.7138
vn 0.9207 -0.0876 -0.3804
vn -0.2785 0.2435 -0.9291
vn -0.7652 0.3111 0.5636
vn 0.9638 -0.1189 -0.2388
vn -0.8366 0.3286 0.4382
vn 0.9836 -0.1425 -0.1107
vn -0.8765 0.3392 0.3417
vn 0.9875 -0.1560 0.0212
vn -0.9037 0.3471 0.2508
vn 0.9756 -0.1547 0.1558
vn -0.9242 0.3548 0.1411
vn 0.6857 -0.1155 0.7187
vn -0.8628 -0.0334 -0.5044
vn 0.4677 -0.1921 0.8628
vn 0.0184 -0.2663 -0.9637
vn -0.7899 -0.0840 -0.6075
vn 0.1684 -0.2480 0.9540
vn 0.3313 -0.2459 -0.9109
vn -0.7091 -0.1369 -0.6917
vn -0.1490 -0.2685 0.9517
vn 0.6103 -0.1902 -0.7690
vn -0.6078 -0.1833 -0.7727
vn -0.4162 -0.2560 0.8725
vn 0.8000 -0.1139 -0.5891
vn -0.4629 -0.2227 -0.8580
vn -0.6046 -0.2246 0.7642
vn 0.9073 -0.0334 -0.4192
vn -0.2586 -0.2539 -0.9320
vn -0.7356 -0.1859 0.6514
vn 0.9622 0.0405 -0.2693
vn -0.8274 -0.1452 0.5425
vn 0.9866 0.0981 -0.1301
vn -0.8889 -0.1045 0.4461
vn 0.9914 0.1306 0.0128
vn -0.9349 -0.0616 0.3496
vn 0.9785 0.1304 0.1596
vn -0.9763 -0.0178 0.2158
vn 0.9491 0.0976 0.2995
vn -0.9994 0.0144 0.0302
vn 0.9009 0.0397 0.4322
vn -0.9837 0.0232 -0.1785
vn 0.8208 -0.0345 0.5701
vn -0.2374 0.9714 0.0058
vn -0.9717 -0.0547 -0.2300
vn 0.0656 0.0364 0.9972
vn -0.5193 0.1395 -0.8431
vn -0.9095 -0.0334 -0.4143
vn -0.3498 0.0210 0.9366
vn -0.2211 0.1613 -0.9618
vn -0.8409 0.0006 -0.5411
vn -0.5989 0.0342 0.8001
vn 0.2151 0.1789 -0.9601
vn -0.8114 0.0443 -0.5828
vn -0.7168 0.0472 0.6957
vn 0.5243 0.1937 -0.8292
vn -0.7646 0.0897 -0.6382
vn -0.7562 0.0454 0.6527
vn 0.7218 0.2219 -0.6556
vn -0.6447 0.1247 -0.7542
vn -0.7421 0.0398 0.6691
vn 0.8054 0.2588 -0.5332
vn -0.7750 0.0258 0.6315
vn 0.8741 0.3073 -0.3762
vn -0.8849 -0.0047 0.4657
vn 0.9291 0.3602 -0.0835
vn -0.9768 -0.0425 0.2101
vn 0.8982 0.3524 0.2626
vn -0.9972 -0.0667 0.0324
vn 0.7942 0.2789 0.5399
vn -0.9959 -0.0766 -0.0474
vn 0.7176 0.2059 0.6653
vn -0.9941 -0.0759 -0.0778
vn 0.6263 0.1401 0.7669
vn -0.9906 -0.0678 -0.1188
vn -0.0775 0.9948 -0.0664
vn 0.3215 0.9426 -0.0898
vn -0.7186 -0.1166 0.6855
vn -0.1447 0.9859 -0.0836
vn -0.2220 0.0776 -0.9720
vn -0.8689 -0.0779 0.4889
vn -0.0722 -0.2016 0.9768
vn -0.7900 -0.0762 0.6083
vn -0.7038 -0.0230 0.7100
vn -0.6709 -0.1126 -0.7329
vn -0.5808 0.0115 0.8139
vn -0.4099 0.0965 0.9070
vn -0.1781 0.2062 0.9622
vn -0.4333 -0.0078 -0.9012
vn -0.5891 -0.0182 0.8079
vn -0.9639 -0.2557 0.0744
vn -0.5848 -0.0836 -0.8069
vn -0.9477 -0.2263 0.2251
vn -0.7754 -0.3128 -0.5485
vn -0.8741 -0.2815 -0.3958
vn -0.9498 -0.2603 -0.1735
vn -0.9123 -0.2290 -0.3396
vn -0.5764 -0.5359 -0.6169
vn -0.2783 -0.3926 -0.8766
vn -0.7425 -0.1276 -0.6576
vn -0.9220 -0.2679 0.2794
vn 0.0869 0.2924 0.9523
vn -0.8664 -0.2896 0.4068
vn 0.0133 0.1678 -0.9857
vn -0.5957 -0.4177 0.6860
vn -0.4397 -0.0376 -0.8974
vn -0.7136 -0.1110 -0.6917
vn -0.3857 0.1018 0.9170
vn -0.6264 -0.6063 -0.4899
vn 0.3142 0.9452 -0.0887
vn 0.2702 0.2625 -0.9263
vn -0.5751 -0.0385 -0.8172
vn 0.2433 -0.0737 0.9671
vn -0.6502 -0.0828 -0.7553
vn -0.3409 -0.4513 -0.8247
vn -0.6654 -0.4965 0.5575
vn 0.0675 0.9977 -0.0077
vn 0.4484 0.3632 -0.8167
vn -0.4877 -0.4075 0.7720
vn -0.8086 -0.1195 0.5761
vn 0.0650 0.9977 0.0216
vn -0.6962 -0.4907 0.5239
vn -0.4325 -0.4591 -0.7760
vn -0.5132 -0.5457 -0.6624
vn -0.8629 -0.1385 0.4860
vn -0.0970 0.2183 0.9710
vn -0.5653 -0.6305 -0.5318
vn -0.7426 -0.6208 0.2512
vn -0.6430 -0.6695 -0.3719
vn -0.7336 -0.5580 0.3878
vn -0.5178 -0.8547 0.0372
vn -0.4731 -0.8730 -0.1186
vn -0.5729 0.7731 -0.2721
vn -0.5808 0.7983 0.1593
vn -0.5118 -0.8579 -0.0457
vn -0.1539 0.9880 -0.0123
vn -0.1870 0.9822 -0.0152
vn -0.7060 -0.5718 0.4178
vt 0.000000 0.000000
vt 0.781250 0.500000
vt 0.750000 0.500000
vt 0.343750 0.500000
vt 0.312500 0.500000
vt 0.718750 0.500000
vt 0.281250 0.500000
vt 0.687500 0.500000
vt 0.250000 0.500000
vt 0.656250 0.500000
vt 0.218750 0.500000
vt 0.625000 0.500000
vt 0.187500 0.500000
vt 0.593750 0.500000
vt 0.156250 0.500000
vt 0.562500 0.500000
vt 1.000000 0.500000
vt 0.968750 0.500000
vt 0.125000 0.500000
vt 0.531250 0.500000
vt 0.937500 0.500000
vt 0.093750 0.500000
vt 0.500000 0.500000
vt 0.906250 0.500000
vt 0.062500 0.500000
vt 0.468750 0.500000
vt 0.875000 0.500000
vt 0.031250 0.500000
vt 0.437500 0.500000
vt 0.843750 0.500000
vt 0.000000 0.500000
vt 0.406250 0.500000
vt 0.812500 0.500000
vt 0.375000 0.500000
vt 1.000000 1.000000
vt 0.968750 1.000000
vt 0.937500 1.000000
vt 0.906250 1.000000
vt 0.875000 1.000000
vt 0.843750 1.000000
vt 0.812500 1.000000
vt 0.781250 1.000000
vt 0.750000 1.000000
vt 0.718750 1.000000
vt 0.687500 1.000000
vt 0.656250 1.000000
vt 0.625000 1.000000
vt 0.593750 1.000000
vt 0.562500 1.000000
vt 0.531250 1.000000
vt 0.500000 1.000000
vt 0.468750 1.000000
vt 0.437500 1.000000
vt 0.406250 1.000000
vt 0.375000 1.000000
vt 0.343750 1.000000
vt 0.312500 1.000000
vt 0.281250 1.000000
vt 0.250000 1.000000
vt 0.218750 1.000000
vt 0.187500 1.000000
vt 0.156250 1.000000
vt 0.125000 1.000000
vt 0.093750 1.000000
vt 0.062500 1.000000
vt 0.031250 1.000000
vt 0.000000 1.000000
vt 0.296822 0.485388
vt 0.250000 0.490000
vt 0.203178 0.485388
vt 0.158156 0.471731
vt 0.116663 0.449553
vt 0.080294 0.419706
vt 0.050447 0.383337
vt 0.028269 0.341844
vt 0.014612 0.296822
vt 0.010000 0.250000
vt 0.014612 0.203178
vt 0.028269 0.158156
vt 0.050447 0.116663
vt 0.080294 0.080294
vt 0.116663 0.050447
vt 0.158156 0.028269
vt 0.203178 0.014612
vt 0.250000 0.010000
vt 0.296822 0.014612
vt 0.341844 0.028269
vt 0.383337 0.050447
vt 0.419706 0.080294
vt 0.449553 0.116663
vt 0.471731 0.158156
vt 0.485388 0.203178
vt 0.490000 0.250000
vt 0.485388 0.296822
vt 0.471731 0.341844
vt 0.449553 0.383337
vt 0.419706 0.419706
vt 0.383337 0.449553
vt 0.341844 0.471731
s 0
f 1/1/1 2/1/1 10/1/1 9/1/1
f 2/1/2 3/1/2 11/1/2 10/1/2
f 3/1/3 4/1/3 12/1/3 11/1/3
f 4/1/4 5/1/4 13/1/4 12/1/4
f 5/1/5 6/1/5 14/1/5 13/1/5
f 6/1/6 7/1/6 15/1/6 14/1/6
f 7/1/7 8/1/7 16/1/7 15/1/7
f 8/1/8 65/1/8 73/1/8 16/1/8
f 9/1/9 10/1/9 18/1/9 17/1/9
f 10/1/10 11/1/10 19/1/10 18/1/10
f 11/1/11 12/1/11 20/1/11 19/1/11
f 12/1/12 13/1/12 21/1/12 20/1/12
f 13/1/13 14/1/13 22/1/13 21/1/13
f 14/1/14 15/1/14 23/1/14 22/1/14
f 15/1/15 16/1/15 24/1/15 23/1/15
f 16/1/16 73/1/16 81/1/16 24/1/16
f 17/1/17 18/1/17 26/1/17 25/1/17
f 18/1/18 19/1/18 27/1/18 26/1/18
f 19/1/19 20/1/19 28/1/19 27/1/19
f 20/1/20 21/1/20 29/1/20 28/1/20
f 21/1/21 22/1/21 30/1/21 29/1/21
f 22/1/22 23/1/22 31/1/22 30/1/22
f 23/1/23 24/1/23 32/1/23 31/1/23
f 24/1/24 81/1/24 89/1/24 32/1/24
f 25/1/25 26/1/25 34/1/25 33/1/25
f 26/1/26 27/1/26 35/1/26 34/1/26
f 27/1/27 28/1/27 36/1/27 35/1/27
f 28/1/28 29/1/28 37/1/28 36/1/28
f 29/1/29 30/1/29 38/1/29 37/1/29
f 30/1/30 31/1/30 39/1/30 38/1/30
f 31/1/31 32/1/31 40/1/31 39/1/31
f 32/1/32 89/1/32 97/1/32 40/1/32
f 33/1/33 34/1/33 42/1/33 41/1/33
f 34/1/34 35/1/34 43/1/34 42/1/34
f 35/1/35 36/1/35 44/1/35 43/1/35
f 36/1/36 37/1/36 45/1/36 44/1/36
f 37/1/37 38/1/37 46/1/37 45/1/37
f 38/1/38 39/1/38 47/1/38 46/1/38
f 39/1/39 40/1/39 48/1/39 47/1/39
f 40/1/40 97/1/40 105/1/40 48/1/40
f 41/1/41 42/1/41 50/1/41 49/1/41
f 42/1/42 43/1/42 51/1/42 50/1/42
f 43/1/43 44/1/43 52/1/43 51/1/43
f 44/1/44 45/1/44 53/1/44 52/1/44
f 45/1/45 46/1/45 54/1/45 53/1/45
f 46/1/46 47/1/46 55/1/46 54/1/46
f 47/1/47 48/1/47 56/1/47 55/1/47
f 48/1/48 105/1/48 113/1/48 56/1/48
f 49/1/49 50/1/49 58/1/49 57/1/49
f 50/1/50 51/1/50 59/1/50 58/1/50
f 51/1/51 52/1/51 60/1/51 59/1/51
f 52/1/52 53/1/52 61/1/52 60/1/52
f 53/1/53 54/1/53 62/1/53 61/1/53
f 54/1/54 55/1/54 63/1/54 62/1/54
f 55/1/55 56/1/55 64/1/55 63/1/55
f 56/1/56 113/1/56 121/1/56 64/1/56
f 57/1/57 58/1/57 307/1/57 306/1/57
f 58/1/58 59/1/58 308/1/58 307/1/58
f 59/1/59 60/1/59 309/1/59 308/1/59
f 60/1/60 61/1/60 310/1/60 309/1/60
f 61/1/61 62/1/61 311/1/61 310/1/61
f 62/1/62 63/1/62 312/1/62 311/1/62
f 63/1/63 64/1/63 313/1/63 312/1/63
f 64/1/64 121/1/64 314/1/64 313/1/64
f 65/1/65 66/1/65 74/1/65 73/1/65
f 66/1/66 67/1/66 75/1/66 74/1/66
f 67/1/67 68/1/67 76/1/67 75/1/67
f 68/1/68 69/1/68 77/1/68 76/1/68
f 69/1/69 70/1/69 78/1/69 77/1/69
f 70/1/70 71/1/70 79/1/70 78/1/70
f 71/1/71 72/1/71 80/1/71 79/1/71
f 72/1/72 129/1/72 137/1/72 80/1/72
f 73/1/73 74/1/73 82/1/73 81/1/73
f 74/1/74 75/1/74 83/1/74 82/1/74
f 75/1/75 76/1/75 84/1/75 83/1/75
f 76/1/76 77/1/76 85/1/76 84/1/76
f 77/1/77 78/1/77 86/1/77 85/1/77
f 78/1/78 79/1/78 87/1/78 86/1/78
f 79/1/79 80/1/79 88/1/79 87/1/79
f 80/1/80 137/1/80 145/1/80 88/1/80
f 81/1/81 82/1/81 90/1/81 89/1/81
f 82/1/82 83/1/82 91/1/82 90/1/82
f 83/1/83 84/1/83 92/1/83 91/1/83
f 84/1/84 85/1/84 93/1/84 92/1/84
f 85/1/85 86/1/85 94/1/85 93/1/85
f 86/1/86 87/1/86 95/1/86 94/1/86
f 87/1/87 88/1/87 96/1/87 95/1/87
f 88/1/88 145/1/88 153/1/88 96/1/88
f 89/1/89 90/1/89 98/1/89 97/1/89
f 90/1/90 91/1/90 99/1/90 98/1/90
f 91/1/91 92/1/91 100/1/91 99/1/91
f 92/1/92 93/1/92 101/1/92 100/1/92
f 93/1/93 94/1/93 102/1/93 101/1/93
f 94/1/94 95/1/94 103/1/94 102/1/94
f 95/1/95 96/1/95 104/1/95 103/1/95
f 96/1/96 153/1/96 161/1/96 104/1/96
f 97/1/97 98/1/97 106/1/97 105/1/97
f 98/1/98 99/1/98 107/1/98 106/1/98
f 99/1/99 100/1/99 108/1/99 107/1/99
f 100/1/100 101/1/100 109/1/100 108/1/100
f 101/1/101 102/1/101 110/1/101 109/1/101
f 102/1/102 103/1/102 111/1/102 110/1/102
f 103/1/103 104/1/103 112/1/103 111/1/103
f 104/1/104 161/1/104 169/1/104 112/1/104
f 105/1/105 106/1/105 114/1/105 113/1/105
f 106/1/106 107/1/106 115/1/106 114/1/106
f 107/1/107 108/1/107 116/1/107 115/1/107
f 108/1/108 109/1/108 117/1/108 116/1/108
f 109/1/109 110/1/109 118/1/109 117/1/109
f 110/1/110 111/1/110 119/1/110 118/1/110
f 111/1/111 112/1/111 120/1/111 119/1/111
f 112/1/112 169/1/112 177/1/112 120/1/112
f 113/1/113 114/1/113 122/1/113 121/1/113
f 114/1/114 115/1/114 123/1/114 122/1/114
f 115/1/115 116/1/115 124/1/115 123/1/115
f 116/1/116 117/1/116 125/1/116 124/1/116
f 117/1/117 118/1/117 126/1/117 125/1/117
f 118/1/118 119/1/118 127/1/118 126/1/118
f 119/1/119 120/1/119 128/1/119 127/1/119
f 120/1/120 177/1/120 185/1/120 128/1/120
f 121/1/121 122/1/121 323/1/121 314/1/121
f 122/1/122 123/1/122 332/1/122 323/1/122
f 123/1/123 124/1/123 341/1/123 332/1/123
f 124/1/124 125/1/124 350/1/124 341/1/124
f 125/1/125 126/1/125 359/1/125 350/1/125
f 126/1/126 127/1/126 368/1/126 359/1/126
f 127/1/127 128/1/127 377/1/127 368/1/127
f 128/1/128 185/1/128 386/1/128 377/1/128
f 129/1/129 130/1/129 138/1/129 137/1/129
f 130/1/130 131/1/130 139/1/130 138/1/130
f 131/1/131 132/1/131 140/1/131 139/1/131
f 132/1/132 133/1/132 141/1/132 140/1/132
f 133/1/133 134/1/133 142/1/133 141/1/133
f 134/1/134 135/1/134 143/1/134 142/1/134
f 135/1/135 136/1/135 144/1/135 143/1/135
f 136/1/136 193/1/136 201/1/136 144/1/136
f 137/1/137 138/1/137 146/1/137 145/1/137
f 138/1/138 139/1/138 147/1/138 146/1/138
f 139/1/139 140/1/139 148/1/139 147/1/139
f 140/1/140 141/1/140 149/1/140 148/1/140
f 141/1/141 142/1/141 150/1/141 149/1/141
f 142/1/142 143/1/142 151/1/142 150/1/142
f 143/1/143 144/1/143 152/1/143 151/1/143
f 144/1/144 201/1/144 209/1/144 152/1/144
f 145/1/145 146/1/145 154/1/145 153/1/145
f 146/1/146 147/1/146 155/1/146 154/1/146
f 147/1/147 148/1/147 156/1/147 155/1/147
f 148/1/148 149/1/148 157/1/148 156/1/148
f 149/1/149 150/1/149 158/1/149 157/1/149
f 150/1/150 151/1/150 159/1/150 158/1/150
f 151/1/151 152/1/151 160/1/151 159/1/151
f 152/1/152 209/1/152 217/1/152 160/1/152
f 153/1/153 154/1/153 162/1/153 161/1/153
f 154/1/154 155/1/154 163/1/154 162/1/154
f 155/1/155 156/1/155 164/1/155 163/1/155
f 156/1/156 157/1/156 165/1/156 164/1/156
f 157/1/157 158/1/157 166/1/157 165/1/157
f 158/1/158 159/1/158 167/1/158 166/1/158
f 159/1/159 160/1/159 168/1/159 167/1/159
f 160/1/160 217/1/160 225/1/160 168/1/160
f 161/1/161 162/1/161 170/1/161 169/1/161
f 162/1/162 163/1/162 171/1/162 170/1/162
f 163/1/163 164/1/163 172/1/163 171/1/163
f 164/1/164 165/1/164 173/1/164 172/1/164
f 165/1/165 166/1/165 174/1/165 173/1/165
f 166/1/166 167/1/166 175/1/166 174/1/166
f 167/1/167 168/1/167 176/1/167 175/1/167
f 168/1/168 225/1/168 233/1/168 176/1/168
f 169/1/169 170/1/169 178/1/169 177/1/169
f 170/1/170 171/1/170 179/1/170 178/1/170
f 171/1/171 172/1/171 180/1/171 179/1/171
f 172/1/172 173/1/172 181/1/172 180/1/172
f 173/1/173 174/1/173 182/1/173 181/1/173
f 174/1/174 175/1/174 183/1/174 182/1/174
f 175/1/175 176/1/175 184/1/175 183/1/175
f 176/1/176 233/1/176 241/1/176 184/1/176
f 177/1/177 178/1/177 186/1/177 185/1/177
f 178/1/178 179/1/178 187/1/178 186/1/178
f 179/1/179 180/1/179 188/1/179 187/1/179
f 180/1/180 181/1/180 189/1/180 188/1/180
f 181/1/181 182/1/181 190/1/181 189/1/181
f 182/1/182 183/1/182 191/1/182 190/1/182
f 183/1/183 184/1/183 192/1/183 191/1/183
f 184/1/184 241/1/184 249/1/184 192/1/184
f 185/1/185 186/1/185 385/1/185 386/1/185
f 186/1/186 187/1/186 384/1/186 385/1/186
f 187/1/187 188/1/187 383/1/187 384/1/187
f 188/1/188 189/1/188 382/1/188 383/1/188
f 189/1/189 190/1/189 381/1/189 382/1/189
f 190/1/190 191/1/190 380/1/190 381/1/190
f 191/1/191 192/1/191 379/1/191 380/1/191
f 192/1/192 249/1/192 378/1/192 379/1/192
f 193/1/193 194/1/193 202/1/193 201/1/193
f 194/1/194 195/1/194 203/1/194 202/1/194
f 195/1/195 196/1/195 204/1/195 203/1/195
f 196/1/196 197/1/196 205/1/196 204/1/196
f 197/1/197 198/1/197 206/1/197 205/1/197
f 198/1/198 199/1/198 207/1/198 206/1/198
f 199/1/199 200/1/199 208/1/199 207/1/199
f 200/1/200 1/1/200 9/1/200 208/1/200
f 201/1/201 202/1/201 210/1/201 209/1/201
f 202/1/202 203/1/202 211/1/202 210/1/202
f 203/1/203 204/1/203 212/1/203 211/1/203
f 204/1/204 205/1/204 213/1/204 212/1/204
f 205/1/205 206/1/205 214/1/205 213/1/205
f 206/1/206 207/1/206 215/1/206 214/1/206
f 207/1/207 208/1/207 216/1/207 215/1/207
f 208/1/208 9/1/208 17/1/208 216/1/208
f 209/1/209 210/1/209 218/1/209 217/1/209
f 210/1/210 211/1/210 219/1/210 218/1/210
f 211/1/211 212/1/211 220/1/211 219/1/211
f 212/1/212 213/1/212 221/1/212 220/1/212
f 213/1/213 214/1/213 222/1/213 221/1/213
f 214/1/214 215/1/214 223/1/214 222/1/214
f 215/1/215 216/1/215 224/1/215 223/1/215
f 216/1/216 17/1/216 25/1/216 224/1/216
f 217/1/217 218/1/217 226/1/217 225/1/217
f 218/1/218 219/1/218 227/1/218 226/1/218
f 219/1/219 220/1/219 228/1/219 227/1/219
f 220/1/220 221/1/220 229/1/220 228/1/220
f 221/1/221 222/1/221 230/1/221 229/1/221
f 222/1/222 223/1/222 231/1/222 230/1/222
f 223/1/223 224/1/223 232/1/223 231/1/223
f 224/1/224 25/1/224 33/1/224 232/1/224
f 225/1/225 226/1/225 234/1/225 233/1/225
f 226/1/226 227/1/226 235/1/226 234/1/226
f 227/1/227 228/1/227 236/1/227 235/1/227
f 228/1/228 229/1/228 237/1/228 236/1/228
f 229/1/229 230/1/229 238/1/229 237/1/229
f 230/1/230 231/1/230 239/1/230 238/1/230
f 231/1/231 232/1/231 240/1/231 239/1/231
f 232/1/232 33/1/232 41/1/232 240/1/232
f 233/1/233 234/1/233 242/1/233 241/1/233
f 234/1/234 235/1/234 243/1/234 242/1/234
f 235/1/235 236/1/235 244/1/235 243/1/235
f 236/1/236 237/1/236 245/1/236 244/1/236
f 237/1/237 238/1/237 246/1/237 245/1/237
f 238/1/238 239/1/238 247/1/238 246/1/238
f 239/1/239 240/1/239 248/1/239 247/1/239
f 240/1/240 41/1/240 49/1/240 248/1/240
f 241/1/241 242/1/241 250/1/241 249/1/241
f 242/1/242 243/1/242 251/1/242 250/1/242
f 243/1/243 244/1/243 252/1/243 251/1/243
f 244/1/244 245/1/244 253/1/244 252/1/244
f 245/1/245 246/1/245 254/1/245 253/1/245
f 246/1/246 247/1/246 255/1/246 254/1/246
f 247/1/247 248/1/247 256/1/247 255/1/247
f 248/1/248 49/1/248 57/1/248 256/1/248
f 249/1/249 250/1/249 369/1/249 378/1/249
f 250/1/250 251/1/250 360/1/250 369/1/250
f 251/1/251 252/1/251 351/1/251 360/1/251
f 252/1/252 253/1/252 342/1/252 351/1/252
f 253/1/253 254/1/253 333/1/253 342/1/253
f 254/1/254 255/1/254 324/1/254 333/1/254
f 255/1/255 256/1/255 315/1/255 324/1/255
f 256/1/256 57/1/256 306/1/256 315/1/256
f 193/1/257 136/1/257 257/1/257 194/1/257
f 136/1/258 135/1/258 258/1/258 257/1/258
f 135/1/259 134/1/259 259/1/259 258/1/259
f 134/1/260 133/1/260 260/1/260 259/1/260
f 133/1/261 132/1/261 261/1/261 260/1/261
f 132/1/262 131/1/262 262/1/262 261/1/262
f 131/1/263 130/1/263 263/1/263 262/1/263
f 130/1/264 129/1/264 72/1/264 263/1/264
f 194/1/265 257/1/265 264/1/265 195/1/265
f 257/1/266 258/1/266 265/1/266 264/1/266
f 258/1/267 259/1/267 266/1/267 265/1/267
f 259/1/268 260/1/268 267/1/268 266/1/268
f 260/1/269 261/1/269 268/1/269 267/1/269
f 261/1/270 262/1/270 269/1/270 268/1/270
f 262/1/271 263/1/271 270/1/271 269/1/271
f 263/1/272 72/1/272 71/1/272 270/1/272
f 195/1/273 264/1/273 271/1/273 196/1/273
f 264/1/274 265/1/274 272/1/274 271/1/274
f 265/1/275 266/1/275 273/1/275 272/1/275
f 266/1/276 267/1/276 274/1/276 273/1/276
f 267/1/277 268/1/277 275/1/277 274/1/277
f 268/1/278 269/1/278 276/1/278 275/1/278
f 269/1/279 270/1/279 277/1/279 276/1/279
f 270/1/280 71/1/280 70/1/280 277/1/280
f 196/1/281 271/1/281 278/1/281 197/1/281
f 271/1/282 272/1/282 279/1/282 278/1/282
f 272/1/283 273/1/283 280/1/283 279/1/283
f 273/1/284 274/1/284 281/1/284 280/1/284
f 274/1/285 275/1/285 282/1/285 281/1/285
f 275/1/286 276/1/286 283/1/286 282/1/286
f 276/1/287 277/1/287 284/1/287 283/1/287
f 277/1/288 70/1/288 69/1/288 284/1/288
f 197/1/289 278/1/289 285/1/289 198/1/289
f 278/1/290 279/1/290 286/1/290 285/1/290
f 279/1/291 280/1/291 287/1/291 286/1/291
f 280/1/292 281/1/292 288/1/292 287/1/292
f 281/1/293 282/1/293 289/1/293 288/1/293
f 282/1/294 283/1/294 290/1/294 289/1/294
f 283/1/295 284/1/295 291/1/295 290/1/295
f 284/1/296 69/1/296 68/1/296 291/1/296
f 198/1/297 285/1/297 292/1/297 199/1/297
f 285/1/298 286/1/298 293/1/298 292/1/298
f 286/1/299 287/1/299 294/1/299 293/1/299
f 287/1/300 288/1/300 295/1/300 294/1/300
f 288/1/301 289/1/301 296/1/301 295/1/301
f 289/1/302 290/1/302 297/1/302 296/1/302
f 290/1/303 291/1/303 298/1/303 297/1/303
f 291/1/304 68/1/304 67/1/304 298/1/304
f 199/1/305 292/1/305 299/1/305 200/1/305
f 292/1/306 293/1/306 300/1/306 299/1/306
f 293/1/307 294/1/307 301/1/307 300/1/307
f 294/1/308 295/1/308 302/1/308 301/1/308
f 295/1/309 296/1/309 303/1/309 302/1/309
f 296/1/310 297/1/310 304/1/310 303/1/310
f 297/1/311 298/1/311 305/1/311 304/1/311
f 298/1/312 67/1/312 66/1/312 305/1/312
f 200/1/313 299/1/313 2/1/313 1/1/313
f 299/1/314 300/1/314 3/1/314 2/1/314
f 300/1/315 301/1/315 4/1/315 3/1/315
f 301/1/316 302/1/316 5/1/316 4/1/316
f 302/1/317 303/1/317 6/1/317 5/1/317
f 303/1/318 304/1/318 7/1/318 6/1/318
f 304/1/319 305/1/319 8/1/319 7/1/319
f 305/1/320 66/1/320 65/1/320 8/1/320
f 306/1/321 307/1/321 316/1/321 315/1/321
f 307/1/322 308/1/322 317/1/322 316/1/322
f 308/1/323 309/1/323 318/1/323 317/1/323
f 309/1/324 310/1/324 319/1/324 318/1/324
f 310/1/325 311/1/325 320/1/325 319/1/325
f 311/1/326 312/1/326 321/1/326 320/1/326
f 312/1/327 313/1/327 322/1/327 321/1/327
f 313/1/328 314/1/328 323/1/328 322/1/328
f 315/1/329 316/1/329 325/1/329 324/1/329
f 316/1/330 317/1/330 326/1/330 325/1/330
f 317/1/331 318/1/331 327/1/331 326/1/331
f 318/1/332 319/1/332 328/1/332 327/1/332
f 319/1/333 320/1/333 329/1/333 328/1/333
f 320/1/334 321/1/334 330/1/334 329/1/334
f 321/1/335 322/1/335 331/1/335 330/1/335
f 322/1/336 323/1/336 332/1/336 331/1/336
f 324/1/337 325/1/337 334/1/337 333/1/337
f 325/1/338 326/1/338 335/1/338 334/1/338
f 326/1/339 327/1/339 336/1/339 335/1/339
f 327/1/340 328/1/340 337/1/340 336/1/340
f 328/1/341 329/1/341 338/1/341 337/1/341
f 329/1/342 330/1/342 339/1/342 338/1/342
f 330/1/343 331/1/343 340/1/343 339/1/343
f 331/1/344 332/1/344 341/1/344 340/1/344
f 333/1/345 334/1/345 343/1/345 342/1/345
f 334/1/346 335/1/346 344/1/346 343/1/346
f 335/1/347 336/1/347 345/1/347 344/1/347
f 336/1/348 337/1/348 346/1/348 345/1/348
f 337/1/349 338/1/349 347/1/349 346/1/349
f 338/1/350 339/1/350 348/1/350 347/1/350
f 339/1/351 340/1/351 349/1/351 348/1/351
f 340/1/352 341/1/352 350/1/352 349/1/352
f 342/1/353 343/1/353 352/1/353 351/1/353
f 343/1/354 344/1/354 353/1/354 352/1/354
f 344/1/355 345/1/355 354/1/355 353/1/355
f 345/1/356 346/1/356 355/1/356 354/1/356
f 346/1/357 347/1/357 356/1/357 355/1/357
f 347/1/358 348/1/358 357/1/358 356/1/358
f 348/1/359 349/1/359 358/1/359 357/1/359
f 349/1/360 350/1/360 359/1/360 358/1/360
f 351/1/361 352/1/361 361/1/361 360/1/361
f 352/1/362 353/1/362 362/1/362 361/1/362
f 353/1/363 354/1/363 363/1/363 362/1/363
f 354/1/364 355/1/364 364/1/364 363/1/364
f 355/1/365 356/1/365 365/1/365 364/1/365
f 356/1/366 357/1/366 366/1/366 365/1/366
f 357/1/367 358/1/367 367/1/367 366/1/367
f 358/1/368 359/1/368 368/1/368 367/1/368
f 360/1/369 361/1/369 370/1/369 369/1/369
f 361/1/370 362/1/370 371/1/370 370/1/370
f 362/1/371 363/1/371 372/1/371 371/1/371
f 363/1/372 364/1/372 373/1/372 372/1/372
f 364/1/373 365/1/373 374/1/373 373/1/373
f 365/1/374 366/1/374 375/1/374 374/1/374
f 366/1/375 367/1/375 376/1/375 375/1/375
f 367/1/376 368/1/376 377/1/376 376/1/376
f 369/1/377 370/1/377 379/1/377 378/1/377
f 370/1/378 371/1/378 380/1/378 379/1/378
f 371/1/379 372/1/379 381/1/379 380/1/379
f 372/1/380 373/1/380 382/1/380 381/1/380
f 373/1/381 374/1/381 383/1/381 382/1/381
f 374/1/382 375/1/382 384/1/382 383/1/382
f 375/1/383 376/1/383 385/1/383 384/1/383
f 376/1/384 377/1/384 386/1/384 385/1/384
f 394/2/385 395/3/385 427/3/385 426/2/385
f 408/4/386 409/5/386 441/5/386 440/4/386
f 395/3/387 396/6/387 428/6/387 427/3/387
f 409/5/388 410/7/388 442/7/388 441/5/388
f 396/6/389 397/8/389 429/8/389 428/6/389
f 410/7/390 411/9/390 443/9/390 442/7/390
f 397/8/391 398/10/391 430/10/391 429/8/391
f 411/9/392 412/11/392 444/11/392 443/9/392
f 398/10/393 399/12/393 431/12/393 430/10/393
f 412/11/394 413/13/394 445/13/394 444/11/394
f 399/12/395 400/14/395 432/14/395 431/12/395
f 413/13/396 414/15/396 446/15/396 445/13/396
f 400/14/397 401/16/397 433/16/397 432/14/397
f 387/17/398 388/18/398 420/18/398 419/17/398
f 414/15/399 415/19/399 447/19/399 446/15/399
f 401/16/400 402/20/400 434/20/400 433/16/400
f 388/18/401 389/21/401 421/21/401 420/18/401
f 415/19/402 416/22/402 448/22/402 447/19/402
f 402/20/403 403/23/403 435/23/403 434/20/403
f 389/21/404 390/24/404 422/24/404 421/21/404
f 416/22/405 417/25/405 449/25/405 448/22/405
f 403/23/406 404/26/406 436/26/406 435/23/406
f 390/24/407 391/27/407 423/27/407 422/24/407
f 417/25/408 418/28/408 450/28/408 449/25/408
f 404/26/409 405/29/409 437/29/409 436/26/409
f 391/27/410 392/30/410 424/30/410 423/27/410
f 418/28/411 387/31/411 419/31/411 450/28/411
f 405/29/412 406/32/412 438/32/412 437/29/412
f 392/30/413 393/33/413 425/33/413 424/30/413
f 406/32/414 407/34/414 439/34/414 438/32/414
f 393/33/415 394/2/415 426/2/415 425/33/415
f 407/34/416 408/4/416 440/4/416 439/34/416
f 451/17/417 452/35/417 454/36/417 453/18/417
f 453/18/418 454/36/418 456/37/418 455/21/418
f 455/21/419 456/37/419 458/38/419 457/24/419
f 457/24/420 458/38/420 460/39/420 459/27/420
f 459/27/421 460/39/421 462/40/421 461/30/421
f 461/30/422 462/40/422 464/41/422 463/33/422
f 463/33/423 464/41/423 466/42/423 465/2/423
f 465/2/424 466/42/424 468/43/424 467/3/424
f 467/3/425 468/43/425 470/44/425 469/6/425
f 469/6/426 470/44/426 472/45/426 471/8/426
f 471/8/427 472/45/427 474/46/427 473/10/427
f 473/10/428 474/46/428 476/47/428 475/12/428
f 475/12/429 476/47/429 478/48/429 477/14/429
f 477/14/430 478/48/430 480/49/430 479/16/430
f 479/16/431 480/49/431 482/50/431 481/20/431
f 481/20/432 482/50/432 484/51/432 483/23/432
f 483/23/433 484/51/433 486/52/433 485/26/433
f 485/26/434 486/52/434 488/53/434 487/29/434
f 487/29/435 488/53/435 490/54/435 489/32/435
f 489/32/436 490/54/436 492/55/436 491/34/436
f 491/34/437 492/55/437 494/56/437 493/4/437
f 493/4/438 494/56/438 496/57/438 495/5/438
f 495/5/439 496/57/439 498/58/439 497/7/439
f 497/7/440 498/58/440 500/59/440 499/9/440
f 499/9/441 500/59/441 502/60/441 501/11/441
f 501/11/442 502/60/442 504/61/442 503/13/442
f 503/13/443 504/61/443 506/62/443 505/15/443
f 505/15/444 506/62/444 508/63/444 507/19/444
f 507/19/445 508/63/445 510/64/445 509/22/445
f 509/22/446 510/64/446 512/65/446 511/25/446
f 472/45/447 470/44/447 524/44/447 525/45/447
f 511/25/448 512/65/448 514/66/448 513/28/448
f 513/28/449 514/66/449 452/67/449 451/31/449
f 461/30/450 463/33/450 553/33/450 552/30/450
f 540/60/451 539/59/451 603/59/451 604/60/451
f 490/54/452 488/53/452 533/53/452 534/54/452
f 508/63/453 506/62/453 542/62/453 543/63/453
f 464/41/454 462/40/454 520/40/454 521/41/454
f 482/50/455 480/49/455 529/49/455 530/50/455
f 500/59/456 498/58/456 538/58/456 539/59/456
f 456/37/457 454/36/457 515/36/457 517/37/457
f 474/46/458 472/45/458 525/45/458 526/46/458
f 492/55/459 490/54/459 534/54/459 535/55/459
f 510/64/460 508/63/460 543/63/460 544/64/460
f 466/42/461 464/41/461 521/41/461 522/42/461
f 484/51/462 482/50/462 530/50/462 531/51/462
f 502/60/463 500/59/463 539/59/463 540/60/463
f 458/38/464 456/37/464 517/37/464 518/38/464
f 476/47/465 474/46/465 526/46/465 527/47/465
f 494/56/466 492/55/466 535/55/466 536/56/466
f 512/65/467 510/64/467 544/64/467 545/65/467
f 468/43/468 466/42/468 522/42/468 523/43/468
f 486/52/469 484/51/469 531/51/469 532/52/469
f 504/61/470 502/60/470 540/60/470 541/61/470
f 460/39/471 458/38/471 518/38/471 519/39/471
f 478/48/472 476/47/472 527/47/472 528/48/472
f 496/57/473 494/56/473 536/56/473 537/57/473
f 514/66/474 512/65/474 545/65/474 546/66/474
f 470/44/475 468/43/475 523/43/475 524/44/475
f 488/53/476 486/52/476 532/52/476 533/53/476
f 506/62/477 504/61/477 541/61/477 542/62/477
f 462/40/478 460/39/478 519/39/478 520/40/478
f 480/49/479 478/48/479 528/48/479 529/49/479
f 454/36/480 452/35/480 516/35/480 515/36/480
f 498/58/481 496/57/481 537/57/481 538/58/481
f 452/67/482 514/66/482 546/66/482 516/67/482
f 479/16/483 481/20/483 562/20/483 561/16/483
f 497/7/484 499/9/484 571/9/484 570/7/484
f 453/18/485 455/21/485 549/21/485 548/18/485
f 471/8/486 473/10/486 558/10/486 557/8/486
f 489/32/487 491/34/487 567/34/487 566/32/487
f 507/19/488 509/22/488 576/22/488 575/19/488
f 463/33/489 465/2/489 554/2/489 553/33/489
f 481/20/490 483/23/490 563/23/490 562/20/490
f 499/9/491 501/11/491 572/11/491 571/9/491
f 455/21/492 457/24/492 550/24/492 549/21/492
f 473/10/493 475/12/493 559/12/493 558/10/493
f 491/34/494 493/4/494 568/4/494 567/34/494
f 509/22/495 511/25/495 577/25/495 576/22/495
f 465/2/496 467/3/496 555/3/496 554/2/496
f 483/23/497 485/26/497 564/26/497 563/23/497
f 501/11/498 503/13/498 573/13/498 572/11/498
f 457/24/499 459/27/499 551/27/499 550/24/499
f 475/12/500 477/14/500 560/14/500 559/12/500
f 493/4/501 495/5/501 569/5/501 568/4/501
f 511/25/502 513/28/502 578/28/502 577/25/502
f 467/3/503 469/6/503 556/6/503 555/3/503
f 485/26/504 487/29/504 565/29/504 564/26/504
f 503/13/505 505/15/505 574/15/505 573/13/505
f 459/27/506 461/30/506 552/30/506 551/27/506
f 477/14/507 479/16/507 561/16/507 560/14/507
f 495/5/508 497/7/508 570/7/508 569/5/508
f 451/17/509 453/18/509 548/18/509 547/17/509
f 513/28/510 451/31/510 547/31/510 578/28/510
f 469/6/511 471/8/511 557/8/511 556/6/511
f 487/29/512 489/32/512 566/32/512 565/29/512
f 505/15/513 507/19/513 575/19/513 574/15/513
f 581/37/514 579/36/514 611/36/514 613/37/514
f 527/47/515 526/46/515 590/46/515 591/47/515
f 541/61/516 540/60/516 604/60/516 605/61/516
f 528/48/517 527/47/517 591/47/517 592/48/517
f 542/62/518 541/61/518 605/61/518 606/62/518
f 529/49/519 528/48/519 592/48/519 593/49/519
f 515/36/520 516/35/520 580/35/520 579/36/520
f 543/63/521 542/62/521 606/62/521 607/63/521
f 530/50/522 529/49/522 593/49/522 594/50/522
f 517/37/523 515/36/523 579/36/523 581/37/523
f 544/64/524 543/63/524 607/63/524 608/64/524
f 531/51/525 530/50/525 594/50/525 595/51/525
f 518/38/526 517/37/526 581/37/526 582/38/526
f 545/65/527 544/64/527 608/64/527 609/65/527
f 532/52/528 531/51/528 595/51/528 596/52/528
f 519/39/529 518/38/529 582/38/529 583/39/529
f 546/66/530 545/65/530 609/65/530 610/66/530
f 533/53/531 532/52/531 596/52/531 597/53/531
f 520/40/532 519/39/532 583/39/532 584/40/532
f 516/67/533 546/66/533 610/66/533 580/67/533
f 534/54/534 533/53/534 597/53/534 598/54/534
f 521/41/535 520/40/535 584/40/535 585/41/535
f 535/55/536 534/54/536 598/54/536 599/55/536
f 522/42/537 521/41/537 585/41/537 586/42/537
f 536/56/538 535/55/538 599/55/538 600/56/538
f 523/43/539 522/42/539 586/42/539 587/43/539
f 537/57/540 536/56/540 600/56/540 601/57/540
f 524/44/541 523/43/541 587/43/541 588/44/541
f 538/58/542 537/57/542 601/57/542 602/58/542
f 525/45/543 524/44/543 588/44/543 589/45/543
f 539/59/544 538/58/544 602/58/544 603/59/544
f 526/46/545 525/45/545 589/45/545 590/46/545
f 624/48/546 623/47/546 719/47/546 720/48/546
f 608/64/547 607/63/547 639/63/547 640/64/547
f 595/51/548 594/50/548 626/50/548 627/51/548
f 582/38/549 581/37/549 613/37/549 614/38/549
f 609/65/550 608/64/550 640/64/550 641/65/550
f 596/52/551 595/51/551 627/51/551 628/52/551
f 583/39/552 582/38/552 614/38/552 615/39/552
f 610/66/553 609/65/553 641/65/553 642/66/553
f 597/53/554 596/52/554 628/52/554 629/53/554
f 584/40/555 583/39/555 615/39/555 616/40/555
f 580/67/556 610/66/556 642/66/556 612/67/556
f 598/54/557 597/53/557 629/53/557 630/54/557
f 585/41/558 584/40/558 616/40/558 617/41/558
f 599/55/559 598/54/559 630/54/559 631/55/559
f 586/42/560 585/41/560 617/41/560 618/42/560
f 600/56/561 599/55/561 631/55/561 632/56/561
f 587/43/562 586/42/562 618/42/562 619/43/562
f 601/57/563 600/56/563 632/56/563 633/57/563
f 588/44/564 587/43/564 619/43/564 620/44/564
f 602/58/565 601/57/565 633/57/565 634/58/565
f 589/45/566 588/44/566 620/44/566 621/45/566
f 603/59/567 602/58/567 634/58/567 635/59/567
f 590/46/568 589/45/568 621/45/568 622/46/568
f 604/60/569 603/59/569 635/59/569 636/60/569
f 591/47/570 590/46/570 622/46/570 623/47/570
f 605/61/571 604/60/571 636/60/571 637/61/571
f 592/48/572 591/47/572 623/47/572 624/48/572
f 606/62/573 605/61/573 637/61/573 638/62/573
f 593/49/574 592/48/574 624/48/574 625/49/574
f 579/36/575 580/35/575 612/35/575 611/36/575
f 607/63/576 606/62/576 638/62/576 639/63/576
f 594/50/577 593/49/577 625/49/577 626/50/577
f 556/6/578 557/8/578 653/8/578 652/6/578
f 668/11/579 669/13/579 701/13/579 700/11/579
f 570/7/580 571/9/580 667/9/580 666/7/580
f 557/8/581 558/10/581 654/10/581 653/8/581
f 571/9/582 572/11/582 668/11/582 667/9/582
f 558/10/583 559/12/583 655/12/583 654/10/583
f 572/11/584 573/13/584 669/13/584 668/11/584
f 559/12/585 560/14/585 656/14/585 655/12/585
f 573/13/586 574/15/586 670/15/586 669/13/586
f 560/14/587 561/16/587 657/16/587 656/14/587
f 547/17/588 548/18/588 644/18/588 643/17/588
f 574/15/589 575/19/589 671/19/589 670/15/589
f 561/16/590 562/20/590 658/20/590 657/16/590
f 548/18/591 549/21/591 645/21/591 644/18/591
f 575/19/592 576/22/592 672/22/592 671/19/592
f 562/20/593 563/23/593 659/23/593 658/20/593
f 549/21/594 550/24/594 646/24/594 645/21/594
f 576/22/595 577/25/595 673/25/595 672/22/595
f 563/23/596 564/26/596 660/26/596 659/23/596
f 550/24/597 551/27/597 647/27/597 646/24/597
f 577/25/598 578/28/598 674/28/598 673/25/598
f 564/26/599 565/29/599 661/29/599 660/26/599
f 551/27/600 552/30/600 648/30/600 647/27/600
f 578/28/601 547/31/601 643/31/601 674/28/601
f 565/29/602 566/32/602 662/32/602 661/29/602
f 552/30/603 553/33/603 649/33/603 648/30/603
f 566/32/604 567/34/604 663/34/604 662/32/604
f 553/33/605 554/2/605 650/2/605 649/33/605
f 567/34/606 568/4/606 664/4/606 663/34/606
f 554/2/607 555/3/607 651/3/607 650/2/607
f 568/4/608 569/5/608 665/5/608 664/4/608
f 555/3/609 556/6/609 652/6/609 651/3/609
f 569/5/610 570/7/610 666/7/610 665/5/610
f 655/12/611 656/14/611 688/14/611 687/12/611
f 669/13/612 670/15/612 702/15/612 701/13/612
f 656/14/613 657/16/613 689/16/613 688/14/613
f 643/17/614 644/18/614 676/18/614 675/17/614
f 670/15/615 671/19/615 703/19/615 702/15/615
f 657/16/616 658/20/616 690/20/616 689/16/616
f 644/18/617 645/21/617 677/21/617 676/18/617
f 671/19/618 672/22/618 704/22/618 703/19/618
f 658/20/619 659/23/619 691/23/619 690/20/619
f 645/21/620 646/24/620 678/24/620 677/21/620
f 672/22/621 673/25/621 705/25/621 704/22/621
f 659/23/622 660/26/622 692/26/622 691/23/622
f 646/24/623 647/27/623 679/27/623 678/24/623
f 673/25/624 674/28/624 706/28/624 705/25/624
f 660/26/625 661/29/625 693/29/625 692/26/625
f 647/27/626 648/30/626 680/30/626 679/27/626
f 674/28/627 643/31/627 675/31/627 706/28/627
f 661/29/628 662/32/628 694/32/628 693/29/628
f 648/30/629 649/33/629 681/33/629 680/30/629
f 662/32/630 663/34/630 695/34/630 694/32/630
f 649/33/631 650/2/631 682/2/631 681/33/631
f 663/34/632 664/4/632 696/4/632 695/34/632
f 650/2/633 651/3/633 683/3/633 682/2/633
f 664/4/634 665/5/634 697/5/634 696/4/634
f 651/3/635 652/6/635 684/6/635 683/3/635
f 665/5/636 666/7/636 698/7/636 697/5/636
f 652/6/637 653/8/637 685/8/637 684/6/637
f 666/7/638 667/9/638 699/9/638 698/7/638
f 653/8/639 654/10/639 686/10/639 685/8/639
f 667/9/640 668/11/640 700/11/640 699/9/640
f 654/10/641 655/12/641 687/12/641 686/10/641
f 707/68/642 708/69/642 738/70/642 737/71/642 736/72/642 735/73/642 734/74/642 733/75/642 732/76/642 731/77/642 730/78/642 729/79/642 728/80/642 727/81/642 726/82/642 725/83/642 724/84/642 723/85/642 722/86/642 721/87/642 720/88/642 719/89/642 718/90/642 717/91/642 716/92/642 715/93/642 714/94/642 713/95/642 712/96/642 711/97/642 710/98/642 709/99/642
f 638/62/643 637/61/643 733/61/643 734/62/643
f 625/49/644 624/48/644 720/48/644 721/49/644
f 611/36/645 612/35/645 708/35/645 707/36/645
f 639/63/646 638/62/646 734/62/646 735/63/646
f 626/50/647 625/49/647 721/49/647 722/50/647
f 613/37/648 611/36/648 707/36/648 709/37/648
f 640/64/649 639/63/649 735/63/649 736/64/649
f 627/51/650 626/50/650 722/50/650 723/51/650
f 614/38/651 613/37/651 709/37/651 710/38/651
f 641/65/652 640/64/652 736/64/652 737/65/652
f 628/52/653 627/51/653 723/51/653 724/52/653
f 615/39/654 614/38/654 710/38/654 711/39/654
f 642/66/655 641/65/655 737/65/655 738/66/655
f 629/53/656 628/52/656 724/52/656 725/53/656
f 616/40/657 615/39/657 711/39/657 712/40/657
f 612/67/658 642/66/658 738/66/658 708/67/658
f 630/54/659 629/53/659 725/53/659 726/54/659
f 617/41/660 616/40/660 712/40/660 713/41/660
f 631/55/661 630/54/661 726/54/661 727/55/661
f 618/42/662 617/41/662 713/41/662 714/42/662
f 632/56/663 631/55/663 727/55/663 728/56/663
f 619/43/664 618/42/664 714/42/664 715/43/664
f 633/57/665 632/56/665 728/56/665 729/57/665
f 620/44/666 619/43/666 715/43/666 716/44/666
f 634/58/667 633/57/667 729/57/667 730/58/667
f 621/45/668 620/44/668 716/44/668 717/45/668
f 635/59/669 634/58/669 730/58/669 731/59/669
f 622/46/670 621/45/670 717/45/670 718/46/670
f 636/60/671 635/59/671 731/59/671 732/60/671
f 623/47/672 622/46/672 718/46/672 719/47/672
f 637/61/673 636/60/673 732/60/673 733/61/673
f 396/1/674 395/1/674 397/1/674
f 392/1/675 395/1/675 393/1/675
f 693/1/676 694/1/676 392/1/676
f 395/1/677 398/1/677 397/1/677
f 675/1/678 402/1/678 706/1/678
f 391/1/679 693/1/679 392/1/679
f 404/1/680 676/1/680 675/1/680
f 390/1/681 693/1/681 391/1/681
f 389/1/682 692/1/682 390/1/682
f 703/1/683 704/1/683 398/1/683
f 388/1/684 692/1/684 389/1/684
f 387/1/685 691/1/685 388/1/685
f 418/1/686 690/1/686 387/1/686
f 706/1/687 402/1/687 401/1/687
f 692/1/688 693/1/688 390/1/688
f 395/1/689 698/1/689 699/1/689
f 704/1/690 705/1/690 399/1/690
f 395/1/691 392/1/691 696/1/691
f 702/1/692 395/1/692 701/1/692
f 701/1/693 395/1/693 700/1/693
f 700/1/694 395/1/694 699/1/694
f 398/1/695 395/1/695 702/1/695
f 688/1/696 687/1/696 415/1/696
f 417/1/697 690/1/697 416/1/697
f 703/1/698 398/1/698 702/1/698
f 395/1/699 697/1/699 698/1/699
f 418/1/700 417/1/700 690/1/700
f 395/1/701 696/1/701 697/1/701
f 404/1/702 403/1/702 675/1/702
f 407/1/703 678/1/703 406/1/703
f 705/1/704 706/1/704 400/1/704
f 704/1/705 399/1/705 398/1/705
f 691/1/706 692/1/706 388/1/706
f 414/1/707 687/1/707 686/1/707
f 395/1/708 394/1/708 393/1/708
f 405/1/709 404/1/709 676/1/709
f 706/1/710 401/1/710 400/1/710
f 403/1/711 675/1/711 402/1/711
f 705/1/712 400/1/712 399/1/712
f 690/1/713 688/1/713 416/1/713
f 408/1/714 679/1/714 407/1/714
f 678/1/715 677/1/715 676/1/715
f 406/1/716 405/1/716 676/1/716
f 678/1/717 676/1/717 406/1/717
f 392/1/718 694/1/718 695/1/718
f 689/1/719 688/1/719 690/1/719
f 679/1/720 678/1/720 407/1/720
f 688/1/721 415/1/721 416/1/721
f 687/1/722 414/1/722 415/1/722
f 392/1/723 695/1/723 696/1/723
f 690/1/724 691/1/724 387/1/724
f 413/1/725 414/1/725 686/1/725
f 409/1/726 410/1/726 680/1/726
f 412/1/727 413/1/727 686/1/727
f 679/1/728 408/1/728 680/1/728
f 680/1/729 410/1/729 411/1/729
f 411/1/730 412/1/730 686/1/730
f 411/1/731 686/1/731 685/1/731
f 681/1/732 680/1/732 411/1/732
f 681/1/733 411/1/733 685/1/733
f 681/1/734 685/1/734 684/1/734
f 682/1/734 681/1/734 684/1/734
f 682/1/735 684/1/735 683/1/735
f 408/1/736 409/1/736 680/1/736
