# Blender 5.0.0
# www.blender.org
mtllib Oryx.mtl
o Roundcube
v 0.672373 -0.807866 -0.914833
v 0.501705 -0.885437 -1.006954
v 0.334036 -0.932272 -1.061822
v 0.166952 -0.956461 -1.090877
v 0.000000 -0.963749 -1.099960
v -0.166952 -0.956461 -1.090877
v -0.334036 -0.932273 -1.061822
v -0.501706 -0.885437 -1.006954
v 0.777009 -0.778309 -1.072224
v 0.590340 -0.878944 -1.222127
v 0.398187 -0.935566 -1.310259
v 0.200460 -0.957539 -1.355952
v 0.000000 -0.961189 -1.369859
v -0.200460 -0.957539 -1.355953
v -0.398187 -0.935566 -1.310259
v -0.590340 -0.878944 -1.222127
v 0.877337 -0.757903 -1.229062
v 0.677936 -0.879901 -1.401243
v 0.462093 -0.951826 -1.507506
v 0.234138 -0.971154 -1.561116
v 0.000000 -0.967066 -1.576331
v -0.234138 -0.971154 -1.561116
v -0.462093 -0.951826 -1.507506
v -0.677936 -0.879901 -1.401243
v 0.961107 -0.715256 -1.357470
v 0.748679 -0.854296 -1.537322
v 0.509239 -0.944665 -1.657817
v 0.257567 -0.967703 -1.717565
v 0.000000 -0.958154 -1.733157
v -0.257566 -0.967703 -1.717565
v -0.509239 -0.944665 -1.657817
v -0.748680 -0.854296 -1.537322
v 1.003604 -0.632919 -1.445230
v 0.789173 -0.789430 -1.631388
v 0.532989 -0.895463 -1.763260
v 0.266696 -0.929101 -1.830055
v 0.000000 -0.922727 -1.847674
v -0.266696 -0.929101 -1.830055
v -0.532989 -0.895463 -1.763260
v -0.789173 -0.789430 -1.631388
v 0.984730 -0.501620 -1.491394
v 0.789272 -0.675630 -1.687007
v 0.539364 -0.791911 -1.824442
v 0.269587 -0.836110 -1.897654
v 0.000000 -0.836437 -1.918723
v -0.269587 -0.836110 -1.897654
v -0.539364 -0.791911 -1.824442
v -0.789272 -0.675630 -1.687007
v 0.901011 -0.297891 -1.512616
v 0.730244 -0.456127 -1.721084
v 0.520432 -0.571928 -1.854403
v 0.270784 -0.619829 -1.932202
v 0.000000 -0.626220 -1.959618
v -0.270784 -0.619829 -1.932202
v -0.520432 -0.571928 -1.854403
v -0.730244 -0.456127 -1.721084
v 0.786919 -0.005323 -1.628912
v 0.698723 -0.027317 -1.807765
v 0.640405 -0.043851 -1.802088
v 0.257251 -0.172988 -2.000355
v 0.000000 -0.232769 -2.064540
v -0.257250 -0.172988 -2.000355
v -0.640404 -0.043850 -1.802088
v -0.698723 -0.027318 -1.807765
v -0.672373 -0.807866 -0.914832
v -0.740525 -0.765357 -0.674850
v -0.809993 -0.743457 -0.505619
v -0.874099 -0.731647 -0.392388
v -0.929870 -0.718468 -0.308395
v -0.977470 -0.697373 -0.245727
v -1.012026 -0.669392 -0.198204
v -0.999404 -0.656143 -0.112076
v -0.777008 -0.778309 -1.072224
v -0.880961 -0.670423 -0.753591
v -1.007564 -0.589857 -0.514992
v -1.128574 -0.549121 -0.416140
v -1.228773 -0.527949 -0.373553
v -1.310731 -0.512637 -0.336374
v -1.362847 -0.502768 -0.291251
v -1.332358 -0.507380 -0.199802
v -0.877337 -0.757903 -1.229062
v -0.991403 -0.620519 -0.923133
v -1.149878 -0.484139 -0.614253
v -1.336219 -0.396399 -0.483461
v -1.462704 -0.359549 -0.465366
v -1.580310 -0.344058 -0.461125
v -1.697345 -0.340691 -0.447128
v -1.723601 -0.356626 -0.387810
v -0.961107 -0.715256 -1.357470
v -1.080379 -0.580085 -1.139284
v -1.173763 -0.457634 -0.894984
v -1.431066 -0.308642 -0.605226
v -1.593770 -0.240068 -0.540454
v -1.721982 -0.218212 -0.549666
v -1.909646 -0.216674 -0.559855
v -2.063359 -0.232776 -0.543912
v -1.003604 -0.632919 -1.445230
v -1.121377 -0.486296 -1.295710
v -1.187814 -0.393664 -1.191221
v -1.262519 -0.274385 -0.893615
v -1.608851 -0.158669 -0.592690
v -1.643696 -0.105363 -0.593811
v -1.852539 -0.108540 -0.604834
v -2.108888 -0.139434 -0.601419
v -0.984730 -0.501620 -1.491394
v -1.086854 -0.321562 -1.344959
v -1.146549 -0.221277 -1.275420
v -1.189611 -0.123070 -1.018516
v -1.371295 -0.041719 -0.611952
v -1.207589 0.070127 -0.602480
v -1.287628 0.061554 -0.585765
v -1.793467 -0.001678 -0.581288
v -0.901010 -0.297891 -1.512616
v -0.980525 -0.080625 -1.291683
v -1.030524 0.055530 -1.086734
v -1.052425 0.184257 -0.773933
v -1.038594 0.293767 -0.618511
v -1.113040 0.429111 -0.589345
v -1.129937 0.428061 -0.533669
v -1.090544 0.274088 -0.474951
v -0.786919 -0.005323 -1.628912
v -0.858614 0.236491 -1.391813
v -0.937778 0.436211 -1.052873
v -1.137368 0.636904 -0.755345
v -1.543956 0.856484 -0.554382
v -1.761981 0.967726 -0.496006
v -2.024315 1.061752 -0.429344
v -2.117819 1.024942 -0.339892
v -0.843376 -0.696985 0.173741
v -0.448687 -0.940062 0.599622
v -0.259806 -1.247796 0.765404
v -0.129175 -1.441278 0.823737
v 0.000000 -1.501431 0.841606
v 0.129175 -1.441278 0.823737
v 0.259806 -1.247796 0.765404
v 0.448687 -0.940062 0.599621
v -1.081554 -0.562310 0.109166
v -0.518891 -0.797536 0.755762
v -0.278407 -1.260732 0.972601
v -0.147858 -1.525546 1.046295
v 0.000000 -1.593073 1.076802
v 0.147858 -1.525546 1.046295
v 0.278407 -1.260732 0.972601
v 0.518891 -0.797536 0.755761
v -1.365834 -0.419050 -0.071853
v -0.659487 -0.601672 0.761540
v -0.319632 -1.029708 1.103221
v -0.151301 -1.453905 1.162978
v 0.000000 -1.543793 1.194366
v 0.151301 -1.453905 1.162978
v 0.319632 -1.029709 1.103220
v 0.659487 -0.601672 0.761540
v -1.802216 -0.275472 -0.377405
v -0.882286 -0.449585 0.588114
v -0.439359 -0.525754 1.185184
v -0.162409 -1.030588 1.260219
v 0.000000 -1.279326 1.246873
v 0.162409 -1.030588 1.260220
v 0.439359 -0.525754 1.185184
v 0.882286 -0.449585 0.588114
v -2.126554 -0.171772 -0.549208
v -1.163983 -0.247545 0.255150
v -0.619604 -0.265024 1.058548
v -0.292696 -0.063974 1.501215
v 0.000000 0.072785 1.685530
v 0.292696 -0.063973 1.501215
v 0.619605 -0.265024 1.058548
v 1.163983 -0.247545 0.255150
v -2.065561 -0.062083 -0.574869
v -1.230921 -0.025057 -0.021416
v -0.755998 -0.271121 0.879407
v -0.472448 0.162230 1.338248
v 0.000000 0.876870 0.984908
v 0.472448 0.162229 1.338248
v 0.755998 -0.271120 0.879407
v 1.230921 -0.025057 -0.021416
v -1.228211 0.117212 -0.457028
v -1.231774 0.344142 -0.062701
v -0.881342 -0.037964 0.707478
v -0.601499 0.234721 1.153377
v 0.000000 1.439204 0.698750
v 0.601499 0.234720 1.153377
v 0.881343 -0.037964 0.707478
v 1.231774 0.344142 -0.062701
v -1.718043 0.742514 -0.262806
v -1.739384 0.922250 -0.049235
v -0.876446 0.437696 0.466830
v -0.507666 0.593956 0.782760
v 0.000000 1.508955 0.435118
v 0.507666 0.593956 0.782760
v 0.876446 0.437696 0.466830
v 1.739384 0.922249 -0.049235
v 0.843376 -0.696985 0.173741
v 0.999404 -0.656143 -0.112075
v 1.012026 -0.669392 -0.198204
v 0.977470 -0.697373 -0.245727
v 0.929870 -0.718468 -0.308395
v 0.874099 -0.731647 -0.392388
v 0.809994 -0.743457 -0.505619
v 0.740524 -0.765357 -0.674850
v 1.081554 -0.562310 0.109166
v 1.332358 -0.507380 -0.199802
v 1.362847 -0.502767 -0.291250
v 1.310731 -0.512637 -0.336374
v 1.228773 -0.527949 -0.373553
v 1.128575 -0.549121 -0.416140
v 1.007565 -0.589857 -0.514992
v 0.880962 -0.670424 -0.753591
v 1.365834 -0.419050 -0.071853
v 1.723601 -0.356626 -0.387809
v 1.697345 -0.340691 -0.447128
v 1.580310 -0.344058 -0.461125
v 1.462704 -0.359549 -0.465366
v 1.336219 -0.396399 -0.483461
v 1.149878 -0.484139 -0.614253
v 0.991402 -0.620520 -0.923134
v 1.802217 -0.275472 -0.377405
v 2.063359 -0.232776 -0.543912
v 1.909646 -0.216674 -0.559854
v 1.721982 -0.218213 -0.549665
v 1.593771 -0.240068 -0.540454
v 1.431065 -0.308642 -0.605226
v 1.173763 -0.457634 -0.894984
v 1.080378 -0.580084 -1.139284
v 2.126554 -0.171772 -0.549208
v 2.108888 -0.139435 -0.601419
v 1.852539 -0.108540 -0.604834
v 1.643696 -0.105364 -0.593811
v 1.608851 -0.158669 -0.592689
v 1.262518 -0.274386 -0.893616
v 1.187814 -0.393663 -1.191220
v 1.121377 -0.486296 -1.295710
v 2.065561 -0.062083 -0.574869
v 1.793468 -0.001678 -0.581288
v 1.287627 0.061554 -0.585765
v 1.207589 0.070127 -0.602479
v 1.371296 -0.041719 -0.611952
v 1.189611 -0.123069 -1.018516
v 1.146548 -0.221277 -1.275419
v 1.086854 -0.321563 -1.344959
v 1.228211 0.117212 -0.457028
v 1.090544 0.274088 -0.474950
v 1.129937 0.428061 -0.533669
v 1.113040 0.429111 -0.589345
v 1.038595 0.293767 -0.618511
v 1.052425 0.184257 -0.773933
v 1.030525 0.055530 -1.086733
v 0.980525 -0.080625 -1.291681
v 1.718042 0.742514 -0.262806
v 2.117820 1.024942 -0.339892
v 2.024315 1.061752 -0.429344
v 1.761981 0.967726 -0.496006
v 1.543957 0.856484 -0.554383
v 1.137367 0.636903 -0.755345
v 0.937778 0.436211 -1.052873
v 0.858614 0.236491 -1.391812
v 0.612654 -0.853419 0.169599
v 0.335326 -1.063877 0.421709
v 0.155453 -1.220016 0.520804
v 0.000000 -1.274699 0.545614
v -0.155453 -1.220016 0.520804
v -0.335326 -1.063877 0.421709
v -0.612654 -0.853418 0.169599
v 0.686168 -0.833637 -0.081539
v 0.403870 -0.995616 0.111559
v 0.187145 -1.107239 0.225639
v 0.000000 -1.146215 0.258047
v -0.187145 -1.107239 0.225639
v -0.403870 -0.995616 0.111559
v -0.686168 -0.833636 -0.081540
v 0.679648 -0.855390 -0.185725
v 0.425130 -0.984559 -0.086702
v 0.203233 -1.069147 -0.008462
v 0.000000 -1.098092 0.017454
v -0.203233 -1.069147 -0.008462
v -0.425130 -0.984559 -0.086702
v -0.679648 -0.855390 -0.185725
v 0.653463 -0.876719 -0.278733
v 0.419550 -0.986466 -0.238064
v 0.204972 -1.053246 -0.200969
v 0.000000 -1.075626 -0.187222
v -0.204972 -1.053247 -0.200969
v -0.419550 -0.986466 -0.238064
v -0.653464 -0.876719 -0.278733
v 0.622029 -0.883235 -0.400855
v 0.404364 -0.980290 -0.396525
v 0.199546 -1.035939 -0.387216
v 0.000000 -1.054157 -0.383082
v -0.199546 -1.035939 -0.387216
v -0.404364 -0.980290 -0.396525
v -0.622029 -0.883235 -0.400855
v 0.584884 -0.879094 -0.555303
v 0.383530 -0.963355 -0.578483
v 0.190256 -1.010255 -0.587279
v 0.000000 -1.025378 -0.589450
v -0.190256 -1.010256 -0.587279
v -0.383530 -0.963356 -0.578483
v -0.584884 -0.879094 -0.555303
v 0.543187 -0.874798 -0.752491
v 0.358772 -0.942345 -0.794988
v 0.178617 -0.979343 -0.815820
v 0.000000 -0.991135 -0.822086
v -0.178617 -0.979343 -0.815820
v -0.358772 -0.942345 -0.794988
v -0.543187 -0.874798 -0.752492
v 0.701881 0.348330 -1.946527
v 0.460879 0.512669 -2.075216
v 0.212955 0.723419 -1.998822
v 0.076449 0.841056 -1.935095
v 0.000000 0.868263 -1.920694
v -0.076449 0.841056 -1.935095
v -0.212955 0.723419 -1.998822
v -0.460879 0.512669 -2.075216
v -0.701881 0.348330 -1.946527
v 0.893814 0.485857 -2.091644
v 0.750129 0.665143 -2.335956
v 0.505183 0.809525 -2.210972
v 0.221493 1.056758 -1.890940
v 0.000000 1.193579 -1.727578
v -0.221493 1.056759 -1.890940
v -0.505183 0.809525 -2.210971
v -0.750129 0.665143 -2.335956
v -0.893814 0.485857 -2.091644
v 0.993339 0.593733 -1.941375
v 0.816250 0.769501 -2.054816
v 0.473709 1.050858 -1.740180
v 0.215342 1.214675 -1.542479
v 0.000000 1.258330 -1.483183
v -0.215341 1.214675 -1.542478
v -0.473709 1.050857 -1.740180
v -0.816250 0.769501 -2.054816
v -0.993339 0.593733 -1.941375
v 1.073889 0.990314 -0.798523
v 0.767187 1.188683 -0.842768
v 0.454877 1.287727 -1.016403
v 0.214986 1.335996 -1.108854
v 0.000000 1.351941 -1.126924
v -0.214986 1.335996 -1.108854
v -0.454877 1.287726 -1.016404
v -0.767186 1.188683 -0.842768
v -1.073888 0.990313 -0.798524
v 1.447152 1.137027 -0.534398
v 0.872022 1.228599 -0.618185
v 0.508481 1.348563 -0.724782
v 0.239454 1.426914 -0.788763
v 0.000000 1.454452 -0.809199
v -0.239454 1.426914 -0.788763
v -0.508481 1.348563 -0.724781
v -0.872022 1.228599 -0.618185
v -1.447150 1.137027 -0.534398
v 1.595909 1.193785 -0.481351
v 0.996914 1.239595 -0.474416
v 0.587857 1.347189 -0.482603
v 0.274813 1.432929 -0.505612
v 0.000000 1.460943 -0.519332
v -0.274813 1.432929 -0.505612
v -0.587857 1.347189 -0.482603
v -0.996914 1.239595 -0.474417
v -1.595909 1.193785 -0.481351
v 1.947126 1.311082 -0.405998
v 1.205653 1.240647 -0.319116
v 0.684957 1.288921 -0.249380
v 0.322450 1.391257 -0.213468
v 0.000000 1.436827 -0.198660
v -0.322450 1.391258 -0.213468
v -0.684958 1.288921 -0.249380
v -1.205652 1.240647 -0.319116
v -1.947126 1.311082 -0.405998
v 2.384250 1.439311 -0.323390
v 1.437719 1.225806 -0.173618
v 0.758616 1.155163 -0.026634
v 0.364113 1.285647 0.068751
v 0.000000 1.397976 0.120277
v -0.364113 1.285648 0.068751
v -0.758616 1.155163 -0.026634
v -1.437719 1.225806 -0.173618
v -2.384251 1.439311 -0.323390
v 2.521934 1.409207 -0.226079
v 1.438394 1.067499 -0.020216
v 0.752193 0.873951 0.234722
v 0.372744 1.058238 0.333833
v 0.000000 1.321201 0.331906
v -0.372744 1.058238 0.333833
v -0.752194 0.873951 0.234722
v -1.438396 1.067500 -0.020217
v -2.521934 1.409207 -0.226080
vn 0.3830 -0.9172 0.1099
vn 0.2479 -0.9659 0.0750
vn 0.1192 -0.9924 0.0311
vn 0.0298 -0.9996 -0.0009
vn -0.0298 -0.9996 -0.0009
vn -0.1192 -0.9924 0.0311
vn -0.2479 -0.9659 0.0750
vn -0.3830 -0.9172 0.1099
vn 0.3867 -0.9075 0.1638
vn 0.2366 -0.9616 0.1392
vn 0.0749 -0.9929 0.0919
vn -0.0042 -0.9989 0.0470
vn 0.0042 -0.9989 0.0470
vn -0.0749 -0.9929 0.0919
vn -0.2366 -0.9616 0.1392
vn -0.3867 -0.9075 0.1638
vn 0.4941 -0.8670 0.0649
vn 0.3244 -0.9456 0.0254
vn 0.0911 -0.9957 -0.0135
vn -0.0251 -0.9988 -0.0413
vn 0.0251 -0.9988 -0.0413
vn -0.0911 -0.9957 -0.0135
vn -0.3244 -0.9456 0.0254
vn -0.4941 -0.8670 0.0649
vn 0.6846 -0.6870 -0.2437
vn 0.4831 -0.8180 -0.3121
vn 0.1846 -0.9209 -0.3432
vn -0.0092 -0.9506 -0.3104
vn 0.0092 -0.9506 -0.3104
vn -0.1846 -0.9209 -0.3432
vn -0.4831 -0.8180 -0.3121
vn -0.6846 -0.6870 -0.2437
vn 0.7502 -0.2038 -0.6290
vn 0.5617 -0.4045 -0.7217
vn 0.2854 -0.5346 -0.7954
vn 0.0501 -0.6115 -0.7897
vn -0.0501 -0.6115 -0.7897
vn -0.2854 -0.5346 -0.7954
vn -0.5617 -0.4045 -0.7217
vn -0.7502 -0.2038 -0.6290
vn 0.6771 0.1338 -0.7237
vn 0.5193 -0.0323 -0.8540
vn 0.2977 -0.1278 -0.9461
vn 0.0902 -0.1737 -0.9807
vn -0.0902 -0.1737 -0.9807
vn -0.2977 -0.1278 -0.9461
vn -0.5193 -0.0323 -0.8540
vn -0.6771 0.1338 -0.7237
vn 0.8291 0.0101 -0.5590
vn 0.4582 -0.0742 -0.8857
vn 0.4132 -0.0599 -0.9087
vn 0.1913 -0.1951 -0.9620
vn -0.1913 -0.1951 -0.9620
vn -0.4132 -0.0599 -0.9087
vn -0.4582 -0.0742 -0.8857
vn -0.8291 0.0101 -0.5590
vn 0.5856 -0.2852 -0.7588
vn -0.5078 -0.5060 -0.6973
vn 0.2503 0.0140 -0.9681
vn 0.1363 0.1090 -0.9847
vn -0.1363 0.1090 -0.9847
vn -0.2503 0.0140 -0.9681
vn 0.5078 -0.5060 -0.6973
vn -0.5856 -0.2852 -0.7588
vn -0.5078 -0.8582 0.0746
vn -0.5782 -0.8125 -0.0738
vn -0.5565 -0.7774 -0.2932
vn -0.4771 -0.7963 -0.3718
vn -0.4436 -0.8567 -0.2633
vn -0.4453 -0.8939 -0.0514
vn -0.4467 -0.8818 0.1513
vn -0.4763 -0.8591 0.1875
vn -0.5156 -0.8434 0.1512
vn -0.5547 -0.8311 0.0405
vn -0.5105 -0.8318 -0.2179
vn -0.3432 -0.7513 -0.5637
vn -0.2430 -0.7547 -0.6094
vn -0.2355 -0.8421 -0.4853
vn -0.3458 -0.9310 -0.1172
vn -0.5358 -0.7539 0.3802
vn -0.6217 -0.7732 0.1253
vn -0.6611 -0.7487 0.0493
vn -0.5295 -0.8442 -0.0834
vn -0.4122 -0.8222 -0.3925
vn -0.0769 -0.6110 -0.7879
vn -0.0199 -0.6442 -0.7646
vn -0.0914 -0.8186 -0.5670
vn -0.5503 -0.6066 0.5737
vn -0.8280 -0.5492 -0.1130
vn -0.8548 -0.5135 -0.0750
vn -0.8603 -0.4144 -0.2970
vn -0.5838 -0.6516 -0.4843
vn -0.1300 -0.4064 -0.9044
vn 0.0506 -0.4001 -0.9151
vn 0.0099 -0.4538 -0.8910
vn -0.6266 -0.6066 0.4894
vn -0.8207 -0.0358 -0.5703
vn -0.8276 -0.0357 -0.5602
vn -0.9501 0.1634 -0.2659
vn -0.6599 0.4340 -0.6134
vn -0.0947 0.1239 -0.9878
vn -0.0236 0.0983 -0.9949
vn -0.0391 0.2356 -0.9711
vn -0.3154 0.4613 -0.8293
vn -0.6553 0.3291 -0.6799
vn -0.5183 0.5346 -0.6676
vn -0.7656 0.5629 -0.3115
vn -0.6568 0.6323 -0.4109
vn -0.4771 0.3013 -0.8256
vn -0.5927 0.2742 -0.7573
vn -0.4022 0.6879 -0.6041
vn -0.2908 0.6291 0.7208
vn -0.8703 0.1733 -0.4610
vn -0.8996 0.2423 -0.3633
vn -0.9341 0.0311 -0.3558
vn -0.7771 -0.4131 -0.4749
vn -0.6543 -0.6249 -0.4258
vn -0.4820 -0.5151 -0.7088
vn -0.4355 -0.4719 -0.7666
vn -0.5839 -0.4886 -0.6483
vn -0.8113 -0.4846 -0.3269
vn -0.9009 -0.4300 -0.0587
vn -0.9757 -0.1884 -0.1116
vn -0.4790 0.0891 -0.8733
vn -0.2117 0.1756 -0.9614
vn -0.1685 0.1639 -0.9720
vn -0.3133 -0.0324 -0.9491
vn -0.7039 -0.6883 -0.1756
vn -0.6173 -0.7572 0.2133
vn -0.8659 -0.4990 -0.0337
vn -0.8281 -0.5270 -0.1910
vn -0.3412 -0.8727 -0.3493
vn 0.3412 -0.8727 -0.3493
vn 0.8281 -0.5270 -0.1910
vn 0.8659 -0.4990 -0.0337
vn 0.6173 -0.7572 0.2133
vn -0.6672 -0.6325 0.3935
vn -0.8742 -0.4388 0.2081
vn -0.9040 -0.3425 0.2560
vn -0.4905 -0.7773 0.3940
vn 0.4905 -0.7773 0.3940
vn 0.9040 -0.3425 0.2560
vn 0.8742 -0.4388 0.2081
vn 0.6672 -0.6325 0.3935
vn -0.6049 -0.6817 0.4116
vn -0.8031 -0.3523 0.4805
vn -0.6883 -0.2301 0.6880
vn -0.2791 -0.2086 0.9373
vn 0.2791 -0.2086 0.9373
vn 0.6883 -0.2301 0.6880
vn 0.8031 -0.3523 0.4805
vn 0.6049 -0.6817 0.4116
vn -0.6850 -0.2020 0.7000
vn -0.7983 -0.2549 0.5457
vn -0.6986 -0.2396 0.6742
vn -0.3971 -0.2786 0.8745
vn 0.3971 -0.2786 0.8745
vn 0.6986 -0.2396 0.6742
vn 0.7983 -0.2549 0.5457
vn 0.6850 -0.2020 0.7000
vn -0.4806 0.5854 0.6529
vn -0.7724 0.3665 0.5187
vn -0.7707 -0.1413 0.6213
vn -0.4331 0.5334 0.7266
vn 0.4331 0.5334 0.7266
vn 0.7707 -0.1413 0.6213
vn 0.7724 0.3665 0.5187
vn 0.4806 0.5854 0.6529
vn -0.5463 0.7972 0.2570
vn -0.9013 -0.0360 0.4316
vn -0.8315 -0.0459 0.5536
vn -0.3318 0.5177 0.7886
vn 0.3318 0.5177 0.7886
vn 0.8315 -0.0459 0.5536
vn 0.9013 -0.0360 0.4316
vn 0.5463 0.7972 0.2570
vn -0.6742 -0.6263 0.3914
vn -0.7828 -0.2507 0.5696
vn -0.7944 0.4172 0.4415
vn -0.8244 0.5179 0.2283
vn 0.8244 0.5179 0.2283
vn 0.7944 0.4172 0.4415
vn 0.7828 -0.2507 0.5696
vn 0.6742 -0.6263 0.3914
vn -0.3897 -0.3116 0.8666
vn -0.2240 0.4633 0.8575
vn -0.5800 0.5910 0.5607
vn -0.7781 0.6168 0.1188
vn 0.7781 0.6168 0.1188
vn 0.5800 0.5910 0.5607
vn 0.2240 0.4633 0.8575
vn 0.3897 -0.3116 0.8666
vn 0.4763 -0.8591 0.1875
vn 0.4467 -0.8818 0.1513
vn 0.4453 -0.8939 -0.0514
vn 0.4436 -0.8567 -0.2633
vn 0.4771 -0.7963 -0.3718
vn 0.5565 -0.7774 -0.2932
vn 0.5782 -0.8125 -0.0738
vn 0.5078 -0.8582 0.0746
vn 0.5358 -0.7539 0.3802
vn 0.3458 -0.9310 -0.1172
vn 0.2355 -0.8421 -0.4852
vn 0.2430 -0.7547 -0.6094
vn 0.3432 -0.7513 -0.5637
vn 0.5105 -0.8318 -0.2179
vn 0.5547 -0.8311 0.0405
vn 0.5156 -0.8434 0.1512
vn 0.5503 -0.6066 0.5737
vn 0.0914 -0.8186 -0.5670
vn 0.0199 -0.6442 -0.7646
vn 0.0769 -0.6110 -0.7879
vn 0.4122 -0.8222 -0.3925
vn 0.5295 -0.8442 -0.0834
vn 0.6611 -0.7487 0.0493
vn 0.6217 -0.7732 0.1253
vn 0.6266 -0.6066 0.4894
vn -0.0100 -0.4538 -0.8910
vn -0.0506 -0.4001 -0.9151
vn 0.1300 -0.4064 -0.9044
vn 0.5838 -0.6516 -0.4843
vn 0.8603 -0.4144 -0.2970
vn 0.8548 -0.5135 -0.0750
vn 0.8280 -0.5492 -0.1130
vn 0.3154 0.4613 -0.8293
vn 0.0391 0.2356 -0.9711
vn 0.0236 0.0983 -0.9949
vn 0.0947 0.1239 -0.9878
vn 0.6599 0.4340 -0.6134
vn 0.9501 0.1634 -0.2659
vn 0.8276 -0.0357 -0.5602
vn 0.8207 -0.0358 -0.5703
vn 0.2908 0.6291 0.7209
vn 0.4022 0.6879 -0.6041
vn 0.5927 0.2742 -0.7573
vn 0.4771 0.3013 -0.8256
vn 0.6568 0.6323 -0.4109
vn 0.7656 0.5629 -0.3115
vn 0.5183 0.5346 -0.6676
vn 0.6553 0.3291 -0.6799
vn 0.5839 -0.4886 -0.6483
vn 0.4355 -0.4719 -0.7666
vn 0.4820 -0.5151 -0.7088
vn 0.6543 -0.6249 -0.4258
vn 0.7771 -0.4131 -0.4749
vn 0.9341 0.0311 -0.3558
vn 0.8996 0.2423 -0.3633
vn 0.8703 0.1733 -0.4610
vn 0.7039 -0.6883 -0.1756
vn 0.3133 -0.0324 -0.9491
vn 0.1685 0.1639 -0.9720
vn 0.2117 0.1756 -0.9614
vn 0.4789 0.0891 -0.8733
vn 0.9757 -0.1884 -0.1116
vn 0.9009 -0.4300 -0.0587
vn 0.8114 -0.4846 -0.3269
vn 0.5570 -0.8242 0.1022
vn 0.7413 -0.6712 -0.0053
vn 0.6196 -0.7053 -0.3444
vn 0.2299 -0.7841 -0.5764
vn -0.2299 -0.7841 -0.5764
vn -0.6196 -0.7053 -0.3444
vn -0.7413 -0.6712 -0.0053
vn -0.5570 -0.8242 0.1022
vn 0.4981 -0.8600 0.1106
vn 0.5606 -0.8280 0.0120
vn 0.4840 -0.8572 -0.1762
vn 0.1878 -0.9111 -0.3670
vn -0.1878 -0.9111 -0.3670
vn -0.4840 -0.8572 -0.1762
vn -0.5606 -0.8280 0.0120
vn -0.4981 -0.8600 0.1106
vn 0.4871 -0.8603 0.1502
vn 0.4990 -0.8649 0.0549
vn 0.3808 -0.9218 -0.0719
vn 0.1438 -0.9745 -0.1721
vn -0.1438 -0.9745 -0.1721
vn -0.3808 -0.9218 -0.0719
vn -0.4990 -0.8649 0.0549
vn -0.4871 -0.8603 0.1502
vn 0.4835 -0.8753 0.0093
vn 0.4455 -0.8949 0.0272
vn 0.3174 -0.9474 -0.0421
vn 0.1151 -0.9888 -0.0950
vn -0.1151 -0.9888 -0.0950
vn -0.3174 -0.9474 -0.0421
vn -0.4455 -0.8949 0.0272
vn -0.4835 -0.8753 0.0093
vn 0.4977 -0.8577 -0.1286
vn 0.4099 -0.9097 -0.0670
vn 0.2710 -0.9591 -0.0815
vn 0.0949 -0.9903 -0.1018
vn -0.0949 -0.9903 -0.1018
vn -0.2710 -0.9591 -0.0815
vn -0.4099 -0.9097 -0.0670
vn -0.4977 -0.8577 -0.1286
vn 0.5233 -0.8342 -0.1740
vn 0.3987 -0.9084 -0.1256
vn 0.2473 -0.9606 -0.1267
vn 0.0838 -0.9874 -0.1342
vn -0.0838 -0.9874 -0.1342
vn -0.2473 -0.9606 -0.1267
vn -0.3987 -0.9084 -0.1256
vn -0.5233 -0.8342 -0.1740
vn 0.5248 -0.8429 -0.1187
vn 0.3809 -0.9172 -0.1173
vn 0.2272 -0.9650 -0.1312
vn 0.0753 -0.9871 -0.1414
vn -0.0753 -0.9871 -0.1414
vn -0.2272 -0.9650 -0.1312
vn -0.3809 -0.9172 -0.1173
vn -0.5248 -0.8429 -0.1187
vn 0.4549 -0.8905 -0.0051
vn 0.3186 -0.9471 -0.0394
vn 0.1831 -0.9805 -0.0719
vn 0.0590 -0.9940 -0.0916
vn -0.0590 -0.9940 -0.0916
vn -0.1831 -0.9805 -0.0719
vn -0.3186 -0.9471 -0.0394
vn -0.4549 -0.8905 -0.0051
vn -0.0717 -0.7694 -0.6348
vn -0.5315 -0.2854 -0.7975
vn -0.5054 0.2774 -0.8171
vn -0.2646 0.4459 -0.8550
vn 0.2646 0.4459 -0.8550
vn 0.5054 0.2774 -0.8171
vn 0.5315 -0.2854 -0.7975
vn 0.0717 -0.7694 -0.6348
vn 0.8374 0.2892 -0.4638
vn 0.3152 0.8567 -0.4084
vn 0.2668 0.8711 -0.4123
vn 0.2044 0.9171 -0.3423
vn -0.2044 0.9171 -0.3423
vn -0.2668 0.8711 -0.4123
vn -0.3152 0.8567 -0.4084
vn -0.8374 0.2892 -0.4638
vn 0.6423 0.7216 -0.2585
vn 0.4381 0.8559 -0.2747
vn 0.3270 0.9043 -0.2744
vn 0.1079 0.9593 -0.2610
vn -0.1079 0.9593 -0.2610
vn -0.3270 0.9043 -0.2744
vn -0.4381 0.8559 -0.2747
vn -0.6423 0.7216 -0.2585
vn 0.3272 0.7307 -0.5992
vn 0.4025 0.8673 -0.2928
vn 0.3089 0.9131 -0.2660
vn 0.1156 0.9493 -0.2923
vn -0.1156 0.9493 -0.2923
vn -0.3089 0.9131 -0.2660
vn -0.4025 0.8673 -0.2928
vn -0.3272 0.7307 -0.5992
vn 0.1329 0.8656 -0.4827
vn 0.3027 0.9352 -0.1835
vn 0.2803 0.9574 -0.0697
vn 0.1092 0.9936 -0.0284
vn -0.1092 0.9936 -0.0284
vn -0.2803 0.9574 -0.0697
vn -0.3027 0.9352 -0.1835
vn -0.1329 0.8656 -0.4827
vn -0.0430 0.9275 -0.3714
vn 0.1662 0.9860 0.0143
vn 0.2685 0.9572 0.1081
vn 0.1219 0.9878 0.0966
vn -0.1219 0.9878 0.0966
vn -0.2685 0.9572 0.1081
vn -0.1662 0.9860 0.0143
vn 0.0430 0.9275 -0.3714
vn -0.1662 0.9861 -0.0025
vn 0.0443 0.9386 0.3420
vn 0.3299 0.8800 0.3418
vn 0.2384 0.9479 0.2113
vn -0.2384 0.9479 0.2113
vn -0.3299 0.8800 0.3418
vn -0.0443 0.9387 0.3420
vn 0.1662 0.9861 -0.0025
vn -0.0994 0.7684 0.6323
vn 0.0813 0.6835 0.7254
vn 0.4233 0.6524 0.6286
vn 0.4232 0.7672 0.4819
vn -0.4232 0.7672 0.4819
vn -0.4233 0.6524 0.6286
vn -0.0813 0.6835 0.7254
vn 0.0994 0.7684 0.6323
s 0
f 1//1 2//1 10//1 9//1
f 2//2 3//2 11//2 10//2
f 3//3 4//3 12//3 11//3
f 4//4 5//4 13//4 12//4
f 5//5 6//5 14//5 13//5
f 6//6 7//6 15//6 14//6
f 7//7 8//7 16//7 15//7
f 8//8 65//8 73//8 16//8
f 9//9 10//9 18//9 17//9
f 10//10 11//10 19//10 18//10
f 11//11 12//11 20//11 19//11
f 12//12 13//12 21//12 20//12
f 13//13 14//13 22//13 21//13
f 14//14 15//14 23//14 22//14
f 15//15 16//15 24//15 23//15
f 16//16 73//16 81//16 24//16
f 17//17 18//17 26//17 25//17
f 18//18 19//18 27//18 26//18
f 19//19 20//19 28//19 27//19
f 20//20 21//20 29//20 28//20
f 21//21 22//21 30//21 29//21
f 22//22 23//22 31//22 30//22
f 23//23 24//23 32//23 31//23
f 24//24 81//24 89//24 32//24
f 25//25 26//25 34//25 33//25
f 26//26 27//26 35//26 34//26
f 27//27 28//27 36//27 35//27
f 28//28 29//28 37//28 36//28
f 29//29 30//29 38//29 37//29
f 30//30 31//30 39//30 38//30
f 31//31 32//31 40//31 39//31
f 32//32 89//32 97//32 40//32
f 33//33 34//33 42//33 41//33
f 34//34 35//34 43//34 42//34
f 35//35 36//35 44//35 43//35
f 36//36 37//36 45//36 44//36
f 37//37 38//37 46//37 45//37
f 38//38 39//38 47//38 46//38
f 39//39 40//39 48//39 47//39
f 40//40 97//40 105//40 48//40
f 41//41 42//41 50//41 49//41
f 42//42 43//42 51//42 50//42
f 43//43 44//43 52//43 51//43
f 44//44 45//44 53//44 52//44
f 45//45 46//45 54//45 53//45
f 46//46 47//46 55//46 54//46
f 47//47 48//47 56//47 55//47
f 48//48 105//48 113//48 56//48
f 49//49 50//49 58//49 57//49
f 50//50 51//50 59//50 58//50
f 51//51 52//51 60//51 59//51
f 52//52 53//52 61//52 60//52
f 53//53 54//53 62//53 61//53
f 54//54 55//54 63//54 62//54
f 55//55 56//55 64//55 63//55
f 56//56 113//56 121//56 64//56
f 57//57 58//57 307//57 306//57
f 58//58 59//58 308//58 307//58
f 59//59 60//59 309//59 308//59
f 60//60 61//60 310//60 309//60
f 61//61 62//61 311//61 310//61
f 62//62 63//62 312//62 311//62
f 63//63 64//63 313//63 312//63
f 64//64 121//64 314//64 313//64
f 65//65 66//65 74//65 73//65
f 66//66 67//66 75//66 74//66
f 67//67 68//67 76//67 75//67
f 68//68 69//68 77//68 76//68
f 69//69 70//69 78//69 77//69
f 70//70 71//70 79//70 78//70
f 71//71 72//71 80//71 79//71
f 72//72 129//72 137//72 80//72
f 73//73 74//73 82//73 81//73
f 74//74 75//74 83//74 82//74
f 75//75 76//75 84//75 83//75
f 76//76 77//76 85//76 84//76
f 77//77 78//77 86//77 85//77
f 78//78 79//78 87//78 86//78
f 79//79 80//79 88//79 87//79
f 80//80 137//80 145//80 88//80
f 81//81 82//81 90//81 89//81
f 82//82 83//82 91//82 90//82
f 83//83 84//83 92//83 91//83
f 84//84 85//84 93//84 92//84
f 85//85 86//85 94//85 93//85
f 86//86 87//86 95//86 94//86
f 87//87 88//87 96//87 95//87
f 88//88 145//88 153//88 96//88
f 89//89 90//89 98//89 97//89
f 90//90 91//90 99//90 98//90
f 91//91 92//91 100//91 99//91
f 92//92 93//92 101//92 100//92
f 93//93 94//93 102//93 101//93
f 94//94 95//94 103//94 102//94
f 95//95 96//95 104//95 103//95
f 96//96 153//96 161//96 104//96
f 97//97 98//97 106//97 105//97
f 98//98 99//98 107//98 106//98
f 99//99 100//99 108//99 107//99
f 100//100 101//100 109//100 108//100
f 101//101 102//101 110//101 109//101
f 102//102 103//102 111//102 110//102
f 103//103 104//103 112//103 111//103
f 104//104 161//104 169//104 112//104
f 105//105 106//105 114//105 113//105
f 106//106 107//106 115//106 114//106
f 107//107 108//107 116//107 115//107
f 108//108 109//108 117//108 116//108
f 109//109 110//109 118//109 117//109
f 110//110 111//110 119//110 118//110
f 111//111 112//111 120//111 119//111
f 112//112 169//112 177//112 120//112
f 113//113 114//113 122//113 121//113
f 114//114 115//114 123//114 122//114
f 115//115 116//115 124//115 123//115
f 116//116 117//116 125//116 124//116
f 117//117 118//117 126//117 125//117
f 118//118 119//118 127//118 126//118
f 119//119 120//119 128//119 127//119
f 120//120 177//120 185//120 128//120
f 121//121 122//121 323//121 314//121
f 122//122 123//122 332//122 323//122
f 123//123 124//123 341//123 332//123
f 124//124 125//124 350//124 341//124
f 125//125 126//125 359//125 350//125
f 126//126 127//126 368//126 359//126
f 127//127 128//127 377//127 368//127
f 128//128 185//128 386//128 377//128
f 129//129 130//129 138//129 137//129
f 130//130 131//130 139//130 138//130
f 131//131 132//131 140//131 139//131
f 132//132 133//132 141//132 140//132
f 133//133 134//133 142//133 141//133
f 134//134 135//134 143//134 142//134
f 135//135 136//135 144//135 143//135
f 136//136 193//136 201//136 144//136
f 137//137 138//137 146//137 145//137
f 138//138 139//138 147//138 146//138
f 139//139 140//139 148//139 147//139
f 140//140 141//140 149//140 148//140
f 141//141 142//141 150//141 149//141
f 142//142 143//142 151//142 150//142
f 143//143 144//143 152//143 151//143
f 144//144 201//144 209//144 152//144
f 145//145 146//145 154//145 153//145
f 146//146 147//146 155//146 154//146
f 147//147 148//147 156//147 155//147
f 148//148 149//148 157//148 156//148
f 149//149 150//149 158//149 157//149
f 150//150 151//150 159//150 158//150
f 151//151 152//151 160//151 159//151
f 152//152 209//152 217//152 160//152
f 153//153 154//153 162//153 161//153
f 154//154 155//154 163//154 162//154
f 155//155 156//155 164//155 163//155
f 156//156 157//156 165//156 164//156
f 157//157 158//157 166//157 165//157
f 158//158 159//158 167//158 166//158
f 159//159 160//159 168//159 167//159
f 160//160 217//160 225//160 168//160
f 161//161 162//161 170//161 169//161
f 162//162 163//162 171//162 170//162
f 163//163 164//163 172//163 171//163
f 164//164 165//164 173//164 172//164
f 165//165 166//165 174//165 173//165
f 166//166 167//166 175//166 174//166
f 167//167 168//167 176//167 175//167
f 168//168 225//168 233//168 176//168
f 169//169 170//169 178//169 177//169
f 170//170 171//170 179//170 178//170
f 171//171 172//171 180//171 179//171
f 172//172 173//172 181//172 180//172
f 173//173 174//173 182//173 181//173
f 174//174 175//174 183//174 182//174
f 175//175 176//175 184//175 183//175
f 176//176 233//176 241//176 184//176
f 177//177 178//177 186//177 185//177
f 178//178 179//178 187//178 186//178
f 179//179 180//179 188//179 187//179
f 180//180 181//180 189//180 188//180
f 181//181 182//181 190//181 189//181
f 182//182 183//182 191//182 190//182
f 183//183 184//183 192//183 191//183
f 184//184 241//184 249//184 192//184
f 185//185 186//185 385//185 386//185
f 186//186 187//186 384//186 385//186
f 187//187 188//187 383//187 384//187
f 188//188 189//188 382//188 383//188
f 189//189 190//189 381//189 382//189
f 190//190 191//190 380//190 381//190
f 191//191 192//191 379//191 380//191
f 192//192 249//192 378//192 379//192
f 193//193 194//193 202//193 201//193
f 194//194 195//194 203//194 202//194
f 195//195 196//195 204//195 203//195
f 196//196 197//196 205//196 204//196
f 197//197 198//197 206//197 205//197
f 198//198 199//198 207//198 206//198
f 199//199 200//199 208//199 207//199
f 200//200 1//200 9//200 208//200
f 201//201 202//201 210//201 209//201
f 202//202 203//202 211//202 210//202
f 203//203 204//203 212//203 211//203
f 204//204 205//204 213//204 212//204
f 205//205 206//205 214//205 213//205
f 206//206 207//206 215//206 214//206
f 207//207 208//207 216//207 215//207
f 208//208 9//208 17//208 216//208
f 209//209 210//209 218//209 217//209
f 210//210 211//210 219//210 218//210
f 211//211 212//211 220//211 219//211
f 212//212 213//212 221//212 220//212
f 213//213 214//213 222//213 221//213
f 214//214 215//214 223//214 222//214
f 215//215 216//215 224//215 223//215
f 216//216 17//216 25//216 224//216
f 217//217 218//217 226//217 225//217
f 218//218 219//218 227//218 226//218
f 219//219 220//219 228//219 227//219
f 220//220 221//220 229//220 228//220
f 221//221 222//221 230//221 229//221
f 222//222 223//222 231//222 230//222
f 223//223 224//223 232//223 231//223
f 224//224 25//224 33//224 232//224
f 225//225 226//225 234//225 233//225
f 226//226 227//226 235//226 234//226
f 227//227 228//227 236//227 235//227
f 228//228 229//228 237//228 236//228
f 229//229 230//229 238//229 237//229
f 230//230 231//230 239//230 238//230
f 231//231 232//231 240//231 239//231
f 232//232 33//232 41//232 240//232
f 233//233 234//233 242//233 241//233
f 234//234 235//234 243//234 242//234
f 235//235 236//235 244//235 243//235
f 236//236 237//236 245//236 244//236
f 237//237 238//237 246//237 245//237
f 238//238 239//238 247//238 246//238
f 239//239 240//239 248//239 247//239
f 240//240 41//240 49//240 248//240
f 241//241 242//241 250//241 249//241
f 242//242 243//242 251//242 250//242
f 243//243 244//243 252//243 251//243
f 244//244 245//244 253//244 252//244
f 245//245 246//245 254//245 253//245
f 246//246 247//246 255//246 254//246
f 247//247 248//247 256//247 255//247
f 248//248 49//248 57//248 256//248
f 249//249 250//249 369//249 378//249
f 250//250 251//250 360//250 369//250
f 251//251 252//251 351//251 360//251
f 252//252 253//252 342//252 351//252
f 253//253 254//253 333//253 342//253
f 254//254 255//254 324//254 333//254
f 255//255 256//255 315//255 324//255
f 256//256 57//256 306//256 315//256
f 193//257 136//257 257//257 194//257
f 136//258 135//258 258//258 257//258
f 135//259 134//259 259//259 258//259
f 134//260 133//260 260//260 259//260
f 133//261 132//261 261//261 260//261
f 132//262 131//262 262//262 261//262
f 131//263 130//263 263//263 262//263
f 130//264 129//264 72//264 263//264
f 194//265 257//265 264//265 195//265
f 257//266 258//266 265//266 264//266
f 258//267 259//267 266//267 265//267
f 259//268 260//268 267//268 266//268
f 260//269 261//269 268//269 267//269
f 261//270 262//270 269//270 268//270
f 262//271 263//271 270//271 269//271
f 263//272 72//272 71//272 270//272
f 195//273 264//273 271//273 196//273
f 264//274 265//274 272//274 271//274
f 265//275 266//275 273//275 272//275
f 266//276 267//276 274//276 273//276
f 267//277 268//277 275//277 274//277
f 268//278 269//278 276//278 275//278
f 269//279 270//279 277//279 276//279
f 270//280 71//280 70//280 277//280
f 196//281 271//281 278//281 197//281
f 271//282 272//282 279//282 278//282
f 272//283 273//283 280//283 279//283
f 273//284 274//284 281//284 280//284
f 274//285 275//285 282//285 281//285
f 275//286 276//286 283//286 282//286
f 276//287 277//287 284//287 283//287
f 277//288 70//288 69//288 284//288
f 197//289 278//289 285//289 198//289
f 278//290 279//290 286//290 285//290
f 279//291 280//291 287//291 286//291
f 280//292 281//292 288//292 287//292
f 281//293 282//293 289//293 288//293
f 282//294 283//294 290//294 289//294
f 283//295 284//295 291//295 290//295
f 284//296 69//296 68//296 291//296
f 198//297 285//297 292//297 199//297
f 285//298 286//298 293//298 292//298
f 286//299 287//299 294//299 293//299
f 287//300 288//300 295//300 294//300
f 288//301 289//301 296//301 295//301
f 289//302 290//302 297//302 296//302
f 290//303 291//303 298//303 297//303
f 291//304 68//304 67//304 298//304
f 199//305 292//305 299//305 200//305
f 292//306 293//306 300//306 299//306
f 293//307 294//307 301//307 300//307
f 294//308 295//308 302//308 301//308
f 295//309 296//309 303//309 302//309
f 296//310 297//310 304//310 303//310
f 297//311 298//311 305//311 304//311
f 298//312 67//312 66//312 305//312
f 200//313 299//313 2//313 1//313
f 299//314 300//314 3//314 2//314
f 300//315 301//315 4//315 3//315
f 301//316 302//316 5//316 4//316
f 302//317 303//317 6//317 5//317
f 303//318 304//318 7//318 6//318
f 304//319 305//319 8//319 7//319
f 305//320 66//320 65//320 8//320
f 306//321 307//321 316//321 315//321
f 307//322 308//322 317//322 316//322
f 308//323 309//323 318//323 317//323
f 309//324 310//324 319//324 318//324
f 310//325 311//325 320//325 319//325
f 311//326 312//326 321//326 320//326
f 312//327 313//327 322//327 321//327
f 313//328 314//328 323//328 322//328
f 315//329 316//329 325//329 324//329
f 316//330 317//330 326//330 325//330
f 317//331 318//331 327//331 326//331
f 318//332 319//332 328//332 327//332
f 319//333 320//333 329//333 328//333
f 320//334 321//334 330//334 329//334
f 321//335 322//335 331//335 330//335
f 322//336 323//336 332//336 331//336
f 324//337 325//337 334//337 333//337
f 325//338 326//338 335//338 334//338
f 326//339 327//339 336//339 335//339
f 327//340 328//340 337//340 336//340
f 328//341 329//341 338//341 337//341
f 329//342 330//342 339//342 338//342
f 330//343 331//343 340//343 339//343
f 331//344 332//344 341//344 340//344
f 333//345 334//345 343//345 342//345
f 334//346 335//346 344//346 343//346
f 335//347 336//347 345//347 344//347
f 336//348 337//348 346//348 345//348
f 337//349 338//349 347//349 346//349
f 338//350 339//350 348//350 347//350
f 339//351 340//351 349//351 348//351
f 340//352 341//352 350//352 349//352
f 342//353 343//353 352//353 351//353
f 343//354 344//354 353//354 352//354
f 344//355 345//355 354//355 353//355
f 345//356 346//356 355//356 354//356
f 346//357 347//357 356//357 355//357
f 347//358 348//358 357//358 356//358
f 348//359 349//359 358//359 357//359
f 349//360 350//360 359//360 358//360
f 351//361 352//361 361//361 360//361
f 352//362 353//362 362//362 361//362
f 353//363 354//363 363//363 362//363
f 354//364 355//364 364//364 363//364
f 355//365 356//365 365//365 364//365
f 356//366 357//366 366//366 365//366
f 357//367 358//367 367//367 366//367
f 358//368 359//368 368//368 367//368
f 360//369 361//369 370//369 369//369
f 361//370 362//370 371//370 370//370
f 362//371 363//371 372//371 371//371
f 363//372 364//372 373//372 372//372
f 364//373 365//373 374//373 373//373
f 365//374 366//374 375//374 374//374
f 366//375 367//375 376//375 375//375
f 367//376 368//376 377//376 376//376
f 369//377 370//377 379//377 378//377
f 370//378 371//378 380//378 379//378
f 371//379 372//379 381//379 380//379
f 372//380 373//380 382//380 381//380
f 373//381 374//381 383//381 382//381
f 374//382 375//382 384//382 383//382
f 375//383 376//383 385//383 384//383
f 376//384 377//384 386//384 385//384
