# Blender 5.0.0
# www.blender.org
mtllib Torso_2.mtl
o Roundcube
v 0.406000 -0.956321 -0.520105
v 0.295847 -1.074446 -0.563533
v 0.206624 -1.174348 -0.577862
v 0.111194 -1.253011 -0.576460
v 0.000000 -1.285409 -0.573539
v -0.111194 -1.253011 -0.576460
v -0.206624 -1.174348 -0.577862
v -0.295847 -1.074446 -0.563533
v 0.376123 -0.703140 -0.576618
v 0.215005 -0.788603 -0.650773
v 0.125058 -0.864187 -0.680426
v 0.061200 -0.923461 -0.686687
v 0.000000 -0.947190 -0.686324
v -0.061200 -0.923461 -0.686687
v -0.125058 -0.864186 -0.680426
v -0.215005 -0.788604 -0.650773
v 0.374786 -0.490851 -0.637798
v 0.185788 -0.553764 -0.728166
v 0.091906 -0.614159 -0.759866
v 0.039295 -0.664221 -0.762673
v 0.000000 -0.684444 -0.759793
v -0.039295 -0.664221 -0.762673
v -0.091906 -0.614158 -0.759865
v -0.185788 -0.553764 -0.728166
v 0.380348 -0.306973 -0.697106
v 0.179923 -0.349241 -0.793433
v 0.082375 -0.393962 -0.820694
v 0.031566 -0.433926 -0.816078
v 0.000000 -0.450175 -0.808998
v -0.031566 -0.433926 -0.816078
v -0.082375 -0.393962 -0.820694
v -0.179923 -0.349241 -0.793433
v 0.380747 -0.142655 -0.750764
v 0.176613 -0.161841 -0.848243
v 0.080186 -0.186432 -0.872296
v 0.030278 -0.211900 -0.864857
v 0.000000 -0.222512 -0.856389
v -0.030279 -0.211900 -0.864856
v -0.080186 -0.186432 -0.872296
v -0.176613 -0.161841 -0.848243
v 0.378141 0.006900 -0.794300
v 0.179109 0.015038 -0.886337
v 0.084869 0.014452 -0.907437
v 0.034094 0.006797 -0.900397
v 0.000000 0.002711 -0.893240
v -0.034094 0.006798 -0.900397
v -0.084869 0.014452 -0.907437
v -0.179109 0.015038 -0.886337
v 0.375248 0.143409 -0.824769
v 0.192140 0.179908 -0.902612
v 0.098962 0.201770 -0.918846
v 0.042346 0.210505 -0.911641
v 0.000000 0.212466 -0.905673
v -0.042346 0.210505 -0.911641
v -0.098961 0.201770 -0.918846
v -0.192140 0.179908 -0.902612
v 0.370805 0.269604 -0.840541
v 0.212897 0.328611 -0.896902
v 0.120421 0.363426 -0.908243
v 0.054685 0.380038 -0.902602
v 0.000000 0.384835 -0.898265
v -0.054685 0.380037 -0.902602
v -0.120421 0.363426 -0.908242
v -0.212898 0.328612 -0.896902
v -0.406000 -0.956321 -0.520105
v -0.565178 -1.101263 -0.419283
v -0.687432 -1.244231 -0.335643
v -0.778211 -1.385669 -0.262222
v -0.843793 -1.517984 -0.187809
v -0.884794 -1.625725 -0.093917
v -0.894491 -1.685294 0.048891
v -0.850612 -1.630889 0.278083
v -0.376123 -0.703139 -0.576618
v -0.593899 -0.786449 -0.425738
v -0.765560 -0.874440 -0.281409
v -0.880855 -0.963977 -0.143284
v -0.949400 -1.046821 -0.005772
v -0.981824 -1.105776 0.141789
v -0.986514 -1.118327 0.311995
v -0.968392 -1.082945 0.504512
v -0.374786 -0.490851 -0.637798
v -0.635890 -0.526439 -0.465687
v -0.853318 -0.565859 -0.291807
v -1.007591 -0.605168 -0.118744
v -1.109789 -0.641577 0.056560
v -1.172855 -0.674381 0.236913
v -1.204779 -0.706292 0.424419
v -1.202706 -0.744272 0.616845
v -0.380348 -0.306973 -0.697105
v -0.674535 -0.310427 -0.521215
v -0.930816 -0.317396 -0.339465
v -1.122931 -0.325110 -0.153695
v -1.259450 -0.337529 0.041503
v -1.351222 -0.364461 0.248217
v -1.406044 -0.417439 0.464149
v -1.418907 -0.502676 0.679562
v -0.380747 -0.142656 -0.750764
v -0.695391 -0.126881 -0.581676
v -0.983371 -0.111385 -0.405041
v -1.214290 -0.090961 -0.220066
v -1.390646 -0.073636 -0.013786
v -1.512436 -0.083988 0.221252
v -1.581203 -0.151398 0.474652
v -1.596696 -0.273210 0.718539
v -0.378141 0.006900 -0.794300
v -0.693910 0.029622 -0.641051
v -1.002998 0.057657 -0.479264
v -1.276555 0.101728 -0.307891
v -1.509965 0.157028 -0.101548
v -1.678208 0.183433 0.171318
v -1.750645 0.107088 0.482412
v -1.743944 -0.047833 0.748879
v -0.375249 0.143409 -0.824768
v -0.667829 0.162552 -0.696241
v -0.987898 0.190739 -0.559397
v -1.315878 0.245161 -0.419833
v -1.633536 0.335853 -0.237549
v -1.884111 0.412334 0.097091
v -1.933800 0.323602 0.527549
v -1.872722 0.137336 0.797223
v -0.370805 0.269604 -0.840540
v -0.618399 0.280442 -0.744122
v -0.960790 0.285518 -0.652321
v -1.420597 0.297788 -0.600081
v -1.906853 0.425398 -0.509275
v -2.308354 0.559869 -0.139289
v -2.180787 0.455170 0.602792
v -1.972894 0.230319 0.897576
v -0.767602 -1.437884 0.544610
v -0.641784 -1.648015 0.608988
v -0.510031 -1.781386 0.663316
v -0.324114 -1.874487 0.649448
v 0.000000 -1.921799 0.612748
v 0.324114 -1.874487 0.649448
v 0.510031 -1.781387 0.663316
v 0.641784 -1.648014 0.608988
v -0.916057 -1.029155 0.700781
v -0.681416 -1.176676 0.775335
v -0.457014 -1.288646 0.803821
v -0.227934 -1.371262 0.787230
v 0.000000 -1.400402 0.772136
v 0.227934 -1.371262 0.787230
v 0.457014 -1.288646 0.803821
v 0.681417 -1.176676 0.775335
v -1.136786 -0.793200 0.802891
v -0.851853 -0.902198 0.898983
v -0.483648 -0.952781 0.922067
v -0.158413 -0.970262 0.870622
v 0.000000 -0.963020 0.833068
v 0.158413 -0.970262 0.870622
v 0.483648 -0.952782 0.922067
v 0.851852 -0.902198 0.898983
v -1.344609 -0.614647 0.874239
v -1.080109 -0.732244 0.984869
v -0.560102 -0.748797 1.019455
v -0.076975 -0.706060 0.924494
v 0.000000 -0.677261 0.848609
v 0.076976 -0.706060 0.924494
v 0.560102 -0.748797 1.019455
v 1.080110 -0.732244 0.984869
v -1.513309 -0.427672 0.926111
v -1.266730 -0.558630 1.045203
v -0.605136 -0.564266 1.097441
v -0.020315 -0.469725 0.964667
v 0.000000 -0.425678 0.864247
v 0.020315 -0.469725 0.964668
v 0.605133 -0.564266 1.097441
v 1.266730 -0.558630 1.045202
v -1.638414 -0.219932 0.955584
v -1.386278 -0.339441 1.076819
v -0.514354 -0.326698 1.146203
v -0.011210 -0.188607 0.974621
v 0.000000 -0.137504 0.878639
v 0.011210 -0.188607 0.974622
v 0.514354 -0.326698 1.146202
v 1.386278 -0.339441 1.076819
v -1.726186 -0.020374 0.965755
v -1.433036 -0.090022 1.060659
v -0.519505 -0.034346 1.090021
v -0.048918 0.146416 0.911243
v 0.000000 0.201309 0.839357
v 0.048918 0.146416 0.911243
v 0.519505 -0.034346 1.090020
v 1.433036 -0.090022 1.060659
v -1.790193 0.145081 0.971748
v -1.414453 0.165054 0.990718
v -0.573313 0.278631 0.939115
v -0.123688 0.455668 0.803327
v 0.000000 0.508434 0.755643
v 0.123688 0.455668 0.803327
v 0.573313 0.278631 0.939115
v 1.414453 0.165054 0.990718
v 0.767602 -1.437884 0.544609
v 0.850612 -1.630889 0.278083
v 0.894491 -1.685293 0.048891
v 0.884794 -1.625725 -0.093917
v 0.843793 -1.517984 -0.187809
v 0.778211 -1.385669 -0.262222
v 0.687432 -1.244231 -0.335643
v 0.565178 -1.101263 -0.419283
v 0.916057 -1.029155 0.700781
v 0.968392 -1.082945 0.504511
v 0.986513 -1.118327 0.311995
v 0.981824 -1.105776 0.141789
v 0.949400 -1.046821 -0.005773
v 0.880855 -0.963976 -0.143283
v 0.765560 -0.874440 -0.281408
v 0.593899 -0.786449 -0.425738
v 1.136786 -0.793200 0.802892
v 1.202706 -0.744272 0.616845
v 1.204779 -0.706292 0.424419
v 1.172856 -0.674382 0.236913
v 1.109788 -0.641577 0.056560
v 1.007591 -0.605168 -0.118744
v 0.853317 -0.565858 -0.291807
v 0.635889 -0.526439 -0.465687
v 1.344610 -0.614647 0.874239
v 1.418907 -0.502676 0.679562
v 1.406044 -0.417439 0.464148
v 1.351222 -0.364461 0.248217
v 1.259450 -0.337529 0.041503
v 1.122931 -0.325110 -0.153695
v 0.930816 -0.317396 -0.339465
v 0.674535 -0.310427 -0.521215
v 1.513309 -0.427672 0.926111
v 1.596696 -0.273210 0.718539
v 1.581203 -0.151398 0.474652
v 1.512437 -0.083988 0.221252
v 1.390647 -0.073636 -0.013786
v 1.214289 -0.090961 -0.220066
v 0.983370 -0.111385 -0.405041
v 0.695391 -0.126881 -0.581676
v 1.638414 -0.219932 0.955584
v 1.743943 -0.047834 0.748879
v 1.750645 0.107088 0.482413
v 1.678208 0.183433 0.171318
v 1.509966 0.157028 -0.101548
v 1.276555 0.101728 -0.307891
v 1.002998 0.057657 -0.479264
v 0.693909 0.029622 -0.641051
v 1.726186 -0.020374 0.965755
v 1.872722 0.137336 0.797223
v 1.933800 0.323602 0.527549
v 1.884110 0.412334 0.097092
v 1.633537 0.335853 -0.237549
v 1.315878 0.245161 -0.419833
v 0.987898 0.190739 -0.559397
v 0.667830 0.162551 -0.696241
v 1.790193 0.145081 0.971748
v 1.972894 0.230319 0.897576
v 2.180789 0.455169 0.602792
v 2.308354 0.559869 -0.139288
v 1.906854 0.425398 -0.509276
v 1.420597 0.297788 -0.600081
v 0.960790 0.285518 -0.652321
v 0.618399 0.280442 -0.744122
v 0.779885 -1.849978 0.244204
v 0.664198 -1.967925 0.272739
v 0.445074 -2.041712 0.299560
v 0.000000 -2.055150 0.288401
v -0.445074 -2.041712 0.299560
v -0.664197 -1.967925 0.272739
v -0.779885 -1.849978 0.244204
v 0.803585 -1.827233 -0.069712
v 0.647750 -1.908638 -0.072191
v 0.387636 -1.965536 -0.032152
v 0.000000 -1.979414 -0.004498
v -0.387635 -1.965536 -0.032152
v -0.647750 -1.908638 -0.072191
v -0.803585 -1.827233 -0.069712
v 0.766987 -1.755396 -0.211630
v 0.592873 -1.833689 -0.214005
v 0.330036 -1.878748 -0.182982
v 0.000000 -1.889499 -0.173128
v -0.330037 -1.878748 -0.182982
v -0.592873 -1.833689 -0.214005
v -0.766987 -1.755396 -0.211630
v 0.709173 -1.674490 -0.288198
v 0.531365 -1.757779 -0.292818
v 0.288403 -1.807489 -0.272381
v 0.000000 -1.825758 -0.270962
v -0.288404 -1.807489 -0.272380
v -0.531366 -1.757778 -0.292818
v -0.709174 -1.674490 -0.288198
v 0.634657 -1.575168 -0.351341
v 0.463768 -1.673794 -0.357466
v 0.251236 -1.739153 -0.338904
v 0.000000 -1.767862 -0.333284
v -0.251236 -1.739153 -0.338905
v -0.463769 -1.673795 -0.357466
v -0.634657 -1.575168 -0.351342
v 0.547301 -1.450871 -0.412576
v 0.395527 -1.573544 -0.420077
v 0.216427 -1.663624 -0.399231
v 0.000000 -1.705063 -0.387231
v -0.216427 -1.663625 -0.399231
v -0.395527 -1.573544 -0.420078
v -0.547301 -1.450870 -0.412576
v 0.440584 -1.287610 -0.477100
v 0.318355 -1.423204 -0.487304
v 0.175622 -1.531655 -0.471768
v 0.000000 -1.580847 -0.460323
v -0.175622 -1.531655 -0.471768
v -0.318355 -1.423204 -0.487304
v -0.440584 -1.287611 -0.477099
v 0.361319 0.391147 -0.838513
v 0.231240 0.458954 -0.870995
v 0.138825 0.491401 -0.882539
v 0.064883 0.503593 -0.884871
v 0.000000 0.506520 -0.884727
v -0.064883 0.503593 -0.884871
v -0.138825 0.491400 -0.882539
v -0.231241 0.458954 -0.870995
v -0.361319 0.391147 -0.838514
v 0.550065 0.404461 -0.772687
v 0.333792 0.525817 -0.806285
v 0.191009 0.573805 -0.829715
v 0.086306 0.581524 -0.846672
v 0.000000 0.581228 -0.852067
v -0.086307 0.581525 -0.846672
v -0.191010 0.573805 -0.829714
v -0.333792 0.525817 -0.806285
v -0.550066 0.404461 -0.772687
v 0.963217 0.348429 -0.760672
v 0.539094 0.549023 -0.731278
v 0.260211 0.659153 -0.725789
v 0.112331 0.684626 -0.746879
v 0.000000 0.688872 -0.750663
v -0.112331 0.684625 -0.746879
v -0.260211 0.659153 -0.725789
v -0.539093 0.549022 -0.731279
v -0.963217 0.348429 -0.760672
v 1.776992 0.315833 -0.905002
v 1.504059 0.390991 -0.979354
v 0.395551 0.757904 -0.557674
v 0.142487 0.852445 -0.584543
v 0.000000 0.870370 -0.581829
v -0.142487 0.852445 -0.584543
v -0.395551 0.757904 -0.557674
v -1.504058 0.390991 -0.979354
v -1.776991 0.315833 -0.905002
v 2.789729 0.625893 -0.605751
v 2.663591 0.734652 -0.702315
v 0.741487 0.849243 -0.397681
v 0.147073 1.067307 -0.352640
v 0.000000 1.098674 -0.366500
v -0.147073 1.067307 -0.352640
v -0.741486 0.849243 -0.397681
v -2.663591 0.734652 -0.702315
v -2.789729 0.625893 -0.605751
v 3.185167 0.645778 -0.284512
v 3.178892 0.792274 -0.272122
v 1.026379 0.923897 0.005559
v 0.126973 1.352966 -0.022297
v 0.000000 1.405860 -0.093186
v -0.126974 1.352966 -0.022297
v -1.026379 0.923897 0.005559
v -3.178892 0.792274 -0.272122
v -3.185168 0.645778 -0.284512
v 2.847115 0.545988 0.261448
v 2.509953 0.605717 0.626822
v 1.294717 0.792206 0.487122
v 0.131533 1.236136 0.229725
v 0.000000 1.360295 0.190185
v -0.131533 1.236136 0.229725
v -1.294716 0.792206 0.487122
v -2.509954 0.605717 0.626820
v -2.847114 0.545988 0.261447
v 2.007252 0.251492 1.038387
v 1.856986 0.350793 1.031782
v 0.741054 0.693116 0.594027
v 0.150057 0.983388 0.447173
v 0.000000 1.065893 0.416731
v -0.150058 0.983389 0.447173
v -0.741055 0.693117 0.594027
v -1.856986 0.350793 1.031782
v -2.007252 0.251492 1.038387
v 1.829189 0.270733 0.988430
v 1.335021 0.429001 0.859459
v 0.518371 0.574490 0.741182
v 0.148546 0.738336 0.642705
v 0.000000 0.786493 0.613644
v -0.148546 0.738336 0.642705
v -0.518371 0.574490 0.741182
v -1.335021 0.429001 0.859459
v -1.829188 0.270733 0.988429
vn 0.4769 -0.1337 -0.8687
vn 0.3962 -0.1788 -0.9006
vn 0.2522 -0.2583 -0.9326
vn 0.0829 -0.3101 -0.9471
vn -0.0829 -0.3101 -0.9471
vn -0.2522 -0.2583 -0.9326
vn -0.3962 -0.1788 -0.9006
vn -0.4769 -0.1337 -0.8687
vn 0.4913 -0.2270 -0.8409
vn 0.4521 -0.2213 -0.8641
vn 0.3043 -0.2478 -0.9198
vn 0.0875 -0.2708 -0.9586
vn -0.0875 -0.2708 -0.9586
vn -0.3043 -0.2478 -0.9198
vn -0.4521 -0.2213 -0.8641
vn -0.4913 -0.2270 -0.8409
vn 0.4744 -0.2685 -0.8383
vn 0.4063 -0.2465 -0.8798
vn 0.1876 -0.2347 -0.9538
vn -0.0260 -0.2160 -0.9760
vn 0.0260 -0.2160 -0.9760
vn -0.1876 -0.2347 -0.9538
vn -0.4063 -0.2465 -0.8798
vn -0.4744 -0.2685 -0.8383
vn 0.4490 -0.2599 -0.8549
vn 0.3279 -0.2415 -0.9133
vn 0.0311 -0.2272 -0.9733
vn -0.1530 -0.2071 -0.9663
vn 0.1530 -0.2071 -0.9663
vn -0.0311 -0.2272 -0.9734
vn -0.3279 -0.2415 -0.9133
vn -0.4490 -0.2599 -0.8549
vn 0.4199 -0.2200 -0.8805
vn 0.2498 -0.1889 -0.9497
vn -0.0874 -0.1638 -0.9826
vn -0.1992 -0.1561 -0.9675
vn 0.1992 -0.1561 -0.9675
vn 0.0874 -0.1638 -0.9826
vn -0.2498 -0.1889 -0.9497
vn -0.4199 -0.2200 -0.8805
vn 0.3863 -0.1540 -0.9094
vn 0.1846 -0.0911 -0.9786
vn -0.1318 -0.0498 -0.9900
vn -0.1676 -0.0530 -0.9844
vn 0.1676 -0.0530 -0.9844
vn 0.1318 -0.0498 -0.9900
vn -0.1846 -0.0911 -0.9786
vn -0.3863 -0.1540 -0.9094
vn 0.3523 -0.0551 -0.9343
vn 0.1560 0.0307 -0.9873
vn -0.0902 0.0681 -0.9936
vn -0.1019 0.0515 -0.9935
vn 0.1019 0.0515 -0.9935
vn 0.0902 0.0681 -0.9936
vn -0.1560 0.0307 -0.9873
vn -0.3523 -0.0551 -0.9343
vn 0.3305 0.0925 -0.9393
vn 0.1810 0.1679 -0.9691
vn 0.0115 0.1689 -0.9856
vn -0.0289 0.1276 -0.9914
vn 0.0289 0.1276 -0.9914
vn -0.0115 0.1689 -0.9856
vn -0.1810 0.1679 -0.9691
vn -0.3305 0.0925 -0.9393
vn -0.5131 -0.0935 -0.8532
vn -0.5943 -0.0367 -0.8034
vn -0.7115 -0.0088 -0.7026
vn -0.8392 -0.0124 -0.5437
vn -0.9439 -0.0558 -0.3255
vn -0.9877 -0.1365 -0.0768
vn -0.9448 -0.2634 0.1950
vn -0.7990 -0.4014 0.4477
vn -0.5067 -0.2220 -0.8330
vn -0.5795 -0.2021 -0.7895
vn -0.6948 -0.2087 -0.6883
vn -0.8093 -0.2434 -0.5345
vn -0.8870 -0.3077 -0.3444
vn -0.9038 -0.4035 -0.1427
vn -0.8502 -0.5249 0.0411
vn -0.7191 -0.6555 0.2307
vn -0.4935 -0.2900 -0.8200
vn -0.5512 -0.3099 -0.7747
vn -0.6527 -0.3437 -0.6751
vn -0.7512 -0.3866 -0.5350
vn -0.8106 -0.4355 -0.3915
vn -0.8212 -0.4967 -0.2811
vn -0.7886 -0.5826 -0.1969
vn -0.7092 -0.7041 -0.0364
vn -0.4748 -0.3004 -0.8272
vn -0.5190 -0.3501 -0.7798
vn -0.6098 -0.4038 -0.6820
vn -0.7073 -0.4494 -0.5457
vn -0.7741 -0.4784 -0.4146
vn -0.7968 -0.5006 -0.3382
vn -0.7929 -0.5357 -0.2905
vn -0.7757 -0.6219 -0.1078
vn -0.4506 -0.2791 -0.8480
vn -0.4803 -0.3558 -0.8017
vn -0.5546 -0.4415 -0.7053
vn -0.6530 -0.5117 -0.5584
vn -0.7403 -0.5359 -0.4058
vn -0.7838 -0.5261 -0.3300
vn -0.8112 -0.5081 -0.2895
vn -0.8480 -0.5291 -0.0303
vn -0.4219 -0.2332 -0.8762
vn -0.4264 -0.3568 -0.8312
vn -0.4555 -0.5344 -0.7120
vn -0.5390 -0.6676 -0.5136
vn -0.6450 -0.6903 -0.3278
vn -0.7183 -0.6446 -0.2618
vn -0.7917 -0.5558 -0.2536
vn -0.8548 -0.5015 0.1335
vn -0.3871 -0.1517 -0.9095
vn -0.3122 -0.4438 -0.8400
vn -0.1791 -0.8862 -0.4273
vn -0.2821 -0.9572 -0.0652
vn -0.3162 -0.9487 -0.0086
vn -0.3541 -0.9262 -0.1293
vn -0.6125 -0.7487 -0.2535
vn -0.7116 -0.6015 0.3632
vn -0.3481 0.0090 -0.9374
vn -0.0736 -0.5723 -0.8168
vn 0.0314 -0.9754 -0.2183
vn -0.2296 -0.9548 0.1890
vn -0.1646 -0.9859 0.0303
vn -0.0719 -0.9888 -0.1310
vn -0.0267 -0.9096 -0.4147
vn -0.1809 -0.7600 0.6242
vn -0.6368 -0.3816 0.6699
vn -0.3928 -0.2740 0.8779
vn -0.0407 -0.2632 0.9639
vn 0.0507 -0.2826 0.9579
vn -0.0507 -0.2826 0.9579
vn 0.0407 -0.2632 0.9639
vn 0.3928 -0.2740 0.8779
vn 0.6368 -0.3816 0.6699
vn -0.5062 -0.6424 0.5754
vn -0.1911 -0.4144 0.8898
vn 0.0697 -0.2671 0.9611
vn 0.1229 -0.1783 0.9763
vn -0.1229 -0.1783 0.9763
vn -0.0697 -0.2671 0.9611
vn 0.1911 -0.4144 0.8898
vn 0.5062 -0.6424 0.5754
vn -0.4752 -0.7791 0.4090
vn -0.0936 -0.4987 0.8617
vn 0.1790 -0.3042 0.9356
vn 0.4491 -0.1770 0.8757
vn -0.4491 -0.1770 0.8757
vn -0.1790 -0.3042 0.9356
vn 0.0936 -0.4987 0.8617
vn 0.4752 -0.7791 0.4090
vn -0.5483 -0.6881 0.4752
vn -0.0746 -0.4009 0.9131
vn 0.2338 -0.2688 0.9344
vn 0.8906 -0.1524 0.4285
vn -0.8906 -0.1524 0.4285
vn -0.2338 -0.2688 0.9344
vn 0.0746 -0.4009 0.9131
vn 0.5483 -0.6881 0.4752
vn -0.5566 -0.4214 0.7159
vn -0.0770 -0.1775 0.9811
vn 0.2981 -0.1639 0.9404
vn 0.9887 -0.0221 0.1480
vn -0.9887 -0.0221 0.1480
vn -0.2981 -0.1639 0.9404
vn 0.0770 -0.1775 0.9811
vn 0.5566 -0.4214 0.7159
vn -0.3983 -0.1072 0.9110
vn -0.0596 0.1265 0.9902
vn 0.2738 0.1981 0.9412
vn 0.9112 0.1114 0.3967
vn -0.9112 0.1114 0.3967
vn -0.2738 0.1981 0.9412
vn 0.0596 0.1265 0.9902
vn 0.3983 -0.1072 0.9110
vn -0.1568 0.1319 0.9788
vn -0.0230 0.3610 0.9323
vn 0.1503 0.4060 0.9014
vn 0.3991 0.3160 0.8607
vn -0.3991 0.3160 0.8607
vn -0.1503 0.4060 0.9014
vn 0.0230 0.3610 0.9323
vn 0.1568 0.1319 0.9788
vn 0.0649 0.2753 0.9592
vn 0.0095 0.5052 0.8630
vn 0.0244 0.5257 0.8503
vn 0.0706 0.4762 0.8765
vn -0.0706 0.4762 0.8765
vn -0.0244 0.5257 0.8503
vn -0.0095 0.5052 0.8630
vn -0.0649 0.2753 0.9592
vn 0.7990 -0.4014 0.4477
vn 0.9448 -0.2634 0.1950
vn 0.9877 -0.1365 -0.0768
vn 0.9439 -0.0558 -0.3255
vn 0.8392 -0.0124 -0.5437
vn 0.7115 -0.0088 -0.7026
vn 0.5943 -0.0367 -0.8034
vn 0.5131 -0.0935 -0.8532
vn 0.7191 -0.6555 0.2308
vn 0.8502 -0.5249 0.0411
vn 0.9038 -0.4035 -0.1427
vn 0.8870 -0.3077 -0.3444
vn 0.8093 -0.2434 -0.5345
vn 0.6948 -0.2087 -0.6883
vn 0.5795 -0.2021 -0.7895
vn 0.5067 -0.2220 -0.8330
vn 0.7092 -0.7041 -0.0364
vn 0.7886 -0.5826 -0.1969
vn 0.8212 -0.4967 -0.2811
vn 0.8106 -0.4355 -0.3915
vn 0.7512 -0.3866 -0.5350
vn 0.6527 -0.3437 -0.6751
vn 0.5512 -0.3099 -0.7747
vn 0.4935 -0.2900 -0.8200
vn 0.7757 -0.6219 -0.1078
vn 0.7929 -0.5357 -0.2905
vn 0.7968 -0.5006 -0.3382
vn 0.7741 -0.4784 -0.4146
vn 0.7073 -0.4494 -0.5457
vn 0.6098 -0.4038 -0.6820
vn 0.5190 -0.3501 -0.7798
vn 0.4748 -0.3004 -0.8272
vn 0.8480 -0.5291 -0.0303
vn 0.8112 -0.5081 -0.2895
vn 0.7838 -0.5261 -0.3300
vn 0.7403 -0.5359 -0.4058
vn 0.6530 -0.5117 -0.5584
vn 0.5546 -0.4415 -0.7053
vn 0.4803 -0.3558 -0.8017
vn 0.4506 -0.2791 -0.8480
vn 0.8548 -0.5015 0.1335
vn 0.7917 -0.5558 -0.2536
vn 0.7183 -0.6446 -0.2618
vn 0.6450 -0.6903 -0.3278
vn 0.5390 -0.6676 -0.5136
vn 0.4555 -0.5344 -0.7120
vn 0.4264 -0.3568 -0.8312
vn 0.4219 -0.2332 -0.8762
vn 0.7116 -0.6015 0.3632
vn 0.6125 -0.7487 -0.2535
vn 0.3541 -0.9262 -0.1293
vn 0.3162 -0.9487 -0.0086
vn 0.2821 -0.9572 -0.0652
vn 0.1791 -0.8862 -0.4273
vn 0.3122 -0.4438 -0.8400
vn 0.3871 -0.1517 -0.9095
vn 0.1809 -0.7600 0.6242
vn 0.0267 -0.9096 -0.4147
vn 0.0719 -0.9888 -0.1310
vn 0.1646 -0.9859 0.0303
vn 0.2296 -0.9548 0.1890
vn -0.0314 -0.9754 -0.2183
vn 0.0736 -0.5723 -0.8168
vn 0.3481 0.0090 -0.9374
vn 0.8049 -0.3337 0.4907
vn 0.6868 -0.5032 0.5245
vn 0.3425 -0.7919 0.5056
vn 0.0461 -0.9093 0.4136
vn -0.0461 -0.9093 0.4136
vn -0.3425 -0.7919 0.5056
vn -0.6868 -0.5032 0.5245
vn -0.8049 -0.3337 0.4907
vn 0.8815 -0.4521 0.1360
vn 0.5833 -0.8068 -0.0940
vn 0.2289 -0.9494 -0.2151
vn 0.0271 -0.9707 -0.2386
vn -0.0271 -0.9707 -0.2386
vn -0.2289 -0.9494 -0.2151
vn -0.5833 -0.8068 -0.0940
vn -0.8815 -0.4521 0.1360
vn 0.8651 -0.3870 -0.3192
vn 0.3787 -0.7666 -0.5187
vn 0.0974 -0.8548 -0.5098
vn 0.0047 -0.8747 -0.4847
vn -0.0047 -0.8747 -0.4847
vn -0.0974 -0.8548 -0.5098
vn -0.3787 -0.7666 -0.5187
vn -0.8651 -0.3870 -0.3193
vn 0.7518 -0.1795 -0.6345
vn 0.2742 -0.5635 -0.7793
vn 0.0676 -0.7300 -0.6801
vn 0.0272 -0.8080 -0.5886
vn -0.0272 -0.8080 -0.5886
vn -0.0676 -0.7300 -0.6801
vn -0.2742 -0.5635 -0.7793
vn -0.7518 -0.1795 -0.6345
vn 0.6275 -0.0804 -0.7744
vn 0.2455 -0.4190 -0.8741
vn 0.0881 -0.6145 -0.7840
vn 0.0522 -0.7058 -0.7065
vn -0.0522 -0.7058 -0.7065
vn -0.0881 -0.6145 -0.7840
vn -0.2455 -0.4190 -0.8741
vn -0.6275 -0.0804 -0.7744
vn 0.5547 -0.0491 -0.8306
vn 0.2595 -0.3223 -0.9104
vn 0.1214 -0.5201 -0.8454
vn 0.0646 -0.6258 -0.7773
vn -0.0646 -0.6259 -0.7773
vn -0.1214 -0.5201 -0.8454
vn -0.2595 -0.3223 -0.9104
vn -0.5547 -0.0491 -0.8306
vn 0.5023 -0.0423 -0.8636
vn 0.2768 -0.2297 -0.9331
vn 0.1391 -0.3921 -0.9094
vn 0.0602 -0.4860 -0.8719
vn -0.0602 -0.4860 -0.8719
vn -0.1391 -0.3921 -0.9094
vn -0.2768 -0.2297 -0.9331
vn -0.5023 -0.0423 -0.8636
vn 0.4660 -0.0659 -0.8823
vn 0.3125 -0.1835 -0.9320
vn 0.1639 -0.2938 -0.9417
vn 0.0525 -0.3492 -0.9356
vn -0.0525 -0.3492 -0.9356
vn -0.1639 -0.2938 -0.9417
vn -0.3125 -0.1835 -0.9320
vn -0.4660 -0.0659 -0.8823
vn 0.3264 0.2826 -0.9020
vn 0.2692 0.4079 -0.8724
vn 0.1446 0.4375 -0.8875
vn 0.0388 0.4163 -0.9084
vn -0.0388 0.4163 -0.9084
vn -0.1446 0.4375 -0.8875
vn -0.2692 0.4079 -0.8724
vn -0.3264 0.2826 -0.9020
vn 0.1483 0.2827 -0.9477
vn 0.2570 0.5995 -0.7580
vn 0.1959 0.6725 -0.7137
vn 0.0472 0.6867 -0.7254
vn -0.0472 0.6867 -0.7254
vn -0.1959 0.6725 -0.7137
vn -0.2570 0.5995 -0.7580
vn -0.1483 0.2827 -0.9477
vn -0.2262 -0.6848 -0.6928
vn -0.0225 0.6298 -0.7764
vn 0.2831 0.6723 -0.6841
vn 0.0625 0.6838 -0.7270
vn -0.0625 0.6838 -0.7270
vn -0.2831 0.6723 -0.6841
vn 0.0225 0.6298 -0.7764
vn 0.2262 -0.6848 -0.6927
vn 0.3068 -0.1991 -0.9307
vn -0.0333 0.7634 -0.6451
vn 0.2274 0.6582 -0.7177
vn 0.1463 0.7019 -0.6971
vn -0.1463 0.7019 -0.6971
vn -0.2274 0.6582 -0.7177
vn 0.0333 0.7634 -0.6451
vn -0.3068 -0.1991 -0.9307
vn 0.6311 0.0727 -0.7723
vn 0.0326 0.9818 -0.1871
vn 0.3369 0.7913 -0.5103
vn 0.3996 0.6606 -0.6355
vn -0.3996 0.6606 -0.6355
vn -0.3369 0.7913 -0.5103
vn -0.0326 0.9818 -0.1871
vn -0.6311 0.0727 -0.7723
vn 0.7787 0.2221 0.5867
vn 0.1012 0.9626 0.2513
vn 0.3632 0.9152 0.1749
vn 0.4711 0.8452 0.2524
vn -0.4711 0.8452 0.2524
vn -0.3632 0.9152 0.1749
vn -0.1012 0.9626 0.2513
vn -0.7787 0.2221 0.5867
vn 0.6050 0.0636 0.7937
vn 0.0277 0.7904 0.6120
vn 0.0748 0.6121 0.7873
vn 0.2649 0.6130 0.7444
vn -0.2649 0.6130 0.7444
vn -0.0748 0.6121 0.7873
vn -0.0277 0.7904 0.6120
vn -0.6050 0.0636 0.7937
vn -0.3275 -0.3595 0.8738
vn -0.0605 0.6365 0.7689
vn 0.1113 0.6443 0.7566
vn 0.1020 0.5958 0.7966
vn -0.1020 0.5958 0.7966
vn -0.1113 0.6443 0.7566
vn 0.0605 0.6365 0.7689
vn 0.3275 -0.3595 0.8738
s 0
f 1//1 2//1 10//1 9//1
f 2//2 3//2 11//2 10//2
f 3//3 4//3 12//3 11//3
f 4//4 5//4 13//4 12//4
f 5//5 6//5 14//5 13//5
f 6//6 7//6 15//6 14//6
f 7//7 8//7 16//7 15//7
f 8//8 65//8 73//8 16//8
f 9//9 10//9 18//9 17//9
f 10//10 11//10 19//10 18//10
f 11//11 12//11 20//11 19//11
f 12//12 13//12 21//12 20//12
f 13//13 14//13 22//13 21//13
f 14//14 15//14 23//14 22//14
f 15//15 16//15 24//15 23//15
f 16//16 73//16 81//16 24//16
f 17//17 18//17 26//17 25//17
f 18//18 19//18 27//18 26//18
f 19//19 20//19 28//19 27//19
f 20//20 21//20 29//20 28//20
f 21//21 22//21 30//21 29//21
f 22//22 23//22 31//22 30//22
f 23//23 24//23 32//23 31//23
f 24//24 81//24 89//24 32//24
f 25//25 26//25 34//25 33//25
f 26//26 27//26 35//26 34//26
f 27//27 28//27 36//27 35//27
f 28//28 29//28 37//28 36//28
f 29//29 30//29 38//29 37//29
f 30//30 31//30 39//30 38//30
f 31//31 32//31 40//31 39//31
f 32//32 89//32 97//32 40//32
f 33//33 34//33 42//33 41//33
f 34//34 35//34 43//34 42//34
f 35//35 36//35 44//35 43//35
f 36//36 37//36 45//36 44//36
f 37//37 38//37 46//37 45//37
f 38//38 39//38 47//38 46//38
f 39//39 40//39 48//39 47//39
f 40//40 97//40 105//40 48//40
f 41//41 42//41 50//41 49//41
f 42//42 43//42 51//42 50//42
f 43//43 44//43 52//43 51//43
f 44//44 45//44 53//44 52//44
f 45//45 46//45 54//45 53//45
f 46//46 47//46 55//46 54//46
f 47//47 48//47 56//47 55//47
f 48//48 105//48 113//48 56//48
f 49//49 50//49 58//49 57//49
f 50//50 51//50 59//50 58//50
f 51//51 52//51 60//51 59//51
f 52//52 53//52 61//52 60//52
f 53//53 54//53 62//53 61//53
f 54//54 55//54 63//54 62//54
f 55//55 56//55 64//55 63//55
f 56//56 113//56 121//56 64//56
f 57//57 58//57 307//57 306//57
f 58//58 59//58 308//58 307//58
f 59//59 60//59 309//59 308//59
f 60//60 61//60 310//60 309//60
f 61//61 62//61 311//61 310//61
f 62//62 63//62 312//62 311//62
f 63//63 64//63 313//63 312//63
f 64//64 121//64 314//64 313//64
f 65//65 66//65 74//65 73//65
f 66//66 67//66 75//66 74//66
f 67//67 68//67 76//67 75//67
f 68//68 69//68 77//68 76//68
f 69//69 70//69 78//69 77//69
f 70//70 71//70 79//70 78//70
f 71//71 72//71 80//71 79//71
f 72//72 129//72 137//72 80//72
f 73//73 74//73 82//73 81//73
f 74//74 75//74 83//74 82//74
f 75//75 76//75 84//75 83//75
f 76//76 77//76 85//76 84//76
f 77//77 78//77 86//77 85//77
f 78//78 79//78 87//78 86//78
f 79//79 80//79 88//79 87//79
f 80//80 137//80 145//80 88//80
f 81//81 82//81 90//81 89//81
f 82//82 83//82 91//82 90//82
f 83//83 84//83 92//83 91//83
f 84//84 85//84 93//84 92//84
f 85//85 86//85 94//85 93//85
f 86//86 87//86 95//86 94//86
f 87//87 88//87 96//87 95//87
f 88//88 145//88 153//88 96//88
f 89//89 90//89 98//89 97//89
f 90//90 91//90 99//90 98//90
f 91//91 92//91 100//91 99//91
f 92//92 93//92 101//92 100//92
f 93//93 94//93 102//93 101//93
f 94//94 95//94 103//94 102//94
f 95//95 96//95 104//95 103//95
f 96//96 153//96 161//96 104//96
f 97//97 98//97 106//97 105//97
f 98//98 99//98 107//98 106//98
f 99//99 100//99 108//99 107//99
f 100//100 101//100 109//100 108//100
f 101//101 102//101 110//101 109//101
f 102//102 103//102 111//102 110//102
f 103//103 104//103 112//103 111//103
f 104//104 161//104 169//104 112//104
f 105//105 106//105 114//105 113//105
f 106//106 107//106 115//106 114//106
f 107//107 108//107 116//107 115//107
f 108//108 109//108 117//108 116//108
f 109//109 110//109 118//109 117//109
f 110//110 111//110 119//110 118//110
f 111//111 112//111 120//111 119//111
f 112//112 169//112 177//112 120//112
f 113//113 114//113 122//113 121//113
f 114//114 115//114 123//114 122//114
f 115//115 116//115 124//115 123//115
f 116//116 117//116 125//116 124//116
f 117//117 118//117 126//117 125//117
f 118//118 119//118 127//118 126//118
f 119//119 120//119 128//119 127//119
f 120//120 177//120 185//120 128//120
f 121//121 122//121 323//121 314//121
f 122//122 123//122 332//122 323//122
f 123//123 124//123 341//123 332//123
f 124//124 125//124 350//124 341//124
f 125//125 126//125 359//125 350//125
f 126//126 127//126 368//126 359//126
f 127//127 128//127 377//127 368//127
f 128//128 185//128 386//128 377//128
f 129//129 130//129 138//129 137//129
f 130//130 131//130 139//130 138//130
f 131//131 132//131 140//131 139//131
f 132//132 133//132 141//132 140//132
f 133//133 134//133 142//133 141//133
f 134//134 135//134 143//134 142//134
f 135//135 136//135 144//135 143//135
f 136//136 193//136 201//136 144//136
f 137//137 138//137 146//137 145//137
f 138//138 139//138 147//138 146//138
f 139//139 140//139 148//139 147//139
f 140//140 141//140 149//140 148//140
f 141//141 142//141 150//141 149//141
f 142//142 143//142 151//142 150//142
f 143//143 144//143 152//143 151//143
f 144//144 201//144 209//144 152//144
f 145//145 146//145 154//145 153//145
f 146//146 147//146 155//146 154//146
f 147//147 148//147 156//147 155//147
f 148//148 149//148 157//148 156//148
f 149//149 150//149 158//149 157//149
f 150//150 151//150 159//150 158//150
f 151//151 152//151 160//151 159//151
f 152//152 209//152 217//152 160//152
f 153//153 154//153 162//153 161//153
f 154//154 155//154 163//154 162//154
f 155//155 156//155 164//155 163//155
f 156//156 157//156 165//156 164//156
f 157//157 158//157 166//157 165//157
f 158//158 159//158 167//158 166//158
f 159//159 160//159 168//159 167//159
f 160//160 217//160 225//160 168//160
f 161//161 162//161 170//161 169//161
f 162//162 163//162 171//162 170//162
f 163//163 164//163 172//163 171//163
f 164//164 165//164 173//164 172//164
f 165//165 166//165 174//165 173//165
f 166//166 167//166 175//166 174//166
f 167//167 168//167 176//167 175//167
f 168//168 225//168 233//168 176//168
f 169//169 170//169 178//169 177//169
f 170//170 171//170 179//170 178//170
f 171//171 172//171 180//171 179//171
f 172//172 173//172 181//172 180//172
f 173//173 174//173 182//173 181//173
f 174//174 175//174 183//174 182//174
f 175//175 176//175 184//175 183//175
f 176//176 233//176 241//176 184//176
f 177//177 178//177 186//177 185//177
f 178//178 179//178 187//178 186//178
f 179//179 180//179 188//179 187//179
f 180//180 181//180 189//180 188//180
f 181//181 182//181 190//181 189//181
f 182//182 183//182 191//182 190//182
f 183//183 184//183 192//183 191//183
f 184//184 241//184 249//184 192//184
f 185//185 186//185 385//185 386//185
f 186//186 187//186 384//186 385//186
f 187//187 188//187 383//187 384//187
f 188//188 189//188 382//188 383//188
f 189//189 190//189 381//189 382//189
f 190//190 191//190 380//190 381//190
f 191//191 192//191 379//191 380//191
f 192//192 249//192 378//192 379//192
f 193//193 194//193 202//193 201//193
f 194//194 195//194 203//194 202//194
f 195//195 196//195 204//195 203//195
f 196//196 197//196 205//196 204//196
f 197//197 198//197 206//197 205//197
f 198//198 199//198 207//198 206//198
f 199//199 200//199 208//199 207//199
f 200//200 1//200 9//200 208//200
f 201//201 202//201 210//201 209//201
f 202//202 203//202 211//202 210//202
f 203//203 204//203 212//203 211//203
f 204//204 205//204 213//204 212//204
f 205//205 206//205 214//205 213//205
f 206//206 207//206 215//206 214//206
f 207//207 208//207 216//207 215//207
f 208//208 9//208 17//208 216//208
f 209//209 210//209 218//209 217//209
f 210//210 211//210 219//210 218//210
f 211//211 212//211 220//211 219//211
f 212//212 213//212 221//212 220//212
f 213//213 214//213 222//213 221//213
f 214//214 215//214 223//214 222//214
f 215//215 216//215 224//215 223//215
f 216//216 17//216 25//216 224//216
f 217//217 218//217 226//217 225//217
f 218//218 219//218 227//218 226//218
f 219//219 220//219 228//219 227//219
f 220//220 221//220 229//220 228//220
f 221//221 222//221 230//221 229//221
f 222//222 223//222 231//222 230//222
f 223//223 224//223 232//223 231//223
f 224//224 25//224 33//224 232//224
f 225//225 226//225 234//225 233//225
f 226//226 227//226 235//226 234//226
f 227//227 228//227 236//227 235//227
f 228//228 229//228 237//228 236//228
f 229//229 230//229 238//229 237//229
f 230//230 231//230 239//230 238//230
f 231//231 232//231 240//231 239//231
f 232//232 33//232 41//232 240//232
f 233//233 234//233 242//233 241//233
f 234//234 235//234 243//234 242//234
f 235//235 236//235 244//235 243//235
f 236//236 237//236 245//236 244//236
f 237//237 238//237 246//237 245//237
f 238//238 239//238 247//238 246//238
f 239//239 240//239 248//239 247//239
f 240//240 41//240 49//240 248//240
f 241//241 242//241 250//241 249//241
f 242//242 243//242 251//242 250//242
f 243//243 244//243 252//243 251//243
f 244//244 245//244 253//244 252//244
f 245//245 246//245 254//245 253//245
f 246//246 247//246 255//246 254//246
f 247//247 248//247 256//247 255//247
f 248//248 49//248 57//248 256//248
f 249//249 250//249 369//249 378//249
f 250//250 251//250 360//250 369//250
f 251//251 252//251 351//251 360//251
f 252//252 253//252 342//252 351//252
f 253//253 254//253 333//253 342//253
f 254//254 255//254 324//254 333//254
f 255//255 256//255 315//255 324//255
f 256//256 57//256 306//256 315//256
f 193//257 136//257 257//257 194//257
f 136//258 135//258 258//258 257//258
f 135//259 134//259 259//259 258//259
f 134//260 133//260 260//260 259//260
f 133//261 132//261 261//261 260//261
f 132//262 131//262 262//262 261//262
f 131//263 130//263 263//263 262//263
f 130//264 129//264 72//264 263//264
f 194//265 257//265 264//265 195//265
f 257//266 258//266 265//266 264//266
f 258//267 259//267 266//267 265//267
f 259//268 260//268 267//268 266//268
f 260//269 261//269 268//269 267//269
f 261//270 262//270 269//270 268//270
f 262//271 263//271 270//271 269//271
f 263//272 72//272 71//272 270//272
f 195//273 264//273 271//273 196//273
f 264//274 265//274 272//274 271//274
f 265//275 266//275 273//275 272//275
f 266//276 267//276 274//276 273//276
f 267//277 268//277 275//277 274//277
f 268//278 269//278 276//278 275//278
f 269//279 270//279 277//279 276//279
f 270//280 71//280 70//280 277//280
f 196//281 271//281 278//281 197//281
f 271//282 272//282 279//282 278//282
f 272//283 273//283 280//283 279//283
f 273//284 274//284 281//284 280//284
f 274//285 275//285 282//285 281//285
f 275//286 276//286 283//286 282//286
f 276//287 277//287 284//287 283//287
f 277//288 70//288 69//288 284//288
f 197//289 278//289 285//289 198//289
f 278//290 279//290 286//290 285//290
f 279//291 280//291 287//291 286//291
f 280//292 281//292 288//292 287//292
f 281//293 282//293 289//293 288//293
f 282//294 283//294 290//294 289//294
f 283//295 284//295 291//295 290//295
f 284//296 69//296 68//296 291//296
f 198//297 285//297 292//297 199//297
f 285//298 286//298 293//298 292//298
f 286//299 287//299 294//299 293//299
f 287//300 288//300 295//300 294//300
f 288//301 289//301 296//301 295//301
f 289//302 290//302 297//302 296//302
f 290//303 291//303 298//303 297//303
f 291//304 68//304 67//304 298//304
f 199//305 292//305 299//305 200//305
f 292//306 293//306 300//306 299//306
f 293//307 294//307 301//307 300//307
f 294//308 295//308 302//308 301//308
f 295//309 296//309 303//309 302//309
f 296//310 297//310 304//310 303//310
f 297//311 298//311 305//311 304//311
f 298//312 67//312 66//312 305//312
f 200//313 299//313 2//313 1//313
f 299//314 300//314 3//314 2//314
f 300//315 301//315 4//315 3//315
f 301//316 302//316 5//316 4//316
f 302//317 303//317 6//317 5//317
f 303//318 304//318 7//318 6//318
f 304//319 305//319 8//319 7//319
f 305//320 66//320 65//320 8//320
f 306//321 307//321 316//321 315//321
f 307//322 308//322 317//322 316//322
f 308//323 309//323 318//323 317//323
f 309//324 310//324 319//324 318//324
f 310//325 311//325 320//325 319//325
f 311//326 312//326 321//326 320//326
f 312//327 313//327 322//327 321//327
f 313//328 314//328 323//328 322//328
f 315//329 316//329 325//329 324//329
f 316//330 317//330 326//330 325//330
f 317//331 318//331 327//331 326//331
f 318//332 319//332 328//332 327//332
f 319//333 320//333 329//333 328//333
f 320//334 321//334 330//334 329//334
f 321//335 322//335 331//335 330//335
f 322//336 323//336 332//336 331//336
f 324//337 325//337 334//337 333//337
f 325//338 326//338 335//338 334//338
f 326//339 327//339 336//339 335//339
f 327//340 328//340 337//340 336//340
f 328//341 329//341 338//341 337//341
f 329//342 330//342 339//342 338//342
f 330//343 331//343 340//343 339//343
f 331//344 332//344 341//344 340//344
f 333//345 334//345 343//345 342//345
f 334//346 335//346 344//346 343//346
f 335//347 336//347 345//347 344//347
f 336//348 337//348 346//348 345//348
f 337//349 338//349 347//349 346//349
f 338//350 339//350 348//350 347//350
f 339//351 340//351 349//351 348//351
f 340//352 341//352 350//352 349//352
f 342//353 343//353 352//353 351//353
f 343//354 344//354 353//354 352//354
f 344//355 345//355 354//355 353//355
f 345//356 346//356 355//356 354//356
f 346//357 347//357 356//357 355//357
f 347//358 348//358 357//358 356//358
f 348//359 349//359 358//359 357//359
f 349//360 350//360 359//360 358//360
f 351//361 352//361 361//361 360//361
f 352//362 353//362 362//362 361//362
f 353//363 354//363 363//363 362//363
f 354//364 355//364 364//364 363//364
f 355//365 356//365 365//365 364//365
f 356//366 357//366 366//366 365//366
f 357//367 358//367 367//367 366//367
f 358//368 359//368 368//368 367//368
f 360//369 361//369 370//369 369//369
f 361//370 362//370 371//370 370//370
f 362//371 363//371 372//371 371//371
f 363//372 364//372 373//372 372//372
f 364//373 365//373 374//373 373//373
f 365//374 366//374 375//374 374//374
f 366//375 367//375 376//375 375//375
f 367//376 368//376 377//376 376//376
f 369//377 370//377 379//377 378//377
f 370//378 371//378 380//378 379//378
f 371//379 372//379 381//379 380//379
f 372//380 373//380 382//380 381//380
f 373//381 374//381 383//381 382//381
f 374//382 375//382 384//382 383//382
f 375//383 376//383 385//383 384//383
f 376//384 377//384 386//384 385//384
