# Blender 5.0.0
# www.blender.org
mtllib Torso_1.mtl
o Roundcube
v 0.301957 0.807464 -0.316599
v 0.215421 0.740877 -0.339433
v 0.111134 0.710710 -0.333023
v 0.009529 0.681540 -0.309514
v -0.089373 0.704973 -0.279201
v -0.187502 0.681540 -0.246440
v -0.283870 0.710710 -0.206574
v -0.372492 0.740877 -0.151229
v 0.353602 1.104227 -0.298864
v 0.236607 1.044272 -0.318643
v 0.127600 1.022919 -0.309192
v 0.022279 1.019209 -0.283979
v -0.080891 1.019521 -0.252689
v -0.183052 1.019210 -0.218248
v -0.283436 1.022920 -0.177610
v -0.377666 1.044273 -0.122001
v 0.443108 1.366721 -0.329483
v 0.291030 1.332196 -0.327123
v 0.157733 1.327552 -0.297210
v 0.039157 1.333427 -0.257608
v -0.070517 1.336969 -0.220281
v -0.181479 1.333427 -0.186978
v -0.301009 1.327552 -0.150357
v -0.426896 1.332196 -0.097300
v 0.494604 1.573316 -0.359150
v 0.303644 1.559902 -0.342098
v 0.135348 1.573958 -0.293972
v 0.019727 1.593839 -0.247333
v -0.068162 1.602670 -0.212925
v -0.159694 1.593839 -0.189897
v -0.280905 1.573958 -0.160721
v -0.445862 1.559902 -0.102165
v 0.500276 1.740854 -0.367596
v 0.299635 1.746822 -0.347663
v 0.130970 1.775672 -0.295561
v 0.022765 1.804276 -0.247935
v -0.067676 1.815967 -0.211407
v -0.162517 1.804276 -0.188622
v -0.278263 1.775672 -0.164556
v -0.445830 1.746822 -0.109024
v 0.489114 1.881058 -0.366395
v 0.310116 1.910018 -0.345269
v 0.165789 1.950415 -0.299216
v 0.046190 1.981472 -0.253656
v -0.068353 1.992857 -0.213522
v -0.184909 1.981472 -0.179677
v -0.308732 1.950415 -0.147312
v -0.452973 1.910018 -0.100988
v 0.472898 2.003678 -0.353820
v 0.308286 2.055774 -0.323511
v 0.174184 2.106962 -0.283730
v 0.051455 2.141604 -0.246785
v -0.067273 2.153630 -0.210149
v -0.185205 2.141604 -0.171025
v -0.306573 2.106962 -0.129829
v -0.438847 2.055775 -0.084338
v 0.443242 2.115535 -0.319778
v 0.284973 2.187273 -0.280349
v 0.158450 2.249205 -0.251532
v 0.044081 2.289927 -0.227556
v -0.063567 2.303944 -0.198572
v -0.168035 2.289927 -0.159653
v -0.275067 2.249205 -0.112754
v -0.394803 2.187272 -0.062739
v -0.429681 0.807464 -0.082386
v -0.471581 0.671279 -0.037065
v -0.432200 0.583739 0.062148
v -0.385787 0.551455 0.158168
v -0.344341 0.528037 0.272606
v -0.290945 0.528575 0.357361
v -0.296863 0.543116 0.443698
v -0.302460 0.706851 0.512925
v -0.461425 1.104227 -0.037956
v -0.462086 0.983698 0.029730
v -0.436213 0.879375 0.088398
v -0.417020 0.764542 0.158146
v -0.362948 0.739219 0.254996
v -0.321376 0.798528 0.337570
v -0.295447 0.911304 0.428797
v -0.298410 1.086159 0.494902
v -0.552073 1.366721 -0.010904
v -0.597025 1.330293 0.092470
v -0.595141 1.325889 0.192475
v -0.562478 1.338685 0.281698
v -0.496150 1.351924 0.351591
v -0.415917 1.376509 0.398068
v -0.413492 1.435494 0.450762
v -0.453873 1.506588 0.515265
v -0.611225 1.573316 -0.005151
v -0.698362 1.588886 0.117451
v -0.715329 1.637392 0.229044
v -0.688293 1.692786 0.320059
v -0.636722 1.724765 0.387501
v -0.576098 1.726498 0.435541
v -0.533090 1.723061 0.482318
v -0.508879 1.721756 0.539643
v -0.620747 1.740854 -0.008733
v -0.719665 1.773340 0.115502
v -0.751465 1.826358 0.227679
v -0.734948 1.879419 0.331336
v -0.673024 1.909098 0.415592
v -0.611253 1.904999 0.472212
v -0.576180 1.882354 0.521284
v -0.542748 1.856304 0.571768
v -0.610963 1.881058 -0.014237
v -0.737956 1.908468 0.095310
v -0.858834 1.940813 0.199198
v -0.943686 1.962765 0.343050
v -0.881686 2.010821 0.501233
v -0.695306 2.020139 0.540985
v -0.580967 1.993762 0.541559
v -0.526852 1.962971 0.574119
v -0.590458 2.003678 -0.013417
v -0.758180 2.022108 0.076047
v -1.008224 2.024846 0.148674
v -1.243397 1.972377 0.392908
v -1.205799 2.018286 0.601299
v -0.857071 2.066389 0.692957
v -0.569917 2.073664 0.556674
v -0.450814 2.045069 0.550077
v -0.546546 2.115535 -0.002926
v -0.716264 2.130864 0.077260
v -0.993986 2.142332 0.090892
v -1.265664 2.118602 0.336733
v -1.172823 2.149717 0.615395
v -0.802533 2.138456 0.674943
v -0.492554 2.139669 0.518836
v -0.328936 2.118154 0.496426
v -0.247629 0.914532 0.541240
v -0.180084 0.871182 0.544743
v -0.088787 0.868684 0.517880
v 0.018055 0.873818 0.471331
v 0.136163 0.874892 0.425348
v 0.259018 0.873818 0.394194
v 0.373030 0.868684 0.370043
v 0.462954 0.871182 0.338892
v -0.311691 1.313818 0.519055
v -0.207147 1.295809 0.514965
v -0.073268 1.307912 0.494995
v 0.047528 1.323010 0.461663
v 0.137171 1.329377 0.428476
v 0.229414 1.323011 0.403450
v 0.347106 1.307912 0.360424
v 0.467693 1.295810 0.298934
v -0.412866 1.566162 0.554120
v -0.248538 1.529026 0.538920
v -0.029390 1.505235 0.485161
v 0.080498 1.538118 0.445938
v 0.135952 1.557065 0.424690
v 0.193437 1.538118 0.409784
v 0.305674 1.505234 0.377900
v 0.515301 1.529026 0.294398
v -0.428795 1.707964 0.582305
v -0.241859 1.651686 0.576684
v 0.020194 1.629654 0.511079
v 0.103290 1.698658 0.449891
v 0.134703 1.731532 0.420786
v 0.177178 1.698659 0.426238
v 0.280359 1.629654 0.427795
v 0.531795 1.651686 0.329020
v -0.454354 1.823925 0.610951
v -0.226929 1.778211 0.606122
v 0.039610 1.769206 0.523556
v 0.103771 1.846291 0.454087
v 0.135170 1.878243 0.422245
v 0.179223 1.846291 0.429933
v 0.271799 1.769206 0.449227
v 0.536735 1.778211 0.361657
v -0.431306 1.921657 0.613621
v -0.153837 1.894930 0.600663
v 0.040594 1.926642 0.512081
v 0.093372 1.987121 0.453677
v 0.135563 2.007700 0.423473
v 0.187450 1.987120 0.423561
v 0.264334 1.926642 0.440457
v 0.474061 1.894931 0.399659
v -0.324493 2.011403 0.585658
v -0.082138 2.025300 0.545567
v 0.019964 2.072205 0.475919
v 0.073913 2.107753 0.425879
v 0.126950 2.119828 0.396567
v 0.187149 2.107752 0.389630
v 0.260128 2.072205 0.399038
v 0.383696 2.025300 0.396443
v -0.202772 2.099054 0.519827
v -0.074557 2.141085 0.458029
v -0.009282 2.187175 0.399800
v 0.046045 2.222704 0.355631
v 0.104865 2.236387 0.327580
v 0.169041 2.222704 0.316258
v 0.239733 2.187175 0.320085
v 0.326688 2.141085 0.329582
v 0.515909 0.914532 0.296815
v 0.544103 0.706851 0.241923
v 0.499344 0.543116 0.188814
v 0.444387 0.528576 0.121965
v 0.438637 0.528037 0.021958
v 0.405921 0.551455 -0.095274
v 0.387943 0.583739 -0.200398
v 0.362387 0.671279 -0.304036
v 0.555177 1.313818 0.241552
v 0.530339 1.086159 0.229601
v 0.489539 0.911304 0.177507
v 0.457668 0.798527 0.088181
v 0.443559 0.739219 -0.003184
v 0.431334 0.764541 -0.113431
v 0.406455 0.879375 -0.181358
v 0.393448 0.983698 -0.244145
v 0.657907 1.566162 0.211342
v 0.668726 1.506587 0.155897
v 0.598393 1.435494 0.126836
v 0.569767 1.376509 0.082530
v 0.608093 1.351924 -0.001901
v 0.621502 1.338685 -0.097319
v 0.596278 1.325889 -0.188924
v 0.539736 1.330292 -0.271431
v 0.687243 1.707964 0.225037
v 0.727663 1.721755 0.143800
v 0.714083 1.723061 0.083071
v 0.721932 1.726499 0.020014
v 0.743387 1.724765 -0.054302
v 0.746204 1.692786 -0.139155
v 0.715359 1.637392 -0.228950
v 0.636741 1.588886 -0.309944
v 0.724686 1.823925 0.233515
v 0.773892 1.856304 0.150283
v 0.771792 1.882354 0.089770
v 0.771846 1.905000 0.029452
v 0.789252 1.909098 -0.052514
v 0.790735 1.879419 -0.157068
v 0.743984 1.826357 -0.251046
v 0.652952 1.773341 -0.323902
v 0.707473 1.921657 0.249073
v 0.762317 1.962971 0.161429
v 0.787463 1.993762 0.103495
v 0.880211 2.020139 0.036628
v 1.008858 2.010821 -0.103971
v 0.967470 1.962765 -0.268752
v 0.814853 1.940813 -0.336585
v 0.656116 1.908468 -0.350963
v 0.604278 2.011403 0.288338
v 0.686451 2.045069 0.186013
v 0.787245 2.073664 0.122218
v 1.100160 2.066389 0.066406
v 1.330828 2.018286 -0.210730
v 1.240418 1.972377 -0.402214
v 0.907131 2.024846 -0.464472
v 0.661394 2.022108 -0.378389
v 0.466955 2.099054 0.305433
v 0.556075 2.118154 0.213115
v 0.702291 2.139669 0.136341
v 1.045299 2.138456 0.083412
v 1.312170 2.149717 -0.180104
v 1.225923 2.118602 -0.460877
v 0.861984 2.142332 -0.503244
v 0.627974 2.130864 -0.353060
v 0.490779 0.587519 0.311741
v 0.408017 0.549863 0.373048
v 0.294280 0.551879 0.435132
v 0.158934 0.566622 0.496433
v 0.013129 0.552000 0.525154
v -0.115523 0.549861 0.540651
v -0.218503 0.587519 0.538797
v 0.444788 0.513626 0.234628
v 0.366602 0.510263 0.283247
v 0.262710 0.500592 0.356295
v 0.135302 0.486711 0.423070
v -0.007014 0.500639 0.442655
v -0.133959 0.510263 0.443487
v -0.225844 0.513626 0.449312
v 0.387875 0.519609 0.141087
v 0.330137 0.494506 0.168355
v 0.249455 0.483379 0.224038
v 0.094956 0.489830 0.297084
v -0.072790 0.483250 0.327328
v -0.170994 0.494504 0.328750
v -0.233834 0.519609 0.340109
v 0.360527 0.511241 0.025401
v 0.288537 0.493811 0.016268
v 0.210580 0.498891 0.027831
v 0.041641 0.509081 0.122402
v -0.154736 0.498980 0.145008
v -0.225432 0.493806 0.180800
v -0.278752 0.511241 0.230048
v 0.332180 0.524314 -0.096758
v 0.244129 0.499771 -0.103933
v 0.136098 0.505251 -0.098572
v -0.020026 0.506468 -0.052661
v -0.168684 0.505259 0.000163
v -0.258989 0.499767 0.057274
v -0.326617 0.524314 0.114137
v 0.305645 0.510441 -0.202563
v 0.208641 0.492967 -0.198956
v 0.079399 0.495158 -0.165926
v -0.044041 0.489706 -0.131066
v -0.161971 0.495403 -0.087908
v -0.285353 0.492968 -0.040754
v -0.366459 0.510441 0.012592
v 0.277133 0.500656 -0.267949
v 0.176727 0.475550 -0.250489
v 0.056579 0.468620 -0.216165
v -0.060741 0.459498 -0.186737
v -0.171424 0.468767 -0.142907
v -0.289345 0.475515 -0.101295
v -0.381219 0.500656 -0.057197
v 0.382211 2.221360 -0.253367
v 0.240203 2.308957 -0.218762
v 0.130556 2.382802 -0.208231
v 0.033215 2.430378 -0.198513
v -0.056939 2.446493 -0.177867
v -0.142322 2.430378 -0.142320
v -0.227211 2.382802 -0.093702
v -0.322590 2.308957 -0.038600
v -0.458294 2.221361 0.015697
v 0.481319 2.231299 -0.226383
v 0.267053 2.343234 -0.155545
v 0.149555 2.457631 -0.157703
v 0.049156 2.532157 -0.159535
v -0.045245 2.557197 -0.141336
v -0.132665 2.532157 -0.101330
v -0.213335 2.457631 -0.041534
v -0.307737 2.343234 0.028457
v -0.523307 2.231299 0.095220
v 0.606223 2.239974 -0.198792
v 0.271828 2.348609 -0.081337
v 0.166383 2.499005 -0.096426
v 0.070096 2.596605 -0.105662
v -0.028031 2.629158 -0.087564
v -0.118426 2.596605 -0.045312
v -0.191450 2.499005 0.018124
v -0.268529 2.348610 0.091643
v -0.608968 2.239974 0.190217
v 0.699238 2.242720 -0.126341
v 0.260083 2.356540 -0.012190
v 0.184884 2.526623 -0.029216
v 0.095563 2.641576 -0.039209
v -0.006369 2.680384 -0.019897
v -0.100567 2.641576 0.023576
v -0.167480 2.526622 0.083583
v -0.218812 2.356539 0.141115
v -0.642617 2.242721 0.303215
v 0.665046 2.230944 -0.013360
v 0.254517 2.374755 0.045968
v 0.206067 2.548669 0.040569
v 0.122615 2.676666 0.034763
v 0.017612 2.721714 0.055016
v -0.079633 2.676666 0.099506
v -0.144199 2.548668 0.152697
v -0.180506 2.374755 0.185229
v -0.549170 2.230944 0.375336
v 0.543459 2.218118 0.073634
v 0.259718 2.383666 0.096396
v 0.222999 2.556452 0.109830
v 0.148122 2.693946 0.112676
v 0.042634 2.747032 0.133182
v -0.055151 2.693946 0.177748
v -0.117761 2.556451 0.218915
v -0.155455 2.383667 0.229302
v -0.399666 2.218117 0.375548
v 0.453010 2.212401 0.136224
v 0.266973 2.371509 0.139542
v 0.226424 2.529330 0.168831
v 0.165741 2.660332 0.190900
v 0.068484 2.718602 0.213932
v -0.024068 2.660331 0.251661
v -0.086286 2.529330 0.268936
v -0.136305 2.371509 0.268640
v -0.289684 2.212401 0.373976
v 0.403646 2.202954 0.191230
v 0.272436 2.330753 0.180877
v 0.214981 2.455340 0.204052
v 0.161878 2.549988 0.241978
v 0.087318 2.590147 0.272764
v 0.008740 2.549988 0.291000
v -0.056516 2.455340 0.290964
v -0.116748 2.330754 0.305463
v -0.217553 2.202954 0.390089
v 0.370113 2.182307 0.250371
v 0.274574 2.258525 0.238362
v 0.205353 2.334430 0.236909
v 0.146320 2.389034 0.251544
v 0.086942 2.409091 0.271591
v 0.026961 2.389034 0.289754
v -0.029597 2.334430 0.312122
v -0.085105 2.258526 0.353504
v -0.155910 2.182307 0.418762
vn 0.1801 0.0412 -0.9828
vn -0.0926 0.0776 -0.9927
vn -0.2410 0.0843 -0.9668
vn -0.2813 0.0854 -0.9558
vn -0.3260 0.0854 -0.9415
vn -0.3652 0.0843 -0.9271
vn -0.5011 0.0776 -0.8619
vn -0.7174 0.0412 -0.6955
vn 0.0978 -0.0959 -0.9906
vn -0.1633 0.0291 -0.9861
vn -0.2765 0.0804 -0.9577
vn -0.3036 0.1013 -0.9474
vn -0.3030 0.1013 -0.9476
vn -0.3311 0.0804 -0.9402
vn -0.4397 0.0291 -0.8977
vn -0.6549 -0.0959 -0.7496
vn -0.0429 -0.0959 -0.9945
vn -0.2513 -0.0291 -0.9675
vn -0.3459 -0.0035 -0.9383
vn -0.3401 0.0205 -0.9402
vn -0.2691 0.0205 -0.9629
vn -0.2633 -0.0035 -0.9647
vn -0.3573 -0.0291 -0.9335
vn -0.5426 -0.0959 -0.8345
vn -0.0932 -0.0389 -0.9949
vn -0.2878 -0.0238 -0.9574
vn -0.3893 -0.0062 -0.9211
vn -0.3691 0.0051 -0.9294
vn -0.2392 0.0051 -0.9709
vn -0.2180 -0.0062 -0.9759
vn -0.3217 -0.0238 -0.9465
vn -0.5019 -0.0389 -0.8641
vn -0.1065 0.0115 -0.9942
vn -0.2919 0.0356 -0.9558
vn -0.3701 0.0365 -0.9283
vn -0.3501 0.0018 -0.9367
vn -0.2589 0.0018 -0.9659
vn -0.2377 0.0365 -0.9706
vn -0.3174 0.0356 -0.9476
vn -0.4907 0.0115 -0.8712
vn -0.1197 0.1181 -0.9858
vn -0.2550 0.1237 -0.9590
vn -0.3017 0.0801 -0.9500
vn -0.3091 0.0364 -0.9503
vn -0.3002 0.0364 -0.9532
vn -0.3061 0.0801 -0.9486
vn -0.3494 0.1237 -0.9288
vn -0.4750 0.1181 -0.8720
vn -0.0982 0.2814 -0.9545
vn -0.1469 0.2430 -0.9588
vn -0.1992 0.1554 -0.9676
vn -0.2670 0.0956 -0.9589
vn -0.3396 0.0956 -0.9357
vn -0.3997 0.1554 -0.9034
vn -0.4372 0.2430 -0.8659
vn -0.4744 0.2814 -0.8341
vn 0.0592 0.5102 -0.8580
vn 0.0761 0.3974 -0.9145
vn -0.0504 0.2482 -0.9674
vn -0.2161 0.1659 -0.9622
vn -0.3828 0.1659 -0.9088
vn -0.5207 0.2482 -0.8168
vn -0.5930 0.3974 -0.7003
vn -0.5465 0.5102 -0.6641
vn -0.9508 0.0217 -0.3089
vn -0.9407 -0.0430 0.3365
vn -0.9494 -0.0814 0.3035
vn -0.9151 -0.0912 0.3927
vn -0.8611 -0.0484 0.5061
vn -0.9897 -0.0375 0.1384
vn -0.9973 0.0041 -0.0732
vn -0.7063 -0.0179 0.7077
vn -0.8542 -0.2491 -0.4563
vn -0.9401 -0.3347 -0.0649
vn -0.9452 -0.3068 0.1114
vn -0.7866 -0.2862 0.5472
vn -0.6344 -0.2191 0.7413
vn -0.8867 -0.2021 0.4159
vn -0.9348 -0.2804 0.2179
vn -0.2709 -0.1812 0.9454
vn -0.8253 -0.2513 -0.5056
vn -0.9317 -0.3630 0.0093
vn -0.8384 -0.3563 0.4125
vn -0.6670 -0.3135 0.6759
vn -0.4955 -0.2893 0.8190
vn -0.7396 -0.3844 0.5525
vn -0.9402 -0.3340 0.0665
vn -0.4857 -0.2210 0.8457
vn -0.8034 -0.0796 -0.5901
vn -0.9778 -0.1517 -0.1443
vn -0.9220 -0.2118 0.3242
vn -0.7314 -0.2316 0.6414
vn -0.6312 -0.2551 0.7324
vn -0.7775 -0.3034 0.5508
vn -0.8669 -0.3196 0.3824
vn -0.4830 -0.3130 0.8178
vn -0.7274 -0.0860 -0.6808
vn -0.7964 -0.4742 -0.3754
vn -0.5315 -0.8402 0.1079
vn -0.2837 -0.8614 0.4212
vn -0.2262 -0.7489 0.6229
vn -0.4132 -0.4689 0.7806
vn -0.7006 -0.0382 0.7125
vn -0.3762 0.0489 0.9252
vn -0.5653 -0.0635 -0.8225
vn -0.3925 -0.5868 -0.7082
vn -0.1979 -0.9509 -0.2380
vn 0.0312 -0.9702 0.2402
vn 0.0359 -0.9611 0.2739
vn 0.2042 -0.6838 0.7005
vn -0.1092 0.1131 0.9876
vn -0.1543 0.4329 0.8881
vn -0.4221 0.2110 -0.8816
vn -0.1633 -0.2010 -0.9659
vn -0.6321 -0.3235 -0.7041
vn -0.9661 0.0747 0.2469
vn -0.2099 0.1090 0.9716
vn 0.4397 -0.0575 0.8963
vn 0.1598 0.3724 0.9142
vn -0.0456 0.6396 0.7674
vn -0.3835 0.6408 -0.6650
vn -0.1409 0.7756 -0.6153
vn -0.2060 0.9714 -0.1184
vn -0.1563 0.9873 0.0286
vn 0.0094 0.9532 0.3022
vn 0.2247 0.7860 0.5760
vn 0.1177 0.7683 0.6291
vn -0.0084 0.7801 0.6257
vn 0.0269 0.0659 0.9975
vn 0.2007 0.0623 0.9777
vn 0.3297 0.0179 0.9439
vn 0.3563 -0.0053 0.9344
vn 0.2525 -0.0053 0.9676
vn 0.2799 0.0179 0.9599
vn 0.4044 0.0623 0.9125
vn 0.5574 0.0659 0.8277
vn 0.0495 -0.1062 0.9931
vn 0.2033 -0.0333 0.9786
vn 0.2994 0.0033 0.9541
vn 0.3487 0.0163 0.9371
vn 0.2602 0.0163 0.9654
vn 0.3104 0.0034 0.9506
vn 0.4028 -0.0333 0.9147
vn 0.5365 -0.1062 0.8372
vn -0.0069 -0.2422 0.9702
vn 0.2047 -0.2877 0.9356
vn 0.5398 -0.2222 0.8119
vn 0.5160 -0.0333 0.8559
vn 0.0770 -0.0333 0.9965
vn 0.0321 -0.2222 0.9745
vn 0.3767 -0.2877 0.8805
vn 0.5690 -0.2422 0.7858
vn -0.0331 -0.2342 0.9716
vn 0.2554 -0.1825 0.9494
vn 0.7093 -0.0897 0.6991
vn 0.7047 -0.0159 0.7093
vn -0.1618 -0.0159 0.9867
vn -0.1715 -0.0897 0.9811
vn 0.3434 -0.1825 0.9213
vn 0.5912 -0.2342 0.7717
vn 0.0348 -0.0026 0.9994
vn 0.3494 -0.0366 0.9363
vn 0.7094 0.0504 0.7030
vn 0.6356 0.0212 0.7718
vn -0.0692 0.0212 0.9974
vn -0.1693 0.0504 0.9843
vn 0.2593 -0.0366 0.9651
vn 0.5520 -0.0026 0.8338
vn 0.1043 0.2759 0.9555
vn 0.4146 0.2157 0.8841
vn 0.5541 0.2724 0.7866
vn 0.4479 0.2554 0.8568
vn 0.1329 0.2554 0.9577
vn 0.0057 0.2724 0.9622
vn 0.1759 0.2157 0.9605
vn 0.4700 0.2759 0.8384
vn 0.1485 0.5334 0.8327
vn 0.2717 0.5736 0.7728
vn 0.2971 0.5642 0.7703
vn 0.2830 0.5384 0.7937
vn 0.2305 0.5384 0.8105
vn 0.2055 0.5642 0.7997
vn 0.2276 0.5736 0.7869
vn 0.3627 0.5334 0.7641
vn 0.0234 0.7133 0.7005
vn 0.0656 0.5913 0.8038
vn 0.1597 0.4502 0.8785
vn 0.2510 0.3516 0.9019
vn 0.3194 0.3516 0.8800
vn 0.3801 0.4503 0.8079
vn 0.4133 0.5913 0.6925
vn 0.3878 0.7133 0.5838
vn 0.9860 -0.0179 0.1660
vn 0.7694 0.0041 -0.6388
vn 0.8861 -0.0375 -0.4621
vn 0.9949 -0.0484 -0.0881
vn 0.9731 -0.0912 -0.2118
vn 0.9491 -0.0814 -0.3043
vn 0.9612 -0.0430 -0.2723
vn 0.5947 0.0217 -0.8037
vn 0.7696 -0.1812 0.6123
vn 0.8876 -0.2804 -0.3655
vn 0.9634 -0.2021 -0.1763
vn 0.9470 -0.2191 0.2350
vn 0.9581 -0.2862 -0.0113
vn 0.8342 -0.3067 -0.4582
vn 0.7276 -0.3347 -0.5988
vn 0.4304 -0.2491 -0.8676
vn 0.8866 -0.2210 0.4064
vn 0.8041 -0.3340 -0.4919
vn 0.9230 -0.3844 0.0203
vn 0.8790 -0.2893 0.3790
vn 0.9355 -0.3135 0.1628
vn 0.9221 -0.3563 -0.1511
vn 0.7639 -0.3630 -0.5335
vn 0.3783 -0.2513 -0.8909
vn 0.8681 -0.3130 0.3852
vn 0.9279 -0.3196 -0.1921
vn 0.9528 -0.3034 -0.0031
vn 0.9393 -0.2550 0.2297
vn 0.9679 -0.2316 0.0974
vn 0.9389 -0.2118 -0.2714
vn 0.7123 -0.1517 -0.6853
vn 0.3114 -0.0796 -0.9469
vn 0.8436 0.0489 0.5348
vn 0.9842 -0.0382 0.1731
vn 0.7897 -0.4689 0.3955
vn 0.5459 -0.7489 0.3758
vn 0.4756 -0.8614 0.1782
vn 0.4953 -0.8402 -0.2208
vn 0.4303 -0.4742 -0.7681
vn 0.1968 -0.0860 -0.9767
vn 0.6413 0.4329 0.6334
vn 0.6624 0.1131 0.7405
vn 0.2405 -0.6838 0.6889
vn 0.1299 -0.9611 0.2438
vn 0.1141 -0.9702 0.2137
vn 0.0229 -0.9509 -0.3087
vn -0.0917 -0.5868 -0.8045
vn -0.0175 -0.0635 -0.9978
vn 0.4828 0.6396 0.5982
vn 0.4008 0.3724 0.8371
vn 0.1626 -0.0575 0.9850
vn 0.7351 0.1090 0.6691
vn 0.9299 0.0747 -0.3600
vn 0.1057 -0.3235 -0.9403
vn -0.4280 -0.2010 -0.8811
vn -0.1683 0.2110 -0.9629
vn 0.3702 0.7801 0.5045
vn 0.2695 0.7683 0.5805
vn 0.1516 0.7860 0.5994
vn 0.1678 0.9532 0.2515
vn 0.1439 0.9873 -0.0675
vn 0.0989 0.9714 -0.2160
vn -0.2426 0.7756 -0.5828
vn -0.0740 0.6408 -0.7641
vn 0.7439 -0.0267 0.6678
vn 0.4695 0.0136 0.8828
vn 0.3551 0.1027 0.9292
vn 0.3412 0.1949 0.9196
vn 0.2564 0.1949 0.9467
vn 0.2505 0.1027 0.9627
vn 0.1304 0.0136 0.9914
vn -0.2178 -0.0267 0.9756
vn 0.8634 -0.4522 0.2235
vn 0.4411 -0.8326 0.3351
vn 0.2602 -0.8925 0.3684
vn 0.2747 -0.7753 0.5687
vn 0.1063 -0.7750 0.6229
vn 0.0027 -0.8924 0.4512
vn -0.1645 -0.8326 0.5289
vn -0.5731 -0.4522 0.6834
vn 0.2568 -0.9579 -0.1280
vn 0.1851 -0.9820 -0.0369
vn 0.1767 -0.9796 0.0951
vn 0.0483 -0.9978 0.0444
vn -0.0132 -0.9978 0.0648
vn -0.0890 -0.9795 0.1809
vn -0.1721 -0.9820 0.0775
vn -0.2834 -0.9579 0.0449
vn 0.1898 -0.9818 0.0114
vn 0.3053 -0.9511 -0.0464
vn 0.0183 -0.9987 -0.0467
vn -0.0880 -0.9936 -0.0712
vn 0.0298 -0.9936 -0.1086
vn -0.0421 -0.9987 -0.0281
vn -0.2755 -0.9511 0.1395
vn -0.1479 -0.9818 0.1195
vn 0.2691 -0.9395 -0.2119
vn 0.2653 -0.9517 -0.1544
vn -0.0586 -0.9980 -0.0216
vn -0.0338 -0.9994 0.0029
vn 0.0288 -0.9994 -0.0183
vn 0.0362 -0.9980 -0.0519
vn -0.3056 -0.9518 0.0283
vn -0.3421 -0.9395 -0.0162
vn 0.5350 -0.8244 -0.1849
vn 0.2207 -0.9748 0.0322
vn -0.0141 -0.9937 0.1114
vn 0.0582 -0.9870 0.1496
vn 0.0388 -0.9873 0.1538
vn 0.0763 -0.9938 0.0809
vn -0.1610 -0.9748 0.1544
vn -0.5429 -0.8244 0.1602
vn 0.6947 -0.5428 -0.4719
vn 0.2209 -0.9689 0.1113
vn 0.1105 -0.9327 0.3434
vn 0.1655 -0.8937 0.4171
vn 0.1067 -0.8945 0.4342
vn 0.1096 -0.9328 0.3432
vn -0.1153 -0.9689 0.2191
vn -0.8396 -0.5428 0.0192
vn 0.1554 -0.1670 -0.9736
vn -0.0258 -0.3144 -0.9490
vn -0.1706 -0.3969 -0.9019
vn -0.2686 -0.3996 -0.8764
vn -0.2916 -0.4001 -0.8689
vn -0.3836 -0.3976 -0.8335
vn -0.5302 -0.3143 -0.7875
vn -0.6920 -0.1670 -0.7024
vn 0.2132 0.7261 -0.6537
vn 0.4346 0.5560 -0.7085
vn 0.2160 0.4071 -0.8875
vn -0.1187 0.3462 -0.9306
vn -0.4438 0.3462 -0.8266
vn -0.6912 0.4071 -0.5971
vn -0.7653 0.5560 -0.3244
vn -0.5532 0.7261 -0.4083
vn 0.2194 0.8889 -0.4021
vn 0.7342 0.5971 -0.3231
vn 0.5120 0.5422 -0.6662
vn 0.0346 0.6131 -0.7892
vn -0.4865 0.6131 -0.6224
vn -0.8037 0.5422 -0.2450
vn -0.7854 0.5971 0.1633
vn -0.4121 0.8889 -0.2000
vn 0.2163 0.9564 -0.1963
vn 0.8661 0.4716 -0.1658
vn 0.6693 0.5381 -0.5124
vn 0.1617 0.7741 -0.6120
vn -0.4871 0.7741 -0.4044
vn -0.8424 0.5381 -0.0284
vn -0.8014 0.4716 0.3680
vn -0.2900 0.9564 -0.0342
vn 0.2962 0.9546 0.0329
vn 0.9238 0.3182 -0.2129
vn 0.7423 0.4988 -0.4473
vn 0.2387 0.8283 -0.5070
vn -0.4887 0.8283 -0.2741
vn -0.8641 0.4988 0.0669
vn -0.8757 0.3182 0.3632
vn -0.2220 0.9546 0.1988
vn 0.4140 0.8298 0.3743
vn 0.9486 0.2379 -0.2086
vn 0.8160 0.4831 -0.3176
vn 0.3398 0.8736 -0.3484
vn -0.4790 0.8736 -0.0863
vn -0.8487 0.4831 0.2153
vn -0.8934 0.2379 0.3811
vn -0.1197 0.8298 0.5451
vn 0.5064 0.6914 0.5153
vn 0.9733 0.2292 -0.0136
vn 0.8933 0.4454 0.0602
vn 0.5037 0.8425 0.1911
vn -0.2991 0.8425 0.4481
vn -0.6923 0.4454 0.5677
vn -0.8003 0.2292 0.5541
vn -0.1130 0.6914 0.7136
vn 0.5445 0.6161 0.5692
vn 0.8816 0.2293 0.4126
vn 0.7614 0.2220 0.6092
vn 0.4722 0.3928 0.7891
vn 0.0738 0.3928 0.9167
vn -0.2661 0.2220 0.9381
vn -0.4781 0.2293 0.8478
vn -0.1128 0.6161 0.7796
vn 0.4902 0.6127 0.6199
vn 0.6189 0.3130 0.7204
vn 0.5114 0.0830 0.8553
vn 0.3573 0.0063 0.9340
vn 0.2515 0.0063 0.9678
vn 0.0804 0.0830 0.9933
vn -0.0855 0.3130 0.9459
vn -0.0391 0.6127 0.7893
s 0
f 1//1 2//1 10//1 9//1
f 2//2 3//2 11//2 10//2
f 3//3 4//3 12//3 11//3
f 4//4 5//4 13//4 12//4
f 5//5 6//5 14//5 13//5
f 6//6 7//6 15//6 14//6
f 7//7 8//7 16//7 15//7
f 8//8 65//8 73//8 16//8
f 9//9 10//9 18//9 17//9
f 10//10 11//10 19//10 18//10
f 11//11 12//11 20//11 19//11
f 12//12 13//12 21//12 20//12
f 13//13 14//13 22//13 21//13
f 14//14 15//14 23//14 22//14
f 15//15 16//15 24//15 23//15
f 16//16 73//16 81//16 24//16
f 17//17 18//17 26//17 25//17
f 18//18 19//18 27//18 26//18
f 19//19 20//19 28//19 27//19
f 20//20 21//20 29//20 28//20
f 21//21 22//21 30//21 29//21
f 22//22 23//22 31//22 30//22
f 23//23 24//23 32//23 31//23
f 24//24 81//24 89//24 32//24
f 25//25 26//25 34//25 33//25
f 26//26 27//26 35//26 34//26
f 27//27 28//27 36//27 35//27
f 28//28 29//28 37//28 36//28
f 29//29 30//29 38//29 37//29
f 30//30 31//30 39//30 38//30
f 31//31 32//31 40//31 39//31
f 32//32 89//32 97//32 40//32
f 33//33 34//33 42//33 41//33
f 34//34 35//34 43//34 42//34
f 35//35 36//35 44//35 43//35
f 36//36 37//36 45//36 44//36
f 37//37 38//37 46//37 45//37
f 38//38 39//38 47//38 46//38
f 39//39 40//39 48//39 47//39
f 40//40 97//40 105//40 48//40
f 41//41 42//41 50//41 49//41
f 42//42 43//42 51//42 50//42
f 43//43 44//43 52//43 51//43
f 44//44 45//44 53//44 52//44
f 45//45 46//45 54//45 53//45
f 46//46 47//46 55//46 54//46
f 47//47 48//47 56//47 55//47
f 48//48 105//48 113//48 56//48
f 49//49 50//49 58//49 57//49
f 50//50 51//50 59//50 58//50
f 51//51 52//51 60//51 59//51
f 52//52 53//52 61//52 60//52
f 53//53 54//53 62//53 61//53
f 54//54 55//54 63//54 62//54
f 55//55 56//55 64//55 63//55
f 56//56 113//56 121//56 64//56
f 57//57 58//57 307//57 306//57
f 58//58 59//58 308//58 307//58
f 59//59 60//59 309//59 308//59
f 60//60 61//60 310//60 309//60
f 61//61 62//61 311//61 310//61
f 62//62 63//62 312//62 311//62
f 63//63 64//63 313//63 312//63
f 64//64 121//64 314//64 313//64
f 65//65 66//65 74//65 73//65
f 66//66 67//66 75//66 74//66
f 67//67 68//67 76//67 75//67
f 68//68 69//68 77//68 76//68
f 69//69 70//69 78//69 77//69
f 70//70 71//70 79//70 78//70
f 71//71 72//71 80//71 79//71
f 72//72 129//72 137//72 80//72
f 73//73 74//73 82//73 81//73
f 74//74 75//74 83//74 82//74
f 75//75 76//75 84//75 83//75
f 76//76 77//76 85//76 84//76
f 77//77 78//77 86//77 85//77
f 78//78 79//78 87//78 86//78
f 79//79 80//79 88//79 87//79
f 80//80 137//80 145//80 88//80
f 81//81 82//81 90//81 89//81
f 82//82 83//82 91//82 90//82
f 83//83 84//83 92//83 91//83
f 84//84 85//84 93//84 92//84
f 85//85 86//85 94//85 93//85
f 86//86 87//86 95//86 94//86
f 87//87 88//87 96//87 95//87
f 88//88 145//88 153//88 96//88
f 89//89 90//89 98//89 97//89
f 90//90 91//90 99//90 98//90
f 91//91 92//91 100//91 99//91
f 92//92 93//92 101//92 100//92
f 93//93 94//93 102//93 101//93
f 94//94 95//94 103//94 102//94
f 95//95 96//95 104//95 103//95
f 96//96 153//96 161//96 104//96
f 97//97 98//97 106//97 105//97
f 98//98 99//98 107//98 106//98
f 99//99 100//99 108//99 107//99
f 100//100 101//100 109//100 108//100
f 101//101 102//101 110//101 109//101
f 102//102 103//102 111//102 110//102
f 103//103 104//103 112//103 111//103
f 104//104 161//104 169//104 112//104
f 105//105 106//105 114//105 113//105
f 106//106 107//106 115//106 114//106
f 107//107 108//107 116//107 115//107
f 108//108 109//108 117//108 116//108
f 109//109 110//109 118//109 117//109
f 110//110 111//110 119//110 118//110
f 111//111 112//111 120//111 119//111
f 112//112 169//112 177//112 120//112
f 113//113 114//113 122//113 121//113
f 114//114 115//114 123//114 122//114
f 115//115 116//115 124//115 123//115
f 116//116 117//116 125//116 124//116
f 117//117 118//117 126//117 125//117
f 118//118 119//118 127//118 126//118
f 119//119 120//119 128//119 127//119
f 120//120 177//120 185//120 128//120
f 121//121 122//121 323//121 314//121
f 122//122 123//122 332//122 323//122
f 123//123 124//123 341//123 332//123
f 124//124 125//124 350//124 341//124
f 125//125 126//125 359//125 350//125
f 126//126 127//126 368//126 359//126
f 127//127 128//127 377//127 368//127
f 128//128 185//128 386//128 377//128
f 129//129 130//129 138//129 137//129
f 130//130 131//130 139//130 138//130
f 131//131 132//131 140//131 139//131
f 132//132 133//132 141//132 140//132
f 133//133 134//133 142//133 141//133
f 134//134 135//134 143//134 142//134
f 135//135 136//135 144//135 143//135
f 136//136 193//136 201//136 144//136
f 137//137 138//137 146//137 145//137
f 138//138 139//138 147//138 146//138
f 139//139 140//139 148//139 147//139
f 140//140 141//140 149//140 148//140
f 141//141 142//141 150//141 149//141
f 142//142 143//142 151//142 150//142
f 143//143 144//143 152//143 151//143
f 144//144 201//144 209//144 152//144
f 145//145 146//145 154//145 153//145
f 146//146 147//146 155//146 154//146
f 147//147 148//147 156//147 155//147
f 148//148 149//148 157//148 156//148
f 149//149 150//149 158//149 157//149
f 150//150 151//150 159//150 158//150
f 151//151 152//151 160//151 159//151
f 152//152 209//152 217//152 160//152
f 153//153 154//153 162//153 161//153
f 154//154 155//154 163//154 162//154
f 155//155 156//155 164//155 163//155
f 156//156 157//156 165//156 164//156
f 157//157 158//157 166//157 165//157
f 158//158 159//158 167//158 166//158
f 159//159 160//159 168//159 167//159
f 160//160 217//160 225//160 168//160
f 161//161 162//161 170//161 169//161
f 162//162 163//162 171//162 170//162
f 163//163 164//163 172//163 171//163
f 164//164 165//164 173//164 172//164
f 165//165 166//165 174//165 173//165
f 166//166 167//166 175//166 174//166
f 167//167 168//167 176//167 175//167
f 168//168 225//168 233//168 176//168
f 169//169 170//169 178//169 177//169
f 170//170 171//170 179//170 178//170
f 171//171 172//171 180//171 179//171
f 172//172 173//172 181//172 180//172
f 173//173 174//173 182//173 181//173
f 174//174 175//174 183//174 182//174
f 175//175 176//175 184//175 183//175
f 176//176 233//176 241//176 184//176
f 177//177 178//177 186//177 185//177
f 178//178 179//178 187//178 186//178
f 179//179 180//179 188//179 187//179
f 180//180 181//180 189//180 188//180
f 181//181 182//181 190//181 189//181
f 182//182 183//182 191//182 190//182
f 183//183 184//183 192//183 191//183
f 184//184 241//184 249//184 192//184
f 185//185 186//185 385//185 386//185
f 186//186 187//186 384//186 385//186
f 187//187 188//187 383//187 384//187
f 188//188 189//188 382//188 383//188
f 189//189 190//189 381//189 382//189
f 190//190 191//190 380//190 381//190
f 191//191 192//191 379//191 380//191
f 192//192 249//192 378//192 379//192
f 193//193 194//193 202//193 201//193
f 194//194 195//194 203//194 202//194
f 195//195 196//195 204//195 203//195
f 196//196 197//196 205//196 204//196
f 197//197 198//197 206//197 205//197
f 198//198 199//198 207//198 206//198
f 199//199 200//199 208//199 207//199
f 200//200 1//200 9//200 208//200
f 201//201 202//201 210//201 209//201
f 202//202 203//202 211//202 210//202
f 203//203 204//203 212//203 211//203
f 204//204 205//204 213//204 212//204
f 205//205 206//205 214//205 213//205
f 206//206 207//206 215//206 214//206
f 207//207 208//207 216//207 215//207
f 208//208 9//208 17//208 216//208
f 209//209 210//209 218//209 217//209
f 210//210 211//210 219//210 218//210
f 211//211 212//211 220//211 219//211
f 212//212 213//212 221//212 220//212
f 213//213 214//213 222//213 221//213
f 214//214 215//214 223//214 222//214
f 215//215 216//215 224//215 223//215
f 216//216 17//216 25//216 224//216
f 217//217 218//217 226//217 225//217
f 218//218 219//218 227//218 226//218
f 219//219 220//219 228//219 227//219
f 220//220 221//220 229//220 228//220
f 221//221 222//221 230//221 229//221
f 222//222 223//222 231//222 230//222
f 223//223 224//223 232//223 231//223
f 224//224 25//224 33//224 232//224
f 225//225 226//225 234//225 233//225
f 226//226 227//226 235//226 234//226
f 227//227 228//227 236//227 235//227
f 228//228 229//228 237//228 236//228
f 229//229 230//229 238//229 237//229
f 230//230 231//230 239//230 238//230
f 231//231 232//231 240//231 239//231
f 232//232 33//232 41//232 240//232
f 233//233 234//233 242//233 241//233
f 234//234 235//234 243//234 242//234
f 235//235 236//235 244//235 243//235
f 236//236 237//236 245//236 244//236
f 237//237 238//237 246//237 245//237
f 238//238 239//238 247//238 246//238
f 239//239 240//239 248//239 247//239
f 240//240 41//240 49//240 248//240
f 241//241 242//241 250//241 249//241
f 242//242 243//242 251//242 250//242
f 243//243 244//243 252//243 251//243
f 244//244 245//244 253//244 252//244
f 245//245 246//245 254//245 253//245
f 246//246 247//246 255//246 254//246
f 247//247 248//247 256//247 255//247
f 248//248 49//248 57//248 256//248
f 249//249 250//249 369//249 378//249
f 250//250 251//250 360//250 369//250
f 251//251 252//251 351//251 360//251
f 252//252 253//252 342//252 351//252
f 253//253 254//253 333//253 342//253
f 254//254 255//254 324//254 333//254
f 255//255 256//255 315//255 324//255
f 256//256 57//256 306//256 315//256
f 193//257 136//257 257//257 194//257
f 136//258 135//258 258//258 257//258
f 135//259 134//259 259//259 258//259
f 134//260 133//260 260//260 259//260
f 133//261 132//261 261//261 260//261
f 132//262 131//262 262//262 261//262
f 131//263 130//263 263//263 262//263
f 130//264 129//264 72//264 263//264
f 194//265 257//265 264//265 195//265
f 257//266 258//266 265//266 264//266
f 258//267 259//267 266//267 265//267
f 259//268 260//268 267//268 266//268
f 260//269 261//269 268//269 267//269
f 261//270 262//270 269//270 268//270
f 262//271 263//271 270//271 269//271
f 263//272 72//272 71//272 270//272
f 195//273 264//273 271//273 196//273
f 264//274 265//274 272//274 271//274
f 265//275 266//275 273//275 272//275
f 266//276 267//276 274//276 273//276
f 267//277 268//277 275//277 274//277
f 268//278 269//278 276//278 275//278
f 269//279 270//279 277//279 276//279
f 270//280 71//280 70//280 277//280
f 196//281 271//281 278//281 197//281
f 271//282 272//282 279//282 278//282
f 272//283 273//283 280//283 279//283
f 273//284 274//284 281//284 280//284
f 274//285 275//285 282//285 281//285
f 275//286 276//286 283//286 282//286
f 276//287 277//287 284//287 283//287
f 277//288 70//288 69//288 284//288
f 197//289 278//289 285//289 198//289
f 278//290 279//290 286//290 285//290
f 279//291 280//291 287//291 286//291
f 280//292 281//292 288//292 287//292
f 281//293 282//293 289//293 288//293
f 282//294 283//294 290//294 289//294
f 283//295 284//295 291//295 290//295
f 284//296 69//296 68//296 291//296
f 198//297 285//297 292//297 199//297
f 285//298 286//298 293//298 292//298
f 286//299 287//299 294//299 293//299
f 287//300 288//300 295//300 294//300
f 288//301 289//301 296//301 295//301
f 289//302 290//302 297//302 296//302
f 290//303 291//303 298//303 297//303
f 291//304 68//304 67//304 298//304
f 199//305 292//305 299//305 200//305
f 292//306 293//306 300//306 299//306
f 293//307 294//307 301//307 300//307
f 294//308 295//308 302//308 301//308
f 295//309 296//309 303//309 302//309
f 296//310 297//310 304//310 303//310
f 297//311 298//311 305//311 304//311
f 298//312 67//312 66//312 305//312
f 200//313 299//313 2//313 1//313
f 299//314 300//314 3//314 2//314
f 300//315 301//315 4//315 3//315
f 301//316 302//316 5//316 4//316
f 302//317 303//317 6//317 5//317
f 303//318 304//318 7//318 6//318
f 304//319 305//319 8//319 7//319
f 305//320 66//320 65//320 8//320
f 306//321 307//321 316//321 315//321
f 307//322 308//322 317//322 316//322
f 308//323 309//323 318//323 317//323
f 309//324 310//324 319//324 318//324
f 310//325 311//325 320//325 319//325
f 311//326 312//326 321//326 320//326
f 312//327 313//327 322//327 321//327
f 313//328 314//328 323//328 322//328
f 315//329 316//329 325//329 324//329
f 316//330 317//330 326//330 325//330
f 317//331 318//331 327//331 326//331
f 318//332 319//332 328//332 327//332
f 319//333 320//333 329//333 328//333
f 320//334 321//334 330//334 329//334
f 321//335 322//335 331//335 330//335
f 322//336 323//336 332//336 331//336
f 324//337 325//337 334//337 333//337
f 325//338 326//338 335//338 334//338
f 326//339 327//339 336//339 335//339
f 327//340 328//340 337//340 336//340
f 328//341 329//341 338//341 337//341
f 329//342 330//342 339//342 338//342
f 330//343 331//343 340//343 339//343
f 331//344 332//344 341//344 340//344
f 333//345 334//345 343//345 342//345
f 334//346 335//346 344//346 343//346
f 335//347 336//347 345//347 344//347
f 336//348 337//348 346//348 345//348
f 337//349 338//349 347//349 346//349
f 338//350 339//350 348//350 347//350
f 339//351 340//351 349//351 348//351
f 340//352 341//352 350//352 349//352
f 342//353 343//353 352//353 351//353
f 343//354 344//354 353//354 352//354
f 344//355 345//355 354//355 353//355
f 345//356 346//356 355//356 354//356
f 346//357 347//357 356//357 355//357
f 347//358 348//358 357//358 356//358
f 348//359 349//359 358//359 357//359
f 349//360 350//360 359//360 358//360
f 351//361 352//361 361//361 360//361
f 352//362 353//362 362//362 361//362
f 353//363 354//363 363//363 362//363
f 354//364 355//364 364//364 363//364
f 355//365 356//365 365//365 364//365
f 356//366 357//366 366//366 365//366
f 357//367 358//367 367//367 366//367
f 358//368 359//368 368//368 367//368
f 360//369 361//369 370//369 369//369
f 361//370 362//370 371//370 370//370
f 362//371 363//371 372//371 371//371
f 363//372 364//372 373//372 372//372
f 364//373 365//373 374//373 373//373
f 365//374 366//374 375//374 374//374
f 366//375 367//375 376//375 375//375
f 367//376 368//376 377//376 376//376
f 369//377 370//377 379//377 378//377
f 370//378 371//378 380//378 379//378
f 371//379 372//379 381//379 380//379
f 372//380 373//380 382//380 381//380
f 373//381 374//381 383//381 382//381
f 374//382 375//382 384//382 383//382
f 375//383 376//383 385//383 384//383
f 376//384 377//384 386//384 385//384
