# Blender 5.0.0
# www.blender.org
mtllib werid_head1.mtl
o Roundcube
v 0.270459 -0.310255 -0.079098
v 0.197910 -0.349963 -0.151318
v 0.129723 -0.391189 -0.183054
v 0.065434 -0.429015 -0.207554
v 0.000000 -0.445350 -0.218236
v -0.065434 -0.429015 -0.207554
v -0.129722 -0.391189 -0.183054
v -0.197910 -0.349963 -0.151318
v 0.312029 -0.255770 -0.070492
v 0.234540 -0.277610 -0.212903
v 0.159932 -0.306933 -0.273047
v 0.081212 -0.327936 -0.307354
v 0.000000 -0.336146 -0.319832
v -0.081212 -0.327935 -0.307353
v -0.159932 -0.306933 -0.273047
v -0.234540 -0.277610 -0.212903
v 0.340956 -0.197524 -0.051892
v 0.248964 -0.190771 -0.250251
v 0.171304 -0.206365 -0.324532
v 0.087006 -0.214554 -0.362726
v 0.000000 -0.216986 -0.375683
v -0.087006 -0.214554 -0.362726
v -0.171303 -0.206365 -0.324532
v -0.248964 -0.190772 -0.250251
v 0.351922 -0.124579 -0.040853
v 0.251678 -0.109392 -0.260177
v 0.168475 -0.105635 -0.349486
v 0.084677 -0.102854 -0.392216
v 0.000000 -0.101267 -0.406432
v -0.084677 -0.102854 -0.392216
v -0.168475 -0.105635 -0.349486
v -0.251678 -0.109392 -0.260177
v 0.340719 -0.043068 -0.052279
v 0.243487 -0.034442 -0.249928
v 0.155540 -0.009207 -0.356692
v 0.077526 0.004941 -0.410387
v 0.000000 0.010113 -0.427907
v -0.077526 0.004941 -0.410386
v -0.155540 -0.009207 -0.356692
v -0.243487 -0.034442 -0.249928
v 0.299122 0.036755 -0.080459
v 0.213195 0.048467 -0.244231
v 0.133368 0.089449 -0.361810
v 0.067090 0.114037 -0.427223
v 0.000000 0.122389 -0.448368
v -0.067090 0.114037 -0.427223
v -0.133368 0.089449 -0.361810
v -0.213195 0.048467 -0.244231
v 0.216992 0.123199 -0.116589
v 0.154307 0.153085 -0.263788
v 0.103254 0.200232 -0.381370
v 0.053625 0.230016 -0.448543
v 0.000000 0.240009 -0.470105
v -0.053625 0.230016 -0.448543
v -0.103254 0.200232 -0.381371
v -0.154307 0.153085 -0.263788
v 0.124220 0.230409 -0.180641
v 0.098180 0.280216 -0.318235
v 0.072819 0.326510 -0.417341
v 0.038586 0.355849 -0.472280
v 0.000000 0.365744 -0.489690
v -0.038586 0.355849 -0.472279
v -0.072818 0.326510 -0.417341
v -0.098180 0.280216 -0.318235
v -0.270460 -0.310255 -0.079098
v -0.290713 -0.312100 0.031014
v -0.315518 -0.312303 0.117198
v -0.332132 -0.301771 0.191516
v -0.341935 -0.269352 0.263894
v -0.349635 -0.266937 0.354969
v -0.375912 -0.285517 0.446762
v -0.427215 -0.353545 0.537253
v -0.312029 -0.255770 -0.070492
v -0.358204 -0.238808 0.084782
v -0.399965 -0.218143 0.165724
v -0.431671 -0.203016 0.234492
v -0.445490 -0.182596 0.314955
v -0.459107 -0.164059 0.402311
v -0.475658 -0.165757 0.481649
v -0.474316 -0.187628 0.561148
v -0.340956 -0.197524 -0.051893
v -0.379032 -0.145540 0.124811
v -0.409967 -0.107068 0.197482
v -0.454948 -0.095740 0.255637
v -0.491736 -0.084822 0.329093
v -0.537034 -0.072722 0.413899
v -0.592394 -0.070294 0.499450
v -0.584045 -0.065031 0.587232
v -0.351922 -0.124579 -0.040854
v -0.348390 -0.044495 0.128514
v -0.385590 -0.012321 0.181991
v -0.439573 -0.005341 0.237820
v -0.461091 0.005608 0.317544
v -0.486180 0.016804 0.409023
v -0.704179 0.034418 0.499808
v -0.991486 0.107532 0.637057
v -0.340719 -0.043068 -0.052279
v -0.310185 0.038488 0.087547
v -0.362714 0.060999 0.138320
v -0.397953 0.072642 0.201000
v -0.373768 0.094439 0.291561
v -0.369414 0.111651 0.394996
v -0.712095 0.129095 0.486789
v -1.214799 0.398143 0.530521
v -0.299122 0.036755 -0.080459
v -0.292515 0.097598 0.029421
v -0.333191 0.125510 0.090337
v -0.338902 0.149455 0.163525
v -0.304794 0.178464 0.262811
v -0.320746 0.193693 0.380496
v -0.706927 0.203797 0.477238
v -1.352086 0.712002 0.215222
v -0.216992 0.123199 -0.116589
v -0.229890 0.167787 -0.026084
v -0.254272 0.198466 0.045532
v -0.246830 0.227304 0.128864
v -0.230737 0.254424 0.238317
v -0.288048 0.260919 0.370892
v -0.633096 0.250460 0.480861
v -1.255132 0.584304 0.425725
v -0.124220 0.230409 -0.180641
v -0.114873 0.271808 -0.108383
v -0.106141 0.301892 -0.032166
v -0.086027 0.323069 0.067125
v -0.085776 0.335199 0.202760
v -0.150575 0.335765 0.360706
v -0.289059 0.298000 0.512439
v -0.864623 0.397003 0.536781
v -0.463697 -0.422285 0.642670
v -0.370368 -0.583230 0.728502
v -0.243110 -0.701073 0.787209
v -0.120473 -0.778702 0.811242
v 0.000000 -0.805948 0.817157
v 0.120472 -0.778702 0.811242
v 0.243110 -0.701073 0.787209
v 0.370369 -0.583230 0.728502
v -0.490677 -0.227961 0.658187
v -0.470846 -0.461569 0.761450
v -0.334724 -0.659632 0.861503
v -0.166533 -0.805868 0.926600
v 0.000000 -0.863347 0.948400
v 0.166533 -0.805867 0.926600
v 0.334724 -0.659632 0.861503
v 0.470846 -0.461569 0.761450
v -0.521225 -0.036648 0.680478
v -0.526780 -0.225503 0.771435
v -0.405475 -0.545382 0.895393
v -0.189639 -0.832418 1.025278
v 0.000000 -0.937507 1.066994
v 0.189639 -0.832418 1.025278
v 0.405475 -0.545382 0.895393
v 0.526780 -0.225503 0.771435
v -1.018216 0.114097 0.760874
v -0.615958 0.009248 0.790027
v -0.465745 -0.205370 0.885733
v -0.208898 -0.776198 1.081420
v 0.000000 -0.935438 1.142931
v 0.208898 -0.776198 1.081420
v 0.465746 -0.205370 0.885733
v 0.615958 0.009248 0.790027
v -1.230639 0.563154 0.529999
v -1.016961 0.159313 0.840245
v -0.594185 -0.074149 0.917307
v -0.199934 -0.451345 1.064153
v 0.000000 -0.652719 1.147201
v 0.199933 -0.451345 1.064153
v 0.594185 -0.074149 0.917308
v 1.016961 0.159312 0.840245
v -1.658929 0.978316 -0.133099
v -1.168051 0.278611 0.824953
v -0.616447 0.097187 0.936958
v -0.378379 -0.112402 1.040426
v 0.000000 -0.081468 1.288350
v 0.378379 -0.112402 1.040427
v 0.616447 0.097187 0.936958
v 1.168051 0.278610 0.824953
v -1.676366 1.168969 -0.286001
v -1.089743 0.369536 0.807145
v -0.572416 0.227501 0.923108
v -0.239645 0.153067 1.042285
v 0.000000 0.235734 1.258875
v 0.239645 0.153068 1.042285
v 0.572416 0.227501 0.923108
v 1.089744 0.369537 0.807145
v -1.219130 0.583471 0.581516
v -0.888709 0.474909 0.665949
v -0.290329 0.349805 0.904061
v -0.028098 0.398663 0.977247
v 0.000000 0.452696 1.033079
v 0.028098 0.398663 0.977247
v 0.290329 0.349805 0.904061
v 0.888713 0.474911 0.665947
v 0.463697 -0.422285 0.642670
v 0.427215 -0.353545 0.537253
v 0.375913 -0.285517 0.446762
v 0.349635 -0.266937 0.354968
v 0.341936 -0.269352 0.263894
v 0.332132 -0.301772 0.191516
v 0.315518 -0.312303 0.117198
v 0.290713 -0.312100 0.031014
v 0.490677 -0.227960 0.658187
v 0.474316 -0.187628 0.561148
v 0.475658 -0.165757 0.481649
v 0.459107 -0.164059 0.402311
v 0.445490 -0.182596 0.314955
v 0.431671 -0.203016 0.234492
v 0.399965 -0.218143 0.165724
v 0.358204 -0.238808 0.084782
v 0.521225 -0.036648 0.680478
v 0.584045 -0.065031 0.587232
v 0.592394 -0.070294 0.499450
v 0.537034 -0.072722 0.413899
v 0.491736 -0.084822 0.329093
v 0.454948 -0.095740 0.255638
v 0.409967 -0.107068 0.197482
v 0.379032 -0.145540 0.124811
v 1.018217 0.114097 0.760874
v 0.991486 0.107532 0.637057
v 0.704178 0.034418 0.499808
v 0.486179 0.016804 0.409023
v 0.461091 0.005608 0.317544
v 0.439573 -0.005341 0.237820
v 0.385590 -0.012321 0.181991
v 0.348390 -0.044495 0.128513
v 1.230639 0.563154 0.529999
v 1.214799 0.398143 0.530521
v 0.712095 0.129095 0.486789
v 0.369414 0.111650 0.394996
v 0.373768 0.094439 0.291561
v 0.397952 0.072642 0.201000
v 0.362714 0.060999 0.138320
v 0.310185 0.038488 0.087547
v 1.658929 0.978316 -0.133099
v 1.352086 0.712002 0.215223
v 0.706927 0.203797 0.477238
v 0.320747 0.193693 0.380496
v 0.304794 0.178464 0.262811
v 0.338902 0.149455 0.163525
v 0.333191 0.125510 0.090337
v 0.292515 0.097598 0.029421
v 1.676365 1.168969 -0.286001
v 1.255131 0.584304 0.425725
v 0.633097 0.250460 0.480861
v 0.288048 0.260919 0.370892
v 0.230737 0.254424 0.238317
v 0.246830 0.227304 0.128864
v 0.254273 0.198467 0.045532
v 0.229890 0.167787 -0.026084
v 1.219131 0.583470 0.581516
v 0.864623 0.397004 0.536781
v 0.289059 0.297999 0.512439
v 0.150575 0.335765 0.360706
v 0.085777 0.335199 0.202760
v 0.086028 0.323069 0.067125
v 0.106141 0.301892 -0.032167
v 0.114873 0.271808 -0.108383
v 0.336029 -0.517462 0.593856
v 0.211668 -0.633484 0.649188
v 0.102766 -0.716729 0.665579
v 0.000000 -0.747006 0.666562
v -0.102767 -0.716729 0.665579
v -0.211668 -0.633484 0.649188
v -0.336029 -0.517462 0.593856
v 0.278855 -0.418499 0.447067
v 0.184098 -0.532588 0.476270
v 0.094035 -0.639985 0.501735
v 0.000000 -0.683638 0.507068
v -0.094035 -0.639985 0.501736
v -0.184098 -0.532587 0.476270
v -0.278854 -0.418499 0.447067
v 0.229961 -0.361257 0.328783
v 0.141923 -0.445811 0.340788
v 0.078717 -0.578517 0.360098
v 0.000000 -0.638902 0.363913
v -0.078717 -0.578517 0.360098
v -0.141923 -0.445811 0.340789
v -0.229961 -0.361257 0.328783
v 0.211682 -0.355583 0.237913
v 0.129505 -0.434532 0.251935
v 0.070026 -0.556300 0.256424
v 0.000000 -0.619249 0.251131
v -0.070026 -0.556300 0.256424
v -0.129505 -0.434532 0.251935
v -0.211681 -0.355583 0.237913
v 0.207209 -0.368248 0.156635
v 0.124115 -0.435254 0.169896
v 0.065572 -0.541737 0.162554
v 0.000000 -0.598040 0.150318
v -0.065572 -0.541737 0.162554
v -0.124116 -0.435254 0.169896
v -0.207209 -0.368247 0.156635
v 0.199784 -0.368398 0.065693
v 0.117572 -0.421191 0.070543
v 0.060863 -0.506250 0.056724
v 0.000000 -0.553165 0.042112
v -0.060864 -0.506250 0.056724
v -0.117572 -0.421191 0.070543
v -0.199784 -0.368397 0.065693
v 0.195151 -0.359836 -0.042656
v 0.119975 -0.413403 -0.052846
v 0.060993 -0.479683 -0.071460
v 0.000000 -0.512365 -0.083912
v -0.060994 -0.479683 -0.071460
v -0.119975 -0.413403 -0.052846
v -0.195151 -0.359836 -0.042656
v 0.074501 0.356390 -0.274427
v 0.064746 0.417915 -0.380733
v 0.044994 0.463342 -0.445527
v 0.022482 0.490974 -0.479191
v 0.000000 0.500226 -0.489571
v -0.022482 0.490973 -0.479191
v -0.044994 0.463342 -0.445527
v -0.064746 0.417915 -0.380733
v -0.074502 0.356390 -0.274427
v 0.056060 0.409097 -0.235138
v 0.049352 0.500321 -0.352044
v 0.027663 0.562407 -0.408310
v 0.011031 0.599301 -0.432756
v 0.000000 0.611586 -0.439624
v -0.011031 0.599302 -0.432756
v -0.027663 0.562406 -0.408310
v -0.049352 0.500321 -0.352044
v -0.056060 0.409097 -0.235138
v 0.028988 0.444657 -0.172331
v 0.033688 0.553129 -0.287171
v 0.012562 0.624707 -0.327898
v 0.001577 0.666910 -0.341333
v 0.000000 0.680937 -0.344578
v -0.001576 0.666910 -0.341333
v -0.012562 0.624707 -0.327898
v -0.033688 0.553129 -0.287171
v -0.028988 0.444657 -0.172331
v -0.009714 0.460694 -0.068659
v 0.017700 0.578957 -0.177555
v 0.004760 0.657651 -0.206259
v -0.002097 0.703710 -0.212110
v 0.000000 0.718943 -0.212955
v 0.002097 0.703710 -0.212110
v -0.004760 0.657652 -0.206259
v -0.017700 0.578957 -0.177555
v 0.009714 0.460694 -0.068659
v -0.027187 0.451977 0.097852
v 0.005002 0.578829 -0.010577
v 0.006494 0.667291 -0.042465
v 0.001248 0.717596 -0.047616
v 0.000000 0.733984 -0.047989
v -0.001248 0.717595 -0.047616
v -0.006494 0.667291 -0.042464
v -0.005002 0.578830 -0.010577
v 0.027187 0.451977 0.097852
v 0.024736 0.432684 0.301731
v 0.012125 0.563388 0.209602
v 0.016883 0.663844 0.158207
v 0.009805 0.717957 0.146722
v 0.000000 0.735115 0.145022
v -0.009805 0.717957 0.146723
v -0.016883 0.663844 0.158207
v -0.012125 0.563388 0.209602
v -0.024736 0.432684 0.301732
v 0.101512 0.413119 0.470990
v 0.063614 0.546283 0.419814
v 0.049061 0.650973 0.371309
v 0.026609 0.705218 0.357751
v 0.000000 0.722029 0.355553
v -0.026609 0.705218 0.357751
v -0.049061 0.650973 0.371309
v -0.063614 0.546283 0.419814
v -0.101511 0.413119 0.470991
v 0.153101 0.359271 0.634782
v 0.136355 0.503762 0.600851
v 0.096490 0.605061 0.578607
v 0.049185 0.657293 0.574826
v 0.000000 0.673388 0.575261
v -0.049185 0.657293 0.574826
v -0.096490 0.605060 0.578607
v -0.136355 0.503762 0.600851
v -0.153101 0.359271 0.634782
v 0.269593 0.295104 0.771680
v 0.208325 0.423793 0.771226
v 0.130901 0.513987 0.777837
v 0.056006 0.561423 0.796162
v 0.000000 0.577621 0.804608
v -0.056006 0.561423 0.796162
v -0.130901 0.513988 0.777837
v -0.208325 0.423794 0.771226
v -0.269592 0.295104 0.771680
vn 0.7301 -0.5924 -0.3405
vn 0.6061 -0.6714 -0.4264
vn 0.5004 -0.6769 -0.5398
vn 0.2241 -0.6828 -0.6954
vn -0.2241 -0.6828 -0.6954
vn -0.5004 -0.6769 -0.5398
vn -0.6061 -0.6714 -0.4264
vn -0.7301 -0.5924 -0.3405
vn 0.8569 -0.3093 -0.4125
vn 0.6713 -0.3909 -0.6298
vn 0.4300 -0.4308 -0.7934
vn 0.1615 -0.4291 -0.8887
vn -0.1615 -0.4291 -0.8887
vn -0.4300 -0.4308 -0.7934
vn -0.6713 -0.3909 -0.6298
vn -0.8569 -0.3093 -0.4125
vn 0.9042 -0.0771 -0.4202
vn 0.7116 -0.1317 -0.6902
vn 0.4293 -0.2144 -0.8774
vn 0.1525 -0.2516 -0.9557
vn -0.1525 -0.2516 -0.9557
vn -0.4293 -0.2144 -0.8774
vn -0.7116 -0.1317 -0.6902
vn -0.9042 -0.0771 -0.4202
vn 0.9008 0.1085 -0.4204
vn 0.7568 0.1048 -0.6451
vn 0.5067 -0.0571 -0.8603
vn 0.1825 -0.1692 -0.9685
vn -0.1825 -0.1692 -0.9685
vn -0.5067 -0.0571 -0.8603
vn -0.7568 0.1048 -0.6451
vn -0.9008 0.1085 -0.4204
vn 0.8524 0.3194 -0.4140
vn 0.8103 0.2359 -0.5364
vn 0.6395 0.0192 -0.7685
vn 0.2423 -0.1501 -0.9585
vn -0.2422 -0.1501 -0.9585
vn -0.6395 0.0192 -0.7685
vn -0.8103 0.2359 -0.5364
vn -0.8524 0.3194 -0.4140
vn 0.8048 0.5015 -0.3175
vn 0.8777 0.2940 -0.3783
vn 0.7583 0.0283 -0.6513
vn 0.3084 -0.1552 -0.9385
vn -0.3084 -0.1552 -0.9385
vn -0.7583 0.0283 -0.6513
vn -0.8777 0.2940 -0.3783
vn -0.8048 0.5015 -0.3175
vn 0.8658 0.4819 -0.1349
vn 0.9433 0.2405 -0.2289
vn 0.8279 0.0166 -0.5606
vn 0.3603 -0.1373 -0.9227
vn -0.3603 -0.1373 -0.9227
vn -0.8279 0.0166 -0.5606
vn -0.9433 0.2405 -0.2289
vn -0.8658 0.4819 -0.1349
vn 0.9543 0.2988 -0.0037
vn 0.9711 0.1575 -0.1792
vn 0.8607 0.0740 -0.5036
vn 0.4147 0.0018 -0.9100
vn -0.4147 0.0018 -0.9100
vn -0.8607 0.0740 -0.5036
vn -0.9711 0.1575 -0.1792
vn -0.9543 0.2988 -0.0037
vn -0.7884 -0.5931 -0.1636
vn -0.7877 -0.5654 -0.2445
vn -0.7484 -0.6491 -0.1363
vn -0.6211 -0.7654 0.1686
vn -0.6626 -0.7489 0.0088
vn -0.7497 -0.6086 -0.2598
vn -0.8369 -0.3423 -0.4270
vn -0.9320 -0.1559 -0.3272
vn -0.9520 -0.2383 -0.1921
vn -0.9014 0.0160 -0.4327
vn -0.8564 -0.0054 -0.5163
vn -0.9292 -0.2720 -0.2501
vn -0.8321 -0.5202 -0.1922
vn -0.6843 -0.6666 -0.2955
vn -0.6964 -0.7170 -0.0308
vn -0.8852 -0.4248 0.1895
vn -0.9817 0.1233 -0.1450
vn -0.8130 0.1954 -0.5485
vn -0.7510 0.0427 -0.6589
vn -0.9123 0.1718 -0.3718
vn -0.8528 0.3509 -0.3869
vn -0.5420 -0.1891 -0.8188
vn -0.4721 -0.8304 -0.2960
vn -0.3041 -0.9313 0.2005
vn -0.9603 0.2762 -0.0386
vn -0.7687 -0.0451 -0.6380
vn -0.7973 0.0190 -0.6033
vn -0.8051 0.5847 -0.0998
vn -0.6774 0.7143 -0.1762
vn -0.3071 0.0407 -0.9508
vn -0.3874 -0.4773 -0.7888
vn -0.8795 -0.4017 0.2553
vn -0.9318 0.3571 -0.0650
vn -0.7944 -0.1915 -0.5764
vn -0.8741 0.3354 -0.3513
vn -0.7675 0.6377 0.0650
vn -0.8247 0.5518 -0.1242
vn -0.2521 -0.0616 -0.9657
vn -0.3261 -0.6691 -0.6677
vn -0.8161 -0.5763 0.0424
vn -0.7817 0.5414 -0.3094
vn -0.7571 0.3727 -0.5365
vn -0.7008 0.6782 -0.2210
vn -0.6850 0.7279 -0.0310
vn -0.8004 0.5300 -0.2803
vn -0.2666 0.1999 -0.9428
vn 0.5732 0.8051 -0.1525
vn 0.6908 -0.2528 -0.6774
vn -0.7762 0.5504 -0.3077
vn -0.7003 0.6311 -0.3335
vn -0.5788 0.8046 -0.1330
vn -0.5214 0.8473 -0.1009
vn -0.4980 0.8362 -0.2296
vn -0.2283 0.9414 -0.2483
vn 0.2623 0.6769 -0.6877
vn 0.7653 0.6198 -0.1735
vn -0.9384 0.3414 -0.0542
vn -0.8928 0.4501 0.0174
vn -0.7891 0.6028 0.1181
vn -0.7552 0.6545 0.0369
vn -0.7261 0.6579 -0.2002
vn -0.5972 0.7570 -0.2653
vn -0.0537 0.9155 -0.3988
vn 0.2098 0.9715 -0.1101
vn -0.9227 -0.3461 -0.1700
vn -0.6978 -0.6858 -0.2069
vn -0.5164 -0.7963 -0.3150
vn -0.2332 -0.9057 -0.3541
vn 0.2332 -0.9057 -0.3541
vn 0.5164 -0.7963 -0.3150
vn 0.6978 -0.6858 -0.2069
vn 0.9227 -0.3461 -0.1700
vn -0.9403 -0.1679 -0.2961
vn -0.9081 -0.3560 0.2204
vn -0.7311 -0.6788 -0.0685
vn -0.3115 -0.8491 -0.4267
vn 0.3115 -0.8491 -0.4267
vn 0.7311 -0.6788 -0.0685
vn 0.9081 -0.3560 0.2204
vn 0.9403 -0.1679 -0.2961
vn -0.5606 -0.8157 -0.1430
vn -0.8420 -0.2266 0.4895
vn -0.7962 -0.2257 0.5614
vn -0.5795 -0.7734 0.2568
vn 0.5795 -0.7734 0.2568
vn 0.7962 -0.2257 0.5614
vn 0.8420 -0.2266 0.4895
vn 0.5606 -0.8157 -0.1430
vn -0.7040 -0.6123 0.3599
vn -0.4751 -0.7711 -0.4239
vn -0.6655 -0.1969 0.7200
vn -0.3136 0.0249 0.9492
vn 0.3136 0.0249 0.9492
vn 0.6655 -0.1969 0.7200
vn 0.4751 -0.7711 -0.4239
vn 0.7040 -0.6123 0.3599
vn 0.1891 -0.6863 -0.7023
vn -0.2558 -0.1669 0.9522
vn -0.5119 -0.1946 0.8367
vn -0.5315 -0.2101 0.8206
vn 0.5315 -0.2101 0.8206
vn 0.5119 -0.1946 0.8367
vn 0.2558 -0.1669 0.9522
vn -0.1891 -0.6863 -0.7023
vn -0.5402 0.5186 0.6628
vn -0.1407 0.2160 0.9662
vn -0.2878 0.1615 0.9440
vn -0.6119 0.1822 0.7696
vn 0.6119 0.1822 0.7696
vn 0.2878 0.1615 0.9440
vn 0.1407 0.2160 0.9662
vn 0.5402 0.5186 0.6628
vn -0.4410 0.5112 0.7377
vn -0.0727 0.6726 0.7365
vn -0.2436 0.5148 0.8220
vn -0.7078 0.5786 0.4053
vn 0.7078 0.5786 0.4053
vn 0.2436 0.5148 0.8220
vn 0.0727 0.6726 0.7365
vn 0.4410 0.5112 0.7377
vn 0.2019 0.1240 -0.9715
vn -0.1098 0.8956 0.4311
vn -0.3661 0.7113 0.6001
vn -0.7487 0.5173 0.4144
vn 0.7487 0.5173 0.4144
vn 0.3660 0.7113 0.6001
vn 0.1098 0.8956 0.4311
vn -0.2019 0.1240 -0.9715
vn 0.9320 -0.1559 -0.3272
vn 0.8369 -0.3423 -0.4270
vn 0.7497 -0.6086 -0.2598
vn 0.6626 -0.7489 0.0088
vn 0.6211 -0.7654 0.1686
vn 0.7484 -0.6491 -0.1363
vn 0.7877 -0.5654 -0.2445
vn 0.7884 -0.5931 -0.1636
vn 0.8852 -0.4248 0.1895
vn 0.6964 -0.7170 -0.0308
vn 0.6843 -0.6666 -0.2955
vn 0.8321 -0.5202 -0.1922
vn 0.9292 -0.2720 -0.2501
vn 0.8564 -0.0054 -0.5163
vn 0.9014 0.0160 -0.4327
vn 0.9520 -0.2383 -0.1921
vn 0.3041 -0.9313 0.2005
vn 0.4721 -0.8304 -0.2960
vn 0.5420 -0.1891 -0.8188
vn 0.8528 0.3509 -0.3869
vn 0.9123 0.1718 -0.3718
vn 0.7510 0.0427 -0.6589
vn 0.8130 0.1954 -0.5485
vn 0.9817 0.1233 -0.1450
vn 0.8795 -0.4017 0.2553
vn 0.3874 -0.4773 -0.7888
vn 0.3071 0.0407 -0.9508
vn 0.6774 0.7143 -0.1762
vn 0.8051 0.5847 -0.0998
vn 0.7973 0.0190 -0.6033
vn 0.7687 -0.0451 -0.6380
vn 0.9603 0.2762 -0.0386
vn 0.8161 -0.5763 0.0424
vn 0.3261 -0.6691 -0.6677
vn 0.2521 -0.0616 -0.9657
vn 0.8247 0.5518 -0.1242
vn 0.7675 0.6377 0.0650
vn 0.8741 0.3354 -0.3513
vn 0.7944 -0.1915 -0.5764
vn 0.9318 0.3571 -0.0650
vn -0.6908 -0.2528 -0.6774
vn -0.5732 0.8051 -0.1525
vn 0.2666 0.1999 -0.9428
vn 0.8004 0.5300 -0.2803
vn 0.6850 0.7279 -0.0310
vn 0.7008 0.6782 -0.2210
vn 0.7571 0.3727 -0.5365
vn 0.7817 0.5414 -0.3094
vn -0.7653 0.6198 -0.1735
vn -0.2623 0.6769 -0.6877
vn 0.2283 0.9414 -0.2482
vn 0.4980 0.8362 -0.2296
vn 0.5214 0.8473 -0.1009
vn 0.5788 0.8046 -0.1330
vn 0.7003 0.6311 -0.3335
vn 0.7762 0.5503 -0.3077
vn -0.2098 0.9715 -0.1101
vn 0.0537 0.9155 -0.3988
vn 0.5972 0.7570 -0.2653
vn 0.7261 0.6579 -0.2002
vn 0.7552 0.6545 0.0369
vn 0.7891 0.6028 0.1181
vn 0.8928 0.4501 0.0174
vn 0.9384 0.3414 -0.0542
vn 0.6305 -0.5829 -0.5126
vn 0.4729 -0.7411 -0.4766
vn 0.4620 -0.7738 -0.4334
vn 0.2198 -0.8985 -0.3799
vn -0.2198 -0.8985 -0.3799
vn -0.4620 -0.7738 -0.4334
vn -0.4729 -0.7411 -0.4766
vn -0.6305 -0.5829 -0.5126
vn 0.5991 -0.4997 -0.6256
vn 0.4936 -0.6726 -0.5513
vn 0.5762 -0.6956 -0.4290
vn 0.3138 -0.8681 -0.3846
vn -0.3138 -0.8681 -0.3846
vn -0.5762 -0.6956 -0.4290
vn -0.4936 -0.6726 -0.5513
vn -0.5991 -0.4997 -0.6256
vn 0.6707 -0.5880 -0.4522
vn 0.5531 -0.6236 -0.5524
vn 0.7184 -0.5403 -0.4381
vn 0.4741 -0.8163 -0.3299
vn -0.4741 -0.8163 -0.3299
vn -0.7184 -0.5403 -0.4381
vn -0.5531 -0.6236 -0.5524
vn -0.6707 -0.5880 -0.4522
vn 0.5962 -0.7966 -0.0994
vn 0.6666 -0.7229 -0.1820
vn 0.8807 -0.4408 -0.1733
vn 0.6298 -0.7575 -0.1718
vn -0.6298 -0.7575 -0.1718
vn -0.8807 -0.4408 -0.1733
vn -0.6666 -0.7229 -0.1820
vn -0.5962 -0.7966 -0.0994
vn 0.4649 -0.8603 0.2092
vn 0.6638 -0.7476 0.0212
vn 0.8855 -0.4568 -0.0855
vn 0.6638 -0.7328 -0.1498
vn -0.6638 -0.7328 -0.1498
vn -0.8855 -0.4568 -0.0855
vn -0.6638 -0.7476 0.0212
vn -0.4649 -0.8603 0.2092
vn 0.4564 -0.8898 -0.0089
vn 0.5765 -0.8108 -0.1016
vn 0.8529 -0.4948 -0.1663
vn 0.6420 -0.7131 -0.2818
vn -0.6420 -0.7131 -0.2818
vn -0.8529 -0.4948 -0.1663
vn -0.5765 -0.8108 -0.1016
vn -0.4564 -0.8898 -0.0089
vn 0.4914 -0.8635 -0.1133
vn 0.5603 -0.8259 -0.0637
vn 0.7998 -0.5957 -0.0733
vn 0.5670 -0.7963 -0.2107
vn -0.5670 -0.7963 -0.2107
vn -0.7998 -0.5957 -0.0733
vn -0.5603 -0.8259 -0.0637
vn -0.4914 -0.8635 -0.1133
vn 0.5181 -0.8509 -0.0870
vn 0.5660 -0.8204 -0.0806
vn 0.6692 -0.7250 -0.1628
vn 0.3938 -0.8452 -0.3613
vn -0.3938 -0.8452 -0.3613
vn -0.6692 -0.7250 -0.1628
vn -0.5660 -0.8204 -0.0806
vn -0.5181 -0.8509 -0.0870
vn 0.9754 0.2086 0.0708
vn 0.9658 0.2225 -0.1330
vn 0.9094 0.2578 -0.3263
vn 0.5962 0.3484 -0.7233
vn -0.5962 0.3484 -0.7233
vn -0.9094 0.2578 -0.3263
vn -0.9658 0.2225 -0.1330
vn -0.9754 0.2086 0.0708
vn 0.9614 0.2125 0.1748
vn 0.9573 0.2881 -0.0256
vn 0.9526 0.2921 -0.0847
vn 0.9104 0.3540 -0.2139
vn -0.9104 0.3540 -0.2139
vn -0.9526 0.2921 -0.0847
vn -0.9573 0.2881 -0.0255
vn -0.9614 0.2125 0.1748
vn 0.9688 0.0904 0.2307
vn 0.9704 0.2382 0.0393
vn 0.9805 0.1961 -0.0097
vn 0.9997 -0.0152 0.0184
vn -0.9997 -0.0152 0.0184
vn -0.9805 0.1961 -0.0097
vn -0.9704 0.2382 0.0393
vn -0.9688 0.0904 0.2307
vn 0.9828 -0.1640 0.0846
vn 0.9964 0.0794 0.0307
vn 0.9923 0.1219 -0.0241
vn 0.9996 -0.0271 -0.0078
vn -0.9996 -0.0271 -0.0078
vn -0.9923 0.1219 -0.0241
vn -0.9964 0.0794 0.0307
vn -0.9828 -0.1640 0.0846
vn 0.9699 -0.1911 -0.1507
vn 0.9977 -0.0523 -0.0439
vn 0.9929 0.1097 -0.0468
vn 0.9499 0.3116 -0.0222
vn -0.9499 0.3116 -0.0222
vn -0.9929 0.1097 -0.0468
vn -0.9977 -0.0523 -0.0439
vn -0.9699 -0.1911 -0.1507
vn 0.9475 0.0078 -0.3195
vn 0.9792 -0.0492 -0.1970
vn 0.9657 0.2408 -0.0970
vn 0.6810 0.7321 0.0177
vn -0.6810 0.7321 0.0177
vn -0.9657 0.2408 -0.0970
vn -0.9792 -0.0492 -0.1970
vn -0.9475 0.0078 -0.3195
vn 0.9447 0.0891 -0.3157
vn 0.9524 0.1631 -0.2576
vn 0.8377 0.5459 -0.0175
vn 0.3882 0.9039 0.1798
vn -0.3882 0.9039 0.1798
vn -0.8377 0.5459 -0.0175
vn -0.9524 0.1631 -0.2576
vn -0.9447 0.0891 -0.3157
vn 0.8742 0.1936 -0.4454
vn 0.8529 0.5221 -0.0039
vn 0.6283 0.7319 0.2637
vn 0.3011 0.8792 0.3693
vn -0.3011 0.8792 0.3693
vn -0.6283 0.7319 0.2637
vn -0.8529 0.5221 -0.0039
vn -0.8742 0.1936 -0.4454
s 0
f 1//1 2//1 10//1 9//1
f 2//2 3//2 11//2 10//2
f 3//3 4//3 12//3 11//3
f 4//4 5//4 13//4 12//4
f 5//5 6//5 14//5 13//5
f 6//6 7//6 15//6 14//6
f 7//7 8//7 16//7 15//7
f 8//8 65//8 73//8 16//8
f 9//9 10//9 18//9 17//9
f 10//10 11//10 19//10 18//10
f 11//11 12//11 20//11 19//11
f 12//12 13//12 21//12 20//12
f 13//13 14//13 22//13 21//13
f 14//14 15//14 23//14 22//14
f 15//15 16//15 24//15 23//15
f 16//16 73//16 81//16 24//16
f 17//17 18//17 26//17 25//17
f 18//18 19//18 27//18 26//18
f 19//19 20//19 28//19 27//19
f 20//20 21//20 29//20 28//20
f 21//21 22//21 30//21 29//21
f 22//22 23//22 31//22 30//22
f 23//23 24//23 32//23 31//23
f 24//24 81//24 89//24 32//24
f 25//25 26//25 34//25 33//25
f 26//26 27//26 35//26 34//26
f 27//27 28//27 36//27 35//27
f 28//28 29//28 37//28 36//28
f 29//29 30//29 38//29 37//29
f 30//30 31//30 39//30 38//30
f 31//31 32//31 40//31 39//31
f 32//32 89//32 97//32 40//32
f 33//33 34//33 42//33 41//33
f 34//34 35//34 43//34 42//34
f 35//35 36//35 44//35 43//35
f 36//36 37//36 45//36 44//36
f 37//37 38//37 46//37 45//37
f 38//38 39//38 47//38 46//38
f 39//39 40//39 48//39 47//39
f 40//40 97//40 105//40 48//40
f 41//41 42//41 50//41 49//41
f 42//42 43//42 51//42 50//42
f 43//43 44//43 52//43 51//43
f 44//44 45//44 53//44 52//44
f 45//45 46//45 54//45 53//45
f 46//46 47//46 55//46 54//46
f 47//47 48//47 56//47 55//47
f 48//48 105//48 113//48 56//48
f 49//49 50//49 58//49 57//49
f 50//50 51//50 59//50 58//50
f 51//51 52//51 60//51 59//51
f 52//52 53//52 61//52 60//52
f 53//53 54//53 62//53 61//53
f 54//54 55//54 63//54 62//54
f 55//55 56//55 64//55 63//55
f 56//56 113//56 121//56 64//56
f 57//57 58//57 307//57 306//57
f 58//58 59//58 308//58 307//58
f 59//59 60//59 309//59 308//59
f 60//60 61//60 310//60 309//60
f 61//61 62//61 311//61 310//61
f 62//62 63//62 312//62 311//62
f 63//63 64//63 313//63 312//63
f 64//64 121//64 314//64 313//64
f 65//65 66//65 74//65 73//65
f 66//66 67//66 75//66 74//66
f 67//67 68//67 76//67 75//67
f 68//68 69//68 77//68 76//68
f 69//69 70//69 78//69 77//69
f 70//70 71//70 79//70 78//70
f 71//71 72//71 80//71 79//71
f 72//72 129//72 137//72 80//72
f 73//73 74//73 82//73 81//73
f 74//74 75//74 83//74 82//74
f 75//75 76//75 84//75 83//75
f 76//76 77//76 85//76 84//76
f 77//77 78//77 86//77 85//77
f 78//78 79//78 87//78 86//78
f 79//79 80//79 88//79 87//79
f 80//80 137//80 145//80 88//80
f 81//81 82//81 90//81 89//81
f 82//82 83//82 91//82 90//82
f 83//83 84//83 92//83 91//83
f 84//84 85//84 93//84 92//84
f 85//85 86//85 94//85 93//85
f 86//86 87//86 95//86 94//86
f 87//87 88//87 96//87 95//87
f 88//88 145//88 153//88 96//88
f 89//89 90//89 98//89 97//89
f 90//90 91//90 99//90 98//90
f 91//91 92//91 100//91 99//91
f 92//92 93//92 101//92 100//92
f 93//93 94//93 102//93 101//93
f 94//94 95//94 103//94 102//94
f 95//95 96//95 104//95 103//95
f 96//96 153//96 161//96 104//96
f 97//97 98//97 106//97 105//97
f 98//98 99//98 107//98 106//98
f 99//99 100//99 108//99 107//99
f 100//100 101//100 109//100 108//100
f 101//101 102//101 110//101 109//101
f 102//102 103//102 111//102 110//102
f 103//103 104//103 112//103 111//103
f 104//104 161//104 169//104 112//104
f 105//105 106//105 114//105 113//105
f 106//106 107//106 115//106 114//106
f 107//107 108//107 116//107 115//107
f 108//108 109//108 117//108 116//108
f 109//109 110//109 118//109 117//109
f 110//110 111//110 119//110 118//110
f 111//111 112//111 120//111 119//111
f 112//112 169//112 177//112 120//112
f 113//113 114//113 122//113 121//113
f 114//114 115//114 123//114 122//114
f 115//115 116//115 124//115 123//115
f 116//116 117//116 125//116 124//116
f 117//117 118//117 126//117 125//117
f 118//118 119//118 127//118 126//118
f 119//119 120//119 128//119 127//119
f 120//120 177//120 185//120 128//120
f 121//121 122//121 323//121 314//121
f 122//122 123//122 332//122 323//122
f 123//123 124//123 341//123 332//123
f 124//124 125//124 350//124 341//124
f 125//125 126//125 359//125 350//125
f 126//126 127//126 368//126 359//126
f 127//127 128//127 377//127 368//127
f 128//128 185//128 386//128 377//128
f 129//129 130//129 138//129 137//129
f 130//130 131//130 139//130 138//130
f 131//131 132//131 140//131 139//131
f 132//132 133//132 141//132 140//132
f 133//133 134//133 142//133 141//133
f 134//134 135//134 143//134 142//134
f 135//135 136//135 144//135 143//135
f 136//136 193//136 201//136 144//136
f 137//137 138//137 146//137 145//137
f 138//138 139//138 147//138 146//138
f 139//139 140//139 148//139 147//139
f 140//140 141//140 149//140 148//140
f 141//141 142//141 150//141 149//141
f 142//142 143//142 151//142 150//142
f 143//143 144//143 152//143 151//143
f 144//144 201//144 209//144 152//144
f 145//145 146//145 154//145 153//145
f 146//146 147//146 155//146 154//146
f 147//147 148//147 156//147 155//147
f 148//148 149//148 157//148 156//148
f 149//149 150//149 158//149 157//149
f 150//150 151//150 159//150 158//150
f 151//151 152//151 160//151 159//151
f 152//152 209//152 217//152 160//152
f 153//153 154//153 162//153 161//153
f 154//154 155//154 163//154 162//154
f 155//155 156//155 164//155 163//155
f 156//156 157//156 165//156 164//156
f 157//157 158//157 166//157 165//157
f 158//158 159//158 167//158 166//158
f 159//159 160//159 168//159 167//159
f 160//160 217//160 225//160 168//160
f 161//161 162//161 170//161 169//161
f 162//162 163//162 171//162 170//162
f 163//163 164//163 172//163 171//163
f 164//164 165//164 173//164 172//164
f 165//165 166//165 174//165 173//165
f 166//166 167//166 175//166 174//166
f 167//167 168//167 176//167 175//167
f 168//168 225//168 233//168 176//168
f 169//169 170//169 178//169 177//169
f 170//170 171//170 179//170 178//170
f 171//171 172//171 180//171 179//171
f 172//172 173//172 181//172 180//172
f 173//173 174//173 182//173 181//173
f 174//174 175//174 183//174 182//174
f 175//175 176//175 184//175 183//175
f 176//176 233//176 241//176 184//176
f 177//177 178//177 186//177 185//177
f 178//178 179//178 187//178 186//178
f 179//179 180//179 188//179 187//179
f 180//180 181//180 189//180 188//180
f 181//181 182//181 190//181 189//181
f 182//182 183//182 191//182 190//182
f 183//183 184//183 192//183 191//183
f 184//184 241//184 249//184 192//184
f 185//185 186//185 385//185 386//185
f 186//186 187//186 384//186 385//186
f 187//187 188//187 383//187 384//187
f 188//188 189//188 382//188 383//188
f 189//189 190//189 381//189 382//189
f 190//190 191//190 380//190 381//190
f 191//191 192//191 379//191 380//191
f 192//192 249//192 378//192 379//192
f 193//193 194//193 202//193 201//193
f 194//194 195//194 203//194 202//194
f 195//195 196//195 204//195 203//195
f 196//196 197//196 205//196 204//196
f 197//197 198//197 206//197 205//197
f 198//198 199//198 207//198 206//198
f 199//199 200//199 208//199 207//199
f 200//200 1//200 9//200 208//200
f 201//201 202//201 210//201 209//201
f 202//202 203//202 211//202 210//202
f 203//203 204//203 212//203 211//203
f 204//204 205//204 213//204 212//204
f 205//205 206//205 214//205 213//205
f 206//206 207//206 215//206 214//206
f 207//207 208//207 216//207 215//207
f 208//208 9//208 17//208 216//208
f 209//209 210//209 218//209 217//209
f 210//210 211//210 219//210 218//210
f 211//211 212//211 220//211 219//211
f 212//212 213//212 221//212 220//212
f 213//213 214//213 222//213 221//213
f 214//214 215//214 223//214 222//214
f 215//215 216//215 224//215 223//215
f 216//216 17//216 25//216 224//216
f 217//217 218//217 226//217 225//217
f 218//218 219//218 227//218 226//218
f 219//219 220//219 228//219 227//219
f 220//220 221//220 229//220 228//220
f 221//221 222//221 230//221 229//221
f 222//222 223//222 231//222 230//222
f 223//223 224//223 232//223 231//223
f 224//224 25//224 33//224 232//224
f 225//225 226//225 234//225 233//225
f 226//226 227//226 235//226 234//226
f 227//227 228//227 236//227 235//227
f 228//228 229//228 237//228 236//228
f 229//229 230//229 238//229 237//229
f 230//230 231//230 239//230 238//230
f 231//231 232//231 240//231 239//231
f 232//232 33//232 41//232 240//232
f 233//233 234//233 242//233 241//233
f 234//234 235//234 243//234 242//234
f 235//235 236//235 244//235 243//235
f 236//236 237//236 245//236 244//236
f 237//237 238//237 246//237 245//237
f 238//238 239//238 247//238 246//238
f 239//239 240//239 248//239 247//239
f 240//240 41//240 49//240 248//240
f 241//241 242//241 250//241 249//241
f 242//242 243//242 251//242 250//242
f 243//243 244//243 252//243 251//243
f 244//244 245//244 253//244 252//244
f 245//245 246//245 254//245 253//245
f 246//246 247//246 255//246 254//246
f 247//247 248//247 256//247 255//247
f 248//248 49//248 57//248 256//248
f 249//249 250//249 369//249 378//249
f 250//250 251//250 360//250 369//250
f 251//251 252//251 351//251 360//251
f 252//252 253//252 342//252 351//252
f 253//253 254//253 333//253 342//253
f 254//254 255//254 324//254 333//254
f 255//255 256//255 315//255 324//255
f 256//256 57//256 306//256 315//256
f 193//257 136//257 257//257 194//257
f 136//258 135//258 258//258 257//258
f 135//259 134//259 259//259 258//259
f 134//260 133//260 260//260 259//260
f 133//261 132//261 261//261 260//261
f 132//262 131//262 262//262 261//262
f 131//263 130//263 263//263 262//263
f 130//264 129//264 72//264 263//264
f 194//265 257//265 264//265 195//265
f 257//266 258//266 265//266 264//266
f 258//267 259//267 266//267 265//267
f 259//268 260//268 267//268 266//268
f 260//269 261//269 268//269 267//269
f 261//270 262//270 269//270 268//270
f 262//271 263//271 270//271 269//271
f 263//272 72//272 71//272 270//272
f 195//273 264//273 271//273 196//273
f 264//274 265//274 272//274 271//274
f 265//275 266//275 273//275 272//275
f 266//276 267//276 274//276 273//276
f 267//277 268//277 275//277 274//277
f 268//278 269//278 276//278 275//278
f 269//279 270//279 277//279 276//279
f 270//280 71//280 70//280 277//280
f 196//281 271//281 278//281 197//281
f 271//282 272//282 279//282 278//282
f 272//283 273//283 280//283 279//283
f 273//284 274//284 281//284 280//284
f 274//285 275//285 282//285 281//285
f 275//286 276//286 283//286 282//286
f 276//287 277//287 284//287 283//287
f 277//288 70//288 69//288 284//288
f 197//289 278//289 285//289 198//289
f 278//290 279//290 286//290 285//290
f 279//291 280//291 287//291 286//291
f 280//292 281//292 288//292 287//292
f 281//293 282//293 289//293 288//293
f 282//294 283//294 290//294 289//294
f 283//295 284//295 291//295 290//295
f 284//296 69//296 68//296 291//296
f 198//297 285//297 292//297 199//297
f 285//298 286//298 293//298 292//298
f 286//299 287//299 294//299 293//299
f 287//300 288//300 295//300 294//300
f 288//301 289//301 296//301 295//301
f 289//302 290//302 297//302 296//302
f 290//303 291//303 298//303 297//303
f 291//304 68//304 67//304 298//304
f 199//305 292//305 299//305 200//305
f 292//306 293//306 300//306 299//306
f 293//307 294//307 301//307 300//307
f 294//308 295//308 302//308 301//308
f 295//309 296//309 303//309 302//309
f 296//310 297//310 304//310 303//310
f 297//311 298//311 305//311 304//311
f 298//312 67//312 66//312 305//312
f 200//313 299//313 2//313 1//313
f 299//314 300//314 3//314 2//314
f 300//315 301//315 4//315 3//315
f 301//316 302//316 5//316 4//316
f 302//317 303//317 6//317 5//317
f 303//318 304//318 7//318 6//318
f 304//319 305//319 8//319 7//319
f 305//320 66//320 65//320 8//320
f 306//321 307//321 316//321 315//321
f 307//322 308//322 317//322 316//322
f 308//323 309//323 318//323 317//323
f 309//324 310//324 319//324 318//324
f 310//325 311//325 320//325 319//325
f 311//326 312//326 321//326 320//326
f 312//327 313//327 322//327 321//327
f 313//328 314//328 323//328 322//328
f 315//329 316//329 325//329 324//329
f 316//330 317//330 326//330 325//330
f 317//331 318//331 327//331 326//331
f 318//332 319//332 328//332 327//332
f 319//333 320//333 329//333 328//333
f 320//334 321//334 330//334 329//334
f 321//335 322//335 331//335 330//335
f 322//336 323//336 332//336 331//336
f 324//337 325//337 334//337 333//337
f 325//338 326//338 335//338 334//338
f 326//339 327//339 336//339 335//339
f 327//340 328//340 337//340 336//340
f 328//341 329//341 338//341 337//341
f 329//342 330//342 339//342 338//342
f 330//343 331//343 340//343 339//343
f 331//344 332//344 341//344 340//344
f 333//345 334//345 343//345 342//345
f 334//346 335//346 344//346 343//346
f 335//347 336//347 345//347 344//347
f 336//348 337//348 346//348 345//348
f 337//349 338//349 347//349 346//349
f 338//350 339//350 348//350 347//350
f 339//351 340//351 349//351 348//351
f 340//352 341//352 350//352 349//352
f 342//353 343//353 352//353 351//353
f 343//354 344//354 353//354 352//354
f 344//355 345//355 354//355 353//355
f 345//356 346//356 355//356 354//356
f 346//357 347//357 356//357 355//357
f 347//358 348//358 357//358 356//358
f 348//359 349//359 358//359 357//359
f 349//360 350//360 359//360 358//360
f 351//361 352//361 361//361 360//361
f 352//362 353//362 362//362 361//362
f 353//363 354//363 363//363 362//363
f 354//364 355//364 364//364 363//364
f 355//365 356//365 365//365 364//365
f 356//366 357//366 366//366 365//366
f 357//367 358//367 367//367 366//367
f 358//368 359//368 368//368 367//368
f 360//369 361//369 370//369 369//369
f 361//370 362//370 371//370 370//370
f 362//371 363//371 372//371 371//371
f 363//372 364//372 373//372 372//372
f 364//373 365//373 374//373 373//373
f 365//374 366//374 375//374 374//374
f 366//375 367//375 376//375 375//375
f 367//376 368//376 377//376 376//376
f 369//377 370//377 379//377 378//377
f 370//378 371//378 380//378 379//378
f 371//379 372//379 381//379 380//379
f 372//380 373//380 382//380 381//380
f 373//381 374//381 383//381 382//381
f 374//382 375//382 384//382 383//382
f 375//383 376//383 385//383 384//383
f 376//384 377//384 386//384 385//384
