# Blender 5.0.0
# www.blender.org
mtllib bridge.mtl
o Cube.001
v -0.865965 5.400456 10.123879
v -0.865965 5.891836 10.123879
v -0.865965 5.400456 -11.137250
v -0.865965 5.891836 -11.137250
v 1.134035 5.400456 10.123879
v 1.134035 5.891836 10.123879
v 1.134035 5.400456 -11.137250
v 1.134035 5.891836 -11.137250
v 99.046295 5.891836 -11.137250
v 99.046295 5.400456 -11.137250
v 99.046295 5.400456 10.123879
v 99.046295 5.891836 10.123879
v -0.865965 6.630457 10.123879
v -0.865965 7.121836 10.123879
v -0.865965 6.630457 -11.137250
v -0.865965 7.121836 -11.137250
v 1.134035 6.630457 10.123879
v 1.134035 7.121836 10.123879
v 1.134035 6.630457 -11.137250
v 1.134035 7.121836 -11.137250
v 99.046295 7.121836 -11.137250
v 99.046295 6.630457 -11.137250
v 99.046295 6.630457 10.123879
v 99.046295 7.121836 10.123879
v 19.712162 -3.153854 -8.801904
v 20.308784 -1.153853 -9.346212
v 19.712162 -3.153854 -11.715154
v 20.308784 -1.153853 -11.170844
v 22.905407 -3.153854 -8.801904
v 22.308784 -1.153853 -9.346212
v 22.905407 -3.153854 -11.715154
v 22.308784 -1.153853 -11.170844
v 22.308784 -1.153853 -11.170844
v 22.308784 -3.153854 -11.170844
v 22.308784 -3.153854 -9.346212
v 22.308784 -1.153853 -9.346212
v 20.308784 5.846146 -9.346212
v 20.308784 5.846146 -11.170844
v 22.308784 5.846146 -11.170844
v 22.308784 5.846146 -9.346212
v 8.890030 -3.153854 -8.801904
v 9.486652 -1.153853 -9.346212
v 8.890030 -3.153854 -11.715154
v 9.486652 -1.153853 -11.170844
v 12.083275 -3.153854 -8.801904
v 11.486652 -1.153853 -9.346212
v 12.083275 -3.153854 -11.715154
v 11.486652 -1.153853 -11.170844
v 11.486652 -1.153853 -11.170844
v 11.486652 -3.153854 -11.170844
v 11.486652 -3.153854 -9.346212
v 11.486652 -1.153853 -9.346212
v 9.486652 5.846146 -9.346212
v 9.486652 5.846146 -11.170844
v 11.486652 5.846146 -11.170844
v 11.486652 5.846146 -9.346212
v 9.486652 14.846146 -9.346212
v 9.486652 14.846146 -11.170844
v 11.486652 14.846146 -11.170844
v 11.486652 14.846146 -9.346212
v 11.486652 13.046146 -11.170844
v 11.486652 13.046146 -9.346212
v 9.486652 13.046146 -9.346212
v 9.486652 13.046146 -11.170844
v 11.486652 10.886147 -9.346212
v 9.486652 10.886147 -11.170844
v 11.486652 10.886147 -11.170844
v 9.486652 10.886147 -9.346212
v 9.486652 10.886147 -9.346212
v 9.486652 13.046146 -9.346212
v 9.486652 13.046146 -11.170844
v 9.486652 10.886147 -11.170844
v -0.913345 5.786146 -9.346212
v -0.913345 7.946146 -9.346212
v -0.913345 7.946146 -11.170844
v -0.913345 5.786146 -11.170844
v 22.286654 5.886146 -11.170844
v 22.286654 8.046146 -11.170844
v 22.286654 8.046146 -9.346212
v 22.286654 5.886146 -9.346212
v -1.541847 -3.153854 -8.801904
v -0.945224 -1.153853 -9.346212
v -1.541847 -3.153854 -11.715154
v -0.945224 -1.153853 -11.170844
v 1.651398 -3.153854 -8.801904
v 1.054776 -1.153853 -9.346212
v 1.651398 -3.153854 -11.715154
v 1.054776 -1.153853 -11.170844
v 1.054776 -1.153853 -11.170844
v 1.054776 -3.153854 -11.170844
v 1.054776 -3.153854 -9.346212
v 1.054776 -1.153853 -9.346212
v -0.945224 5.846146 -9.346212
v -0.945224 5.846146 -11.170844
v 1.054776 5.846146 -11.170844
v 1.054776 5.846146 -9.346212
v -1.541847 -3.153854 10.656446
v -0.945224 -1.153853 10.112138
v -1.541847 -3.153854 7.743198
v -0.945224 -1.153853 8.287506
v 1.651398 -3.153854 10.656446
v 1.054776 -1.153853 10.112138
v 1.651398 -3.153854 7.743198
v 1.054776 -1.153853 8.287506
v 1.054776 -1.153853 8.287506
v 1.054776 -3.153854 8.287506
v 1.054776 -3.153854 10.112138
v 1.054776 -1.153853 10.112138
v -0.945224 5.846146 10.112138
v -0.945224 5.846146 8.287506
v 1.054776 5.846146 8.287506
v 1.054776 5.846146 10.112138
v 8.890030 -3.153854 10.656446
v 9.486652 -1.153853 10.112138
v 8.890030 -3.153854 7.743198
v 9.486652 -1.153853 8.287506
v 12.083275 -3.153854 10.656446
v 11.486652 -1.153853 10.112138
v 12.083275 -3.153854 7.743198
v 11.486652 -1.153853 8.287506
v 11.486652 -1.153853 8.287506
v 11.486652 -3.153854 8.287506
v 11.486652 -3.153854 10.112138
v 11.486652 -1.153853 10.112138
v 9.486652 5.846146 10.112138
v 9.486652 5.846146 8.287506
v 11.486652 5.846146 8.287506
v 11.486652 5.846146 10.112138
v 9.486652 14.846146 10.112138
v 9.486652 14.846146 8.287506
v 11.486652 14.846146 8.287506
v 11.486652 14.846146 10.112138
v 11.486652 13.046146 8.287506
v 11.486652 13.046146 10.112138
v 9.486652 13.046146 10.112138
v 9.486652 13.046146 8.287506
v 11.486652 10.886147 10.112138
v 9.486652 10.886147 8.287506
v 11.486652 10.886147 8.287506
v 9.486652 10.886147 10.112138
v 9.486652 10.886147 10.112138
v 9.486652 13.046146 10.112138
v 9.486652 13.046146 8.287506
v 9.486652 10.886147 8.287506
v -0.913345 5.786146 10.112138
v -0.913345 7.946146 10.112138
v -0.913345 7.946146 8.287506
v -0.913345 5.786146 8.287506
v 22.286654 5.886146 8.287506
v 22.286654 8.046146 8.287506
v 22.286654 8.046146 10.112138
v 22.286654 5.886146 10.112138
v 19.712162 -3.153854 10.656446
v 20.308784 -1.153853 10.112138
v 19.712162 -3.153854 7.743198
v 20.308784 -1.153853 8.287506
v 22.905407 -3.153854 10.656446
v 22.308784 -1.153853 10.112138
v 22.905407 -3.153854 7.743198
v 22.308784 -1.153853 8.287506
v 22.308784 -1.153853 8.287506
v 22.308784 -3.153854 8.287506
v 22.308784 -3.153854 10.112138
v 22.308784 -1.153853 10.112138
v 20.308784 5.846146 10.112138
v 20.308784 5.846146 8.287506
v 22.308784 5.846146 8.287506
v 22.308784 5.846146 10.112138
v 19.712162 -3.153854 10.656446
v 20.308784 -1.153853 10.112138
v 19.712162 -3.153854 7.743198
v 20.308784 -1.153853 8.287506
v 22.905407 -3.153854 10.656446
v 22.308784 -1.153853 10.112138
v 22.905407 -3.153854 7.743198
v 22.308784 -1.153853 8.287506
v 22.308784 -1.153853 8.287506
v 22.308784 -3.153854 8.287506
v 22.308784 -3.153854 10.112138
v 22.308784 -1.153853 10.112138
v 20.308784 5.846146 10.112138
v 20.308784 5.846146 8.287506
v 22.308784 5.846146 8.287506
v 22.308784 5.846146 10.112138
v -1.541847 -3.153854 -8.801904
v -0.945224 -1.153853 -9.346212
v -1.541847 -3.153854 -11.715154
v -0.945224 -1.153853 -11.170844
v 1.651398 -3.153854 -8.801904
v 1.054776 -1.153853 -9.346212
v 1.651398 -3.153854 -11.715154
v 1.054776 -1.153853 -11.170844
v 1.054776 -1.153853 -11.170844
v 1.054776 -3.153854 -11.170844
v 1.054776 -3.153854 -9.346212
v 1.054776 -1.153853 -9.346212
v -0.945224 5.846146 -9.346212
v -0.945224 5.846146 -11.170844
v 1.054776 5.846146 -11.170844
v 1.054776 5.846146 -9.346212
v 8.890030 -3.153854 -8.801904
v 9.486652 -1.153853 -9.346212
v 8.890030 -3.153854 -11.715154
v 9.486652 -1.153853 -11.170844
v 12.083275 -3.153854 -8.801904
v 11.486652 -1.153853 -9.346212
v 12.083275 -3.153854 -11.715154
v 11.486652 -1.153853 -11.170844
v 11.486652 -1.153853 -11.170844
v 11.486652 -3.153854 -11.170844
v 11.486652 -3.153854 -9.346212
v 11.486652 -1.153853 -9.346212
v 9.486652 5.846146 -9.346212
v 9.486652 5.846146 -11.170844
v 11.486652 5.846146 -11.170844
v 11.486652 5.846146 -9.346212
v 9.486652 14.846146 -9.346212
v 9.486652 14.846146 -11.170844
v 11.486652 14.846146 -11.170844
v 11.486652 14.846146 -9.346212
v 11.486652 13.046146 -11.170844
v 11.486652 13.046146 -9.346212
v 9.486652 13.046146 -9.346212
v 9.486652 13.046146 -11.170844
v 11.486652 10.886147 -9.346212
v 9.486652 10.886147 -11.170844
v 11.486652 10.886147 -11.170844
v 9.486652 10.886147 -9.346212
v 9.486652 10.886147 -9.346212
v 9.486652 13.046146 -9.346212
v 9.486652 13.046146 -11.170844
v 9.486652 10.886147 -11.170844
v -0.913345 5.786146 -9.346212
v -0.913345 7.946146 -9.346212
v -0.913345 7.946146 -11.170844
v -0.913345 5.786146 -11.170844
v 22.286654 5.886146 -11.170844
v 22.286654 8.046146 -11.170844
v 22.286654 8.046146 -9.346212
v 22.286654 5.886146 -9.346212
v 19.712162 -3.153854 -8.801904
v 20.308784 -1.153853 -9.346212
v 19.712162 -3.153854 -11.715154
v 20.308784 -1.153853 -11.170844
v 22.905407 -3.153854 -8.801904
v 22.308784 -1.153853 -9.346212
v 22.905407 -3.153854 -11.715154
v 22.308784 -1.153853 -11.170844
v 22.308784 -1.153853 -11.170844
v 22.308784 -3.153854 -11.170844
v 22.308784 -3.153854 -9.346212
v 22.308784 -1.153853 -9.346212
v 20.308784 5.846146 -9.346212
v 20.308784 5.846146 -11.170844
v 22.308784 5.846146 -11.170844
v 22.308784 5.846146 -9.346212
v 8.890030 -3.153854 10.656446
v 9.486652 -1.153853 10.112138
v 8.890030 -3.153854 7.743198
v 9.486652 -1.153853 8.287506
v 12.083275 -3.153854 10.656446
v 11.486652 -1.153853 10.112138
v 12.083275 -3.153854 7.743198
v 11.486652 -1.153853 8.287506
v 11.486652 -1.153853 8.287506
v 11.486652 -3.153854 8.287506
v 11.486652 -3.153854 10.112138
v 11.486652 -1.153853 10.112138
v 9.486652 5.846146 10.112138
v 9.486652 5.846146 8.287506
v 11.486652 5.846146 8.287506
v 11.486652 5.846146 10.112138
v 9.486652 14.846146 10.112138
v 9.486652 14.846146 8.287506
v 11.486652 14.846146 8.287506
v 11.486652 14.846146 10.112138
v 11.486652 13.046146 8.287506
v 11.486652 13.046146 10.112138
v 9.486652 13.046146 10.112138
v 9.486652 13.046146 8.287506
v 11.486652 10.886147 10.112138
v 9.486652 10.886147 8.287506
v 11.486652 10.886147 8.287506
v 9.486652 10.886147 10.112138
v 9.486652 10.886147 10.112138
v 9.486652 13.046146 10.112138
v 9.486652 13.046146 8.287506
v 9.486652 10.886147 8.287506
v -0.913345 5.786146 10.112138
v -0.913345 7.946146 10.112138
v -0.913345 7.946146 8.287506
v -0.913345 5.786146 8.287506
v 22.286654 5.886146 8.287506
v 22.286654 8.046146 8.287506
v 22.286654 8.046146 10.112138
v 22.286654 5.886146 10.112138
v -1.541847 -3.153854 10.656446
v -0.945224 -1.153853 10.112138
v -1.541847 -3.153854 7.743198
v -0.945224 -1.153853 8.287506
v 1.651398 -3.153854 10.656446
v 1.054776 -1.153853 10.112138
v 1.651398 -3.153854 7.743198
v 1.054776 -1.153853 8.287506
v 1.054776 -1.153853 8.287506
v 1.054776 -3.153854 8.287506
v 1.054776 -3.153854 10.112138
v 1.054776 -1.153853 10.112138
v -0.945224 5.846146 10.112138
v -0.945224 5.846146 8.287506
v 1.054776 5.846146 8.287506
v 1.054776 5.846146 10.112138
v 45.516926 -3.153854 10.656446
v 46.113548 -1.153853 10.112138
v 45.516926 -3.153854 7.743198
v 46.113548 -1.153853 8.287506
v 48.710171 -3.153854 10.656446
v 48.113548 -1.153853 10.112138
v 48.710171 -3.153854 7.743198
v 48.113548 -1.153853 8.287506
v 48.113548 -1.153853 8.287506
v 48.113548 -3.153854 8.287506
v 48.113548 -3.153854 10.112138
v 48.113548 -1.153853 10.112138
v 46.113548 5.846146 10.112138
v 46.113548 5.846146 8.287506
v 48.113548 5.846146 8.287506
v 48.113548 5.846146 10.112138
v 24.262917 -3.153854 -8.801904
v 24.859539 -1.153853 -9.346212
v 24.262917 -3.153854 -11.715154
v 24.859539 -1.153853 -11.170844
v 27.456161 -3.153854 -8.801904
v 26.859539 -1.153853 -9.346212
v 27.456161 -3.153854 -11.715154
v 26.859539 -1.153853 -11.170844
v 26.859539 -1.153853 -11.170844
v 26.859539 -3.153854 -11.170844
v 26.859539 -3.153854 -9.346212
v 26.859539 -1.153853 -9.346212
v 24.859539 5.846146 -9.346212
v 24.859539 5.846146 -11.170844
v 26.859539 5.846146 -11.170844
v 26.859539 5.846146 -9.346212
v 34.694798 -3.153854 -8.801904
v 35.291420 -1.153853 -9.346212
v 34.694798 -3.153854 -11.715154
v 35.291420 -1.153853 -11.170844
v 37.888042 -3.153854 -8.801904
v 37.291420 -1.153853 -9.346212
v 37.888042 -3.153854 -11.715154
v 37.291420 -1.153853 -11.170844
v 37.291420 -1.153853 -11.170844
v 37.291420 -3.153854 -11.170844
v 37.291420 -3.153854 -9.346212
v 37.291420 -1.153853 -9.346212
v 35.291420 5.846146 -9.346212
v 35.291420 5.846146 -11.170844
v 37.291420 5.846146 -11.170844
v 37.291420 5.846146 -9.346212
v 35.291420 14.846146 -9.346212
v 35.291420 14.846146 -11.170844
v 37.291420 14.846146 -11.170844
v 37.291420 14.846146 -9.346212
v 37.291420 13.046146 -11.170844
v 37.291420 13.046146 -9.346212
v 35.291420 13.046146 -9.346212
v 35.291420 13.046146 -11.170844
v 37.291420 10.886147 -9.346212
v 35.291420 10.886147 -11.170844
v 37.291420 10.886147 -11.170844
v 35.291420 10.886147 -9.346212
v 35.291420 10.886147 -9.346212
v 35.291420 13.046146 -9.346212
v 35.291420 13.046146 -11.170844
v 35.291420 10.886147 -11.170844
v 24.891422 5.786146 -9.346212
v 24.891422 7.946146 -9.346212
v 24.891422 7.946146 -11.170844
v 24.891422 5.786146 -11.170844
v 48.091419 5.886146 -11.170844
v 48.091419 8.046146 -11.170844
v 48.091419 8.046146 -9.346212
v 48.091419 5.886146 -9.346212
v 45.516926 -3.153854 -8.801904
v 46.113548 -1.153853 -9.346212
v 45.516926 -3.153854 -11.715154
v 46.113548 -1.153853 -11.170844
v 48.710171 -3.153854 -8.801904
v 48.113548 -1.153853 -9.346212
v 48.710171 -3.153854 -11.715154
v 48.113548 -1.153853 -11.170844
v 48.113548 -1.153853 -11.170844
v 48.113548 -3.153854 -11.170844
v 48.113548 -3.153854 -9.346212
v 48.113548 -1.153853 -9.346212
v 46.113548 5.846146 -9.346212
v 46.113548 5.846146 -11.170844
v 48.113548 5.846146 -11.170844
v 48.113548 5.846146 -9.346212
v 34.694798 -3.153854 10.656446
v 35.291420 -1.153853 10.112138
v 34.694798 -3.153854 7.743198
v 35.291420 -1.153853 8.287506
v 37.888042 -3.153854 10.656446
v 37.291420 -1.153853 10.112138
v 37.888042 -3.153854 7.743198
v 37.291420 -1.153853 8.287506
v 37.291420 -1.153853 8.287506
v 37.291420 -1.153853 10.112138
v 35.291420 5.846146 10.112138
v 35.291420 5.846146 8.287506
v 37.291420 5.846146 8.287506
v 37.291420 5.846146 10.112138
v 35.291420 14.846146 10.112138
v 35.291420 14.846146 8.287506
v 37.291420 14.846146 8.287506
v 37.291420 14.846146 10.112138
v 37.291420 13.046146 8.287506
v 37.291420 13.046146 10.112138
v 35.291420 13.046146 10.112138
v 35.291420 13.046146 8.287506
v 37.291420 10.886147 10.112138
v 35.291420 10.886147 8.287506
v 37.291420 10.886147 8.287506
v 35.291420 10.886147 10.112138
v 35.291420 10.886147 10.112138
v 35.291420 13.046146 10.112138
v 35.291420 13.046146 8.287506
v 35.291420 10.886147 8.287506
v 24.891422 5.786146 10.112138
v 24.891422 7.946146 10.112138
v 24.891422 7.946146 8.287506
v 24.891422 5.786146 8.287506
v 48.091419 5.886146 8.287506
v 48.091419 8.046146 8.287506
v 48.091419 8.046146 10.112138
v 48.091419 5.886146 10.112138
v 24.262917 -3.153854 10.656446
v 24.859539 -1.153853 10.112138
v 24.262917 -3.153854 7.743198
v 24.859539 -1.153853 8.287506
v 27.456161 -3.153854 10.656446
v 26.859539 -1.153853 10.112138
v 27.456161 -3.153854 7.743198
v 26.859539 -1.153853 8.287506
v 26.859539 -1.153853 8.287506
v 26.859539 -3.153854 8.287506
v 26.859539 -3.153854 10.112138
v 26.859539 -1.153853 10.112138
v 24.859539 5.846146 10.112138
v 24.859539 5.846146 8.287506
v 26.859539 5.846146 8.287506
v 26.859539 5.846146 10.112138
v 75.238342 -3.153854 10.656446
v 75.834969 -1.153853 10.112138
v 75.238342 -3.153854 7.743198
v 75.834969 -1.153853 8.287506
v 78.431595 -3.153854 10.656446
v 77.834969 -1.153853 10.112138
v 78.431595 -3.153854 7.743198
v 77.834969 -1.153853 8.287506
v 77.834969 -1.153853 8.287506
v 77.834969 -3.153854 8.287506
v 77.834969 -3.153854 10.112138
v 77.834969 -1.153853 10.112138
v 75.834969 5.846146 10.112138
v 75.834969 5.846146 8.287506
v 77.834969 5.846146 8.287506
v 77.834969 5.846146 10.112138
v 85.670219 -3.153854 10.656446
v 86.266846 -1.153853 10.112138
v 85.670219 -3.153854 7.743198
v 86.266846 -1.153853 8.287506
v 88.863472 -3.153854 10.656446
v 88.266846 -1.153853 10.112138
v 88.863472 -3.153854 7.743198
v 88.266846 -1.153853 8.287506
v 88.266846 -1.153853 8.287506
v 88.266846 -3.153854 8.287506
v 88.266846 -3.153854 10.112138
v 88.266846 -1.153853 10.112138
v 86.266846 5.846146 10.112138
v 86.266846 5.846146 8.287506
v 88.266846 5.846146 8.287506
v 88.266846 5.846146 10.112138
v 86.266846 14.846146 10.112138
v 86.266846 14.846146 8.287506
v 88.266846 14.846146 8.287506
v 88.266846 14.846146 10.112138
v 88.266846 13.046146 8.287506
v 88.266846 13.046146 10.112138
v 86.266846 13.046146 10.112138
v 86.266846 13.046146 8.287506
v 88.266846 10.886147 10.112138
v 86.266846 10.886147 8.287506
v 88.266846 10.886147 8.287506
v 86.266846 10.886147 10.112138
v 86.266846 10.886147 10.112138
v 86.266846 13.046146 10.112138
v 86.266846 13.046146 8.287506
v 86.266846 10.886147 8.287506
v 75.866844 5.786146 10.112138
v 75.866844 7.946146 10.112138
v 75.866844 7.946146 8.287506
v 75.866844 5.786146 8.287506
v 99.066849 5.886146 8.287506
v 99.066849 8.046146 8.287506
v 99.066849 8.046146 10.112138
v 99.066849 5.886146 10.112138
v 96.492348 -3.153854 -8.801904
v 97.088974 -1.153853 -9.346212
v 96.492348 -3.153854 -11.715154
v 97.088974 -1.153853 -11.170844
v 99.685600 -3.153854 -8.801904
v 99.088974 -1.153853 -9.346212
v 99.685600 -3.153854 -11.715154
v 99.088974 -1.153853 -11.170844
v 99.088974 -1.153853 -11.170844
v 99.088974 -3.153854 -11.170844
v 99.088974 -3.153854 -9.346212
v 99.088974 -1.153853 -9.346212
v 97.088974 5.846146 -9.346212
v 97.088974 5.846146 -11.170844
v 99.088974 5.846146 -11.170844
v 99.088974 5.846146 -9.346212
v 85.670219 -3.153854 -8.801904
v 86.266846 -1.153853 -9.346212
v 85.670219 -3.153854 -11.715154
v 86.266846 -1.153853 -11.170844
v 88.863472 -3.153854 -8.801904
v 88.266846 -1.153853 -9.346212
v 88.863472 -3.153854 -11.715154
v 88.266846 -1.153853 -11.170844
v 88.266846 -1.153853 -11.170844
v 88.266846 -3.153854 -11.170844
v 88.266846 -3.153854 -9.346212
v 88.266846 -1.153853 -9.346212
v 86.266846 5.846146 -9.346212
v 86.266846 5.846146 -11.170844
v 88.266846 5.846146 -11.170844
v 88.266846 5.846146 -9.346212
v 86.266846 14.846146 -9.346212
v 86.266846 14.846146 -11.170844
v 88.266846 14.846146 -11.170844
v 88.266846 14.846146 -9.346212
v 88.266846 13.046146 -11.170844
v 88.266846 13.046146 -9.346212
v 86.266846 13.046146 -9.346212
v 86.266846 13.046146 -11.170844
v 88.266846 10.886147 -9.346212
v 86.266846 10.886147 -11.170844
v 88.266846 10.886147 -11.170844
v 86.266846 10.886147 -9.346212
v 86.266846 10.886147 -9.346212
v 86.266846 13.046146 -9.346212
v 86.266846 13.046146 -11.170844
v 86.266846 10.886147 -11.170844
v 75.866844 5.786146 -9.346212
v 75.866844 7.946146 -9.346212
v 75.866844 7.946146 -11.170844
v 75.866844 5.786146 -11.170844
v 99.066849 5.886146 -11.170844
v 99.066849 8.046146 -11.170844
v 99.066849 8.046146 -9.346212
v 99.066849 5.886146 -9.346212
v 75.238342 -3.153854 -8.801904
v 75.834969 -1.153853 -9.346212
v 75.238342 -3.153854 -11.715154
v 75.834969 -1.153853 -11.170844
v 78.431595 -3.153854 -8.801904
v 77.834969 -1.153853 -9.346212
v 78.431595 -3.153854 -11.715154
v 77.834969 -1.153853 -11.170844
v 77.834969 -1.153853 -11.170844
v 77.834969 -3.153854 -11.170844
v 77.834969 -3.153854 -9.346212
v 77.834969 -1.153853 -9.346212
v 75.834969 5.846146 -9.346212
v 75.834969 5.846146 -11.170844
v 77.834969 5.846146 -11.170844
v 77.834969 5.846146 -9.346212
v 96.492348 -3.153854 10.656446
v 97.088974 -1.153853 10.112138
v 96.492348 -3.153854 7.743198
v 97.088974 -1.153853 8.287506
v 99.685600 -3.153854 10.656446
v 99.088974 -1.153853 10.112138
v 99.685600 -3.153854 7.743198
v 99.088974 -1.153853 8.287506
v 99.088974 -1.153853 8.287506
v 99.088974 -3.153854 8.287506
v 99.088974 -3.153854 10.112138
v 99.088974 -1.153853 10.112138
v 97.088974 5.846146 10.112138
v 97.088974 5.846146 8.287506
v 99.088974 5.846146 8.287506
v 99.088974 5.846146 10.112138
v 49.433586 -3.153854 10.656446
v 50.030209 -1.153853 10.112138
v 49.433586 -3.153854 7.743198
v 50.030209 -1.153853 8.287506
v 52.626831 -3.153854 10.656446
v 52.030209 -1.153853 10.112138
v 52.626831 -3.153854 7.743198
v 52.030209 -1.153853 8.287506
v 52.030209 -1.153853 8.287506
v 52.030209 -3.153854 8.287506
v 52.030209 -3.153854 10.112138
v 52.030209 -1.153853 10.112138
v 50.030209 5.846146 10.112138
v 50.030209 5.846146 8.287506
v 52.030209 5.846146 8.287506
v 52.030209 5.846146 10.112138
v 59.865463 -3.153854 10.656446
v 60.462086 -1.153853 10.112138
v 59.865463 -3.153854 7.743198
v 60.462086 -1.153853 8.287506
v 63.058708 -3.153854 10.656446
v 62.462086 -1.153853 10.112138
v 63.058708 -3.153854 7.743198
v 62.462086 -1.153853 8.287506
v 62.462086 -1.153853 8.287506
v 62.462086 -3.153854 8.287506
v 62.462086 -3.153854 10.112138
v 62.462086 -1.153853 10.112138
v 60.462086 5.846146 10.112138
v 60.462086 5.846146 8.287506
v 62.462086 5.846146 8.287506
v 62.462086 5.846146 10.112138
v 60.462086 14.846146 10.112138
v 60.462086 14.846146 8.287506
v 62.462086 14.846146 8.287506
v 62.462086 14.846146 10.112138
v 62.462086 13.046146 8.287506
v 62.462086 13.046146 10.112138
v 60.462086 13.046146 10.112138
v 60.462086 13.046146 8.287506
v 62.462086 10.886147 10.112138
v 60.462086 10.886147 8.287506
v 62.462086 10.886147 8.287506
v 60.462086 10.886147 10.112138
v 60.462086 10.886147 10.112138
v 60.462086 13.046146 10.112138
v 60.462086 13.046146 8.287506
v 60.462086 10.886147 8.287506
v 50.062088 5.786146 10.112138
v 50.062088 7.946146 10.112138
v 50.062088 7.946146 8.287506
v 50.062088 5.786146 8.287506
v 73.262085 5.886146 8.287506
v 73.262085 8.046146 8.287506
v 73.262085 8.046146 10.112138
v 73.262085 5.886146 10.112138
v 70.687584 -3.153854 -8.801904
v 71.284210 -1.153853 -9.346212
v 70.687584 -3.153854 -11.715154
v 71.284210 -1.153853 -11.170844
v 73.880836 -3.153854 -8.801904
v 73.284210 -1.153853 -9.346212
v 73.880836 -3.153854 -11.715154
v 73.284210 -1.153853 -11.170844
v 73.284210 -1.153853 -11.170844
v 73.284210 -3.153854 -11.170844
v 73.284210 -3.153854 -9.346212
v 73.284210 -1.153853 -9.346212
v 71.284210 5.846146 -9.346212
v 71.284210 5.846146 -11.170844
v 73.284210 5.846146 -11.170844
v 73.284210 5.846146 -9.346212
v 59.865463 -3.153854 -8.801904
v 60.462086 -1.153853 -9.346212
v 59.865463 -3.153854 -11.715154
v 60.462086 -1.153853 -11.170844
v 63.058708 -3.153854 -8.801904
v 62.462086 -1.153853 -9.346212
v 63.058708 -3.153854 -11.715154
v 62.462086 -1.153853 -11.170844
v 62.462086 -1.153853 -11.170844
v 62.462086 -3.153854 -11.170844
v 62.462086 -3.153854 -9.346212
v 62.462086 -1.153853 -9.346212
v 60.462086 5.846146 -9.346212
v 60.462086 5.846146 -11.170844
v 62.462086 5.846146 -11.170844
v 62.462086 5.846146 -9.346212
v 60.462086 14.846146 -9.346212
v 60.462086 14.846146 -11.170844
v 62.462086 14.846146 -11.170844
v 62.462086 14.846146 -9.346212
v 62.462086 13.046146 -11.170844
v 62.462086 13.046146 -9.346212
v 60.462086 13.046146 -9.346212
v 60.462086 13.046146 -11.170844
v 62.462086 10.886147 -9.346212
v 60.462086 10.886147 -11.170844
v 62.462086 10.886147 -11.170844
v 60.462086 10.886147 -9.346212
v 60.462086 10.886147 -9.346212
v 60.462086 13.046146 -9.346212
v 60.462086 13.046146 -11.170844
v 60.462086 10.886147 -11.170844
v 50.062088 5.786146 -9.346212
v 50.062088 7.946146 -9.346212
v 50.062088 7.946146 -11.170844
v 50.062088 5.786146 -11.170844
v 73.262085 5.886146 -11.170844
v 73.262085 8.046146 -11.170844
v 73.262085 8.046146 -9.346212
v 73.262085 5.886146 -9.346212
v 49.433586 -3.153854 -8.801904
v 50.030209 -1.153853 -9.346212
v 49.433586 -3.153854 -11.715154
v 50.030209 -1.153853 -11.170844
v 52.626831 -3.153854 -8.801904
v 52.030209 -1.153853 -9.346212
v 52.626831 -3.153854 -11.715154
v 52.030209 -1.153853 -11.170844
v 52.030209 -1.153853 -11.170844
v 52.030209 -3.153854 -11.170844
v 52.030209 -3.153854 -9.346212
v 52.030209 -1.153853 -9.346212
v 50.030209 5.846146 -9.346212
v 50.030209 5.846146 -11.170844
v 52.030209 5.846146 -11.170844
v 52.030209 5.846146 -9.346212
v 70.687584 -3.153854 10.656446
v 71.284210 -1.153853 10.112138
v 70.687584 -3.153854 7.743198
v 71.284210 -1.153853 8.287506
v 73.880836 -3.153854 10.656446
v 73.284210 -1.153853 10.112138
v 73.880836 -3.153854 7.743198
v 73.284210 -1.153853 8.287506
v 73.284210 -1.153853 8.287506
v 73.284210 -3.153854 8.287506
v 73.284210 -3.153854 10.112138
v 73.284210 -1.153853 10.112138
v 71.284210 5.846146 10.112138
v 71.284210 5.846146 8.287506
v 73.284210 5.846146 8.287506
v 73.284210 5.846146 10.112138
v 70.687584 -3.153854 10.656446
v 71.284210 -1.153853 10.112138
v 70.687584 -3.153854 7.743198
v 71.284210 -1.153853 8.287506
v 73.880836 -3.153854 10.656446
v 73.284210 -1.153853 10.112138
v 73.880836 -3.153854 7.743198
v 73.284210 -1.153853 8.287506
v 73.284210 -1.153853 8.287506
v 73.284210 -3.153854 8.287506
v 73.284210 -3.153854 10.112138
v 73.284210 -1.153853 10.112138
v 71.284210 5.846146 10.112138
v 71.284210 5.846146 8.287506
v 73.284210 5.846146 8.287506
v 73.284210 5.846146 10.112138
v 49.433586 -3.153854 -8.801904
v 50.030209 -1.153853 -9.346212
v 49.433586 -3.153854 -11.715154
v 50.030209 -1.153853 -11.170844
v 52.626831 -3.153854 -8.801904
v 52.030209 -1.153853 -9.346212
v 52.626831 -3.153854 -11.715154
v 52.030209 -1.153853 -11.170844
v 52.030209 -1.153853 -11.170844
v 52.030209 -3.153854 -11.170844
v 52.030209 -3.153854 -9.346212
v 52.030209 -1.153853 -9.346212
v 50.030209 5.846146 -9.346212
v 50.030209 5.846146 -11.170844
v 52.030209 5.846146 -11.170844
v 52.030209 5.846146 -9.346212
v 59.865463 -3.153854 -8.801904
v 60.462086 -1.153853 -9.346212
v 59.865463 -3.153854 -11.715154
v 60.462086 -1.153853 -11.170844
v 63.058708 -3.153854 -8.801904
v 62.462086 -1.153853 -9.346212
v 63.058708 -3.153854 -11.715154
v 62.462086 -1.153853 -11.170844
v 62.462086 -1.153853 -11.170844
v 62.462086 -3.153854 -11.170844
v 62.462086 -3.153854 -9.346212
v 62.462086 -1.153853 -9.346212
v 60.462086 5.846146 -9.346212
v 60.462086 5.846146 -11.170844
v 62.462086 5.846146 -11.170844
v 62.462086 5.846146 -9.346212
v 60.462086 14.846146 -9.346212
v 60.462086 14.846146 -11.170844
v 62.462086 14.846146 -11.170844
v 62.462086 14.846146 -9.346212
v 62.462086 13.046146 -11.170844
v 62.462086 13.046146 -9.346212
v 60.462086 13.046146 -9.346212
v 60.462086 13.046146 -11.170844
v 62.462086 10.886147 -9.346212
v 60.462086 10.886147 -11.170844
v 62.462086 10.886147 -11.170844
v 60.462086 10.886147 -9.346212
v 60.462086 10.886147 -9.346212
v 60.462086 13.046146 -9.346212
v 60.462086 13.046146 -11.170844
v 60.462086 10.886147 -11.170844
v 50.062088 5.786146 -9.346212
v 50.062088 7.946146 -9.346212
v 50.062088 7.946146 -11.170844
v 50.062088 5.786146 -11.170844
v 73.262085 5.886146 -11.170844
v 73.262085 8.046146 -11.170844
v 73.262085 8.046146 -9.346212
v 73.262085 5.886146 -9.346212
v 70.687584 -3.153854 -8.801904
v 71.284210 -1.153853 -9.346212
v 70.687584 -3.153854 -11.715154
v 71.284210 -1.153853 -11.170844
v 73.880836 -3.153854 -8.801904
v 73.284210 -1.153853 -9.346212
v 73.880836 -3.153854 -11.715154
v 73.284210 -1.153853 -11.170844
v 73.284210 -1.153853 -11.170844
v 73.284210 -3.153854 -11.170844
v 73.284210 -3.153854 -9.346212
v 73.284210 -1.153853 -9.346212
v 71.284210 5.846146 -9.346212
v 71.284210 5.846146 -11.170844
v 73.284210 5.846146 -11.170844
v 73.284210 5.846146 -9.346212
v 59.865463 -3.153854 10.656446
v 60.462086 -1.153853 10.112138
v 59.865463 -3.153854 7.743198
v 60.462086 -1.153853 8.287506
v 63.058708 -3.153854 10.656446
v 62.462086 -1.153853 10.112138
v 63.058708 -3.153854 7.743198
v 62.462086 -1.153853 8.287506
v 62.462086 -1.153853 8.287506
v 62.462086 -3.153854 8.287506
v 62.462086 -3.153854 10.112138
v 62.462086 -1.153853 10.112138
v 60.462086 5.846146 10.112138
v 60.462086 5.846146 8.287506
v 62.462086 5.846146 8.287506
v 62.462086 5.846146 10.112138
v 60.462086 14.846146 10.112138
v 60.462086 14.846146 8.287506
v 62.462086 14.846146 8.287506
v 62.462086 14.846146 10.112138
v 62.462086 13.046146 8.287506
v 62.462086 13.046146 10.112138
v 60.462086 13.046146 10.112138
v 60.462086 13.046146 8.287506
v 62.462086 10.886147 10.112138
v 60.462086 10.886147 8.287506
v 62.462086 10.886147 8.287506
v 60.462086 10.886147 10.112138
v 60.462086 10.886147 10.112138
v 60.462086 13.046146 10.112138
v 60.462086 13.046146 8.287506
v 60.462086 10.886147 8.287506
v 50.062088 5.786146 10.112138
v 50.062088 7.946146 10.112138
v 50.062088 7.946146 8.287506
v 50.062088 5.786146 8.287506
v 73.262085 5.886146 8.287506
v 73.262085 8.046146 8.287506
v 73.262085 8.046146 10.112138
v 73.262085 5.886146 10.112138
v 49.433586 -3.153854 10.656446
v 50.030209 -1.153853 10.112138
v 49.433586 -3.153854 7.743198
v 50.030209 -1.153853 8.287506
v 52.626831 -3.153854 10.656446
v 52.030209 -1.153853 10.112138
v 52.626831 -3.153854 7.743198
v 52.030209 -1.153853 8.287506
v 52.030209 -1.153853 8.287506
v 52.030209 -3.153854 8.287506
v 52.030209 -3.153854 10.112138
v 52.030209 -1.153853 10.112138
v 50.030209 5.846146 10.112138
v 50.030209 5.846146 8.287506
v 52.030209 5.846146 8.287506
v 52.030209 5.846146 10.112138
vn -1.0000 -0.0000 -0.0000
vn -0.0000 1.0000 -0.0000
vn -0.0000 -1.0000 -0.0000
vn 1.0000 -0.0000 -0.0000
vn -0.0000 -0.0000 -1.0000
vn -0.0000 -0.0000 1.0000
vn -0.9583 0.2859 -0.0000
vn -0.0000 0.2626 -0.9649
vn -0.0000 0.2626 0.9649
vn 0.6740 -0.0000 0.7388
vn 0.6740 -0.0000 -0.7388
vn -0.4201 -0.9075 -0.0000
vn 0.4403 -0.8979 -0.0000
vn -0.4403 0.8979 -0.0000
vn 0.4201 0.9075 -0.0000
vt 0.375000 0.000000
vt 0.625000 0.000000
vt 0.625000 0.250000
vt 0.375000 0.250000
vt 0.625000 0.500000
vt 0.625000 0.750000
vt 0.125000 0.500000
vt 0.375000 0.500000
vt 0.375000 0.750000
vt 0.125000 0.750000
vt 0.875000 0.500000
vt 0.875000 0.750000
vt 0.625000 1.000000
vt 0.375000 1.000000
s 0
f 1/1/1 2/2/1 4/3/1 3/4/1
f 8/5/2 6/6/2 12/6/2 9/5/2
f 3/7/3 7/8/3 5/9/3 1/10/3
f 8/5/2 4/11/2 2/12/2 6/6/2
f 10/8/4 9/5/4 12/6/4 11/9/4
f 5/9/3 7/8/3 10/8/3 11/9/3
f 15/4/5 16/3/5 20/5/5 19/8/5
f 17/9/6 18/6/6 14/13/6 13/14/6
f 19/8/5 20/5/5 21/5/5 22/8/5
f 18/6/6 17/9/6 23/9/6 24/6/6
f 25/1/7 26/2/7 28/3/7 27/4/7
f 27/4/8 28/3/8 32/5/8 31/8/8
f 32/5/2 30/6/2 36/6/2 33/5/2
f 29/9/9 30/6/9 26/13/9 25/14/9
f 27/7/3 31/8/3 29/9/3 25/10/3
f 30/6/4 32/5/4 39/5/4 40/6/4
f 34/8/4 33/5/4 36/6/4 35/9/4
f 31/8/10 32/5/10 33/5/10 34/8/10
f 30/6/11 29/9/11 35/9/11 36/6/11
f 29/9/2 31/8/2 34/8/2 35/9/2
f 39/5/2 38/11/2 37/12/2 40/6/2
f 28/3/1 26/2/1 37/2/1 38/3/1
f 26/13/6 30/6/6 40/6/6 37/13/6
f 32/5/5 28/3/5 38/3/5 39/5/5
f 41/1/7 42/2/7 44/3/7 43/4/7
f 43/4/8 44/3/8 48/5/8 47/8/8
f 48/5/2 46/6/2 52/6/2 49/5/2
f 45/9/9 46/6/9 42/13/9 41/14/9
f 43/7/3 47/8/3 45/9/3 41/10/3
f 46/6/4 48/5/4 55/5/4 56/6/4
f 50/8/4 49/5/4 52/6/4 51/9/4
f 47/8/10 48/5/10 49/5/10 50/8/10
f 46/6/11 45/9/11 51/9/11 52/6/11
f 45/9/2 47/8/2 50/8/2 51/9/2
f 62/6/4 61/5/4 59/5/4 60/6/4
f 44/3/1 42/2/1 53/2/1 54/3/1
f 42/13/6 46/6/6 56/6/6 53/13/6
f 48/5/5 44/3/5 54/3/5 55/5/5
f 59/5/2 58/11/2 57/12/2 60/6/2
f 64/3/1 63/2/1 57/2/1 58/3/1
f 63/13/6 62/6/6 60/6/6 57/13/6
f 61/5/5 64/3/5 58/3/5 59/5/5
f 67/5/5 66/3/5 64/3/5 61/5/5
f 68/13/6 65/6/6 62/6/6 63/13/6
f 63/2/2 64/3/2 71/3/2 70/2/2
f 65/6/12 67/5/12 77/5/12 80/6/12
f 56/6/4 55/5/4 67/5/4 65/6/4
f 54/3/1 53/2/1 68/2/1 66/3/1
f 53/13/6 56/6/6 65/6/6 68/13/6
f 55/5/5 54/3/5 66/3/5 67/5/5
f 72/3/13 69/2/13 73/2/13 76/3/13
f 68/13/2 63/13/2 70/13/2 69/13/2
f 66/3/2 68/2/2 69/2/2 72/3/2
f 64/3/2 66/3/2 72/3/2 71/3/2
f 76/3/1 73/2/1 74/2/1 75/3/1
f 70/2/14 71/3/14 75/3/14 74/2/14
f 71/3/5 72/3/5 76/3/5 75/3/5
f 69/13/6 70/13/6 74/13/6 73/13/6
f 80/6/4 77/5/4 78/5/4 79/6/4
f 62/6/6 65/6/6 80/6/6 79/6/6
f 67/5/5 61/5/5 78/5/5 77/5/5
f 61/5/15 62/6/15 79/6/15 78/5/15
f 81/1/7 82/2/7 84/3/7 83/4/7
f 83/4/8 84/3/8 88/5/8 87/8/8
f 88/5/2 86/6/2 92/6/2 89/5/2
f 85/9/9 86/6/9 82/13/9 81/14/9
f 83/7/3 87/8/3 85/9/3 81/10/3
f 86/6/4 88/5/4 95/5/4 96/6/4
f 90/8/4 89/5/4 92/6/4 91/9/4
f 87/8/10 88/5/10 89/5/10 90/8/10
f 86/6/11 85/9/11 91/9/11 92/6/11
f 85/9/2 87/8/2 90/8/2 91/9/2
f 95/5/2 94/11/2 93/12/2 96/6/2
f 84/3/1 82/2/1 93/2/1 94/3/1
f 82/13/6 86/6/6 96/6/6 93/13/6
f 88/5/5 84/3/5 94/3/5 95/5/5
f 97/1/7 98/2/7 100/3/7 99/4/7
f 99/4/8 100/3/8 104/5/8 103/8/8
f 104/5/2 102/6/2 108/6/2 105/5/2
f 101/9/9 102/6/9 98/13/9 97/14/9
f 99/7/3 103/8/3 101/9/3 97/10/3
f 102/6/4 104/5/4 111/5/4 112/6/4
f 106/8/4 105/5/4 108/6/4 107/9/4
f 103/8/10 104/5/10 105/5/10 106/8/10
f 102/6/11 101/9/11 107/9/11 108/6/11
f 101/9/2 103/8/2 106/8/2 107/9/2
f 111/5/2 110/11/2 109/12/2 112/6/2
f 100/3/1 98/2/1 109/2/1 110/3/1
f 98/13/6 102/6/6 112/6/6 109/13/6
f 104/5/5 100/3/5 110/3/5 111/5/5
f 113/1/7 114/2/7 116/3/7 115/4/7
f 115/4/8 116/3/8 120/5/8 119/8/8
f 120/5/2 118/6/2 124/6/2 121/5/2
f 117/9/9 118/6/9 114/13/9 113/14/9
f 115/7/3 119/8/3 117/9/3 113/10/3
f 118/6/4 120/5/4 127/5/4 128/6/4
f 122/8/4 121/5/4 124/6/4 123/9/4
f 119/8/10 120/5/10 121/5/10 122/8/10
f 118/6/11 117/9/11 123/9/11 124/6/11
f 117/9/2 119/8/2 122/8/2 123/9/2
f 134/6/4 133/5/4 131/5/4 132/6/4
f 116/3/1 114/2/1 125/2/1 126/3/1
f 114/13/6 118/6/6 128/6/6 125/13/6
f 120/5/5 116/3/5 126/3/5 127/5/5
f 131/5/2 130/11/2 129/12/2 132/6/2
f 136/3/1 135/2/1 129/2/1 130/3/1
f 135/13/6 134/6/6 132/6/6 129/13/6
f 133/5/5 136/3/5 130/3/5 131/5/5
f 139/5/5 138/3/5 136/3/5 133/5/5
f 140/13/6 137/6/6 134/6/6 135/13/6
f 135/2/2 136/3/2 143/3/2 142/2/2
f 137/6/12 139/5/12 149/5/12 152/6/12
f 128/6/4 127/5/4 139/5/4 137/6/4
f 126/3/1 125/2/1 140/2/1 138/3/1
f 125/13/6 128/6/6 137/6/6 140/13/6
f 127/5/5 126/3/5 138/3/5 139/5/5
f 144/3/13 141/2/13 145/2/13 148/3/13
f 140/13/2 135/13/2 142/13/2 141/13/2
f 138/3/2 140/2/2 141/2/2 144/3/2
f 136/3/2 138/3/2 144/3/2 143/3/2
f 148/3/1 145/2/1 146/2/1 147/3/1
f 142/2/14 143/3/14 147/3/14 146/2/14
f 143/3/5 144/3/5 148/3/5 147/3/5
f 141/13/6 142/13/6 146/13/6 145/13/6
f 152/6/4 149/5/4 150/5/4 151/6/4
f 134/6/6 137/6/6 152/6/6 151/6/6
f 139/5/5 133/5/5 150/5/5 149/5/5
f 133/5/15 134/6/15 151/6/15 150/5/15
f 153/1/7 154/2/7 156/3/7 155/4/7
f 155/4/8 156/3/8 160/5/8 159/8/8
f 160/5/2 158/6/2 164/6/2 161/5/2
f 157/9/9 158/6/9 154/13/9 153/14/9
f 155/7/3 159/8/3 157/9/3 153/10/3
f 158/6/4 160/5/4 167/5/4 168/6/4
f 162/8/4 161/5/4 164/6/4 163/9/4
f 159/8/10 160/5/10 161/5/10 162/8/10
f 158/6/11 157/9/11 163/9/11 164/6/11
f 157/9/2 159/8/2 162/8/2 163/9/2
f 167/5/2 166/11/2 165/12/2 168/6/2
f 156/3/1 154/2/1 165/2/1 166/3/1
f 154/13/6 158/6/6 168/6/6 165/13/6
f 160/5/5 156/3/5 166/3/5 167/5/5
f 169/1/7 170/2/7 172/3/7 171/4/7
f 171/4/8 172/3/8 176/5/8 175/8/8
f 176/5/2 174/6/2 180/6/2 177/5/2
f 173/9/9 174/6/9 170/13/9 169/14/9
f 171/7/3 175/8/3 173/9/3 169/10/3
f 174/6/4 176/5/4 183/5/4 184/6/4
f 178/8/4 177/5/4 180/6/4 179/9/4
f 175/8/10 176/5/10 177/5/10 178/8/10
f 174/6/11 173/9/11 179/9/11 180/6/11
f 173/9/2 175/8/2 178/8/2 179/9/2
f 183/5/2 182/11/2 181/12/2 184/6/2
f 172/3/1 170/2/1 181/2/1 182/3/1
f 170/13/6 174/6/6 184/6/6 181/13/6
f 176/5/5 172/3/5 182/3/5 183/5/5
f 185/1/7 186/2/7 188/3/7 187/4/7
f 187/4/8 188/3/8 192/5/8 191/8/8
f 192/5/2 190/6/2 196/6/2 193/5/2
f 189/9/9 190/6/9 186/13/9 185/14/9
f 187/7/3 191/8/3 189/9/3 185/10/3
f 190/6/4 192/5/4 199/5/4 200/6/4
f 194/8/4 193/5/4 196/6/4 195/9/4
f 191/8/10 192/5/10 193/5/10 194/8/10
f 190/6/11 189/9/11 195/9/11 196/6/11
f 189/9/2 191/8/2 194/8/2 195/9/2
f 199/5/2 198/11/2 197/12/2 200/6/2
f 188/3/1 186/2/1 197/2/1 198/3/1
f 186/13/6 190/6/6 200/6/6 197/13/6
f 192/5/5 188/3/5 198/3/5 199/5/5
f 201/1/7 202/2/7 204/3/7 203/4/7
f 203/4/8 204/3/8 208/5/8 207/8/8
f 208/5/2 206/6/2 212/6/2 209/5/2
f 205/9/9 206/6/9 202/13/9 201/14/9
f 203/7/3 207/8/3 205/9/3 201/10/3
f 206/6/4 208/5/4 215/5/4 216/6/4
f 210/8/4 209/5/4 212/6/4 211/9/4
f 207/8/10 208/5/10 209/5/10 210/8/10
f 206/6/11 205/9/11 211/9/11 212/6/11
f 205/9/2 207/8/2 210/8/2 211/9/2
f 222/6/4 221/5/4 219/5/4 220/6/4
f 204/3/1 202/2/1 213/2/1 214/3/1
f 202/13/6 206/6/6 216/6/6 213/13/6
f 208/5/5 204/3/5 214/3/5 215/5/5
f 219/5/2 218/11/2 217/12/2 220/6/2
f 224/3/1 223/2/1 217/2/1 218/3/1
f 223/13/6 222/6/6 220/6/6 217/13/6
f 221/5/5 224/3/5 218/3/5 219/5/5
f 227/5/5 226/3/5 224/3/5 221/5/5
f 228/13/6 225/6/6 222/6/6 223/13/6
f 223/2/2 224/3/2 231/3/2 230/2/2
f 225/6/12 227/5/12 237/5/12 240/6/12
f 216/6/4 215/5/4 227/5/4 225/6/4
f 214/3/1 213/2/1 228/2/1 226/3/1
f 213/13/6 216/6/6 225/6/6 228/13/6
f 215/5/5 214/3/5 226/3/5 227/5/5
f 232/3/13 229/2/13 233/2/13 236/3/13
f 228/13/2 223/13/2 230/13/2 229/13/2
f 226/3/2 228/2/2 229/2/2 232/3/2
f 224/3/2 226/3/2 232/3/2 231/3/2
f 236/3/1 233/2/1 234/2/1 235/3/1
f 230/2/14 231/3/14 235/3/14 234/2/14
f 231/3/5 232/3/5 236/3/5 235/3/5
f 229/13/6 230/13/6 234/13/6 233/13/6
f 240/6/4 237/5/4 238/5/4 239/6/4
f 222/6/6 225/6/6 240/6/6 239/6/6
f 227/5/5 221/5/5 238/5/5 237/5/5
f 221/5/15 222/6/15 239/6/15 238/5/15
f 241/1/7 242/2/7 244/3/7 243/4/7
f 243/4/8 244/3/8 248/5/8 247/8/8
f 248/5/2 246/6/2 252/6/2 249/5/2
f 245/9/9 246/6/9 242/13/9 241/14/9
f 243/7/3 247/8/3 245/9/3 241/10/3
f 246/6/4 248/5/4 255/5/4 256/6/4
f 250/8/4 249/5/4 252/6/4 251/9/4
f 247/8/10 248/5/10 249/5/10 250/8/10
f 246/6/11 245/9/11 251/9/11 252/6/11
f 245/9/2 247/8/2 250/8/2 251/9/2
f 255/5/2 254/11/2 253/12/2 256/6/2
f 244/3/1 242/2/1 253/2/1 254/3/1
f 242/13/6 246/6/6 256/6/6 253/13/6
f 248/5/5 244/3/5 254/3/5 255/5/5
f 257/1/7 258/2/7 260/3/7 259/4/7
f 259/4/8 260/3/8 264/5/8 263/8/8
f 264/5/2 262/6/2 268/6/2 265/5/2
f 261/9/9 262/6/9 258/13/9 257/14/9
f 259/7/3 263/8/3 261/9/3 257/10/3
f 262/6/4 264/5/4 271/5/4 272/6/4
f 266/8/4 265/5/4 268/6/4 267/9/4
f 263/8/10 264/5/10 265/5/10 266/8/10
f 262/6/11 261/9/11 267/9/11 268/6/11
f 261/9/2 263/8/2 266/8/2 267/9/2
f 278/6/4 277/5/4 275/5/4 276/6/4
f 260/3/1 258/2/1 269/2/1 270/3/1
f 258/13/6 262/6/6 272/6/6 269/13/6
f 264/5/5 260/3/5 270/3/5 271/5/5
f 275/5/2 274/11/2 273/12/2 276/6/2
f 280/3/1 279/2/1 273/2/1 274/3/1
f 279/13/6 278/6/6 276/6/6 273/13/6
f 277/5/5 280/3/5 274/3/5 275/5/5
f 283/5/5 282/3/5 280/3/5 277/5/5
f 284/13/6 281/6/6 278/6/6 279/13/6
f 279/2/2 280/3/2 287/3/2 286/2/2
f 281/6/12 283/5/12 293/5/12 296/6/12
f 272/6/4 271/5/4 283/5/4 281/6/4
f 270/3/1 269/2/1 284/2/1 282/3/1
f 269/13/6 272/6/6 281/6/6 284/13/6
f 271/5/5 270/3/5 282/3/5 283/5/5
f 288/3/13 285/2/13 289/2/13 292/3/13
f 284/13/2 279/13/2 286/13/2 285/13/2
f 282/3/2 284/2/2 285/2/2 288/3/2
f 280/3/2 282/3/2 288/3/2 287/3/2
f 292/3/1 289/2/1 290/2/1 291/3/1
f 286/2/14 287/3/14 291/3/14 290/2/14
f 287/3/5 288/3/5 292/3/5 291/3/5
f 285/13/6 286/13/6 290/13/6 289/13/6
f 296/6/4 293/5/4 294/5/4 295/6/4
f 278/6/6 281/6/6 296/6/6 295/6/6
f 283/5/5 277/5/5 294/5/5 293/5/5
f 277/5/15 278/6/15 295/6/15 294/5/15
f 297/1/7 298/2/7 300/3/7 299/4/7
f 299/4/8 300/3/8 304/5/8 303/8/8
f 304/5/2 302/6/2 308/6/2 305/5/2
f 301/9/9 302/6/9 298/13/9 297/14/9
f 299/7/3 303/8/3 301/9/3 297/10/3
f 302/6/4 304/5/4 311/5/4 312/6/4
f 306/8/4 305/5/4 308/6/4 307/9/4
f 303/8/10 304/5/10 305/5/10 306/8/10
f 302/6/11 301/9/11 307/9/11 308/6/11
f 301/9/2 303/8/2 306/8/2 307/9/2
f 311/5/2 310/11/2 309/12/2 312/6/2
f 300/3/1 298/2/1 309/2/1 310/3/1
f 298/13/6 302/6/6 312/6/6 309/13/6
f 304/5/5 300/3/5 310/3/5 311/5/5
f 313/1/7 314/2/7 316/3/7 315/4/7
f 315/4/8 316/3/8 320/5/8 319/8/8
f 320/5/2 318/6/2 324/6/2 321/5/2
f 317/9/9 318/6/9 314/13/9 313/14/9
f 315/7/3 319/8/3 317/9/3 313/10/3
f 318/6/4 320/5/4 327/5/4 328/6/4
f 322/8/4 321/5/4 324/6/4 323/9/4
f 319/8/10 320/5/10 321/5/10 322/8/10
f 318/6/11 317/9/11 323/9/11 324/6/11
f 317/9/2 319/8/2 322/8/2 323/9/2
f 327/5/2 326/11/2 325/12/2 328/6/2
f 316/3/1 314/2/1 325/2/1 326/3/1
f 314/13/6 318/6/6 328/6/6 325/13/6
f 320/5/5 316/3/5 326/3/5 327/5/5
f 329/1/7 330/2/7 332/3/7 331/4/7
f 331/4/8 332/3/8 336/5/8 335/8/8
f 336/5/2 334/6/2 340/6/2 337/5/2
f 333/9/9 334/6/9 330/13/9 329/14/9
f 331/7/3 335/8/3 333/9/3 329/10/3
f 334/6/4 336/5/4 343/5/4 344/6/4
f 338/8/4 337/5/4 340/6/4 339/9/4
f 335/8/10 336/5/10 337/5/10 338/8/10
f 334/6/11 333/9/11 339/9/11 340/6/11
f 333/9/2 335/8/2 338/8/2 339/9/2
f 343/5/2 342/11/2 341/12/2 344/6/2
f 332/3/1 330/2/1 341/2/1 342/3/1
f 330/13/6 334/6/6 344/6/6 341/13/6
f 336/5/5 332/3/5 342/3/5 343/5/5
f 345/1/7 346/2/7 348/3/7 347/4/7
f 347/4/8 348/3/8 352/5/8 351/8/8
f 352/5/2 350/6/2 356/6/2 353/5/2
f 349/9/9 350/6/9 346/13/9 345/14/9
f 347/7/3 351/8/3 349/9/3 345/10/3
f 350/6/4 352/5/4 359/5/4 360/6/4
f 354/8/4 353/5/4 356/6/4 355/9/4
f 351/8/10 352/5/10 353/5/10 354/8/10
f 350/6/11 349/9/11 355/9/11 356/6/11
f 349/9/2 351/8/2 354/8/2 355/9/2
f 366/6/4 365/5/4 363/5/4 364/6/4
f 348/3/1 346/2/1 357/2/1 358/3/1
f 346/13/6 350/6/6 360/6/6 357/13/6
f 352/5/5 348/3/5 358/3/5 359/5/5
f 363/5/2 362/11/2 361/12/2 364/6/2
f 368/3/1 367/2/1 361/2/1 362/3/1
f 367/13/6 366/6/6 364/6/6 361/13/6
f 365/5/5 368/3/5 362/3/5 363/5/5
f 371/5/5 370/3/5 368/3/5 365/5/5
f 372/13/6 369/6/6 366/6/6 367/13/6
f 367/2/2 368/3/2 375/3/2 374/2/2
f 369/6/12 371/5/12 381/5/12 384/6/12
f 360/6/4 359/5/4 371/5/4 369/6/4
f 358/3/1 357/2/1 372/2/1 370/3/1
f 357/13/6 360/6/6 369/6/6 372/13/6
f 359/5/5 358/3/5 370/3/5 371/5/5
f 376/3/13 373/2/13 377/2/13 380/3/13
f 372/13/2 367/13/2 374/13/2 373/13/2
f 370/3/2 372/2/2 373/2/2 376/3/2
f 368/3/2 370/3/2 376/3/2 375/3/2
f 380/3/1 377/2/1 378/2/1 379/3/1
f 374/2/14 375/3/14 379/3/14 378/2/14
f 375/3/5 376/3/5 380/3/5 379/3/5
f 373/13/6 374/13/6 378/13/6 377/13/6
f 384/6/4 381/5/4 382/5/4 383/6/4
f 366/6/6 369/6/6 384/6/6 383/6/6
f 371/5/5 365/5/5 382/5/5 381/5/5
f 365/5/15 366/6/15 383/6/15 382/5/15
f 385/1/7 386/2/7 388/3/7 387/4/7
f 387/4/8 388/3/8 392/5/8 391/8/8
f 392/5/2 390/6/2 396/6/2 393/5/2
f 389/9/9 390/6/9 386/13/9 385/14/9
f 387/7/3 391/8/3 389/9/3 385/10/3
f 390/6/4 392/5/4 399/5/4 400/6/4
f 394/8/4 393/5/4 396/6/4 395/9/4
f 391/8/10 392/5/10 393/5/10 394/8/10
f 390/6/11 389/9/11 395/9/11 396/6/11
f 389/9/2 391/8/2 394/8/2 395/9/2
f 399/5/2 398/11/2 397/12/2 400/6/2
f 388/3/1 386/2/1 397/2/1 398/3/1
f 386/13/6 390/6/6 400/6/6 397/13/6
f 392/5/5 388/3/5 398/3/5 399/5/5
f 401/1/7 402/2/7 404/3/7 403/4/7
f 403/4/8 404/3/8 408/5/8 407/8/8
f 408/5/2 406/6/2 410/6/2 409/5/2
f 405/9/9 406/6/9 402/13/9 401/14/9
f 403/7/3 407/8/3 405/9/3 401/10/3
f 406/6/4 408/5/4 413/5/4 414/6/4
f 420/6/4 419/5/4 417/5/4 418/6/4
f 404/3/1 402/2/1 411/2/1 412/3/1
f 402/13/6 406/6/6 414/6/6 411/13/6
f 408/5/5 404/3/5 412/3/5 413/5/5
f 417/5/2 416/11/2 415/12/2 418/6/2
f 422/3/1 421/2/1 415/2/1 416/3/1
f 421/13/6 420/6/6 418/6/6 415/13/6
f 419/5/5 422/3/5 416/3/5 417/5/5
f 425/5/5 424/3/5 422/3/5 419/5/5
f 426/13/6 423/6/6 420/6/6 421/13/6
f 421/2/2 422/3/2 429/3/2 428/2/2
f 423/6/12 425/5/12 435/5/12 438/6/12
f 414/6/4 413/5/4 425/5/4 423/6/4
f 412/3/1 411/2/1 426/2/1 424/3/1
f 411/13/6 414/6/6 423/6/6 426/13/6
f 413/5/5 412/3/5 424/3/5 425/5/5
f 430/3/13 427/2/13 431/2/13 434/3/13
f 426/13/2 421/13/2 428/13/2 427/13/2
f 424/3/2 426/2/2 427/2/2 430/3/2
f 422/3/2 424/3/2 430/3/2 429/3/2
f 434/3/1 431/2/1 432/2/1 433/3/1
f 428/2/14 429/3/14 433/3/14 432/2/14
f 429/3/5 430/3/5 434/3/5 433/3/5
f 427/13/6 428/13/6 432/13/6 431/13/6
f 438/6/4 435/5/4 436/5/4 437/6/4
f 420/6/6 423/6/6 438/6/6 437/6/6
f 425/5/5 419/5/5 436/5/5 435/5/5
f 419/5/15 420/6/15 437/6/15 436/5/15
f 439/1/7 440/2/7 442/3/7 441/4/7
f 441/4/8 442/3/8 446/5/8 445/8/8
f 446/5/2 444/6/2 450/6/2 447/5/2
f 443/9/9 444/6/9 440/13/9 439/14/9
f 441/7/3 445/8/3 443/9/3 439/10/3
f 444/6/4 446/5/4 453/5/4 454/6/4
f 448/8/4 447/5/4 450/6/4 449/9/4
f 445/8/10 446/5/10 447/5/10 448/8/10
f 444/6/11 443/9/11 449/9/11 450/6/11
f 443/9/2 445/8/2 448/8/2 449/9/2
f 453/5/2 452/11/2 451/12/2 454/6/2
f 442/3/1 440/2/1 451/2/1 452/3/1
f 440/13/6 444/6/6 454/6/6 451/13/6
f 446/5/5 442/3/5 452/3/5 453/5/5
f 455/1/7 456/2/7 458/3/7 457/4/7
f 457/4/8 458/3/8 462/5/8 461/8/8
f 462/5/2 460/6/2 466/6/2 463/5/2
f 459/9/9 460/6/9 456/13/9 455/14/9
f 457/7/3 461/8/3 459/9/3 455/10/3
f 460/6/4 462/5/4 469/5/4 470/6/4
f 464/8/4 463/5/4 466/6/4 465/9/4
f 461/8/10 462/5/10 463/5/10 464/8/10
f 460/6/11 459/9/11 465/9/11 466/6/11
f 459/9/2 461/8/2 464/8/2 465/9/2
f 469/5/2 468/11/2 467/12/2 470/6/2
f 458/3/1 456/2/1 467/2/1 468/3/1
f 456/13/6 460/6/6 470/6/6 467/13/6
f 462/5/5 458/3/5 468/3/5 469/5/5
f 471/1/7 472/2/7 474/3/7 473/4/7
f 473/4/8 474/3/8 478/5/8 477/8/8
f 478/5/2 476/6/2 482/6/2 479/5/2
f 475/9/9 476/6/9 472/13/9 471/14/9
f 473/7/3 477/8/3 475/9/3 471/10/3
f 476/6/4 478/5/4 485/5/4 486/6/4
f 480/8/4 479/5/4 482/6/4 481/9/4
f 477/8/10 478/5/10 479/5/10 480/8/10
f 476/6/11 475/9/11 481/9/11 482/6/11
f 475/9/2 477/8/2 480/8/2 481/9/2
f 492/6/4 491/5/4 489/5/4 490/6/4
f 474/3/1 472/2/1 483/2/1 484/3/1
f 472/13/6 476/6/6 486/6/6 483/13/6
f 478/5/5 474/3/5 484/3/5 485/5/5
f 489/5/2 488/11/2 487/12/2 490/6/2
f 494/3/1 493/2/1 487/2/1 488/3/1
f 493/13/6 492/6/6 490/6/6 487/13/6
f 491/5/5 494/3/5 488/3/5 489/5/5
f 497/5/5 496/3/5 494/3/5 491/5/5
f 498/13/6 495/6/6 492/6/6 493/13/6
f 493/2/2 494/3/2 501/3/2 500/2/2
f 495/6/12 497/5/12 507/5/12 510/6/12
f 486/6/4 485/5/4 497/5/4 495/6/4
f 484/3/1 483/2/1 498/2/1 496/3/1
f 483/13/6 486/6/6 495/6/6 498/13/6
f 485/5/5 484/3/5 496/3/5 497/5/5
f 502/3/13 499/2/13 503/2/13 506/3/13
f 498/13/2 493/13/2 500/13/2 499/13/2
f 496/3/2 498/2/2 499/2/2 502/3/2
f 494/3/2 496/3/2 502/3/2 501/3/2
f 506/3/1 503/2/1 504/2/1 505/3/1
f 500/2/14 501/3/14 505/3/14 504/2/14
f 501/3/5 502/3/5 506/3/5 505/3/5
f 499/13/6 500/13/6 504/13/6 503/13/6
f 510/6/4 507/5/4 508/5/4 509/6/4
f 492/6/6 495/6/6 510/6/6 509/6/6
f 497/5/5 491/5/5 508/5/5 507/5/5
f 491/5/15 492/6/15 509/6/15 508/5/15
f 511/1/7 512/2/7 514/3/7 513/4/7
f 513/4/8 514/3/8 518/5/8 517/8/8
f 518/5/2 516/6/2 522/6/2 519/5/2
f 515/9/9 516/6/9 512/13/9 511/14/9
f 513/7/3 517/8/3 515/9/3 511/10/3
f 516/6/4 518/5/4 525/5/4 526/6/4
f 520/8/4 519/5/4 522/6/4 521/9/4
f 517/8/10 518/5/10 519/5/10 520/8/10
f 516/6/11 515/9/11 521/9/11 522/6/11
f 515/9/2 517/8/2 520/8/2 521/9/2
f 525/5/2 524/11/2 523/12/2 526/6/2
f 514/3/1 512/2/1 523/2/1 524/3/1
f 512/13/6 516/6/6 526/6/6 523/13/6
f 518/5/5 514/3/5 524/3/5 525/5/5
f 527/1/7 528/2/7 530/3/7 529/4/7
f 529/4/8 530/3/8 534/5/8 533/8/8
f 534/5/2 532/6/2 538/6/2 535/5/2
f 531/9/9 532/6/9 528/13/9 527/14/9
f 529/7/3 533/8/3 531/9/3 527/10/3
f 532/6/4 534/5/4 541/5/4 542/6/4
f 536/8/4 535/5/4 538/6/4 537/9/4
f 533/8/10 534/5/10 535/5/10 536/8/10
f 532/6/11 531/9/11 537/9/11 538/6/11
f 531/9/2 533/8/2 536/8/2 537/9/2
f 548/6/4 547/5/4 545/5/4 546/6/4
f 530/3/1 528/2/1 539/2/1 540/3/1
f 528/13/6 532/6/6 542/6/6 539/13/6
f 534/5/5 530/3/5 540/3/5 541/5/5
f 545/5/2 544/11/2 543/12/2 546/6/2
f 550/3/1 549/2/1 543/2/1 544/3/1
f 549/13/6 548/6/6 546/6/6 543/13/6
f 547/5/5 550/3/5 544/3/5 545/5/5
f 553/5/5 552/3/5 550/3/5 547/5/5
f 554/13/6 551/6/6 548/6/6 549/13/6
f 549/2/2 550/3/2 557/3/2 556/2/2
f 551/6/12 553/5/12 563/5/12 566/6/12
f 542/6/4 541/5/4 553/5/4 551/6/4
f 540/3/1 539/2/1 554/2/1 552/3/1
f 539/13/6 542/6/6 551/6/6 554/13/6
f 541/5/5 540/3/5 552/3/5 553/5/5
f 558/3/13 555/2/13 559/2/13 562/3/13
f 554/13/2 549/13/2 556/13/2 555/13/2
f 552/3/2 554/2/2 555/2/2 558/3/2
f 550/3/2 552/3/2 558/3/2 557/3/2
f 562/3/1 559/2/1 560/2/1 561/3/1
f 556/2/14 557/3/14 561/3/14 560/2/14
f 557/3/5 558/3/5 562/3/5 561/3/5
f 555/13/6 556/13/6 560/13/6 559/13/6
f 566/6/4 563/5/4 564/5/4 565/6/4
f 548/6/6 551/6/6 566/6/6 565/6/6
f 553/5/5 547/5/5 564/5/5 563/5/5
f 547/5/15 548/6/15 565/6/15 564/5/15
f 567/1/7 568/2/7 570/3/7 569/4/7
f 569/4/8 570/3/8 574/5/8 573/8/8
f 574/5/2 572/6/2 578/6/2 575/5/2
f 571/9/9 572/6/9 568/13/9 567/14/9
f 569/7/3 573/8/3 571/9/3 567/10/3
f 572/6/4 574/5/4 581/5/4 582/6/4
f 576/8/4 575/5/4 578/6/4 577/9/4
f 573/8/10 574/5/10 575/5/10 576/8/10
f 572/6/11 571/9/11 577/9/11 578/6/11
f 571/9/2 573/8/2 576/8/2 577/9/2
f 581/5/2 580/11/2 579/12/2 582/6/2
f 570/3/1 568/2/1 579/2/1 580/3/1
f 568/13/6 572/6/6 582/6/6 579/13/6
f 574/5/5 570/3/5 580/3/5 581/5/5
f 583/1/7 584/2/7 586/3/7 585/4/7
f 585/4/8 586/3/8 590/5/8 589/8/8
f 590/5/2 588/6/2 594/6/2 591/5/2
f 587/9/9 588/6/9 584/13/9 583/14/9
f 585/7/3 589/8/3 587/9/3 583/10/3
f 588/6/4 590/5/4 597/5/4 598/6/4
f 592/8/4 591/5/4 594/6/4 593/9/4
f 589/8/10 590/5/10 591/5/10 592/8/10
f 588/6/11 587/9/11 593/9/11 594/6/11
f 587/9/2 589/8/2 592/8/2 593/9/2
f 597/5/2 596/11/2 595/12/2 598/6/2
f 586/3/1 584/2/1 595/2/1 596/3/1
f 584/13/6 588/6/6 598/6/6 595/13/6
f 590/5/5 586/3/5 596/3/5 597/5/5
f 599/1/7 600/2/7 602/3/7 601/4/7
f 601/4/8 602/3/8 606/5/8 605/8/8
f 606/5/2 604/6/2 610/6/2 607/5/2
f 603/9/9 604/6/9 600/13/9 599/14/9
f 601/7/3 605/8/3 603/9/3 599/10/3
f 604/6/4 606/5/4 613/5/4 614/6/4
f 608/8/4 607/5/4 610/6/4 609/9/4
f 605/8/10 606/5/10 607/5/10 608/8/10
f 604/6/11 603/9/11 609/9/11 610/6/11
f 603/9/2 605/8/2 608/8/2 609/9/2
f 613/5/2 612/11/2 611/12/2 614/6/2
f 602/3/1 600/2/1 611/2/1 612/3/1
f 600/13/6 604/6/6 614/6/6 611/13/6
f 606/5/5 602/3/5 612/3/5 613/5/5
f 615/1/7 616/2/7 618/3/7 617/4/7
f 617/4/8 618/3/8 622/5/8 621/8/8
f 622/5/2 620/6/2 626/6/2 623/5/2
f 619/9/9 620/6/9 616/13/9 615/14/9
f 617/7/3 621/8/3 619/9/3 615/10/3
f 620/6/4 622/5/4 629/5/4 630/6/4
f 624/8/4 623/5/4 626/6/4 625/9/4
f 621/8/10 622/5/10 623/5/10 624/8/10
f 620/6/11 619/9/11 625/9/11 626/6/11
f 619/9/2 621/8/2 624/8/2 625/9/2
f 636/6/4 635/5/4 633/5/4 634/6/4
f 618/3/1 616/2/1 627/2/1 628/3/1
f 616/13/6 620/6/6 630/6/6 627/13/6
f 622/5/5 618/3/5 628/3/5 629/5/5
f 633/5/2 632/11/2 631/12/2 634/6/2
f 638/3/1 637/2/1 631/2/1 632/3/1
f 637/13/6 636/6/6 634/6/6 631/13/6
f 635/5/5 638/3/5 632/3/5 633/5/5
f 641/5/5 640/3/5 638/3/5 635/5/5
f 642/13/6 639/6/6 636/6/6 637/13/6
f 637/2/2 638/3/2 645/3/2 644/2/2
f 639/6/12 641/5/12 651/5/12 654/6/12
f 630/6/4 629/5/4 641/5/4 639/6/4
f 628/3/1 627/2/1 642/2/1 640/3/1
f 627/13/6 630/6/6 639/6/6 642/13/6
f 629/5/5 628/3/5 640/3/5 641/5/5
f 646/3/13 643/2/13 647/2/13 650/3/13
f 642/13/2 637/13/2 644/13/2 643/13/2
f 640/3/2 642/2/2 643/2/2 646/3/2
f 638/3/2 640/3/2 646/3/2 645/3/2
f 650/3/1 647/2/1 648/2/1 649/3/1
f 644/2/14 645/3/14 649/3/14 648/2/14
f 645/3/5 646/3/5 650/3/5 649/3/5
f 643/13/6 644/13/6 648/13/6 647/13/6
f 654/6/4 651/5/4 652/5/4 653/6/4
f 636/6/6 639/6/6 654/6/6 653/6/6
f 641/5/5 635/5/5 652/5/5 651/5/5
f 635/5/15 636/6/15 653/6/15 652/5/15
f 655/1/7 656/2/7 658/3/7 657/4/7
f 657/4/8 658/3/8 662/5/8 661/8/8
f 662/5/2 660/6/2 666/6/2 663/5/2
f 659/9/9 660/6/9 656/13/9 655/14/9
f 657/7/3 661/8/3 659/9/3 655/10/3
f 660/6/4 662/5/4 669/5/4 670/6/4
f 664/8/4 663/5/4 666/6/4 665/9/4
f 661/8/10 662/5/10 663/5/10 664/8/10
f 660/6/11 659/9/11 665/9/11 666/6/11
f 659/9/2 661/8/2 664/8/2 665/9/2
f 669/5/2 668/11/2 667/12/2 670/6/2
f 658/3/1 656/2/1 667/2/1 668/3/1
f 656/13/6 660/6/6 670/6/6 667/13/6
f 662/5/5 658/3/5 668/3/5 669/5/5
f 671/1/7 672/2/7 674/3/7 673/4/7
f 673/4/8 674/3/8 678/5/8 677/8/8
f 678/5/2 676/6/2 682/6/2 679/5/2
f 675/9/9 676/6/9 672/13/9 671/14/9
f 673/7/3 677/8/3 675/9/3 671/10/3
f 676/6/4 678/5/4 685/5/4 686/6/4
f 680/8/4 679/5/4 682/6/4 681/9/4
f 677/8/10 678/5/10 679/5/10 680/8/10
f 676/6/11 675/9/11 681/9/11 682/6/11
f 675/9/2 677/8/2 680/8/2 681/9/2
f 692/6/4 691/5/4 689/5/4 690/6/4
f 674/3/1 672/2/1 683/2/1 684/3/1
f 672/13/6 676/6/6 686/6/6 683/13/6
f 678/5/5 674/3/5 684/3/5 685/5/5
f 689/5/2 688/11/2 687/12/2 690/6/2
f 694/3/1 693/2/1 687/2/1 688/3/1
f 693/13/6 692/6/6 690/6/6 687/13/6
f 691/5/5 694/3/5 688/3/5 689/5/5
f 697/5/5 696/3/5 694/3/5 691/5/5
f 698/13/6 695/6/6 692/6/6 693/13/6
f 693/2/2 694/3/2 701/3/2 700/2/2
f 695/6/12 697/5/12 707/5/12 710/6/12
f 686/6/4 685/5/4 697/5/4 695/6/4
f 684/3/1 683/2/1 698/2/1 696/3/1
f 683/13/6 686/6/6 695/6/6 698/13/6
f 685/5/5 684/3/5 696/3/5 697/5/5
f 702/3/13 699/2/13 703/2/13 706/3/13
f 698/13/2 693/13/2 700/13/2 699/13/2
f 696/3/2 698/2/2 699/2/2 702/3/2
f 694/3/2 696/3/2 702/3/2 701/3/2
f 706/3/1 703/2/1 704/2/1 705/3/1
f 700/2/14 701/3/14 705/3/14 704/2/14
f 701/3/5 702/3/5 706/3/5 705/3/5
f 699/13/6 700/13/6 704/13/6 703/13/6
f 710/6/4 707/5/4 708/5/4 709/6/4
f 692/6/6 695/6/6 710/6/6 709/6/6
f 697/5/5 691/5/5 708/5/5 707/5/5
f 691/5/15 692/6/15 709/6/15 708/5/15
f 711/1/7 712/2/7 714/3/7 713/4/7
f 713/4/8 714/3/8 718/5/8 717/8/8
f 718/5/2 716/6/2 722/6/2 719/5/2
f 715/9/9 716/6/9 712/13/9 711/14/9
f 713/7/3 717/8/3 715/9/3 711/10/3
f 716/6/4 718/5/4 725/5/4 726/6/4
f 720/8/4 719/5/4 722/6/4 721/9/4
f 717/8/10 718/5/10 719/5/10 720/8/10
f 716/6/11 715/9/11 721/9/11 722/6/11
f 715/9/2 717/8/2 720/8/2 721/9/2
f 725/5/2 724/11/2 723/12/2 726/6/2
f 714/3/1 712/2/1 723/2/1 724/3/1
f 712/13/6 716/6/6 726/6/6 723/13/6
f 718/5/5 714/3/5 724/3/5 725/5/5
f 727/1/7 728/2/7 730/3/7 729/4/7
f 729/4/8 730/3/8 734/5/8 733/8/8
f 734/5/2 732/6/2 738/6/2 735/5/2
f 731/9/9 732/6/9 728/13/9 727/14/9
f 729/7/3 733/8/3 731/9/3 727/10/3
f 732/6/4 734/5/4 741/5/4 742/6/4
f 736/8/4 735/5/4 738/6/4 737/9/4
f 733/8/10 734/5/10 735/5/10 736/8/10
f 732/6/11 731/9/11 737/9/11 738/6/11
f 731/9/2 733/8/2 736/8/2 737/9/2
f 741/5/2 740/11/2 739/12/2 742/6/2
f 730/3/1 728/2/1 739/2/1 740/3/1
f 728/13/6 732/6/6 742/6/6 739/13/6
f 734/5/5 730/3/5 740/3/5 741/5/5
f 743/1/7 744/2/7 746/3/7 745/4/7
f 745/4/8 746/3/8 750/5/8 749/8/8
f 750/5/2 748/6/2 754/6/2 751/5/2
f 747/9/9 748/6/9 744/13/9 743/14/9
f 745/7/3 749/8/3 747/9/3 743/10/3
f 748/6/4 750/5/4 757/5/4 758/6/4
f 752/8/4 751/5/4 754/6/4 753/9/4
f 749/8/10 750/5/10 751/5/10 752/8/10
f 748/6/11 747/9/11 753/9/11 754/6/11
f 747/9/2 749/8/2 752/8/2 753/9/2
f 757/5/2 756/11/2 755/12/2 758/6/2
f 746/3/1 744/2/1 755/2/1 756/3/1
f 744/13/6 748/6/6 758/6/6 755/13/6
f 750/5/5 746/3/5 756/3/5 757/5/5
f 759/1/7 760/2/7 762/3/7 761/4/7
f 761/4/8 762/3/8 766/5/8 765/8/8
f 766/5/2 764/6/2 770/6/2 767/5/2
f 763/9/9 764/6/9 760/13/9 759/14/9
f 761/7/3 765/8/3 763/9/3 759/10/3
f 764/6/4 766/5/4 773/5/4 774/6/4
f 768/8/4 767/5/4 770/6/4 769/9/4
f 765/8/10 766/5/10 767/5/10 768/8/10
f 764/6/11 763/9/11 769/9/11 770/6/11
f 763/9/2 765/8/2 768/8/2 769/9/2
f 773/5/2 772/11/2 771/12/2 774/6/2
f 762/3/1 760/2/1 771/2/1 772/3/1
f 760/13/6 764/6/6 774/6/6 771/13/6
f 766/5/5 762/3/5 772/3/5 773/5/5
f 775/1/7 776/2/7 778/3/7 777/4/7
f 777/4/8 778/3/8 782/5/8 781/8/8
f 782/5/2 780/6/2 786/6/2 783/5/2
f 779/9/9 780/6/9 776/13/9 775/14/9
f 777/7/3 781/8/3 779/9/3 775/10/3
f 780/6/4 782/5/4 789/5/4 790/6/4
f 784/8/4 783/5/4 786/6/4 785/9/4
f 781/8/10 782/5/10 783/5/10 784/8/10
f 780/6/11 779/9/11 785/9/11 786/6/11
f 779/9/2 781/8/2 784/8/2 785/9/2
f 796/6/4 795/5/4 793/5/4 794/6/4
f 778/3/1 776/2/1 787/2/1 788/3/1
f 776/13/6 780/6/6 790/6/6 787/13/6
f 782/5/5 778/3/5 788/3/5 789/5/5
f 793/5/2 792/11/2 791/12/2 794/6/2
f 798/3/1 797/2/1 791/2/1 792/3/1
f 797/13/6 796/6/6 794/6/6 791/13/6
f 795/5/5 798/3/5 792/3/5 793/5/5
f 801/5/5 800/3/5 798/3/5 795/5/5
f 802/13/6 799/6/6 796/6/6 797/13/6
f 797/2/2 798/3/2 805/3/2 804/2/2
f 799/6/12 801/5/12 811/5/12 814/6/12
f 790/6/4 789/5/4 801/5/4 799/6/4
f 788/3/1 787/2/1 802/2/1 800/3/1
f 787/13/6 790/6/6 799/6/6 802/13/6
f 789/5/5 788/3/5 800/3/5 801/5/5
f 806/3/13 803/2/13 807/2/13 810/3/13
f 802/13/2 797/13/2 804/13/2 803/13/2
f 800/3/2 802/2/2 803/2/2 806/3/2
f 798/3/2 800/3/2 806/3/2 805/3/2
f 810/3/1 807/2/1 808/2/1 809/3/1
f 804/2/14 805/3/14 809/3/14 808/2/14
f 805/3/5 806/3/5 810/3/5 809/3/5
f 803/13/6 804/13/6 808/13/6 807/13/6
f 814/6/4 811/5/4 812/5/4 813/6/4
f 796/6/6 799/6/6 814/6/6 813/6/6
f 801/5/5 795/5/5 812/5/5 811/5/5
f 795/5/15 796/6/15 813/6/15 812/5/15
f 815/1/7 816/2/7 818/3/7 817/4/7
f 817/4/8 818/3/8 822/5/8 821/8/8
f 822/5/2 820/6/2 826/6/2 823/5/2
f 819/9/9 820/6/9 816/13/9 815/14/9
f 817/7/3 821/8/3 819/9/3 815/10/3
f 820/6/4 822/5/4 829/5/4 830/6/4
f 824/8/4 823/5/4 826/6/4 825/9/4
f 821/8/10 822/5/10 823/5/10 824/8/10
f 820/6/11 819/9/11 825/9/11 826/6/11
f 819/9/2 821/8/2 824/8/2 825/9/2
f 829/5/2 828/11/2 827/12/2 830/6/2
f 818/3/1 816/2/1 827/2/1 828/3/1
f 816/13/6 820/6/6 830/6/6 827/13/6
f 822/5/5 818/3/5 828/3/5 829/5/5
f 831/1/7 832/2/7 834/3/7 833/4/7
f 833/4/8 834/3/8 838/5/8 837/8/8
f 838/5/2 836/6/2 842/6/2 839/5/2
f 835/9/9 836/6/9 832/13/9 831/14/9
f 833/7/3 837/8/3 835/9/3 831/10/3
f 836/6/4 838/5/4 845/5/4 846/6/4
f 840/8/4 839/5/4 842/6/4 841/9/4
f 837/8/10 838/5/10 839/5/10 840/8/10
f 836/6/11 835/9/11 841/9/11 842/6/11
f 835/9/2 837/8/2 840/8/2 841/9/2
f 852/6/4 851/5/4 849/5/4 850/6/4
f 834/3/1 832/2/1 843/2/1 844/3/1
f 832/13/6 836/6/6 846/6/6 843/13/6
f 838/5/5 834/3/5 844/3/5 845/5/5
f 849/5/2 848/11/2 847/12/2 850/6/2
f 854/3/1 853/2/1 847/2/1 848/3/1
f 853/13/6 852/6/6 850/6/6 847/13/6
f 851/5/5 854/3/5 848/3/5 849/5/5
f 857/5/5 856/3/5 854/3/5 851/5/5
f 858/13/6 855/6/6 852/6/6 853/13/6
f 853/2/2 854/3/2 861/3/2 860/2/2
f 855/6/12 857/5/12 867/5/12 870/6/12
f 846/6/4 845/5/4 857/5/4 855/6/4
f 844/3/1 843/2/1 858/2/1 856/3/1
f 843/13/6 846/6/6 855/6/6 858/13/6
f 845/5/5 844/3/5 856/3/5 857/5/5
f 862/3/13 859/2/13 863/2/13 866/3/13
f 858/13/2 853/13/2 860/13/2 859/13/2
f 856/3/2 858/2/2 859/2/2 862/3/2
f 854/3/2 856/3/2 862/3/2 861/3/2
f 866/3/1 863/2/1 864/2/1 865/3/1
f 860/2/14 861/3/14 865/3/14 864/2/14
f 861/3/5 862/3/5 866/3/5 865/3/5
f 859/13/6 860/13/6 864/13/6 863/13/6
f 870/6/4 867/5/4 868/5/4 869/6/4
f 852/6/6 855/6/6 870/6/6 869/6/6
f 857/5/5 851/5/5 868/5/5 867/5/5
f 851/5/15 852/6/15 869/6/15 868/5/15
f 871/1/7 872/2/7 874/3/7 873/4/7
f 873/4/8 874/3/8 878/5/8 877/8/8
f 878/5/2 876/6/2 882/6/2 879/5/2
f 875/9/9 876/6/9 872/13/9 871/14/9
f 873/7/3 877/8/3 875/9/3 871/10/3
f 876/6/4 878/5/4 885/5/4 886/6/4
f 880/8/4 879/5/4 882/6/4 881/9/4
f 877/8/10 878/5/10 879/5/10 880/8/10
f 876/6/11 875/9/11 881/9/11 882/6/11
f 875/9/2 877/8/2 880/8/2 881/9/2
f 885/5/2 884/11/2 883/12/2 886/6/2
f 874/3/1 872/2/1 883/2/1 884/3/1
f 872/13/6 876/6/6 886/6/6 883/13/6
f 878/5/5 874/3/5 884/3/5 885/5/5
